G04 #@! TF.GenerationSoftware,KiCad,Pcbnew,5.1.5*
G04 #@! TF.CreationDate,2020-04-06T18:02:31-07:00*
G04 #@! TF.ProjectId,keyboard,6b657962-6f61-4726-942e-6b696361645f,rev?*
G04 #@! TF.SameCoordinates,Original*
G04 #@! TF.FileFunction,Legend,Bot*
G04 #@! TF.FilePolarity,Positive*
%FSLAX46Y46*%
G04 Gerber Fmt 4.6, Leading zero omitted, Abs format (unit mm)*
G04 Created by KiCad (PCBNEW 5.1.5) date 2020-04-06 18:02:31*
%MOMM*%
%LPD*%
G04 APERTURE LIST*
%ADD10C,0.120000*%
%ADD11C,0.200000*%
%ADD12C,0.127000*%
%ADD13C,0.150000*%
%ADD14C,0.015000*%
G04 APERTURE END LIST*
D10*
X156627110Y-62910850D02*
X152727110Y-62910850D01*
X156627110Y-59910850D02*
X152727110Y-59910850D01*
X156627110Y-60710850D02*
X156627110Y-59910850D01*
X91376000Y-156039350D02*
X90086000Y-156039350D01*
X91376000Y-156489350D02*
X91376000Y-156039350D01*
X91826000Y-156489350D02*
X91376000Y-156489350D01*
X98596000Y-156489350D02*
X98596000Y-156039350D01*
X98146000Y-156489350D02*
X98596000Y-156489350D01*
X91376000Y-149269350D02*
X91376000Y-149719350D01*
X91826000Y-149269350D02*
X91376000Y-149269350D01*
X98596000Y-149269350D02*
X98596000Y-149719350D01*
X98146000Y-149269350D02*
X98596000Y-149269350D01*
D11*
X104045860Y-92906850D02*
G75*
G03X104045860Y-92906850I-100000J0D01*
G01*
X86445860Y-64966850D02*
G75*
G03X86445860Y-64966850I-100000J0D01*
G01*
D12*
X86255860Y-48456850D02*
G75*
G03X83715860Y-50996850I0J-2540000D01*
G01*
X104035860Y-48456850D02*
X86255860Y-48456850D01*
X106575860Y-50996850D02*
G75*
G03X104035860Y-48456850I-2540000J0D01*
G01*
X106575860Y-96716850D02*
X106575860Y-50996850D01*
X104035860Y-99256850D02*
G75*
G03X106575860Y-96716850I0J2540000D01*
G01*
X86255860Y-99256850D02*
X104035860Y-99256850D01*
X83715860Y-96716850D02*
G75*
G03X86255860Y-99256850I2540000J0D01*
G01*
X83715860Y-50996850D02*
X83715860Y-96716850D01*
D11*
X124139610Y-48844350D02*
X118339610Y-48844350D01*
X124139610Y-51244350D02*
X124139610Y-48844350D01*
X118339610Y-51244350D02*
X124139610Y-51244350D01*
X118414610Y-51244350D02*
X118414610Y-48844350D01*
X118539610Y-51244350D02*
X118539610Y-48844350D01*
X118314610Y-48844350D02*
X118314610Y-51244350D01*
X118714610Y-51244350D02*
X118714610Y-48844350D01*
X118889610Y-51244350D02*
X118889610Y-48844350D01*
X119064610Y-51244350D02*
X119064610Y-48844350D01*
X152714610Y-48844350D02*
X146914610Y-48844350D01*
X152714610Y-51244350D02*
X152714610Y-48844350D01*
X146914610Y-51244350D02*
X152714610Y-51244350D01*
X146989610Y-51244350D02*
X146989610Y-48844350D01*
X147114610Y-51244350D02*
X147114610Y-48844350D01*
X146889610Y-48844350D02*
X146889610Y-51244350D01*
X147289610Y-51244350D02*
X147289610Y-48844350D01*
X147464610Y-51244350D02*
X147464610Y-48844350D01*
X147639610Y-51244350D02*
X147639610Y-48844350D01*
X171764610Y-48844350D02*
X165964610Y-48844350D01*
X171764610Y-51244350D02*
X171764610Y-48844350D01*
X165964610Y-51244350D02*
X171764610Y-51244350D01*
X166039610Y-51244350D02*
X166039610Y-48844350D01*
X166164610Y-51244350D02*
X166164610Y-48844350D01*
X165939610Y-48844350D02*
X165939610Y-51244350D01*
X166339610Y-51244350D02*
X166339610Y-48844350D01*
X166514610Y-51244350D02*
X166514610Y-48844350D01*
X166689610Y-51244350D02*
X166689610Y-48844350D01*
X190814610Y-48844350D02*
X185014610Y-48844350D01*
X190814610Y-51244350D02*
X190814610Y-48844350D01*
X185014610Y-51244350D02*
X190814610Y-51244350D01*
X185089610Y-51244350D02*
X185089610Y-48844350D01*
X185214610Y-51244350D02*
X185214610Y-48844350D01*
X184989610Y-48844350D02*
X184989610Y-51244350D01*
X185389610Y-51244350D02*
X185389610Y-48844350D01*
X185564610Y-51244350D02*
X185564610Y-48844350D01*
X185739610Y-51244350D02*
X185739610Y-48844350D01*
X209864610Y-48844350D02*
X204064610Y-48844350D01*
X209864610Y-51244350D02*
X209864610Y-48844350D01*
X204064610Y-51244350D02*
X209864610Y-51244350D01*
X204139610Y-51244350D02*
X204139610Y-48844350D01*
X204264610Y-51244350D02*
X204264610Y-48844350D01*
X204039610Y-48844350D02*
X204039610Y-51244350D01*
X204439610Y-51244350D02*
X204439610Y-48844350D01*
X204614610Y-51244350D02*
X204614610Y-48844350D01*
X204789610Y-51244350D02*
X204789610Y-48844350D01*
X228914610Y-48844350D02*
X223114610Y-48844350D01*
X228914610Y-51244350D02*
X228914610Y-48844350D01*
X223114610Y-51244350D02*
X228914610Y-51244350D01*
X223189610Y-51244350D02*
X223189610Y-48844350D01*
X223314610Y-51244350D02*
X223314610Y-48844350D01*
X223089610Y-48844350D02*
X223089610Y-51244350D01*
X223489610Y-51244350D02*
X223489610Y-48844350D01*
X223664610Y-51244350D02*
X223664610Y-48844350D01*
X223839610Y-51244350D02*
X223839610Y-48844350D01*
X152714610Y-67894350D02*
X146914610Y-67894350D01*
X152714610Y-70294350D02*
X152714610Y-67894350D01*
X146914610Y-70294350D02*
X152714610Y-70294350D01*
X146989610Y-70294350D02*
X146989610Y-67894350D01*
X147114610Y-70294350D02*
X147114610Y-67894350D01*
X146889610Y-67894350D02*
X146889610Y-70294350D01*
X147289610Y-70294350D02*
X147289610Y-67894350D01*
X147464610Y-70294350D02*
X147464610Y-67894350D01*
X147639610Y-70294350D02*
X147639610Y-67894350D01*
X171764610Y-67894350D02*
X165964610Y-67894350D01*
X171764610Y-70294350D02*
X171764610Y-67894350D01*
X165964610Y-70294350D02*
X171764610Y-70294350D01*
X166039610Y-70294350D02*
X166039610Y-67894350D01*
X166164610Y-70294350D02*
X166164610Y-67894350D01*
X165939610Y-67894350D02*
X165939610Y-70294350D01*
X166339610Y-70294350D02*
X166339610Y-67894350D01*
X166514610Y-70294350D02*
X166514610Y-67894350D01*
X166689610Y-70294350D02*
X166689610Y-67894350D01*
X228914610Y-67894350D02*
X223114610Y-67894350D01*
X228914610Y-70294350D02*
X228914610Y-67894350D01*
X223114610Y-70294350D02*
X228914610Y-70294350D01*
X223189610Y-70294350D02*
X223189610Y-67894350D01*
X223314610Y-70294350D02*
X223314610Y-67894350D01*
X223089610Y-67894350D02*
X223089610Y-70294350D01*
X223489610Y-70294350D02*
X223489610Y-67894350D01*
X223664610Y-70294350D02*
X223664610Y-67894350D01*
X223839610Y-70294350D02*
X223839610Y-67894350D01*
X124139610Y-86944350D02*
X118339610Y-86944350D01*
X124139610Y-89344350D02*
X124139610Y-86944350D01*
X118339610Y-89344350D02*
X124139610Y-89344350D01*
X118414610Y-89344350D02*
X118414610Y-86944350D01*
X118539610Y-89344350D02*
X118539610Y-86944350D01*
X118314610Y-86944350D02*
X118314610Y-89344350D01*
X118714610Y-89344350D02*
X118714610Y-86944350D01*
X118889610Y-89344350D02*
X118889610Y-86944350D01*
X119064610Y-89344350D02*
X119064610Y-86944350D01*
X152714610Y-86944350D02*
X146914610Y-86944350D01*
X152714610Y-89344350D02*
X152714610Y-86944350D01*
X146914610Y-89344350D02*
X152714610Y-89344350D01*
X146989610Y-89344350D02*
X146989610Y-86944350D01*
X147114610Y-89344350D02*
X147114610Y-86944350D01*
X146889610Y-86944350D02*
X146889610Y-89344350D01*
X147289610Y-89344350D02*
X147289610Y-86944350D01*
X147464610Y-89344350D02*
X147464610Y-86944350D01*
X147639610Y-89344350D02*
X147639610Y-86944350D01*
X171764610Y-86944350D02*
X165964610Y-86944350D01*
X171764610Y-89344350D02*
X171764610Y-86944350D01*
X165964610Y-89344350D02*
X171764610Y-89344350D01*
X166039610Y-89344350D02*
X166039610Y-86944350D01*
X166164610Y-89344350D02*
X166164610Y-86944350D01*
X165939610Y-86944350D02*
X165939610Y-89344350D01*
X166339610Y-89344350D02*
X166339610Y-86944350D01*
X166514610Y-89344350D02*
X166514610Y-86944350D01*
X166689610Y-89344350D02*
X166689610Y-86944350D01*
X190814610Y-86944350D02*
X185014610Y-86944350D01*
X190814610Y-89344350D02*
X190814610Y-86944350D01*
X185014610Y-89344350D02*
X190814610Y-89344350D01*
X185089610Y-89344350D02*
X185089610Y-86944350D01*
X185214610Y-89344350D02*
X185214610Y-86944350D01*
X184989610Y-86944350D02*
X184989610Y-89344350D01*
X185389610Y-89344350D02*
X185389610Y-86944350D01*
X185564610Y-89344350D02*
X185564610Y-86944350D01*
X185739610Y-89344350D02*
X185739610Y-86944350D01*
X209864610Y-86944350D02*
X204064610Y-86944350D01*
X209864610Y-89344350D02*
X209864610Y-86944350D01*
X204064610Y-89344350D02*
X209864610Y-89344350D01*
X204139610Y-89344350D02*
X204139610Y-86944350D01*
X204264610Y-89344350D02*
X204264610Y-86944350D01*
X204039610Y-86944350D02*
X204039610Y-89344350D01*
X204439610Y-89344350D02*
X204439610Y-86944350D01*
X204614610Y-89344350D02*
X204614610Y-86944350D01*
X204789610Y-89344350D02*
X204789610Y-86944350D01*
X124139610Y-105994350D02*
X118339610Y-105994350D01*
X124139610Y-108394350D02*
X124139610Y-105994350D01*
X118339610Y-108394350D02*
X124139610Y-108394350D01*
X118414610Y-108394350D02*
X118414610Y-105994350D01*
X118539610Y-108394350D02*
X118539610Y-105994350D01*
X118314610Y-105994350D02*
X118314610Y-108394350D01*
X118714610Y-108394350D02*
X118714610Y-105994350D01*
X118889610Y-108394350D02*
X118889610Y-105994350D01*
X119064610Y-108394350D02*
X119064610Y-105994350D01*
X152714610Y-105994350D02*
X146914610Y-105994350D01*
X152714610Y-108394350D02*
X152714610Y-105994350D01*
X146914610Y-108394350D02*
X152714610Y-108394350D01*
X146989610Y-108394350D02*
X146989610Y-105994350D01*
X147114610Y-108394350D02*
X147114610Y-105994350D01*
X146889610Y-105994350D02*
X146889610Y-108394350D01*
X147289610Y-108394350D02*
X147289610Y-105994350D01*
X147464610Y-108394350D02*
X147464610Y-105994350D01*
X147639610Y-108394350D02*
X147639610Y-105994350D01*
X171764610Y-105994350D02*
X165964610Y-105994350D01*
X171764610Y-108394350D02*
X171764610Y-105994350D01*
X165964610Y-108394350D02*
X171764610Y-108394350D01*
X166039610Y-108394350D02*
X166039610Y-105994350D01*
X166164610Y-108394350D02*
X166164610Y-105994350D01*
X165939610Y-105994350D02*
X165939610Y-108394350D01*
X166339610Y-108394350D02*
X166339610Y-105994350D01*
X166514610Y-108394350D02*
X166514610Y-105994350D01*
X166689610Y-108394350D02*
X166689610Y-105994350D01*
X171764610Y-144094350D02*
X165964610Y-144094350D01*
X171764610Y-146494350D02*
X171764610Y-144094350D01*
X165964610Y-146494350D02*
X171764610Y-146494350D01*
X166039610Y-146494350D02*
X166039610Y-144094350D01*
X166164610Y-146494350D02*
X166164610Y-144094350D01*
X165939610Y-144094350D02*
X165939610Y-146494350D01*
X166339610Y-146494350D02*
X166339610Y-144094350D01*
X166514610Y-146494350D02*
X166514610Y-144094350D01*
X166689610Y-146494350D02*
X166689610Y-144094350D01*
X124139610Y-67894350D02*
X118339610Y-67894350D01*
X124139610Y-70294350D02*
X124139610Y-67894350D01*
X118339610Y-70294350D02*
X124139610Y-70294350D01*
X118414610Y-70294350D02*
X118414610Y-67894350D01*
X118539610Y-70294350D02*
X118539610Y-67894350D01*
X118314610Y-67894350D02*
X118314610Y-70294350D01*
X118714610Y-70294350D02*
X118714610Y-67894350D01*
X118889610Y-70294350D02*
X118889610Y-67894350D01*
X119064610Y-70294350D02*
X119064610Y-67894350D01*
X190814610Y-67894350D02*
X185014610Y-67894350D01*
X190814610Y-70294350D02*
X190814610Y-67894350D01*
X185014610Y-70294350D02*
X190814610Y-70294350D01*
X185089610Y-70294350D02*
X185089610Y-67894350D01*
X185214610Y-70294350D02*
X185214610Y-67894350D01*
X184989610Y-67894350D02*
X184989610Y-70294350D01*
X185389610Y-70294350D02*
X185389610Y-67894350D01*
X185564610Y-70294350D02*
X185564610Y-67894350D01*
X185739610Y-70294350D02*
X185739610Y-67894350D01*
X209864610Y-67894350D02*
X204064610Y-67894350D01*
X209864610Y-70294350D02*
X209864610Y-67894350D01*
X204064610Y-70294350D02*
X209864610Y-70294350D01*
X204139610Y-70294350D02*
X204139610Y-67894350D01*
X204264610Y-70294350D02*
X204264610Y-67894350D01*
X204039610Y-67894350D02*
X204039610Y-70294350D01*
X204439610Y-70294350D02*
X204439610Y-67894350D01*
X204614610Y-70294350D02*
X204614610Y-67894350D01*
X204789610Y-70294350D02*
X204789610Y-67894350D01*
X228914610Y-86944350D02*
X223114610Y-86944350D01*
X228914610Y-89344350D02*
X228914610Y-86944350D01*
X223114610Y-89344350D02*
X228914610Y-89344350D01*
X223189610Y-89344350D02*
X223189610Y-86944350D01*
X223314610Y-89344350D02*
X223314610Y-86944350D01*
X223089610Y-86944350D02*
X223089610Y-89344350D01*
X223489610Y-89344350D02*
X223489610Y-86944350D01*
X223664610Y-89344350D02*
X223664610Y-86944350D01*
X223839610Y-89344350D02*
X223839610Y-86944350D01*
X190814610Y-105994350D02*
X185014610Y-105994350D01*
X190814610Y-108394350D02*
X190814610Y-105994350D01*
X185014610Y-108394350D02*
X190814610Y-108394350D01*
X185089610Y-108394350D02*
X185089610Y-105994350D01*
X185214610Y-108394350D02*
X185214610Y-105994350D01*
X184989610Y-105994350D02*
X184989610Y-108394350D01*
X185389610Y-108394350D02*
X185389610Y-105994350D01*
X185564610Y-108394350D02*
X185564610Y-105994350D01*
X185739610Y-108394350D02*
X185739610Y-105994350D01*
X209864610Y-105994350D02*
X204064610Y-105994350D01*
X209864610Y-108394350D02*
X209864610Y-105994350D01*
X204064610Y-108394350D02*
X209864610Y-108394350D01*
X204139610Y-108394350D02*
X204139610Y-105994350D01*
X204264610Y-108394350D02*
X204264610Y-105994350D01*
X204039610Y-105994350D02*
X204039610Y-108394350D01*
X204439610Y-108394350D02*
X204439610Y-105994350D01*
X204614610Y-108394350D02*
X204614610Y-105994350D01*
X204789610Y-108394350D02*
X204789610Y-105994350D01*
X228914610Y-105994350D02*
X223114610Y-105994350D01*
X228914610Y-108394350D02*
X228914610Y-105994350D01*
X223114610Y-108394350D02*
X228914610Y-108394350D01*
X223189610Y-108394350D02*
X223189610Y-105994350D01*
X223314610Y-108394350D02*
X223314610Y-105994350D01*
X223089610Y-105994350D02*
X223089610Y-108394350D01*
X223489610Y-108394350D02*
X223489610Y-105994350D01*
X223664610Y-108394350D02*
X223664610Y-105994350D01*
X223839610Y-108394350D02*
X223839610Y-105994350D01*
X124139610Y-125044350D02*
X118339610Y-125044350D01*
X124139610Y-127444350D02*
X124139610Y-125044350D01*
X118339610Y-127444350D02*
X124139610Y-127444350D01*
X118414610Y-127444350D02*
X118414610Y-125044350D01*
X118539610Y-127444350D02*
X118539610Y-125044350D01*
X118314610Y-125044350D02*
X118314610Y-127444350D01*
X118714610Y-127444350D02*
X118714610Y-125044350D01*
X118889610Y-127444350D02*
X118889610Y-125044350D01*
X119064610Y-127444350D02*
X119064610Y-125044350D01*
X152714610Y-125044350D02*
X146914610Y-125044350D01*
X152714610Y-127444350D02*
X152714610Y-125044350D01*
X146914610Y-127444350D02*
X152714610Y-127444350D01*
X146989610Y-127444350D02*
X146989610Y-125044350D01*
X147114610Y-127444350D02*
X147114610Y-125044350D01*
X146889610Y-125044350D02*
X146889610Y-127444350D01*
X147289610Y-127444350D02*
X147289610Y-125044350D01*
X147464610Y-127444350D02*
X147464610Y-125044350D01*
X147639610Y-127444350D02*
X147639610Y-125044350D01*
X171764610Y-125044350D02*
X165964610Y-125044350D01*
X171764610Y-127444350D02*
X171764610Y-125044350D01*
X165964610Y-127444350D02*
X171764610Y-127444350D01*
X166039610Y-127444350D02*
X166039610Y-125044350D01*
X166164610Y-127444350D02*
X166164610Y-125044350D01*
X165939610Y-125044350D02*
X165939610Y-127444350D01*
X166339610Y-127444350D02*
X166339610Y-125044350D01*
X166514610Y-127444350D02*
X166514610Y-125044350D01*
X166689610Y-127444350D02*
X166689610Y-125044350D01*
X190814610Y-125044350D02*
X185014610Y-125044350D01*
X190814610Y-127444350D02*
X190814610Y-125044350D01*
X185014610Y-127444350D02*
X190814610Y-127444350D01*
X185089610Y-127444350D02*
X185089610Y-125044350D01*
X185214610Y-127444350D02*
X185214610Y-125044350D01*
X184989610Y-125044350D02*
X184989610Y-127444350D01*
X185389610Y-127444350D02*
X185389610Y-125044350D01*
X185564610Y-127444350D02*
X185564610Y-125044350D01*
X185739610Y-127444350D02*
X185739610Y-125044350D01*
X209864610Y-125044350D02*
X204064610Y-125044350D01*
X209864610Y-127444350D02*
X209864610Y-125044350D01*
X204064610Y-127444350D02*
X209864610Y-127444350D01*
X204139610Y-127444350D02*
X204139610Y-125044350D01*
X204264610Y-127444350D02*
X204264610Y-125044350D01*
X204039610Y-125044350D02*
X204039610Y-127444350D01*
X204439610Y-127444350D02*
X204439610Y-125044350D01*
X204614610Y-127444350D02*
X204614610Y-125044350D01*
X204789610Y-127444350D02*
X204789610Y-125044350D01*
X228914610Y-125044350D02*
X223114610Y-125044350D01*
X228914610Y-127444350D02*
X228914610Y-125044350D01*
X223114610Y-127444350D02*
X228914610Y-127444350D01*
X223189610Y-127444350D02*
X223189610Y-125044350D01*
X223314610Y-127444350D02*
X223314610Y-125044350D01*
X223089610Y-125044350D02*
X223089610Y-127444350D01*
X223489610Y-127444350D02*
X223489610Y-125044350D01*
X223664610Y-127444350D02*
X223664610Y-125044350D01*
X223839610Y-127444350D02*
X223839610Y-125044350D01*
X124139610Y-144094350D02*
X118339610Y-144094350D01*
X124139610Y-146494350D02*
X124139610Y-144094350D01*
X118339610Y-146494350D02*
X124139610Y-146494350D01*
X118414610Y-146494350D02*
X118414610Y-144094350D01*
X118539610Y-146494350D02*
X118539610Y-144094350D01*
X118314610Y-144094350D02*
X118314610Y-146494350D01*
X118714610Y-146494350D02*
X118714610Y-144094350D01*
X118889610Y-146494350D02*
X118889610Y-144094350D01*
X119064610Y-146494350D02*
X119064610Y-144094350D01*
X152714610Y-144094350D02*
X146914610Y-144094350D01*
X152714610Y-146494350D02*
X152714610Y-144094350D01*
X146914610Y-146494350D02*
X152714610Y-146494350D01*
X146989610Y-146494350D02*
X146989610Y-144094350D01*
X147114610Y-146494350D02*
X147114610Y-144094350D01*
X146889610Y-144094350D02*
X146889610Y-146494350D01*
X147289610Y-146494350D02*
X147289610Y-144094350D01*
X147464610Y-146494350D02*
X147464610Y-144094350D01*
X147639610Y-146494350D02*
X147639610Y-144094350D01*
X200339610Y-144094350D02*
X194539610Y-144094350D01*
X200339610Y-146494350D02*
X200339610Y-144094350D01*
X194539610Y-146494350D02*
X200339610Y-146494350D01*
X194614610Y-146494350D02*
X194614610Y-144094350D01*
X194739610Y-146494350D02*
X194739610Y-144094350D01*
X194514610Y-144094350D02*
X194514610Y-146494350D01*
X194914610Y-146494350D02*
X194914610Y-144094350D01*
X195089610Y-146494350D02*
X195089610Y-144094350D01*
X195264610Y-146494350D02*
X195264610Y-144094350D01*
X228914610Y-144094350D02*
X223114610Y-144094350D01*
X228914610Y-146494350D02*
X228914610Y-144094350D01*
X223114610Y-146494350D02*
X228914610Y-146494350D01*
X223189610Y-146494350D02*
X223189610Y-144094350D01*
X223314610Y-146494350D02*
X223314610Y-144094350D01*
X223089610Y-144094350D02*
X223089610Y-146494350D01*
X223489610Y-146494350D02*
X223489610Y-144094350D01*
X223664610Y-146494350D02*
X223664610Y-144094350D01*
X223839610Y-146494350D02*
X223839610Y-144094350D01*
D10*
X91066252Y-106120000D02*
X90543748Y-106120000D01*
X91066252Y-104700000D02*
X90543748Y-104700000D01*
X91066252Y-101675000D02*
X90543748Y-101675000D01*
X91066252Y-100255000D02*
X90543748Y-100255000D01*
X91066252Y-110565000D02*
X90543748Y-110565000D01*
X91066252Y-109145000D02*
X90543748Y-109145000D01*
X96781252Y-101675000D02*
X96258748Y-101675000D01*
X96781252Y-100255000D02*
X96258748Y-100255000D01*
X105783748Y-161215000D02*
X106306252Y-161215000D01*
X105783748Y-162635000D02*
X106306252Y-162635000D01*
X101973748Y-161215000D02*
X102496252Y-161215000D01*
X101973748Y-162635000D02*
X102496252Y-162635000D01*
X98163748Y-161215000D02*
X98686252Y-161215000D01*
X98163748Y-162635000D02*
X98686252Y-162635000D01*
X94353748Y-161215000D02*
X94876252Y-161215000D01*
X94353748Y-162635000D02*
X94876252Y-162635000D01*
X90543748Y-161215000D02*
X91066252Y-161215000D01*
X90543748Y-162635000D02*
X91066252Y-162635000D01*
X86733748Y-161215000D02*
X87256252Y-161215000D01*
X86733748Y-162635000D02*
X87256252Y-162635000D01*
X82923748Y-161215000D02*
X83446252Y-161215000D01*
X82923748Y-162635000D02*
X83446252Y-162635000D01*
X128052110Y-62910850D02*
X124152110Y-62910850D01*
X128052110Y-59910850D02*
X124152110Y-59910850D01*
X128052110Y-60710850D02*
X128052110Y-59910850D01*
X175677110Y-62910850D02*
X171777110Y-62910850D01*
X175677110Y-59910850D02*
X171777110Y-59910850D01*
X175677110Y-60710850D02*
X175677110Y-59910850D01*
X194727110Y-63037850D02*
X190827110Y-63037850D01*
X194727110Y-60037850D02*
X190827110Y-60037850D01*
X194727110Y-60837850D02*
X194727110Y-60037850D01*
X213777110Y-63037850D02*
X209877110Y-63037850D01*
X213777110Y-60037850D02*
X209877110Y-60037850D01*
X213777110Y-60837850D02*
X213777110Y-60037850D01*
X232827110Y-62910850D02*
X228927110Y-62910850D01*
X232827110Y-59910850D02*
X228927110Y-59910850D01*
X232827110Y-60710850D02*
X232827110Y-59910850D01*
X128052110Y-81960850D02*
X124152110Y-81960850D01*
X128052110Y-78960850D02*
X124152110Y-78960850D01*
X128052110Y-79760850D02*
X128052110Y-78960850D01*
X156627110Y-81960850D02*
X152727110Y-81960850D01*
X156627110Y-78960850D02*
X152727110Y-78960850D01*
X156627110Y-79760850D02*
X156627110Y-78960850D01*
X175677110Y-81960850D02*
X171777110Y-81960850D01*
X175677110Y-78960850D02*
X171777110Y-78960850D01*
X175677110Y-79760850D02*
X175677110Y-78960850D01*
X194727110Y-81960850D02*
X190827110Y-81960850D01*
X194727110Y-78960850D02*
X190827110Y-78960850D01*
X194727110Y-79760850D02*
X194727110Y-78960850D01*
X213777110Y-81960850D02*
X209877110Y-81960850D01*
X213777110Y-78960850D02*
X209877110Y-78960850D01*
X213777110Y-79760850D02*
X213777110Y-78960850D01*
X232827110Y-81960850D02*
X228927110Y-81960850D01*
X232827110Y-78960850D02*
X228927110Y-78960850D01*
X232827110Y-79760850D02*
X232827110Y-78960850D01*
X128052110Y-101010850D02*
X124152110Y-101010850D01*
X128052110Y-98010850D02*
X124152110Y-98010850D01*
X128052110Y-98810850D02*
X128052110Y-98010850D01*
X156627110Y-101010850D02*
X152727110Y-101010850D01*
X156627110Y-98010850D02*
X152727110Y-98010850D01*
X156627110Y-98810850D02*
X156627110Y-98010850D01*
X175677110Y-101010850D02*
X171777110Y-101010850D01*
X175677110Y-98010850D02*
X171777110Y-98010850D01*
X175677110Y-98810850D02*
X175677110Y-98010850D01*
X194727110Y-101010850D02*
X190827110Y-101010850D01*
X194727110Y-98010850D02*
X190827110Y-98010850D01*
X194727110Y-98810850D02*
X194727110Y-98010850D01*
X213777110Y-101010850D02*
X209877110Y-101010850D01*
X213777110Y-98010850D02*
X209877110Y-98010850D01*
X213777110Y-98810850D02*
X213777110Y-98010850D01*
X232827110Y-101010850D02*
X228927110Y-101010850D01*
X232827110Y-98010850D02*
X228927110Y-98010850D01*
X232827110Y-98810850D02*
X232827110Y-98010850D01*
X128052110Y-120060850D02*
X124152110Y-120060850D01*
X128052110Y-117060850D02*
X124152110Y-117060850D01*
X128052110Y-117860850D02*
X128052110Y-117060850D01*
X156627110Y-120060850D02*
X152727110Y-120060850D01*
X156627110Y-117060850D02*
X152727110Y-117060850D01*
X156627110Y-117860850D02*
X156627110Y-117060850D01*
X175677110Y-120060850D02*
X171777110Y-120060850D01*
X175677110Y-117060850D02*
X171777110Y-117060850D01*
X175677110Y-117860850D02*
X175677110Y-117060850D01*
X213777110Y-120060850D02*
X209877110Y-120060850D01*
X213777110Y-117060850D02*
X209877110Y-117060850D01*
X213777110Y-117860850D02*
X213777110Y-117060850D01*
X232827110Y-120060850D02*
X228927110Y-120060850D01*
X232827110Y-117060850D02*
X228927110Y-117060850D01*
X232827110Y-117860850D02*
X232827110Y-117060850D01*
X128052110Y-139110850D02*
X124152110Y-139110850D01*
X128052110Y-136110850D02*
X124152110Y-136110850D01*
X128052110Y-136910850D02*
X128052110Y-136110850D01*
X156627110Y-139110850D02*
X152727110Y-139110850D01*
X156627110Y-136110850D02*
X152727110Y-136110850D01*
X156627110Y-136910850D02*
X156627110Y-136110850D01*
X175677110Y-139110850D02*
X171777110Y-139110850D01*
X175677110Y-136110850D02*
X171777110Y-136110850D01*
X175677110Y-136910850D02*
X175677110Y-136110850D01*
X194600110Y-139110850D02*
X190700110Y-139110850D01*
X194600110Y-136110850D02*
X190700110Y-136110850D01*
X194600110Y-136910850D02*
X194600110Y-136110850D01*
X213777110Y-139110850D02*
X209877110Y-139110850D01*
X213777110Y-136110850D02*
X209877110Y-136110850D01*
X213777110Y-136910850D02*
X213777110Y-136110850D01*
X232827110Y-139110850D02*
X228927110Y-139110850D01*
X232827110Y-136110850D02*
X228927110Y-136110850D01*
X232827110Y-136910850D02*
X232827110Y-136110850D01*
X128052110Y-158160850D02*
X124152110Y-158160850D01*
X128052110Y-155160850D02*
X124152110Y-155160850D01*
X128052110Y-155960850D02*
X128052110Y-155160850D01*
X156627110Y-158160850D02*
X152727110Y-158160850D01*
X156627110Y-155160850D02*
X152727110Y-155160850D01*
X156627110Y-155960850D02*
X156627110Y-155160850D01*
X175677110Y-158160850D02*
X171777110Y-158160850D01*
X175677110Y-155160850D02*
X171777110Y-155160850D01*
X175677110Y-155960850D02*
X175677110Y-155160850D01*
X193711110Y-153715850D02*
X189811110Y-153715850D01*
X193711110Y-150715850D02*
X189811110Y-150715850D01*
X193711110Y-151515850D02*
X193711110Y-150715850D01*
X214793110Y-153715850D02*
X210893110Y-153715850D01*
X214793110Y-150715850D02*
X210893110Y-150715850D01*
X214793110Y-151515850D02*
X214793110Y-150715850D01*
X232827110Y-158160850D02*
X228927110Y-158160850D01*
X232827110Y-155160850D02*
X228927110Y-155160850D01*
X232827110Y-155960850D02*
X232827110Y-155160850D01*
X96425300Y-116054000D02*
X92525300Y-116054000D01*
X96425300Y-113054000D02*
X92525300Y-113054000D01*
X96425300Y-113854000D02*
X96425300Y-113054000D01*
X96336400Y-135256400D02*
X92436400Y-135256400D01*
X96336400Y-132256400D02*
X92436400Y-132256400D01*
X96336400Y-133056400D02*
X96336400Y-132256400D01*
X104850000Y-154043748D02*
X104850000Y-154566252D01*
X103430000Y-154043748D02*
X103430000Y-154566252D01*
X86098748Y-157405000D02*
X86621252Y-157405000D01*
X86098748Y-158825000D02*
X86621252Y-158825000D01*
X194736000Y-120118000D02*
X190836000Y-120118000D01*
X194736000Y-117118000D02*
X190836000Y-117118000D01*
X194736000Y-117918000D02*
X194736000Y-117118000D01*
D11*
X60805900Y-51555500D02*
X60805900Y-49155500D01*
X60630900Y-51555500D02*
X60630900Y-49155500D01*
X60455900Y-51555500D02*
X60455900Y-49155500D01*
X60055900Y-49155500D02*
X60055900Y-51555500D01*
X60280900Y-51555500D02*
X60280900Y-49155500D01*
X60155900Y-51555500D02*
X60155900Y-49155500D01*
X60080900Y-51555500D02*
X65880900Y-51555500D01*
X65880900Y-51555500D02*
X65880900Y-49155500D01*
X65880900Y-49155500D02*
X60080900Y-49155500D01*
X66173000Y-68205500D02*
X60373000Y-68205500D01*
X66173000Y-70605500D02*
X66173000Y-68205500D01*
X60373000Y-70605500D02*
X66173000Y-70605500D01*
X60448000Y-70605500D02*
X60448000Y-68205500D01*
X60573000Y-70605500D02*
X60573000Y-68205500D01*
X60348000Y-68205500D02*
X60348000Y-70605500D01*
X60748000Y-70605500D02*
X60748000Y-68205500D01*
X60923000Y-70605500D02*
X60923000Y-68205500D01*
X61098000Y-70605500D02*
X61098000Y-68205500D01*
X61174200Y-89426900D02*
X61174200Y-87026900D01*
X60999200Y-89426900D02*
X60999200Y-87026900D01*
X60824200Y-89426900D02*
X60824200Y-87026900D01*
X60424200Y-87026900D02*
X60424200Y-89426900D01*
X60649200Y-89426900D02*
X60649200Y-87026900D01*
X60524200Y-89426900D02*
X60524200Y-87026900D01*
X60449200Y-89426900D02*
X66249200Y-89426900D01*
X66249200Y-89426900D02*
X66249200Y-87026900D01*
X66249200Y-87026900D02*
X60449200Y-87026900D01*
X65995200Y-106127700D02*
X60195200Y-106127700D01*
X65995200Y-108527700D02*
X65995200Y-106127700D01*
X60195200Y-108527700D02*
X65995200Y-108527700D01*
X60270200Y-108527700D02*
X60270200Y-106127700D01*
X60395200Y-108527700D02*
X60395200Y-106127700D01*
X60170200Y-106127700D02*
X60170200Y-108527700D01*
X60570200Y-108527700D02*
X60570200Y-106127700D01*
X60745200Y-108527700D02*
X60745200Y-106127700D01*
X60920200Y-108527700D02*
X60920200Y-106127700D01*
X66325400Y-125292000D02*
X60525400Y-125292000D01*
X66325400Y-127692000D02*
X66325400Y-125292000D01*
X60525400Y-127692000D02*
X66325400Y-127692000D01*
X60600400Y-127692000D02*
X60600400Y-125292000D01*
X60725400Y-127692000D02*
X60725400Y-125292000D01*
X60500400Y-125292000D02*
X60500400Y-127692000D01*
X60900400Y-127692000D02*
X60900400Y-125292000D01*
X61075400Y-127692000D02*
X61075400Y-125292000D01*
X61250400Y-127692000D02*
X61250400Y-125292000D01*
X61110700Y-146729300D02*
X61110700Y-144329300D01*
X60935700Y-146729300D02*
X60935700Y-144329300D01*
X60760700Y-146729300D02*
X60760700Y-144329300D01*
X60360700Y-144329300D02*
X60360700Y-146729300D01*
X60585700Y-146729300D02*
X60585700Y-144329300D01*
X60460700Y-146729300D02*
X60460700Y-144329300D01*
X60385700Y-146729300D02*
X66185700Y-146729300D01*
X66185700Y-146729300D02*
X66185700Y-144329300D01*
X66185700Y-144329300D02*
X60385700Y-144329300D01*
D10*
X69310800Y-62841000D02*
X65410800Y-62841000D01*
X69310800Y-59841000D02*
X65410800Y-59841000D01*
X69310800Y-60641000D02*
X69310800Y-59841000D01*
X69310800Y-79754500D02*
X69310800Y-78954500D01*
X69310800Y-78954500D02*
X65410800Y-78954500D01*
X69310800Y-81954500D02*
X65410800Y-81954500D01*
X69310800Y-101029900D02*
X65410800Y-101029900D01*
X69310800Y-98029900D02*
X65410800Y-98029900D01*
X69310800Y-98829900D02*
X69310800Y-98029900D01*
X69336200Y-117918000D02*
X69336200Y-117118000D01*
X69336200Y-117118000D02*
X65436200Y-117118000D01*
X69336200Y-120118000D02*
X65436200Y-120118000D01*
X69323500Y-136980700D02*
X69323500Y-136180700D01*
X69323500Y-136180700D02*
X65423500Y-136180700D01*
X69323500Y-139180700D02*
X65423500Y-139180700D01*
X69323500Y-158192600D02*
X65423500Y-158192600D01*
X69323500Y-155192600D02*
X65423500Y-155192600D01*
X69323500Y-155992600D02*
X69323500Y-155192600D01*
D13*
X157391395Y-59213230D02*
X157391395Y-58213230D01*
X157153300Y-58213230D01*
X157010443Y-58260850D01*
X156915205Y-58356088D01*
X156867586Y-58451326D01*
X156819967Y-58641802D01*
X156819967Y-58784659D01*
X156867586Y-58975135D01*
X156915205Y-59070373D01*
X157010443Y-59165611D01*
X157153300Y-59213230D01*
X157391395Y-59213230D01*
X156391395Y-58832278D02*
X155629490Y-58832278D01*
X154677110Y-59213230D02*
X155153300Y-59213230D01*
X155153300Y-58213230D01*
X154343776Y-58689421D02*
X154010443Y-58689421D01*
X153867586Y-59213230D02*
X154343776Y-59213230D01*
X154343776Y-58213230D01*
X153867586Y-58213230D01*
X153439014Y-59213230D02*
X153439014Y-58213230D01*
X153200919Y-58213230D01*
X153058062Y-58260850D01*
X152962824Y-58356088D01*
X152915205Y-58451326D01*
X152867586Y-58641802D01*
X152867586Y-58784659D01*
X152915205Y-58975135D01*
X152962824Y-59070373D01*
X153058062Y-59165611D01*
X153200919Y-59213230D01*
X153439014Y-59213230D01*
X152486633Y-58308469D02*
X152439014Y-58260850D01*
X152343776Y-58213230D01*
X152105681Y-58213230D01*
X152010443Y-58260850D01*
X151962824Y-58308469D01*
X151915205Y-58403707D01*
X151915205Y-58498945D01*
X151962824Y-58641802D01*
X152534252Y-59213230D01*
X151915205Y-59213230D01*
X95747904Y-158181730D02*
X95747904Y-158991254D01*
X95700285Y-159086492D01*
X95652666Y-159134111D01*
X95557428Y-159181730D01*
X95366952Y-159181730D01*
X95271714Y-159134111D01*
X95224095Y-159086492D01*
X95176476Y-158991254D01*
X95176476Y-158181730D01*
X94176476Y-159181730D02*
X94747904Y-159181730D01*
X94462190Y-159181730D02*
X94462190Y-158181730D01*
X94557428Y-158324588D01*
X94652666Y-158419826D01*
X94747904Y-158467445D01*
D14*
X82637526Y-50817564D02*
X82637526Y-51293754D01*
X82923240Y-50722326D02*
X81923240Y-51055659D01*
X82923240Y-51388992D01*
X82923240Y-52246135D02*
X82923240Y-51674707D01*
X82923240Y-51960421D02*
X81923240Y-51960421D01*
X82066098Y-51865183D01*
X82161336Y-51769945D01*
X82208955Y-51674707D01*
D13*
X121930086Y-48481254D02*
X121930086Y-47681254D01*
X121739610Y-47681254D01*
X121625324Y-47719350D01*
X121549133Y-47795540D01*
X121511038Y-47871730D01*
X121472943Y-48024111D01*
X121472943Y-48138397D01*
X121511038Y-48290778D01*
X121549133Y-48366969D01*
X121625324Y-48443159D01*
X121739610Y-48481254D01*
X121930086Y-48481254D01*
X120711038Y-48481254D02*
X121168181Y-48481254D01*
X120939610Y-48481254D02*
X120939610Y-47681254D01*
X121015800Y-47795540D01*
X121091990Y-47871730D01*
X121168181Y-47909826D01*
X150505086Y-48481254D02*
X150505086Y-47681254D01*
X150314610Y-47681254D01*
X150200324Y-47719350D01*
X150124133Y-47795540D01*
X150086038Y-47871730D01*
X150047943Y-48024111D01*
X150047943Y-48138397D01*
X150086038Y-48290778D01*
X150124133Y-48366969D01*
X150200324Y-48443159D01*
X150314610Y-48481254D01*
X150505086Y-48481254D01*
X149743181Y-47757445D02*
X149705086Y-47719350D01*
X149628895Y-47681254D01*
X149438419Y-47681254D01*
X149362229Y-47719350D01*
X149324133Y-47757445D01*
X149286038Y-47833635D01*
X149286038Y-47909826D01*
X149324133Y-48024111D01*
X149781276Y-48481254D01*
X149286038Y-48481254D01*
X169555086Y-48481254D02*
X169555086Y-47681254D01*
X169364610Y-47681254D01*
X169250324Y-47719350D01*
X169174133Y-47795540D01*
X169136038Y-47871730D01*
X169097943Y-48024111D01*
X169097943Y-48138397D01*
X169136038Y-48290778D01*
X169174133Y-48366969D01*
X169250324Y-48443159D01*
X169364610Y-48481254D01*
X169555086Y-48481254D01*
X168831276Y-47681254D02*
X168336038Y-47681254D01*
X168602705Y-47986016D01*
X168488419Y-47986016D01*
X168412229Y-48024111D01*
X168374133Y-48062207D01*
X168336038Y-48138397D01*
X168336038Y-48328873D01*
X168374133Y-48405064D01*
X168412229Y-48443159D01*
X168488419Y-48481254D01*
X168716990Y-48481254D01*
X168793181Y-48443159D01*
X168831276Y-48405064D01*
X188605086Y-48481254D02*
X188605086Y-47681254D01*
X188414610Y-47681254D01*
X188300324Y-47719350D01*
X188224133Y-47795540D01*
X188186038Y-47871730D01*
X188147943Y-48024111D01*
X188147943Y-48138397D01*
X188186038Y-48290778D01*
X188224133Y-48366969D01*
X188300324Y-48443159D01*
X188414610Y-48481254D01*
X188605086Y-48481254D01*
X187462229Y-47947921D02*
X187462229Y-48481254D01*
X187652705Y-47643159D02*
X187843181Y-48214588D01*
X187347943Y-48214588D01*
X207655086Y-48481254D02*
X207655086Y-47681254D01*
X207464610Y-47681254D01*
X207350324Y-47719350D01*
X207274133Y-47795540D01*
X207236038Y-47871730D01*
X207197943Y-48024111D01*
X207197943Y-48138397D01*
X207236038Y-48290778D01*
X207274133Y-48366969D01*
X207350324Y-48443159D01*
X207464610Y-48481254D01*
X207655086Y-48481254D01*
X206474133Y-47681254D02*
X206855086Y-47681254D01*
X206893181Y-48062207D01*
X206855086Y-48024111D01*
X206778895Y-47986016D01*
X206588419Y-47986016D01*
X206512229Y-48024111D01*
X206474133Y-48062207D01*
X206436038Y-48138397D01*
X206436038Y-48328873D01*
X206474133Y-48405064D01*
X206512229Y-48443159D01*
X206588419Y-48481254D01*
X206778895Y-48481254D01*
X206855086Y-48443159D01*
X206893181Y-48405064D01*
X226705086Y-48481254D02*
X226705086Y-47681254D01*
X226514610Y-47681254D01*
X226400324Y-47719350D01*
X226324133Y-47795540D01*
X226286038Y-47871730D01*
X226247943Y-48024111D01*
X226247943Y-48138397D01*
X226286038Y-48290778D01*
X226324133Y-48366969D01*
X226400324Y-48443159D01*
X226514610Y-48481254D01*
X226705086Y-48481254D01*
X225562229Y-47681254D02*
X225714610Y-47681254D01*
X225790800Y-47719350D01*
X225828895Y-47757445D01*
X225905086Y-47871730D01*
X225943181Y-48024111D01*
X225943181Y-48328873D01*
X225905086Y-48405064D01*
X225866990Y-48443159D01*
X225790800Y-48481254D01*
X225638419Y-48481254D01*
X225562229Y-48443159D01*
X225524133Y-48405064D01*
X225486038Y-48328873D01*
X225486038Y-48138397D01*
X225524133Y-48062207D01*
X225562229Y-48024111D01*
X225638419Y-47986016D01*
X225790800Y-47986016D01*
X225866990Y-48024111D01*
X225905086Y-48062207D01*
X225943181Y-48138397D01*
X150886038Y-67531254D02*
X150886038Y-66731254D01*
X150695562Y-66731254D01*
X150581276Y-66769350D01*
X150505086Y-66845540D01*
X150466990Y-66921730D01*
X150428895Y-67074111D01*
X150428895Y-67188397D01*
X150466990Y-67340778D01*
X150505086Y-67416969D01*
X150581276Y-67493159D01*
X150695562Y-67531254D01*
X150886038Y-67531254D01*
X149666990Y-67531254D02*
X150124133Y-67531254D01*
X149895562Y-67531254D02*
X149895562Y-66731254D01*
X149971752Y-66845540D01*
X150047943Y-66921730D01*
X150124133Y-66959826D01*
X149362229Y-66807445D02*
X149324133Y-66769350D01*
X149247943Y-66731254D01*
X149057467Y-66731254D01*
X148981276Y-66769350D01*
X148943181Y-66807445D01*
X148905086Y-66883635D01*
X148905086Y-66959826D01*
X148943181Y-67074111D01*
X149400324Y-67531254D01*
X148905086Y-67531254D01*
X169936038Y-67531254D02*
X169936038Y-66731254D01*
X169745562Y-66731254D01*
X169631276Y-66769350D01*
X169555086Y-66845540D01*
X169516990Y-66921730D01*
X169478895Y-67074111D01*
X169478895Y-67188397D01*
X169516990Y-67340778D01*
X169555086Y-67416969D01*
X169631276Y-67493159D01*
X169745562Y-67531254D01*
X169936038Y-67531254D01*
X168716990Y-67531254D02*
X169174133Y-67531254D01*
X168945562Y-67531254D02*
X168945562Y-66731254D01*
X169021752Y-66845540D01*
X169097943Y-66921730D01*
X169174133Y-66959826D01*
X168450324Y-66731254D02*
X167955086Y-66731254D01*
X168221752Y-67036016D01*
X168107467Y-67036016D01*
X168031276Y-67074111D01*
X167993181Y-67112207D01*
X167955086Y-67188397D01*
X167955086Y-67378873D01*
X167993181Y-67455064D01*
X168031276Y-67493159D01*
X168107467Y-67531254D01*
X168336038Y-67531254D01*
X168412229Y-67493159D01*
X168450324Y-67455064D01*
X227086038Y-67531254D02*
X227086038Y-66731254D01*
X226895562Y-66731254D01*
X226781276Y-66769350D01*
X226705086Y-66845540D01*
X226666990Y-66921730D01*
X226628895Y-67074111D01*
X226628895Y-67188397D01*
X226666990Y-67340778D01*
X226705086Y-67416969D01*
X226781276Y-67493159D01*
X226895562Y-67531254D01*
X227086038Y-67531254D01*
X225866990Y-67531254D02*
X226324133Y-67531254D01*
X226095562Y-67531254D02*
X226095562Y-66731254D01*
X226171752Y-66845540D01*
X226247943Y-66921730D01*
X226324133Y-66959826D01*
X225181276Y-66731254D02*
X225333657Y-66731254D01*
X225409848Y-66769350D01*
X225447943Y-66807445D01*
X225524133Y-66921730D01*
X225562229Y-67074111D01*
X225562229Y-67378873D01*
X225524133Y-67455064D01*
X225486038Y-67493159D01*
X225409848Y-67531254D01*
X225257467Y-67531254D01*
X225181276Y-67493159D01*
X225143181Y-67455064D01*
X225105086Y-67378873D01*
X225105086Y-67188397D01*
X225143181Y-67112207D01*
X225181276Y-67074111D01*
X225257467Y-67036016D01*
X225409848Y-67036016D01*
X225486038Y-67074111D01*
X225524133Y-67112207D01*
X225562229Y-67188397D01*
X122311038Y-86581254D02*
X122311038Y-85781254D01*
X122120562Y-85781254D01*
X122006276Y-85819350D01*
X121930086Y-85895540D01*
X121891990Y-85971730D01*
X121853895Y-86124111D01*
X121853895Y-86238397D01*
X121891990Y-86390778D01*
X121930086Y-86466969D01*
X122006276Y-86543159D01*
X122120562Y-86581254D01*
X122311038Y-86581254D01*
X121549133Y-85857445D02*
X121511038Y-85819350D01*
X121434848Y-85781254D01*
X121244371Y-85781254D01*
X121168181Y-85819350D01*
X121130086Y-85857445D01*
X121091990Y-85933635D01*
X121091990Y-86009826D01*
X121130086Y-86124111D01*
X121587229Y-86581254D01*
X121091990Y-86581254D01*
X120330086Y-86581254D02*
X120787229Y-86581254D01*
X120558657Y-86581254D02*
X120558657Y-85781254D01*
X120634848Y-85895540D01*
X120711038Y-85971730D01*
X120787229Y-86009826D01*
X150886038Y-86581254D02*
X150886038Y-85781254D01*
X150695562Y-85781254D01*
X150581276Y-85819350D01*
X150505086Y-85895540D01*
X150466990Y-85971730D01*
X150428895Y-86124111D01*
X150428895Y-86238397D01*
X150466990Y-86390778D01*
X150505086Y-86466969D01*
X150581276Y-86543159D01*
X150695562Y-86581254D01*
X150886038Y-86581254D01*
X150124133Y-85857445D02*
X150086038Y-85819350D01*
X150009848Y-85781254D01*
X149819371Y-85781254D01*
X149743181Y-85819350D01*
X149705086Y-85857445D01*
X149666990Y-85933635D01*
X149666990Y-86009826D01*
X149705086Y-86124111D01*
X150162229Y-86581254D01*
X149666990Y-86581254D01*
X149362229Y-85857445D02*
X149324133Y-85819350D01*
X149247943Y-85781254D01*
X149057467Y-85781254D01*
X148981276Y-85819350D01*
X148943181Y-85857445D01*
X148905086Y-85933635D01*
X148905086Y-86009826D01*
X148943181Y-86124111D01*
X149400324Y-86581254D01*
X148905086Y-86581254D01*
X169936038Y-86581254D02*
X169936038Y-85781254D01*
X169745562Y-85781254D01*
X169631276Y-85819350D01*
X169555086Y-85895540D01*
X169516990Y-85971730D01*
X169478895Y-86124111D01*
X169478895Y-86238397D01*
X169516990Y-86390778D01*
X169555086Y-86466969D01*
X169631276Y-86543159D01*
X169745562Y-86581254D01*
X169936038Y-86581254D01*
X169174133Y-85857445D02*
X169136038Y-85819350D01*
X169059848Y-85781254D01*
X168869371Y-85781254D01*
X168793181Y-85819350D01*
X168755086Y-85857445D01*
X168716990Y-85933635D01*
X168716990Y-86009826D01*
X168755086Y-86124111D01*
X169212229Y-86581254D01*
X168716990Y-86581254D01*
X168450324Y-85781254D02*
X167955086Y-85781254D01*
X168221752Y-86086016D01*
X168107467Y-86086016D01*
X168031276Y-86124111D01*
X167993181Y-86162207D01*
X167955086Y-86238397D01*
X167955086Y-86428873D01*
X167993181Y-86505064D01*
X168031276Y-86543159D01*
X168107467Y-86581254D01*
X168336038Y-86581254D01*
X168412229Y-86543159D01*
X168450324Y-86505064D01*
X188986038Y-86581254D02*
X188986038Y-85781254D01*
X188795562Y-85781254D01*
X188681276Y-85819350D01*
X188605086Y-85895540D01*
X188566990Y-85971730D01*
X188528895Y-86124111D01*
X188528895Y-86238397D01*
X188566990Y-86390778D01*
X188605086Y-86466969D01*
X188681276Y-86543159D01*
X188795562Y-86581254D01*
X188986038Y-86581254D01*
X188224133Y-85857445D02*
X188186038Y-85819350D01*
X188109848Y-85781254D01*
X187919371Y-85781254D01*
X187843181Y-85819350D01*
X187805086Y-85857445D01*
X187766990Y-85933635D01*
X187766990Y-86009826D01*
X187805086Y-86124111D01*
X188262229Y-86581254D01*
X187766990Y-86581254D01*
X187081276Y-86047921D02*
X187081276Y-86581254D01*
X187271752Y-85743159D02*
X187462229Y-86314588D01*
X186966990Y-86314588D01*
X208036038Y-86581254D02*
X208036038Y-85781254D01*
X207845562Y-85781254D01*
X207731276Y-85819350D01*
X207655086Y-85895540D01*
X207616990Y-85971730D01*
X207578895Y-86124111D01*
X207578895Y-86238397D01*
X207616990Y-86390778D01*
X207655086Y-86466969D01*
X207731276Y-86543159D01*
X207845562Y-86581254D01*
X208036038Y-86581254D01*
X207274133Y-85857445D02*
X207236038Y-85819350D01*
X207159848Y-85781254D01*
X206969371Y-85781254D01*
X206893181Y-85819350D01*
X206855086Y-85857445D01*
X206816990Y-85933635D01*
X206816990Y-86009826D01*
X206855086Y-86124111D01*
X207312229Y-86581254D01*
X206816990Y-86581254D01*
X206093181Y-85781254D02*
X206474133Y-85781254D01*
X206512229Y-86162207D01*
X206474133Y-86124111D01*
X206397943Y-86086016D01*
X206207467Y-86086016D01*
X206131276Y-86124111D01*
X206093181Y-86162207D01*
X206055086Y-86238397D01*
X206055086Y-86428873D01*
X206093181Y-86505064D01*
X206131276Y-86543159D01*
X206207467Y-86581254D01*
X206397943Y-86581254D01*
X206474133Y-86543159D01*
X206512229Y-86505064D01*
X122311038Y-105631254D02*
X122311038Y-104831254D01*
X122120562Y-104831254D01*
X122006276Y-104869350D01*
X121930086Y-104945540D01*
X121891990Y-105021730D01*
X121853895Y-105174111D01*
X121853895Y-105288397D01*
X121891990Y-105440778D01*
X121930086Y-105516969D01*
X122006276Y-105593159D01*
X122120562Y-105631254D01*
X122311038Y-105631254D01*
X121587229Y-104831254D02*
X121091990Y-104831254D01*
X121358657Y-105136016D01*
X121244371Y-105136016D01*
X121168181Y-105174111D01*
X121130086Y-105212207D01*
X121091990Y-105288397D01*
X121091990Y-105478873D01*
X121130086Y-105555064D01*
X121168181Y-105593159D01*
X121244371Y-105631254D01*
X121472943Y-105631254D01*
X121549133Y-105593159D01*
X121587229Y-105555064D01*
X120330086Y-105631254D02*
X120787229Y-105631254D01*
X120558657Y-105631254D02*
X120558657Y-104831254D01*
X120634848Y-104945540D01*
X120711038Y-105021730D01*
X120787229Y-105059826D01*
X150886038Y-105631254D02*
X150886038Y-104831254D01*
X150695562Y-104831254D01*
X150581276Y-104869350D01*
X150505086Y-104945540D01*
X150466990Y-105021730D01*
X150428895Y-105174111D01*
X150428895Y-105288397D01*
X150466990Y-105440778D01*
X150505086Y-105516969D01*
X150581276Y-105593159D01*
X150695562Y-105631254D01*
X150886038Y-105631254D01*
X150162229Y-104831254D02*
X149666990Y-104831254D01*
X149933657Y-105136016D01*
X149819371Y-105136016D01*
X149743181Y-105174111D01*
X149705086Y-105212207D01*
X149666990Y-105288397D01*
X149666990Y-105478873D01*
X149705086Y-105555064D01*
X149743181Y-105593159D01*
X149819371Y-105631254D01*
X150047943Y-105631254D01*
X150124133Y-105593159D01*
X150162229Y-105555064D01*
X149362229Y-104907445D02*
X149324133Y-104869350D01*
X149247943Y-104831254D01*
X149057467Y-104831254D01*
X148981276Y-104869350D01*
X148943181Y-104907445D01*
X148905086Y-104983635D01*
X148905086Y-105059826D01*
X148943181Y-105174111D01*
X149400324Y-105631254D01*
X148905086Y-105631254D01*
X169936038Y-105631254D02*
X169936038Y-104831254D01*
X169745562Y-104831254D01*
X169631276Y-104869350D01*
X169555086Y-104945540D01*
X169516990Y-105021730D01*
X169478895Y-105174111D01*
X169478895Y-105288397D01*
X169516990Y-105440778D01*
X169555086Y-105516969D01*
X169631276Y-105593159D01*
X169745562Y-105631254D01*
X169936038Y-105631254D01*
X169212229Y-104831254D02*
X168716990Y-104831254D01*
X168983657Y-105136016D01*
X168869371Y-105136016D01*
X168793181Y-105174111D01*
X168755086Y-105212207D01*
X168716990Y-105288397D01*
X168716990Y-105478873D01*
X168755086Y-105555064D01*
X168793181Y-105593159D01*
X168869371Y-105631254D01*
X169097943Y-105631254D01*
X169174133Y-105593159D01*
X169212229Y-105555064D01*
X168450324Y-104831254D02*
X167955086Y-104831254D01*
X168221752Y-105136016D01*
X168107467Y-105136016D01*
X168031276Y-105174111D01*
X167993181Y-105212207D01*
X167955086Y-105288397D01*
X167955086Y-105478873D01*
X167993181Y-105555064D01*
X168031276Y-105593159D01*
X168107467Y-105631254D01*
X168336038Y-105631254D01*
X168412229Y-105593159D01*
X168450324Y-105555064D01*
X169936038Y-143731254D02*
X169936038Y-142931254D01*
X169745562Y-142931254D01*
X169631276Y-142969350D01*
X169555086Y-143045540D01*
X169516990Y-143121730D01*
X169478895Y-143274111D01*
X169478895Y-143388397D01*
X169516990Y-143540778D01*
X169555086Y-143616969D01*
X169631276Y-143693159D01*
X169745562Y-143731254D01*
X169936038Y-143731254D01*
X168755086Y-142931254D02*
X169136038Y-142931254D01*
X169174133Y-143312207D01*
X169136038Y-143274111D01*
X169059848Y-143236016D01*
X168869371Y-143236016D01*
X168793181Y-143274111D01*
X168755086Y-143312207D01*
X168716990Y-143388397D01*
X168716990Y-143578873D01*
X168755086Y-143655064D01*
X168793181Y-143693159D01*
X168869371Y-143731254D01*
X169059848Y-143731254D01*
X169136038Y-143693159D01*
X169174133Y-143655064D01*
X168450324Y-142931254D02*
X167955086Y-142931254D01*
X168221752Y-143236016D01*
X168107467Y-143236016D01*
X168031276Y-143274111D01*
X167993181Y-143312207D01*
X167955086Y-143388397D01*
X167955086Y-143578873D01*
X167993181Y-143655064D01*
X168031276Y-143693159D01*
X168107467Y-143731254D01*
X168336038Y-143731254D01*
X168412229Y-143693159D01*
X168450324Y-143655064D01*
X122311038Y-67531254D02*
X122311038Y-66731254D01*
X122120562Y-66731254D01*
X122006276Y-66769350D01*
X121930086Y-66845540D01*
X121891990Y-66921730D01*
X121853895Y-67074111D01*
X121853895Y-67188397D01*
X121891990Y-67340778D01*
X121930086Y-67416969D01*
X122006276Y-67493159D01*
X122120562Y-67531254D01*
X122311038Y-67531254D01*
X121091990Y-67531254D02*
X121549133Y-67531254D01*
X121320562Y-67531254D02*
X121320562Y-66731254D01*
X121396752Y-66845540D01*
X121472943Y-66921730D01*
X121549133Y-66959826D01*
X120330086Y-67531254D02*
X120787229Y-67531254D01*
X120558657Y-67531254D02*
X120558657Y-66731254D01*
X120634848Y-66845540D01*
X120711038Y-66921730D01*
X120787229Y-66959826D01*
X188986038Y-67531254D02*
X188986038Y-66731254D01*
X188795562Y-66731254D01*
X188681276Y-66769350D01*
X188605086Y-66845540D01*
X188566990Y-66921730D01*
X188528895Y-67074111D01*
X188528895Y-67188397D01*
X188566990Y-67340778D01*
X188605086Y-67416969D01*
X188681276Y-67493159D01*
X188795562Y-67531254D01*
X188986038Y-67531254D01*
X187766990Y-67531254D02*
X188224133Y-67531254D01*
X187995562Y-67531254D02*
X187995562Y-66731254D01*
X188071752Y-66845540D01*
X188147943Y-66921730D01*
X188224133Y-66959826D01*
X187081276Y-66997921D02*
X187081276Y-67531254D01*
X187271752Y-66693159D02*
X187462229Y-67264588D01*
X186966990Y-67264588D01*
X208036038Y-67531254D02*
X208036038Y-66731254D01*
X207845562Y-66731254D01*
X207731276Y-66769350D01*
X207655086Y-66845540D01*
X207616990Y-66921730D01*
X207578895Y-67074111D01*
X207578895Y-67188397D01*
X207616990Y-67340778D01*
X207655086Y-67416969D01*
X207731276Y-67493159D01*
X207845562Y-67531254D01*
X208036038Y-67531254D01*
X206816990Y-67531254D02*
X207274133Y-67531254D01*
X207045562Y-67531254D02*
X207045562Y-66731254D01*
X207121752Y-66845540D01*
X207197943Y-66921730D01*
X207274133Y-66959826D01*
X206093181Y-66731254D02*
X206474133Y-66731254D01*
X206512229Y-67112207D01*
X206474133Y-67074111D01*
X206397943Y-67036016D01*
X206207467Y-67036016D01*
X206131276Y-67074111D01*
X206093181Y-67112207D01*
X206055086Y-67188397D01*
X206055086Y-67378873D01*
X206093181Y-67455064D01*
X206131276Y-67493159D01*
X206207467Y-67531254D01*
X206397943Y-67531254D01*
X206474133Y-67493159D01*
X206512229Y-67455064D01*
X227086038Y-86581254D02*
X227086038Y-85781254D01*
X226895562Y-85781254D01*
X226781276Y-85819350D01*
X226705086Y-85895540D01*
X226666990Y-85971730D01*
X226628895Y-86124111D01*
X226628895Y-86238397D01*
X226666990Y-86390778D01*
X226705086Y-86466969D01*
X226781276Y-86543159D01*
X226895562Y-86581254D01*
X227086038Y-86581254D01*
X226324133Y-85857445D02*
X226286038Y-85819350D01*
X226209848Y-85781254D01*
X226019371Y-85781254D01*
X225943181Y-85819350D01*
X225905086Y-85857445D01*
X225866990Y-85933635D01*
X225866990Y-86009826D01*
X225905086Y-86124111D01*
X226362229Y-86581254D01*
X225866990Y-86581254D01*
X225181276Y-85781254D02*
X225333657Y-85781254D01*
X225409848Y-85819350D01*
X225447943Y-85857445D01*
X225524133Y-85971730D01*
X225562229Y-86124111D01*
X225562229Y-86428873D01*
X225524133Y-86505064D01*
X225486038Y-86543159D01*
X225409848Y-86581254D01*
X225257467Y-86581254D01*
X225181276Y-86543159D01*
X225143181Y-86505064D01*
X225105086Y-86428873D01*
X225105086Y-86238397D01*
X225143181Y-86162207D01*
X225181276Y-86124111D01*
X225257467Y-86086016D01*
X225409848Y-86086016D01*
X225486038Y-86124111D01*
X225524133Y-86162207D01*
X225562229Y-86238397D01*
X188986038Y-105631254D02*
X188986038Y-104831254D01*
X188795562Y-104831254D01*
X188681276Y-104869350D01*
X188605086Y-104945540D01*
X188566990Y-105021730D01*
X188528895Y-105174111D01*
X188528895Y-105288397D01*
X188566990Y-105440778D01*
X188605086Y-105516969D01*
X188681276Y-105593159D01*
X188795562Y-105631254D01*
X188986038Y-105631254D01*
X188262229Y-104831254D02*
X187766990Y-104831254D01*
X188033657Y-105136016D01*
X187919371Y-105136016D01*
X187843181Y-105174111D01*
X187805086Y-105212207D01*
X187766990Y-105288397D01*
X187766990Y-105478873D01*
X187805086Y-105555064D01*
X187843181Y-105593159D01*
X187919371Y-105631254D01*
X188147943Y-105631254D01*
X188224133Y-105593159D01*
X188262229Y-105555064D01*
X187081276Y-105097921D02*
X187081276Y-105631254D01*
X187271752Y-104793159D02*
X187462229Y-105364588D01*
X186966990Y-105364588D01*
X208036038Y-105631254D02*
X208036038Y-104831254D01*
X207845562Y-104831254D01*
X207731276Y-104869350D01*
X207655086Y-104945540D01*
X207616990Y-105021730D01*
X207578895Y-105174111D01*
X207578895Y-105288397D01*
X207616990Y-105440778D01*
X207655086Y-105516969D01*
X207731276Y-105593159D01*
X207845562Y-105631254D01*
X208036038Y-105631254D01*
X207312229Y-104831254D02*
X206816990Y-104831254D01*
X207083657Y-105136016D01*
X206969371Y-105136016D01*
X206893181Y-105174111D01*
X206855086Y-105212207D01*
X206816990Y-105288397D01*
X206816990Y-105478873D01*
X206855086Y-105555064D01*
X206893181Y-105593159D01*
X206969371Y-105631254D01*
X207197943Y-105631254D01*
X207274133Y-105593159D01*
X207312229Y-105555064D01*
X206093181Y-104831254D02*
X206474133Y-104831254D01*
X206512229Y-105212207D01*
X206474133Y-105174111D01*
X206397943Y-105136016D01*
X206207467Y-105136016D01*
X206131276Y-105174111D01*
X206093181Y-105212207D01*
X206055086Y-105288397D01*
X206055086Y-105478873D01*
X206093181Y-105555064D01*
X206131276Y-105593159D01*
X206207467Y-105631254D01*
X206397943Y-105631254D01*
X206474133Y-105593159D01*
X206512229Y-105555064D01*
X227086038Y-105631254D02*
X227086038Y-104831254D01*
X226895562Y-104831254D01*
X226781276Y-104869350D01*
X226705086Y-104945540D01*
X226666990Y-105021730D01*
X226628895Y-105174111D01*
X226628895Y-105288397D01*
X226666990Y-105440778D01*
X226705086Y-105516969D01*
X226781276Y-105593159D01*
X226895562Y-105631254D01*
X227086038Y-105631254D01*
X226362229Y-104831254D02*
X225866990Y-104831254D01*
X226133657Y-105136016D01*
X226019371Y-105136016D01*
X225943181Y-105174111D01*
X225905086Y-105212207D01*
X225866990Y-105288397D01*
X225866990Y-105478873D01*
X225905086Y-105555064D01*
X225943181Y-105593159D01*
X226019371Y-105631254D01*
X226247943Y-105631254D01*
X226324133Y-105593159D01*
X226362229Y-105555064D01*
X225181276Y-104831254D02*
X225333657Y-104831254D01*
X225409848Y-104869350D01*
X225447943Y-104907445D01*
X225524133Y-105021730D01*
X225562229Y-105174111D01*
X225562229Y-105478873D01*
X225524133Y-105555064D01*
X225486038Y-105593159D01*
X225409848Y-105631254D01*
X225257467Y-105631254D01*
X225181276Y-105593159D01*
X225143181Y-105555064D01*
X225105086Y-105478873D01*
X225105086Y-105288397D01*
X225143181Y-105212207D01*
X225181276Y-105174111D01*
X225257467Y-105136016D01*
X225409848Y-105136016D01*
X225486038Y-105174111D01*
X225524133Y-105212207D01*
X225562229Y-105288397D01*
X122311038Y-124681254D02*
X122311038Y-123881254D01*
X122120562Y-123881254D01*
X122006276Y-123919350D01*
X121930086Y-123995540D01*
X121891990Y-124071730D01*
X121853895Y-124224111D01*
X121853895Y-124338397D01*
X121891990Y-124490778D01*
X121930086Y-124566969D01*
X122006276Y-124643159D01*
X122120562Y-124681254D01*
X122311038Y-124681254D01*
X121168181Y-124147921D02*
X121168181Y-124681254D01*
X121358657Y-123843159D02*
X121549133Y-124414588D01*
X121053895Y-124414588D01*
X120330086Y-124681254D02*
X120787229Y-124681254D01*
X120558657Y-124681254D02*
X120558657Y-123881254D01*
X120634848Y-123995540D01*
X120711038Y-124071730D01*
X120787229Y-124109826D01*
X150886038Y-124681254D02*
X150886038Y-123881254D01*
X150695562Y-123881254D01*
X150581276Y-123919350D01*
X150505086Y-123995540D01*
X150466990Y-124071730D01*
X150428895Y-124224111D01*
X150428895Y-124338397D01*
X150466990Y-124490778D01*
X150505086Y-124566969D01*
X150581276Y-124643159D01*
X150695562Y-124681254D01*
X150886038Y-124681254D01*
X149743181Y-124147921D02*
X149743181Y-124681254D01*
X149933657Y-123843159D02*
X150124133Y-124414588D01*
X149628895Y-124414588D01*
X149362229Y-123957445D02*
X149324133Y-123919350D01*
X149247943Y-123881254D01*
X149057467Y-123881254D01*
X148981276Y-123919350D01*
X148943181Y-123957445D01*
X148905086Y-124033635D01*
X148905086Y-124109826D01*
X148943181Y-124224111D01*
X149400324Y-124681254D01*
X148905086Y-124681254D01*
X169936038Y-124681254D02*
X169936038Y-123881254D01*
X169745562Y-123881254D01*
X169631276Y-123919350D01*
X169555086Y-123995540D01*
X169516990Y-124071730D01*
X169478895Y-124224111D01*
X169478895Y-124338397D01*
X169516990Y-124490778D01*
X169555086Y-124566969D01*
X169631276Y-124643159D01*
X169745562Y-124681254D01*
X169936038Y-124681254D01*
X168793181Y-124147921D02*
X168793181Y-124681254D01*
X168983657Y-123843159D02*
X169174133Y-124414588D01*
X168678895Y-124414588D01*
X168450324Y-123881254D02*
X167955086Y-123881254D01*
X168221752Y-124186016D01*
X168107467Y-124186016D01*
X168031276Y-124224111D01*
X167993181Y-124262207D01*
X167955086Y-124338397D01*
X167955086Y-124528873D01*
X167993181Y-124605064D01*
X168031276Y-124643159D01*
X168107467Y-124681254D01*
X168336038Y-124681254D01*
X168412229Y-124643159D01*
X168450324Y-124605064D01*
X188986038Y-124681254D02*
X188986038Y-123881254D01*
X188795562Y-123881254D01*
X188681276Y-123919350D01*
X188605086Y-123995540D01*
X188566990Y-124071730D01*
X188528895Y-124224111D01*
X188528895Y-124338397D01*
X188566990Y-124490778D01*
X188605086Y-124566969D01*
X188681276Y-124643159D01*
X188795562Y-124681254D01*
X188986038Y-124681254D01*
X187843181Y-124147921D02*
X187843181Y-124681254D01*
X188033657Y-123843159D02*
X188224133Y-124414588D01*
X187728895Y-124414588D01*
X187081276Y-124147921D02*
X187081276Y-124681254D01*
X187271752Y-123843159D02*
X187462229Y-124414588D01*
X186966990Y-124414588D01*
X208036038Y-124681254D02*
X208036038Y-123881254D01*
X207845562Y-123881254D01*
X207731276Y-123919350D01*
X207655086Y-123995540D01*
X207616990Y-124071730D01*
X207578895Y-124224111D01*
X207578895Y-124338397D01*
X207616990Y-124490778D01*
X207655086Y-124566969D01*
X207731276Y-124643159D01*
X207845562Y-124681254D01*
X208036038Y-124681254D01*
X206893181Y-124147921D02*
X206893181Y-124681254D01*
X207083657Y-123843159D02*
X207274133Y-124414588D01*
X206778895Y-124414588D01*
X206093181Y-123881254D02*
X206474133Y-123881254D01*
X206512229Y-124262207D01*
X206474133Y-124224111D01*
X206397943Y-124186016D01*
X206207467Y-124186016D01*
X206131276Y-124224111D01*
X206093181Y-124262207D01*
X206055086Y-124338397D01*
X206055086Y-124528873D01*
X206093181Y-124605064D01*
X206131276Y-124643159D01*
X206207467Y-124681254D01*
X206397943Y-124681254D01*
X206474133Y-124643159D01*
X206512229Y-124605064D01*
X227086038Y-124681254D02*
X227086038Y-123881254D01*
X226895562Y-123881254D01*
X226781276Y-123919350D01*
X226705086Y-123995540D01*
X226666990Y-124071730D01*
X226628895Y-124224111D01*
X226628895Y-124338397D01*
X226666990Y-124490778D01*
X226705086Y-124566969D01*
X226781276Y-124643159D01*
X226895562Y-124681254D01*
X227086038Y-124681254D01*
X225943181Y-124147921D02*
X225943181Y-124681254D01*
X226133657Y-123843159D02*
X226324133Y-124414588D01*
X225828895Y-124414588D01*
X225181276Y-123881254D02*
X225333657Y-123881254D01*
X225409848Y-123919350D01*
X225447943Y-123957445D01*
X225524133Y-124071730D01*
X225562229Y-124224111D01*
X225562229Y-124528873D01*
X225524133Y-124605064D01*
X225486038Y-124643159D01*
X225409848Y-124681254D01*
X225257467Y-124681254D01*
X225181276Y-124643159D01*
X225143181Y-124605064D01*
X225105086Y-124528873D01*
X225105086Y-124338397D01*
X225143181Y-124262207D01*
X225181276Y-124224111D01*
X225257467Y-124186016D01*
X225409848Y-124186016D01*
X225486038Y-124224111D01*
X225524133Y-124262207D01*
X225562229Y-124338397D01*
X122311038Y-143731254D02*
X122311038Y-142931254D01*
X122120562Y-142931254D01*
X122006276Y-142969350D01*
X121930086Y-143045540D01*
X121891990Y-143121730D01*
X121853895Y-143274111D01*
X121853895Y-143388397D01*
X121891990Y-143540778D01*
X121930086Y-143616969D01*
X122006276Y-143693159D01*
X122120562Y-143731254D01*
X122311038Y-143731254D01*
X121130086Y-142931254D02*
X121511038Y-142931254D01*
X121549133Y-143312207D01*
X121511038Y-143274111D01*
X121434848Y-143236016D01*
X121244371Y-143236016D01*
X121168181Y-143274111D01*
X121130086Y-143312207D01*
X121091990Y-143388397D01*
X121091990Y-143578873D01*
X121130086Y-143655064D01*
X121168181Y-143693159D01*
X121244371Y-143731254D01*
X121434848Y-143731254D01*
X121511038Y-143693159D01*
X121549133Y-143655064D01*
X120330086Y-143731254D02*
X120787229Y-143731254D01*
X120558657Y-143731254D02*
X120558657Y-142931254D01*
X120634848Y-143045540D01*
X120711038Y-143121730D01*
X120787229Y-143159826D01*
X150886038Y-143731254D02*
X150886038Y-142931254D01*
X150695562Y-142931254D01*
X150581276Y-142969350D01*
X150505086Y-143045540D01*
X150466990Y-143121730D01*
X150428895Y-143274111D01*
X150428895Y-143388397D01*
X150466990Y-143540778D01*
X150505086Y-143616969D01*
X150581276Y-143693159D01*
X150695562Y-143731254D01*
X150886038Y-143731254D01*
X149705086Y-142931254D02*
X150086038Y-142931254D01*
X150124133Y-143312207D01*
X150086038Y-143274111D01*
X150009848Y-143236016D01*
X149819371Y-143236016D01*
X149743181Y-143274111D01*
X149705086Y-143312207D01*
X149666990Y-143388397D01*
X149666990Y-143578873D01*
X149705086Y-143655064D01*
X149743181Y-143693159D01*
X149819371Y-143731254D01*
X150009848Y-143731254D01*
X150086038Y-143693159D01*
X150124133Y-143655064D01*
X149362229Y-143007445D02*
X149324133Y-142969350D01*
X149247943Y-142931254D01*
X149057467Y-142931254D01*
X148981276Y-142969350D01*
X148943181Y-143007445D01*
X148905086Y-143083635D01*
X148905086Y-143159826D01*
X148943181Y-143274111D01*
X149400324Y-143731254D01*
X148905086Y-143731254D01*
X198511038Y-143731254D02*
X198511038Y-142931254D01*
X198320562Y-142931254D01*
X198206276Y-142969350D01*
X198130086Y-143045540D01*
X198091990Y-143121730D01*
X198053895Y-143274111D01*
X198053895Y-143388397D01*
X198091990Y-143540778D01*
X198130086Y-143616969D01*
X198206276Y-143693159D01*
X198320562Y-143731254D01*
X198511038Y-143731254D01*
X197330086Y-142931254D02*
X197711038Y-142931254D01*
X197749133Y-143312207D01*
X197711038Y-143274111D01*
X197634848Y-143236016D01*
X197444371Y-143236016D01*
X197368181Y-143274111D01*
X197330086Y-143312207D01*
X197291990Y-143388397D01*
X197291990Y-143578873D01*
X197330086Y-143655064D01*
X197368181Y-143693159D01*
X197444371Y-143731254D01*
X197634848Y-143731254D01*
X197711038Y-143693159D01*
X197749133Y-143655064D01*
X196606276Y-143197921D02*
X196606276Y-143731254D01*
X196796752Y-142893159D02*
X196987229Y-143464588D01*
X196491990Y-143464588D01*
X227086038Y-143731254D02*
X227086038Y-142931254D01*
X226895562Y-142931254D01*
X226781276Y-142969350D01*
X226705086Y-143045540D01*
X226666990Y-143121730D01*
X226628895Y-143274111D01*
X226628895Y-143388397D01*
X226666990Y-143540778D01*
X226705086Y-143616969D01*
X226781276Y-143693159D01*
X226895562Y-143731254D01*
X227086038Y-143731254D01*
X225905086Y-142931254D02*
X226286038Y-142931254D01*
X226324133Y-143312207D01*
X226286038Y-143274111D01*
X226209848Y-143236016D01*
X226019371Y-143236016D01*
X225943181Y-143274111D01*
X225905086Y-143312207D01*
X225866990Y-143388397D01*
X225866990Y-143578873D01*
X225905086Y-143655064D01*
X225943181Y-143693159D01*
X226019371Y-143731254D01*
X226209848Y-143731254D01*
X226286038Y-143693159D01*
X226324133Y-143655064D01*
X225181276Y-142931254D02*
X225333657Y-142931254D01*
X225409848Y-142969350D01*
X225447943Y-143007445D01*
X225524133Y-143121730D01*
X225562229Y-143274111D01*
X225562229Y-143578873D01*
X225524133Y-143655064D01*
X225486038Y-143693159D01*
X225409848Y-143731254D01*
X225257467Y-143731254D01*
X225181276Y-143693159D01*
X225143181Y-143655064D01*
X225105086Y-143578873D01*
X225105086Y-143388397D01*
X225143181Y-143312207D01*
X225181276Y-143274111D01*
X225257467Y-143236016D01*
X225409848Y-143236016D01*
X225486038Y-143274111D01*
X225524133Y-143312207D01*
X225562229Y-143388397D01*
X90971666Y-104212380D02*
X91305000Y-103736190D01*
X91543095Y-104212380D02*
X91543095Y-103212380D01*
X91162142Y-103212380D01*
X91066904Y-103260000D01*
X91019285Y-103307619D01*
X90971666Y-103402857D01*
X90971666Y-103545714D01*
X91019285Y-103640952D01*
X91066904Y-103688571D01*
X91162142Y-103736190D01*
X91543095Y-103736190D01*
X90590714Y-103307619D02*
X90543095Y-103260000D01*
X90447857Y-103212380D01*
X90209761Y-103212380D01*
X90114523Y-103260000D01*
X90066904Y-103307619D01*
X90019285Y-103402857D01*
X90019285Y-103498095D01*
X90066904Y-103640952D01*
X90638333Y-104212380D01*
X90019285Y-104212380D01*
X90971666Y-99767380D02*
X91305000Y-99291190D01*
X91543095Y-99767380D02*
X91543095Y-98767380D01*
X91162142Y-98767380D01*
X91066904Y-98815000D01*
X91019285Y-98862619D01*
X90971666Y-98957857D01*
X90971666Y-99100714D01*
X91019285Y-99195952D01*
X91066904Y-99243571D01*
X91162142Y-99291190D01*
X91543095Y-99291190D01*
X90638333Y-98767380D02*
X90019285Y-98767380D01*
X90352619Y-99148333D01*
X90209761Y-99148333D01*
X90114523Y-99195952D01*
X90066904Y-99243571D01*
X90019285Y-99338809D01*
X90019285Y-99576904D01*
X90066904Y-99672142D01*
X90114523Y-99719761D01*
X90209761Y-99767380D01*
X90495476Y-99767380D01*
X90590714Y-99719761D01*
X90638333Y-99672142D01*
X90971666Y-108657380D02*
X91305000Y-108181190D01*
X91543095Y-108657380D02*
X91543095Y-107657380D01*
X91162142Y-107657380D01*
X91066904Y-107705000D01*
X91019285Y-107752619D01*
X90971666Y-107847857D01*
X90971666Y-107990714D01*
X91019285Y-108085952D01*
X91066904Y-108133571D01*
X91162142Y-108181190D01*
X91543095Y-108181190D01*
X90114523Y-107990714D02*
X90114523Y-108657380D01*
X90352619Y-107609761D02*
X90590714Y-108324047D01*
X89971666Y-108324047D01*
X96686666Y-99767380D02*
X97020000Y-99291190D01*
X97258095Y-99767380D02*
X97258095Y-98767380D01*
X96877142Y-98767380D01*
X96781904Y-98815000D01*
X96734285Y-98862619D01*
X96686666Y-98957857D01*
X96686666Y-99100714D01*
X96734285Y-99195952D01*
X96781904Y-99243571D01*
X96877142Y-99291190D01*
X97258095Y-99291190D01*
X95781904Y-98767380D02*
X96258095Y-98767380D01*
X96305714Y-99243571D01*
X96258095Y-99195952D01*
X96162857Y-99148333D01*
X95924761Y-99148333D01*
X95829523Y-99195952D01*
X95781904Y-99243571D01*
X95734285Y-99338809D01*
X95734285Y-99576904D01*
X95781904Y-99672142D01*
X95829523Y-99719761D01*
X95924761Y-99767380D01*
X96162857Y-99767380D01*
X96258095Y-99719761D01*
X96305714Y-99672142D01*
X106211666Y-163932142D02*
X106259285Y-163979761D01*
X106402142Y-164027380D01*
X106497380Y-164027380D01*
X106640238Y-163979761D01*
X106735476Y-163884523D01*
X106783095Y-163789285D01*
X106830714Y-163598809D01*
X106830714Y-163455952D01*
X106783095Y-163265476D01*
X106735476Y-163170238D01*
X106640238Y-163075000D01*
X106497380Y-163027380D01*
X106402142Y-163027380D01*
X106259285Y-163075000D01*
X106211666Y-163122619D01*
X105259285Y-164027380D02*
X105830714Y-164027380D01*
X105545000Y-164027380D02*
X105545000Y-163027380D01*
X105640238Y-163170238D01*
X105735476Y-163265476D01*
X105830714Y-163313095D01*
X102401666Y-163932142D02*
X102449285Y-163979761D01*
X102592142Y-164027380D01*
X102687380Y-164027380D01*
X102830238Y-163979761D01*
X102925476Y-163884523D01*
X102973095Y-163789285D01*
X103020714Y-163598809D01*
X103020714Y-163455952D01*
X102973095Y-163265476D01*
X102925476Y-163170238D01*
X102830238Y-163075000D01*
X102687380Y-163027380D01*
X102592142Y-163027380D01*
X102449285Y-163075000D01*
X102401666Y-163122619D01*
X102020714Y-163122619D02*
X101973095Y-163075000D01*
X101877857Y-163027380D01*
X101639761Y-163027380D01*
X101544523Y-163075000D01*
X101496904Y-163122619D01*
X101449285Y-163217857D01*
X101449285Y-163313095D01*
X101496904Y-163455952D01*
X102068333Y-164027380D01*
X101449285Y-164027380D01*
X98591666Y-163932142D02*
X98639285Y-163979761D01*
X98782142Y-164027380D01*
X98877380Y-164027380D01*
X99020238Y-163979761D01*
X99115476Y-163884523D01*
X99163095Y-163789285D01*
X99210714Y-163598809D01*
X99210714Y-163455952D01*
X99163095Y-163265476D01*
X99115476Y-163170238D01*
X99020238Y-163075000D01*
X98877380Y-163027380D01*
X98782142Y-163027380D01*
X98639285Y-163075000D01*
X98591666Y-163122619D01*
X98258333Y-163027380D02*
X97639285Y-163027380D01*
X97972619Y-163408333D01*
X97829761Y-163408333D01*
X97734523Y-163455952D01*
X97686904Y-163503571D01*
X97639285Y-163598809D01*
X97639285Y-163836904D01*
X97686904Y-163932142D01*
X97734523Y-163979761D01*
X97829761Y-164027380D01*
X98115476Y-164027380D01*
X98210714Y-163979761D01*
X98258333Y-163932142D01*
X94781666Y-163932142D02*
X94829285Y-163979761D01*
X94972142Y-164027380D01*
X95067380Y-164027380D01*
X95210238Y-163979761D01*
X95305476Y-163884523D01*
X95353095Y-163789285D01*
X95400714Y-163598809D01*
X95400714Y-163455952D01*
X95353095Y-163265476D01*
X95305476Y-163170238D01*
X95210238Y-163075000D01*
X95067380Y-163027380D01*
X94972142Y-163027380D01*
X94829285Y-163075000D01*
X94781666Y-163122619D01*
X93924523Y-163360714D02*
X93924523Y-164027380D01*
X94162619Y-162979761D02*
X94400714Y-163694047D01*
X93781666Y-163694047D01*
X90971666Y-163932142D02*
X91019285Y-163979761D01*
X91162142Y-164027380D01*
X91257380Y-164027380D01*
X91400238Y-163979761D01*
X91495476Y-163884523D01*
X91543095Y-163789285D01*
X91590714Y-163598809D01*
X91590714Y-163455952D01*
X91543095Y-163265476D01*
X91495476Y-163170238D01*
X91400238Y-163075000D01*
X91257380Y-163027380D01*
X91162142Y-163027380D01*
X91019285Y-163075000D01*
X90971666Y-163122619D01*
X90066904Y-163027380D02*
X90543095Y-163027380D01*
X90590714Y-163503571D01*
X90543095Y-163455952D01*
X90447857Y-163408333D01*
X90209761Y-163408333D01*
X90114523Y-163455952D01*
X90066904Y-163503571D01*
X90019285Y-163598809D01*
X90019285Y-163836904D01*
X90066904Y-163932142D01*
X90114523Y-163979761D01*
X90209761Y-164027380D01*
X90447857Y-164027380D01*
X90543095Y-163979761D01*
X90590714Y-163932142D01*
X87161666Y-163932142D02*
X87209285Y-163979761D01*
X87352142Y-164027380D01*
X87447380Y-164027380D01*
X87590238Y-163979761D01*
X87685476Y-163884523D01*
X87733095Y-163789285D01*
X87780714Y-163598809D01*
X87780714Y-163455952D01*
X87733095Y-163265476D01*
X87685476Y-163170238D01*
X87590238Y-163075000D01*
X87447380Y-163027380D01*
X87352142Y-163027380D01*
X87209285Y-163075000D01*
X87161666Y-163122619D01*
X86304523Y-163027380D02*
X86495000Y-163027380D01*
X86590238Y-163075000D01*
X86637857Y-163122619D01*
X86733095Y-163265476D01*
X86780714Y-163455952D01*
X86780714Y-163836904D01*
X86733095Y-163932142D01*
X86685476Y-163979761D01*
X86590238Y-164027380D01*
X86399761Y-164027380D01*
X86304523Y-163979761D01*
X86256904Y-163932142D01*
X86209285Y-163836904D01*
X86209285Y-163598809D01*
X86256904Y-163503571D01*
X86304523Y-163455952D01*
X86399761Y-163408333D01*
X86590238Y-163408333D01*
X86685476Y-163455952D01*
X86733095Y-163503571D01*
X86780714Y-163598809D01*
X83351666Y-163932142D02*
X83399285Y-163979761D01*
X83542142Y-164027380D01*
X83637380Y-164027380D01*
X83780238Y-163979761D01*
X83875476Y-163884523D01*
X83923095Y-163789285D01*
X83970714Y-163598809D01*
X83970714Y-163455952D01*
X83923095Y-163265476D01*
X83875476Y-163170238D01*
X83780238Y-163075000D01*
X83637380Y-163027380D01*
X83542142Y-163027380D01*
X83399285Y-163075000D01*
X83351666Y-163122619D01*
X83018333Y-163027380D02*
X82351666Y-163027380D01*
X82780238Y-164027380D01*
X128816395Y-59213230D02*
X128816395Y-58213230D01*
X128578300Y-58213230D01*
X128435443Y-58260850D01*
X128340205Y-58356088D01*
X128292586Y-58451326D01*
X128244967Y-58641802D01*
X128244967Y-58784659D01*
X128292586Y-58975135D01*
X128340205Y-59070373D01*
X128435443Y-59165611D01*
X128578300Y-59213230D01*
X128816395Y-59213230D01*
X127816395Y-58832278D02*
X127054490Y-58832278D01*
X126102110Y-59213230D02*
X126578300Y-59213230D01*
X126578300Y-58213230D01*
X125768776Y-58689421D02*
X125435443Y-58689421D01*
X125292586Y-59213230D02*
X125768776Y-59213230D01*
X125768776Y-58213230D01*
X125292586Y-58213230D01*
X124864014Y-59213230D02*
X124864014Y-58213230D01*
X124625919Y-58213230D01*
X124483062Y-58260850D01*
X124387824Y-58356088D01*
X124340205Y-58451326D01*
X124292586Y-58641802D01*
X124292586Y-58784659D01*
X124340205Y-58975135D01*
X124387824Y-59070373D01*
X124483062Y-59165611D01*
X124625919Y-59213230D01*
X124864014Y-59213230D01*
X123340205Y-59213230D02*
X123911633Y-59213230D01*
X123625919Y-59213230D02*
X123625919Y-58213230D01*
X123721157Y-58356088D01*
X123816395Y-58451326D01*
X123911633Y-58498945D01*
X176441395Y-59213230D02*
X176441395Y-58213230D01*
X176203300Y-58213230D01*
X176060443Y-58260850D01*
X175965205Y-58356088D01*
X175917586Y-58451326D01*
X175869967Y-58641802D01*
X175869967Y-58784659D01*
X175917586Y-58975135D01*
X175965205Y-59070373D01*
X176060443Y-59165611D01*
X176203300Y-59213230D01*
X176441395Y-59213230D01*
X175441395Y-58832278D02*
X174679490Y-58832278D01*
X173727110Y-59213230D02*
X174203300Y-59213230D01*
X174203300Y-58213230D01*
X173393776Y-58689421D02*
X173060443Y-58689421D01*
X172917586Y-59213230D02*
X173393776Y-59213230D01*
X173393776Y-58213230D01*
X172917586Y-58213230D01*
X172489014Y-59213230D02*
X172489014Y-58213230D01*
X172250919Y-58213230D01*
X172108062Y-58260850D01*
X172012824Y-58356088D01*
X171965205Y-58451326D01*
X171917586Y-58641802D01*
X171917586Y-58784659D01*
X171965205Y-58975135D01*
X172012824Y-59070373D01*
X172108062Y-59165611D01*
X172250919Y-59213230D01*
X172489014Y-59213230D01*
X171584252Y-58213230D02*
X170965205Y-58213230D01*
X171298538Y-58594183D01*
X171155681Y-58594183D01*
X171060443Y-58641802D01*
X171012824Y-58689421D01*
X170965205Y-58784659D01*
X170965205Y-59022754D01*
X171012824Y-59117992D01*
X171060443Y-59165611D01*
X171155681Y-59213230D01*
X171441395Y-59213230D01*
X171536633Y-59165611D01*
X171584252Y-59117992D01*
X195491395Y-59340230D02*
X195491395Y-58340230D01*
X195253300Y-58340230D01*
X195110443Y-58387850D01*
X195015205Y-58483088D01*
X194967586Y-58578326D01*
X194919967Y-58768802D01*
X194919967Y-58911659D01*
X194967586Y-59102135D01*
X195015205Y-59197373D01*
X195110443Y-59292611D01*
X195253300Y-59340230D01*
X195491395Y-59340230D01*
X194491395Y-58959278D02*
X193729490Y-58959278D01*
X192777110Y-59340230D02*
X193253300Y-59340230D01*
X193253300Y-58340230D01*
X192443776Y-58816421D02*
X192110443Y-58816421D01*
X191967586Y-59340230D02*
X192443776Y-59340230D01*
X192443776Y-58340230D01*
X191967586Y-58340230D01*
X191539014Y-59340230D02*
X191539014Y-58340230D01*
X191300919Y-58340230D01*
X191158062Y-58387850D01*
X191062824Y-58483088D01*
X191015205Y-58578326D01*
X190967586Y-58768802D01*
X190967586Y-58911659D01*
X191015205Y-59102135D01*
X191062824Y-59197373D01*
X191158062Y-59292611D01*
X191300919Y-59340230D01*
X191539014Y-59340230D01*
X190110443Y-58673564D02*
X190110443Y-59340230D01*
X190348538Y-58292611D02*
X190586633Y-59006897D01*
X189967586Y-59006897D01*
X214541395Y-59340230D02*
X214541395Y-58340230D01*
X214303300Y-58340230D01*
X214160443Y-58387850D01*
X214065205Y-58483088D01*
X214017586Y-58578326D01*
X213969967Y-58768802D01*
X213969967Y-58911659D01*
X214017586Y-59102135D01*
X214065205Y-59197373D01*
X214160443Y-59292611D01*
X214303300Y-59340230D01*
X214541395Y-59340230D01*
X213541395Y-58959278D02*
X212779490Y-58959278D01*
X211827110Y-59340230D02*
X212303300Y-59340230D01*
X212303300Y-58340230D01*
X211493776Y-58816421D02*
X211160443Y-58816421D01*
X211017586Y-59340230D02*
X211493776Y-59340230D01*
X211493776Y-58340230D01*
X211017586Y-58340230D01*
X210589014Y-59340230D02*
X210589014Y-58340230D01*
X210350919Y-58340230D01*
X210208062Y-58387850D01*
X210112824Y-58483088D01*
X210065205Y-58578326D01*
X210017586Y-58768802D01*
X210017586Y-58911659D01*
X210065205Y-59102135D01*
X210112824Y-59197373D01*
X210208062Y-59292611D01*
X210350919Y-59340230D01*
X210589014Y-59340230D01*
X209112824Y-58340230D02*
X209589014Y-58340230D01*
X209636633Y-58816421D01*
X209589014Y-58768802D01*
X209493776Y-58721183D01*
X209255681Y-58721183D01*
X209160443Y-58768802D01*
X209112824Y-58816421D01*
X209065205Y-58911659D01*
X209065205Y-59149754D01*
X209112824Y-59244992D01*
X209160443Y-59292611D01*
X209255681Y-59340230D01*
X209493776Y-59340230D01*
X209589014Y-59292611D01*
X209636633Y-59244992D01*
X233591395Y-59213230D02*
X233591395Y-58213230D01*
X233353300Y-58213230D01*
X233210443Y-58260850D01*
X233115205Y-58356088D01*
X233067586Y-58451326D01*
X233019967Y-58641802D01*
X233019967Y-58784659D01*
X233067586Y-58975135D01*
X233115205Y-59070373D01*
X233210443Y-59165611D01*
X233353300Y-59213230D01*
X233591395Y-59213230D01*
X232591395Y-58832278D02*
X231829490Y-58832278D01*
X230877110Y-59213230D02*
X231353300Y-59213230D01*
X231353300Y-58213230D01*
X230543776Y-58689421D02*
X230210443Y-58689421D01*
X230067586Y-59213230D02*
X230543776Y-59213230D01*
X230543776Y-58213230D01*
X230067586Y-58213230D01*
X229639014Y-59213230D02*
X229639014Y-58213230D01*
X229400919Y-58213230D01*
X229258062Y-58260850D01*
X229162824Y-58356088D01*
X229115205Y-58451326D01*
X229067586Y-58641802D01*
X229067586Y-58784659D01*
X229115205Y-58975135D01*
X229162824Y-59070373D01*
X229258062Y-59165611D01*
X229400919Y-59213230D01*
X229639014Y-59213230D01*
X228210443Y-58213230D02*
X228400919Y-58213230D01*
X228496157Y-58260850D01*
X228543776Y-58308469D01*
X228639014Y-58451326D01*
X228686633Y-58641802D01*
X228686633Y-59022754D01*
X228639014Y-59117992D01*
X228591395Y-59165611D01*
X228496157Y-59213230D01*
X228305681Y-59213230D01*
X228210443Y-59165611D01*
X228162824Y-59117992D01*
X228115205Y-59022754D01*
X228115205Y-58784659D01*
X228162824Y-58689421D01*
X228210443Y-58641802D01*
X228305681Y-58594183D01*
X228496157Y-58594183D01*
X228591395Y-58641802D01*
X228639014Y-58689421D01*
X228686633Y-58784659D01*
X128816395Y-78263230D02*
X128816395Y-77263230D01*
X128578300Y-77263230D01*
X128435443Y-77310850D01*
X128340205Y-77406088D01*
X128292586Y-77501326D01*
X128244967Y-77691802D01*
X128244967Y-77834659D01*
X128292586Y-78025135D01*
X128340205Y-78120373D01*
X128435443Y-78215611D01*
X128578300Y-78263230D01*
X128816395Y-78263230D01*
X127816395Y-77882278D02*
X127054490Y-77882278D01*
X126102110Y-78263230D02*
X126578300Y-78263230D01*
X126578300Y-77263230D01*
X125768776Y-77739421D02*
X125435443Y-77739421D01*
X125292586Y-78263230D02*
X125768776Y-78263230D01*
X125768776Y-77263230D01*
X125292586Y-77263230D01*
X124864014Y-78263230D02*
X124864014Y-77263230D01*
X124625919Y-77263230D01*
X124483062Y-77310850D01*
X124387824Y-77406088D01*
X124340205Y-77501326D01*
X124292586Y-77691802D01*
X124292586Y-77834659D01*
X124340205Y-78025135D01*
X124387824Y-78120373D01*
X124483062Y-78215611D01*
X124625919Y-78263230D01*
X124864014Y-78263230D01*
X123721157Y-77691802D02*
X123816395Y-77644183D01*
X123864014Y-77596564D01*
X123911633Y-77501326D01*
X123911633Y-77453707D01*
X123864014Y-77358469D01*
X123816395Y-77310850D01*
X123721157Y-77263230D01*
X123530681Y-77263230D01*
X123435443Y-77310850D01*
X123387824Y-77358469D01*
X123340205Y-77453707D01*
X123340205Y-77501326D01*
X123387824Y-77596564D01*
X123435443Y-77644183D01*
X123530681Y-77691802D01*
X123721157Y-77691802D01*
X123816395Y-77739421D01*
X123864014Y-77787040D01*
X123911633Y-77882278D01*
X123911633Y-78072754D01*
X123864014Y-78167992D01*
X123816395Y-78215611D01*
X123721157Y-78263230D01*
X123530681Y-78263230D01*
X123435443Y-78215611D01*
X123387824Y-78167992D01*
X123340205Y-78072754D01*
X123340205Y-77882278D01*
X123387824Y-77787040D01*
X123435443Y-77739421D01*
X123530681Y-77691802D01*
X157391395Y-78263230D02*
X157391395Y-77263230D01*
X157153300Y-77263230D01*
X157010443Y-77310850D01*
X156915205Y-77406088D01*
X156867586Y-77501326D01*
X156819967Y-77691802D01*
X156819967Y-77834659D01*
X156867586Y-78025135D01*
X156915205Y-78120373D01*
X157010443Y-78215611D01*
X157153300Y-78263230D01*
X157391395Y-78263230D01*
X156391395Y-77882278D02*
X155629490Y-77882278D01*
X154677110Y-78263230D02*
X155153300Y-78263230D01*
X155153300Y-77263230D01*
X154343776Y-77739421D02*
X154010443Y-77739421D01*
X153867586Y-78263230D02*
X154343776Y-78263230D01*
X154343776Y-77263230D01*
X153867586Y-77263230D01*
X153439014Y-78263230D02*
X153439014Y-77263230D01*
X153200919Y-77263230D01*
X153058062Y-77310850D01*
X152962824Y-77406088D01*
X152915205Y-77501326D01*
X152867586Y-77691802D01*
X152867586Y-77834659D01*
X152915205Y-78025135D01*
X152962824Y-78120373D01*
X153058062Y-78215611D01*
X153200919Y-78263230D01*
X153439014Y-78263230D01*
X152391395Y-78263230D02*
X152200919Y-78263230D01*
X152105681Y-78215611D01*
X152058062Y-78167992D01*
X151962824Y-78025135D01*
X151915205Y-77834659D01*
X151915205Y-77453707D01*
X151962824Y-77358469D01*
X152010443Y-77310850D01*
X152105681Y-77263230D01*
X152296157Y-77263230D01*
X152391395Y-77310850D01*
X152439014Y-77358469D01*
X152486633Y-77453707D01*
X152486633Y-77691802D01*
X152439014Y-77787040D01*
X152391395Y-77834659D01*
X152296157Y-77882278D01*
X152105681Y-77882278D01*
X152010443Y-77834659D01*
X151962824Y-77787040D01*
X151915205Y-77691802D01*
X176917586Y-78263230D02*
X176917586Y-77263230D01*
X176679490Y-77263230D01*
X176536633Y-77310850D01*
X176441395Y-77406088D01*
X176393776Y-77501326D01*
X176346157Y-77691802D01*
X176346157Y-77834659D01*
X176393776Y-78025135D01*
X176441395Y-78120373D01*
X176536633Y-78215611D01*
X176679490Y-78263230D01*
X176917586Y-78263230D01*
X175917586Y-77882278D02*
X175155681Y-77882278D01*
X174203300Y-78263230D02*
X174679490Y-78263230D01*
X174679490Y-77263230D01*
X173869967Y-77739421D02*
X173536633Y-77739421D01*
X173393776Y-78263230D02*
X173869967Y-78263230D01*
X173869967Y-77263230D01*
X173393776Y-77263230D01*
X172965205Y-78263230D02*
X172965205Y-77263230D01*
X172727110Y-77263230D01*
X172584252Y-77310850D01*
X172489014Y-77406088D01*
X172441395Y-77501326D01*
X172393776Y-77691802D01*
X172393776Y-77834659D01*
X172441395Y-78025135D01*
X172489014Y-78120373D01*
X172584252Y-78215611D01*
X172727110Y-78263230D01*
X172965205Y-78263230D01*
X171441395Y-78263230D02*
X172012824Y-78263230D01*
X171727110Y-78263230D02*
X171727110Y-77263230D01*
X171822348Y-77406088D01*
X171917586Y-77501326D01*
X172012824Y-77548945D01*
X170822348Y-77263230D02*
X170727110Y-77263230D01*
X170631871Y-77310850D01*
X170584252Y-77358469D01*
X170536633Y-77453707D01*
X170489014Y-77644183D01*
X170489014Y-77882278D01*
X170536633Y-78072754D01*
X170584252Y-78167992D01*
X170631871Y-78215611D01*
X170727110Y-78263230D01*
X170822348Y-78263230D01*
X170917586Y-78215611D01*
X170965205Y-78167992D01*
X171012824Y-78072754D01*
X171060443Y-77882278D01*
X171060443Y-77644183D01*
X171012824Y-77453707D01*
X170965205Y-77358469D01*
X170917586Y-77310850D01*
X170822348Y-77263230D01*
X195967586Y-78263230D02*
X195967586Y-77263230D01*
X195729490Y-77263230D01*
X195586633Y-77310850D01*
X195491395Y-77406088D01*
X195443776Y-77501326D01*
X195396157Y-77691802D01*
X195396157Y-77834659D01*
X195443776Y-78025135D01*
X195491395Y-78120373D01*
X195586633Y-78215611D01*
X195729490Y-78263230D01*
X195967586Y-78263230D01*
X194967586Y-77882278D02*
X194205681Y-77882278D01*
X193253300Y-78263230D02*
X193729490Y-78263230D01*
X193729490Y-77263230D01*
X192919967Y-77739421D02*
X192586633Y-77739421D01*
X192443776Y-78263230D02*
X192919967Y-78263230D01*
X192919967Y-77263230D01*
X192443776Y-77263230D01*
X192015205Y-78263230D02*
X192015205Y-77263230D01*
X191777110Y-77263230D01*
X191634252Y-77310850D01*
X191539014Y-77406088D01*
X191491395Y-77501326D01*
X191443776Y-77691802D01*
X191443776Y-77834659D01*
X191491395Y-78025135D01*
X191539014Y-78120373D01*
X191634252Y-78215611D01*
X191777110Y-78263230D01*
X192015205Y-78263230D01*
X190491395Y-78263230D02*
X191062824Y-78263230D01*
X190777110Y-78263230D02*
X190777110Y-77263230D01*
X190872348Y-77406088D01*
X190967586Y-77501326D01*
X191062824Y-77548945D01*
X189539014Y-78263230D02*
X190110443Y-78263230D01*
X189824729Y-78263230D02*
X189824729Y-77263230D01*
X189919967Y-77406088D01*
X190015205Y-77501326D01*
X190110443Y-77548945D01*
X215017586Y-78263230D02*
X215017586Y-77263230D01*
X214779490Y-77263230D01*
X214636633Y-77310850D01*
X214541395Y-77406088D01*
X214493776Y-77501326D01*
X214446157Y-77691802D01*
X214446157Y-77834659D01*
X214493776Y-78025135D01*
X214541395Y-78120373D01*
X214636633Y-78215611D01*
X214779490Y-78263230D01*
X215017586Y-78263230D01*
X214017586Y-77882278D02*
X213255681Y-77882278D01*
X212303300Y-78263230D02*
X212779490Y-78263230D01*
X212779490Y-77263230D01*
X211969967Y-77739421D02*
X211636633Y-77739421D01*
X211493776Y-78263230D02*
X211969967Y-78263230D01*
X211969967Y-77263230D01*
X211493776Y-77263230D01*
X211065205Y-78263230D02*
X211065205Y-77263230D01*
X210827110Y-77263230D01*
X210684252Y-77310850D01*
X210589014Y-77406088D01*
X210541395Y-77501326D01*
X210493776Y-77691802D01*
X210493776Y-77834659D01*
X210541395Y-78025135D01*
X210589014Y-78120373D01*
X210684252Y-78215611D01*
X210827110Y-78263230D01*
X211065205Y-78263230D01*
X209541395Y-78263230D02*
X210112824Y-78263230D01*
X209827110Y-78263230D02*
X209827110Y-77263230D01*
X209922348Y-77406088D01*
X210017586Y-77501326D01*
X210112824Y-77548945D01*
X209160443Y-77358469D02*
X209112824Y-77310850D01*
X209017586Y-77263230D01*
X208779490Y-77263230D01*
X208684252Y-77310850D01*
X208636633Y-77358469D01*
X208589014Y-77453707D01*
X208589014Y-77548945D01*
X208636633Y-77691802D01*
X209208062Y-78263230D01*
X208589014Y-78263230D01*
X234067586Y-78263230D02*
X234067586Y-77263230D01*
X233829490Y-77263230D01*
X233686633Y-77310850D01*
X233591395Y-77406088D01*
X233543776Y-77501326D01*
X233496157Y-77691802D01*
X233496157Y-77834659D01*
X233543776Y-78025135D01*
X233591395Y-78120373D01*
X233686633Y-78215611D01*
X233829490Y-78263230D01*
X234067586Y-78263230D01*
X233067586Y-77882278D02*
X232305681Y-77882278D01*
X231353300Y-78263230D02*
X231829490Y-78263230D01*
X231829490Y-77263230D01*
X231019967Y-77739421D02*
X230686633Y-77739421D01*
X230543776Y-78263230D02*
X231019967Y-78263230D01*
X231019967Y-77263230D01*
X230543776Y-77263230D01*
X230115205Y-78263230D02*
X230115205Y-77263230D01*
X229877110Y-77263230D01*
X229734252Y-77310850D01*
X229639014Y-77406088D01*
X229591395Y-77501326D01*
X229543776Y-77691802D01*
X229543776Y-77834659D01*
X229591395Y-78025135D01*
X229639014Y-78120373D01*
X229734252Y-78215611D01*
X229877110Y-78263230D01*
X230115205Y-78263230D01*
X228591395Y-78263230D02*
X229162824Y-78263230D01*
X228877110Y-78263230D02*
X228877110Y-77263230D01*
X228972348Y-77406088D01*
X229067586Y-77501326D01*
X229162824Y-77548945D01*
X228258062Y-77263230D02*
X227639014Y-77263230D01*
X227972348Y-77644183D01*
X227829490Y-77644183D01*
X227734252Y-77691802D01*
X227686633Y-77739421D01*
X227639014Y-77834659D01*
X227639014Y-78072754D01*
X227686633Y-78167992D01*
X227734252Y-78215611D01*
X227829490Y-78263230D01*
X228115205Y-78263230D01*
X228210443Y-78215611D01*
X228258062Y-78167992D01*
X129292586Y-97313230D02*
X129292586Y-96313230D01*
X129054490Y-96313230D01*
X128911633Y-96360850D01*
X128816395Y-96456088D01*
X128768776Y-96551326D01*
X128721157Y-96741802D01*
X128721157Y-96884659D01*
X128768776Y-97075135D01*
X128816395Y-97170373D01*
X128911633Y-97265611D01*
X129054490Y-97313230D01*
X129292586Y-97313230D01*
X128292586Y-96932278D02*
X127530681Y-96932278D01*
X126578300Y-97313230D02*
X127054490Y-97313230D01*
X127054490Y-96313230D01*
X126244967Y-96789421D02*
X125911633Y-96789421D01*
X125768776Y-97313230D02*
X126244967Y-97313230D01*
X126244967Y-96313230D01*
X125768776Y-96313230D01*
X125340205Y-97313230D02*
X125340205Y-96313230D01*
X125102110Y-96313230D01*
X124959252Y-96360850D01*
X124864014Y-96456088D01*
X124816395Y-96551326D01*
X124768776Y-96741802D01*
X124768776Y-96884659D01*
X124816395Y-97075135D01*
X124864014Y-97170373D01*
X124959252Y-97265611D01*
X125102110Y-97313230D01*
X125340205Y-97313230D01*
X123816395Y-97313230D02*
X124387824Y-97313230D01*
X124102110Y-97313230D02*
X124102110Y-96313230D01*
X124197348Y-96456088D01*
X124292586Y-96551326D01*
X124387824Y-96598945D01*
X122911633Y-96313230D02*
X123387824Y-96313230D01*
X123435443Y-96789421D01*
X123387824Y-96741802D01*
X123292586Y-96694183D01*
X123054490Y-96694183D01*
X122959252Y-96741802D01*
X122911633Y-96789421D01*
X122864014Y-96884659D01*
X122864014Y-97122754D01*
X122911633Y-97217992D01*
X122959252Y-97265611D01*
X123054490Y-97313230D01*
X123292586Y-97313230D01*
X123387824Y-97265611D01*
X123435443Y-97217992D01*
X157867586Y-97313230D02*
X157867586Y-96313230D01*
X157629490Y-96313230D01*
X157486633Y-96360850D01*
X157391395Y-96456088D01*
X157343776Y-96551326D01*
X157296157Y-96741802D01*
X157296157Y-96884659D01*
X157343776Y-97075135D01*
X157391395Y-97170373D01*
X157486633Y-97265611D01*
X157629490Y-97313230D01*
X157867586Y-97313230D01*
X156867586Y-96932278D02*
X156105681Y-96932278D01*
X155153300Y-97313230D02*
X155629490Y-97313230D01*
X155629490Y-96313230D01*
X154819967Y-96789421D02*
X154486633Y-96789421D01*
X154343776Y-97313230D02*
X154819967Y-97313230D01*
X154819967Y-96313230D01*
X154343776Y-96313230D01*
X153915205Y-97313230D02*
X153915205Y-96313230D01*
X153677110Y-96313230D01*
X153534252Y-96360850D01*
X153439014Y-96456088D01*
X153391395Y-96551326D01*
X153343776Y-96741802D01*
X153343776Y-96884659D01*
X153391395Y-97075135D01*
X153439014Y-97170373D01*
X153534252Y-97265611D01*
X153677110Y-97313230D01*
X153915205Y-97313230D01*
X152391395Y-97313230D02*
X152962824Y-97313230D01*
X152677110Y-97313230D02*
X152677110Y-96313230D01*
X152772348Y-96456088D01*
X152867586Y-96551326D01*
X152962824Y-96598945D01*
X151534252Y-96313230D02*
X151724729Y-96313230D01*
X151819967Y-96360850D01*
X151867586Y-96408469D01*
X151962824Y-96551326D01*
X152010443Y-96741802D01*
X152010443Y-97122754D01*
X151962824Y-97217992D01*
X151915205Y-97265611D01*
X151819967Y-97313230D01*
X151629490Y-97313230D01*
X151534252Y-97265611D01*
X151486633Y-97217992D01*
X151439014Y-97122754D01*
X151439014Y-96884659D01*
X151486633Y-96789421D01*
X151534252Y-96741802D01*
X151629490Y-96694183D01*
X151819967Y-96694183D01*
X151915205Y-96741802D01*
X151962824Y-96789421D01*
X152010443Y-96884659D01*
X176917586Y-97313230D02*
X176917586Y-96313230D01*
X176679490Y-96313230D01*
X176536633Y-96360850D01*
X176441395Y-96456088D01*
X176393776Y-96551326D01*
X176346157Y-96741802D01*
X176346157Y-96884659D01*
X176393776Y-97075135D01*
X176441395Y-97170373D01*
X176536633Y-97265611D01*
X176679490Y-97313230D01*
X176917586Y-97313230D01*
X175917586Y-96932278D02*
X175155681Y-96932278D01*
X174203300Y-97313230D02*
X174679490Y-97313230D01*
X174679490Y-96313230D01*
X173869967Y-96789421D02*
X173536633Y-96789421D01*
X173393776Y-97313230D02*
X173869967Y-97313230D01*
X173869967Y-96313230D01*
X173393776Y-96313230D01*
X172965205Y-97313230D02*
X172965205Y-96313230D01*
X172727110Y-96313230D01*
X172584252Y-96360850D01*
X172489014Y-96456088D01*
X172441395Y-96551326D01*
X172393776Y-96741802D01*
X172393776Y-96884659D01*
X172441395Y-97075135D01*
X172489014Y-97170373D01*
X172584252Y-97265611D01*
X172727110Y-97313230D01*
X172965205Y-97313230D01*
X171441395Y-97313230D02*
X172012824Y-97313230D01*
X171727110Y-97313230D02*
X171727110Y-96313230D01*
X171822348Y-96456088D01*
X171917586Y-96551326D01*
X172012824Y-96598945D01*
X171108062Y-96313230D02*
X170441395Y-96313230D01*
X170869967Y-97313230D01*
X195967586Y-97313230D02*
X195967586Y-96313230D01*
X195729490Y-96313230D01*
X195586633Y-96360850D01*
X195491395Y-96456088D01*
X195443776Y-96551326D01*
X195396157Y-96741802D01*
X195396157Y-96884659D01*
X195443776Y-97075135D01*
X195491395Y-97170373D01*
X195586633Y-97265611D01*
X195729490Y-97313230D01*
X195967586Y-97313230D01*
X194967586Y-96932278D02*
X194205681Y-96932278D01*
X193253300Y-97313230D02*
X193729490Y-97313230D01*
X193729490Y-96313230D01*
X192919967Y-96789421D02*
X192586633Y-96789421D01*
X192443776Y-97313230D02*
X192919967Y-97313230D01*
X192919967Y-96313230D01*
X192443776Y-96313230D01*
X192015205Y-97313230D02*
X192015205Y-96313230D01*
X191777110Y-96313230D01*
X191634252Y-96360850D01*
X191539014Y-96456088D01*
X191491395Y-96551326D01*
X191443776Y-96741802D01*
X191443776Y-96884659D01*
X191491395Y-97075135D01*
X191539014Y-97170373D01*
X191634252Y-97265611D01*
X191777110Y-97313230D01*
X192015205Y-97313230D01*
X190491395Y-97313230D02*
X191062824Y-97313230D01*
X190777110Y-97313230D02*
X190777110Y-96313230D01*
X190872348Y-96456088D01*
X190967586Y-96551326D01*
X191062824Y-96598945D01*
X189919967Y-96741802D02*
X190015205Y-96694183D01*
X190062824Y-96646564D01*
X190110443Y-96551326D01*
X190110443Y-96503707D01*
X190062824Y-96408469D01*
X190015205Y-96360850D01*
X189919967Y-96313230D01*
X189729490Y-96313230D01*
X189634252Y-96360850D01*
X189586633Y-96408469D01*
X189539014Y-96503707D01*
X189539014Y-96551326D01*
X189586633Y-96646564D01*
X189634252Y-96694183D01*
X189729490Y-96741802D01*
X189919967Y-96741802D01*
X190015205Y-96789421D01*
X190062824Y-96837040D01*
X190110443Y-96932278D01*
X190110443Y-97122754D01*
X190062824Y-97217992D01*
X190015205Y-97265611D01*
X189919967Y-97313230D01*
X189729490Y-97313230D01*
X189634252Y-97265611D01*
X189586633Y-97217992D01*
X189539014Y-97122754D01*
X189539014Y-96932278D01*
X189586633Y-96837040D01*
X189634252Y-96789421D01*
X189729490Y-96741802D01*
X215017586Y-97313230D02*
X215017586Y-96313230D01*
X214779490Y-96313230D01*
X214636633Y-96360850D01*
X214541395Y-96456088D01*
X214493776Y-96551326D01*
X214446157Y-96741802D01*
X214446157Y-96884659D01*
X214493776Y-97075135D01*
X214541395Y-97170373D01*
X214636633Y-97265611D01*
X214779490Y-97313230D01*
X215017586Y-97313230D01*
X214017586Y-96932278D02*
X213255681Y-96932278D01*
X212303300Y-97313230D02*
X212779490Y-97313230D01*
X212779490Y-96313230D01*
X211969967Y-96789421D02*
X211636633Y-96789421D01*
X211493776Y-97313230D02*
X211969967Y-97313230D01*
X211969967Y-96313230D01*
X211493776Y-96313230D01*
X211065205Y-97313230D02*
X211065205Y-96313230D01*
X210827110Y-96313230D01*
X210684252Y-96360850D01*
X210589014Y-96456088D01*
X210541395Y-96551326D01*
X210493776Y-96741802D01*
X210493776Y-96884659D01*
X210541395Y-97075135D01*
X210589014Y-97170373D01*
X210684252Y-97265611D01*
X210827110Y-97313230D01*
X211065205Y-97313230D01*
X209541395Y-97313230D02*
X210112824Y-97313230D01*
X209827110Y-97313230D02*
X209827110Y-96313230D01*
X209922348Y-96456088D01*
X210017586Y-96551326D01*
X210112824Y-96598945D01*
X209065205Y-97313230D02*
X208874729Y-97313230D01*
X208779490Y-97265611D01*
X208731871Y-97217992D01*
X208636633Y-97075135D01*
X208589014Y-96884659D01*
X208589014Y-96503707D01*
X208636633Y-96408469D01*
X208684252Y-96360850D01*
X208779490Y-96313230D01*
X208969967Y-96313230D01*
X209065205Y-96360850D01*
X209112824Y-96408469D01*
X209160443Y-96503707D01*
X209160443Y-96741802D01*
X209112824Y-96837040D01*
X209065205Y-96884659D01*
X208969967Y-96932278D01*
X208779490Y-96932278D01*
X208684252Y-96884659D01*
X208636633Y-96837040D01*
X208589014Y-96741802D01*
X234067586Y-97313230D02*
X234067586Y-96313230D01*
X233829490Y-96313230D01*
X233686633Y-96360850D01*
X233591395Y-96456088D01*
X233543776Y-96551326D01*
X233496157Y-96741802D01*
X233496157Y-96884659D01*
X233543776Y-97075135D01*
X233591395Y-97170373D01*
X233686633Y-97265611D01*
X233829490Y-97313230D01*
X234067586Y-97313230D01*
X233067586Y-96932278D02*
X232305681Y-96932278D01*
X231353300Y-97313230D02*
X231829490Y-97313230D01*
X231829490Y-96313230D01*
X231019967Y-96789421D02*
X230686633Y-96789421D01*
X230543776Y-97313230D02*
X231019967Y-97313230D01*
X231019967Y-96313230D01*
X230543776Y-96313230D01*
X230115205Y-97313230D02*
X230115205Y-96313230D01*
X229877110Y-96313230D01*
X229734252Y-96360850D01*
X229639014Y-96456088D01*
X229591395Y-96551326D01*
X229543776Y-96741802D01*
X229543776Y-96884659D01*
X229591395Y-97075135D01*
X229639014Y-97170373D01*
X229734252Y-97265611D01*
X229877110Y-97313230D01*
X230115205Y-97313230D01*
X229162824Y-96408469D02*
X229115205Y-96360850D01*
X229019967Y-96313230D01*
X228781871Y-96313230D01*
X228686633Y-96360850D01*
X228639014Y-96408469D01*
X228591395Y-96503707D01*
X228591395Y-96598945D01*
X228639014Y-96741802D01*
X229210443Y-97313230D01*
X228591395Y-97313230D01*
X227972348Y-96313230D02*
X227877110Y-96313230D01*
X227781871Y-96360850D01*
X227734252Y-96408469D01*
X227686633Y-96503707D01*
X227639014Y-96694183D01*
X227639014Y-96932278D01*
X227686633Y-97122754D01*
X227734252Y-97217992D01*
X227781871Y-97265611D01*
X227877110Y-97313230D01*
X227972348Y-97313230D01*
X228067586Y-97265611D01*
X228115205Y-97217992D01*
X228162824Y-97122754D01*
X228210443Y-96932278D01*
X228210443Y-96694183D01*
X228162824Y-96503707D01*
X228115205Y-96408469D01*
X228067586Y-96360850D01*
X227972348Y-96313230D01*
X129292586Y-116363230D02*
X129292586Y-115363230D01*
X129054490Y-115363230D01*
X128911633Y-115410850D01*
X128816395Y-115506088D01*
X128768776Y-115601326D01*
X128721157Y-115791802D01*
X128721157Y-115934659D01*
X128768776Y-116125135D01*
X128816395Y-116220373D01*
X128911633Y-116315611D01*
X129054490Y-116363230D01*
X129292586Y-116363230D01*
X128292586Y-115982278D02*
X127530681Y-115982278D01*
X126578300Y-116363230D02*
X127054490Y-116363230D01*
X127054490Y-115363230D01*
X126244967Y-115839421D02*
X125911633Y-115839421D01*
X125768776Y-116363230D02*
X126244967Y-116363230D01*
X126244967Y-115363230D01*
X125768776Y-115363230D01*
X125340205Y-116363230D02*
X125340205Y-115363230D01*
X125102110Y-115363230D01*
X124959252Y-115410850D01*
X124864014Y-115506088D01*
X124816395Y-115601326D01*
X124768776Y-115791802D01*
X124768776Y-115934659D01*
X124816395Y-116125135D01*
X124864014Y-116220373D01*
X124959252Y-116315611D01*
X125102110Y-116363230D01*
X125340205Y-116363230D01*
X124387824Y-115458469D02*
X124340205Y-115410850D01*
X124244967Y-115363230D01*
X124006871Y-115363230D01*
X123911633Y-115410850D01*
X123864014Y-115458469D01*
X123816395Y-115553707D01*
X123816395Y-115648945D01*
X123864014Y-115791802D01*
X124435443Y-116363230D01*
X123816395Y-116363230D01*
X123435443Y-115458469D02*
X123387824Y-115410850D01*
X123292586Y-115363230D01*
X123054490Y-115363230D01*
X122959252Y-115410850D01*
X122911633Y-115458469D01*
X122864014Y-115553707D01*
X122864014Y-115648945D01*
X122911633Y-115791802D01*
X123483062Y-116363230D01*
X122864014Y-116363230D01*
X157867586Y-116363230D02*
X157867586Y-115363230D01*
X157629490Y-115363230D01*
X157486633Y-115410850D01*
X157391395Y-115506088D01*
X157343776Y-115601326D01*
X157296157Y-115791802D01*
X157296157Y-115934659D01*
X157343776Y-116125135D01*
X157391395Y-116220373D01*
X157486633Y-116315611D01*
X157629490Y-116363230D01*
X157867586Y-116363230D01*
X156867586Y-115982278D02*
X156105681Y-115982278D01*
X155153300Y-116363230D02*
X155629490Y-116363230D01*
X155629490Y-115363230D01*
X154819967Y-115839421D02*
X154486633Y-115839421D01*
X154343776Y-116363230D02*
X154819967Y-116363230D01*
X154819967Y-115363230D01*
X154343776Y-115363230D01*
X153915205Y-116363230D02*
X153915205Y-115363230D01*
X153677110Y-115363230D01*
X153534252Y-115410850D01*
X153439014Y-115506088D01*
X153391395Y-115601326D01*
X153343776Y-115791802D01*
X153343776Y-115934659D01*
X153391395Y-116125135D01*
X153439014Y-116220373D01*
X153534252Y-116315611D01*
X153677110Y-116363230D01*
X153915205Y-116363230D01*
X152962824Y-115458469D02*
X152915205Y-115410850D01*
X152819967Y-115363230D01*
X152581871Y-115363230D01*
X152486633Y-115410850D01*
X152439014Y-115458469D01*
X152391395Y-115553707D01*
X152391395Y-115648945D01*
X152439014Y-115791802D01*
X153010443Y-116363230D01*
X152391395Y-116363230D01*
X152058062Y-115363230D02*
X151439014Y-115363230D01*
X151772348Y-115744183D01*
X151629490Y-115744183D01*
X151534252Y-115791802D01*
X151486633Y-115839421D01*
X151439014Y-115934659D01*
X151439014Y-116172754D01*
X151486633Y-116267992D01*
X151534252Y-116315611D01*
X151629490Y-116363230D01*
X151915205Y-116363230D01*
X152010443Y-116315611D01*
X152058062Y-116267992D01*
X176917586Y-116363230D02*
X176917586Y-115363230D01*
X176679490Y-115363230D01*
X176536633Y-115410850D01*
X176441395Y-115506088D01*
X176393776Y-115601326D01*
X176346157Y-115791802D01*
X176346157Y-115934659D01*
X176393776Y-116125135D01*
X176441395Y-116220373D01*
X176536633Y-116315611D01*
X176679490Y-116363230D01*
X176917586Y-116363230D01*
X175917586Y-115982278D02*
X175155681Y-115982278D01*
X174203300Y-116363230D02*
X174679490Y-116363230D01*
X174679490Y-115363230D01*
X173869967Y-115839421D02*
X173536633Y-115839421D01*
X173393776Y-116363230D02*
X173869967Y-116363230D01*
X173869967Y-115363230D01*
X173393776Y-115363230D01*
X172965205Y-116363230D02*
X172965205Y-115363230D01*
X172727110Y-115363230D01*
X172584252Y-115410850D01*
X172489014Y-115506088D01*
X172441395Y-115601326D01*
X172393776Y-115791802D01*
X172393776Y-115934659D01*
X172441395Y-116125135D01*
X172489014Y-116220373D01*
X172584252Y-116315611D01*
X172727110Y-116363230D01*
X172965205Y-116363230D01*
X172012824Y-115458469D02*
X171965205Y-115410850D01*
X171869967Y-115363230D01*
X171631871Y-115363230D01*
X171536633Y-115410850D01*
X171489014Y-115458469D01*
X171441395Y-115553707D01*
X171441395Y-115648945D01*
X171489014Y-115791802D01*
X172060443Y-116363230D01*
X171441395Y-116363230D01*
X170584252Y-115696564D02*
X170584252Y-116363230D01*
X170822348Y-115315611D02*
X171060443Y-116029897D01*
X170441395Y-116029897D01*
X215017586Y-116363230D02*
X215017586Y-115363230D01*
X214779490Y-115363230D01*
X214636633Y-115410850D01*
X214541395Y-115506088D01*
X214493776Y-115601326D01*
X214446157Y-115791802D01*
X214446157Y-115934659D01*
X214493776Y-116125135D01*
X214541395Y-116220373D01*
X214636633Y-116315611D01*
X214779490Y-116363230D01*
X215017586Y-116363230D01*
X214017586Y-115982278D02*
X213255681Y-115982278D01*
X212303300Y-116363230D02*
X212779490Y-116363230D01*
X212779490Y-115363230D01*
X211969967Y-115839421D02*
X211636633Y-115839421D01*
X211493776Y-116363230D02*
X211969967Y-116363230D01*
X211969967Y-115363230D01*
X211493776Y-115363230D01*
X211065205Y-116363230D02*
X211065205Y-115363230D01*
X210827110Y-115363230D01*
X210684252Y-115410850D01*
X210589014Y-115506088D01*
X210541395Y-115601326D01*
X210493776Y-115791802D01*
X210493776Y-115934659D01*
X210541395Y-116125135D01*
X210589014Y-116220373D01*
X210684252Y-116315611D01*
X210827110Y-116363230D01*
X211065205Y-116363230D01*
X210112824Y-115458469D02*
X210065205Y-115410850D01*
X209969967Y-115363230D01*
X209731871Y-115363230D01*
X209636633Y-115410850D01*
X209589014Y-115458469D01*
X209541395Y-115553707D01*
X209541395Y-115648945D01*
X209589014Y-115791802D01*
X210160443Y-116363230D01*
X209541395Y-116363230D01*
X208684252Y-115363230D02*
X208874729Y-115363230D01*
X208969967Y-115410850D01*
X209017586Y-115458469D01*
X209112824Y-115601326D01*
X209160443Y-115791802D01*
X209160443Y-116172754D01*
X209112824Y-116267992D01*
X209065205Y-116315611D01*
X208969967Y-116363230D01*
X208779490Y-116363230D01*
X208684252Y-116315611D01*
X208636633Y-116267992D01*
X208589014Y-116172754D01*
X208589014Y-115934659D01*
X208636633Y-115839421D01*
X208684252Y-115791802D01*
X208779490Y-115744183D01*
X208969967Y-115744183D01*
X209065205Y-115791802D01*
X209112824Y-115839421D01*
X209160443Y-115934659D01*
X234067586Y-116363230D02*
X234067586Y-115363230D01*
X233829490Y-115363230D01*
X233686633Y-115410850D01*
X233591395Y-115506088D01*
X233543776Y-115601326D01*
X233496157Y-115791802D01*
X233496157Y-115934659D01*
X233543776Y-116125135D01*
X233591395Y-116220373D01*
X233686633Y-116315611D01*
X233829490Y-116363230D01*
X234067586Y-116363230D01*
X233067586Y-115982278D02*
X232305681Y-115982278D01*
X231353300Y-116363230D02*
X231829490Y-116363230D01*
X231829490Y-115363230D01*
X231019967Y-115839421D02*
X230686633Y-115839421D01*
X230543776Y-116363230D02*
X231019967Y-116363230D01*
X231019967Y-115363230D01*
X230543776Y-115363230D01*
X230115205Y-116363230D02*
X230115205Y-115363230D01*
X229877110Y-115363230D01*
X229734252Y-115410850D01*
X229639014Y-115506088D01*
X229591395Y-115601326D01*
X229543776Y-115791802D01*
X229543776Y-115934659D01*
X229591395Y-116125135D01*
X229639014Y-116220373D01*
X229734252Y-116315611D01*
X229877110Y-116363230D01*
X230115205Y-116363230D01*
X229162824Y-115458469D02*
X229115205Y-115410850D01*
X229019967Y-115363230D01*
X228781871Y-115363230D01*
X228686633Y-115410850D01*
X228639014Y-115458469D01*
X228591395Y-115553707D01*
X228591395Y-115648945D01*
X228639014Y-115791802D01*
X229210443Y-116363230D01*
X228591395Y-116363230D01*
X228258062Y-115363230D02*
X227591395Y-115363230D01*
X228019967Y-116363230D01*
X129292586Y-135413230D02*
X129292586Y-134413230D01*
X129054490Y-134413230D01*
X128911633Y-134460850D01*
X128816395Y-134556088D01*
X128768776Y-134651326D01*
X128721157Y-134841802D01*
X128721157Y-134984659D01*
X128768776Y-135175135D01*
X128816395Y-135270373D01*
X128911633Y-135365611D01*
X129054490Y-135413230D01*
X129292586Y-135413230D01*
X128292586Y-135032278D02*
X127530681Y-135032278D01*
X126578300Y-135413230D02*
X127054490Y-135413230D01*
X127054490Y-134413230D01*
X126244967Y-134889421D02*
X125911633Y-134889421D01*
X125768776Y-135413230D02*
X126244967Y-135413230D01*
X126244967Y-134413230D01*
X125768776Y-134413230D01*
X125340205Y-135413230D02*
X125340205Y-134413230D01*
X125102110Y-134413230D01*
X124959252Y-134460850D01*
X124864014Y-134556088D01*
X124816395Y-134651326D01*
X124768776Y-134841802D01*
X124768776Y-134984659D01*
X124816395Y-135175135D01*
X124864014Y-135270373D01*
X124959252Y-135365611D01*
X125102110Y-135413230D01*
X125340205Y-135413230D01*
X124387824Y-134508469D02*
X124340205Y-134460850D01*
X124244967Y-134413230D01*
X124006871Y-134413230D01*
X123911633Y-134460850D01*
X123864014Y-134508469D01*
X123816395Y-134603707D01*
X123816395Y-134698945D01*
X123864014Y-134841802D01*
X124435443Y-135413230D01*
X123816395Y-135413230D01*
X123340205Y-135413230D02*
X123149729Y-135413230D01*
X123054490Y-135365611D01*
X123006871Y-135317992D01*
X122911633Y-135175135D01*
X122864014Y-134984659D01*
X122864014Y-134603707D01*
X122911633Y-134508469D01*
X122959252Y-134460850D01*
X123054490Y-134413230D01*
X123244967Y-134413230D01*
X123340205Y-134460850D01*
X123387824Y-134508469D01*
X123435443Y-134603707D01*
X123435443Y-134841802D01*
X123387824Y-134937040D01*
X123340205Y-134984659D01*
X123244967Y-135032278D01*
X123054490Y-135032278D01*
X122959252Y-134984659D01*
X122911633Y-134937040D01*
X122864014Y-134841802D01*
X157867586Y-135413230D02*
X157867586Y-134413230D01*
X157629490Y-134413230D01*
X157486633Y-134460850D01*
X157391395Y-134556088D01*
X157343776Y-134651326D01*
X157296157Y-134841802D01*
X157296157Y-134984659D01*
X157343776Y-135175135D01*
X157391395Y-135270373D01*
X157486633Y-135365611D01*
X157629490Y-135413230D01*
X157867586Y-135413230D01*
X156867586Y-135032278D02*
X156105681Y-135032278D01*
X155153300Y-135413230D02*
X155629490Y-135413230D01*
X155629490Y-134413230D01*
X154819967Y-134889421D02*
X154486633Y-134889421D01*
X154343776Y-135413230D02*
X154819967Y-135413230D01*
X154819967Y-134413230D01*
X154343776Y-134413230D01*
X153915205Y-135413230D02*
X153915205Y-134413230D01*
X153677110Y-134413230D01*
X153534252Y-134460850D01*
X153439014Y-134556088D01*
X153391395Y-134651326D01*
X153343776Y-134841802D01*
X153343776Y-134984659D01*
X153391395Y-135175135D01*
X153439014Y-135270373D01*
X153534252Y-135365611D01*
X153677110Y-135413230D01*
X153915205Y-135413230D01*
X153010443Y-134413230D02*
X152391395Y-134413230D01*
X152724729Y-134794183D01*
X152581871Y-134794183D01*
X152486633Y-134841802D01*
X152439014Y-134889421D01*
X152391395Y-134984659D01*
X152391395Y-135222754D01*
X152439014Y-135317992D01*
X152486633Y-135365611D01*
X152581871Y-135413230D01*
X152867586Y-135413230D01*
X152962824Y-135365611D01*
X153010443Y-135317992D01*
X151772348Y-134413230D02*
X151677110Y-134413230D01*
X151581871Y-134460850D01*
X151534252Y-134508469D01*
X151486633Y-134603707D01*
X151439014Y-134794183D01*
X151439014Y-135032278D01*
X151486633Y-135222754D01*
X151534252Y-135317992D01*
X151581871Y-135365611D01*
X151677110Y-135413230D01*
X151772348Y-135413230D01*
X151867586Y-135365611D01*
X151915205Y-135317992D01*
X151962824Y-135222754D01*
X152010443Y-135032278D01*
X152010443Y-134794183D01*
X151962824Y-134603707D01*
X151915205Y-134508469D01*
X151867586Y-134460850D01*
X151772348Y-134413230D01*
X176917586Y-135413230D02*
X176917586Y-134413230D01*
X176679490Y-134413230D01*
X176536633Y-134460850D01*
X176441395Y-134556088D01*
X176393776Y-134651326D01*
X176346157Y-134841802D01*
X176346157Y-134984659D01*
X176393776Y-135175135D01*
X176441395Y-135270373D01*
X176536633Y-135365611D01*
X176679490Y-135413230D01*
X176917586Y-135413230D01*
X175917586Y-135032278D02*
X175155681Y-135032278D01*
X174203300Y-135413230D02*
X174679490Y-135413230D01*
X174679490Y-134413230D01*
X173869967Y-134889421D02*
X173536633Y-134889421D01*
X173393776Y-135413230D02*
X173869967Y-135413230D01*
X173869967Y-134413230D01*
X173393776Y-134413230D01*
X172965205Y-135413230D02*
X172965205Y-134413230D01*
X172727110Y-134413230D01*
X172584252Y-134460850D01*
X172489014Y-134556088D01*
X172441395Y-134651326D01*
X172393776Y-134841802D01*
X172393776Y-134984659D01*
X172441395Y-135175135D01*
X172489014Y-135270373D01*
X172584252Y-135365611D01*
X172727110Y-135413230D01*
X172965205Y-135413230D01*
X172060443Y-134413230D02*
X171441395Y-134413230D01*
X171774729Y-134794183D01*
X171631871Y-134794183D01*
X171536633Y-134841802D01*
X171489014Y-134889421D01*
X171441395Y-134984659D01*
X171441395Y-135222754D01*
X171489014Y-135317992D01*
X171536633Y-135365611D01*
X171631871Y-135413230D01*
X171917586Y-135413230D01*
X172012824Y-135365611D01*
X172060443Y-135317992D01*
X170489014Y-135413230D02*
X171060443Y-135413230D01*
X170774729Y-135413230D02*
X170774729Y-134413230D01*
X170869967Y-134556088D01*
X170965205Y-134651326D01*
X171060443Y-134698945D01*
X195840586Y-135413230D02*
X195840586Y-134413230D01*
X195602490Y-134413230D01*
X195459633Y-134460850D01*
X195364395Y-134556088D01*
X195316776Y-134651326D01*
X195269157Y-134841802D01*
X195269157Y-134984659D01*
X195316776Y-135175135D01*
X195364395Y-135270373D01*
X195459633Y-135365611D01*
X195602490Y-135413230D01*
X195840586Y-135413230D01*
X194840586Y-135032278D02*
X194078681Y-135032278D01*
X193126300Y-135413230D02*
X193602490Y-135413230D01*
X193602490Y-134413230D01*
X192792967Y-134889421D02*
X192459633Y-134889421D01*
X192316776Y-135413230D02*
X192792967Y-135413230D01*
X192792967Y-134413230D01*
X192316776Y-134413230D01*
X191888205Y-135413230D02*
X191888205Y-134413230D01*
X191650110Y-134413230D01*
X191507252Y-134460850D01*
X191412014Y-134556088D01*
X191364395Y-134651326D01*
X191316776Y-134841802D01*
X191316776Y-134984659D01*
X191364395Y-135175135D01*
X191412014Y-135270373D01*
X191507252Y-135365611D01*
X191650110Y-135413230D01*
X191888205Y-135413230D01*
X190983443Y-134413230D02*
X190364395Y-134413230D01*
X190697729Y-134794183D01*
X190554871Y-134794183D01*
X190459633Y-134841802D01*
X190412014Y-134889421D01*
X190364395Y-134984659D01*
X190364395Y-135222754D01*
X190412014Y-135317992D01*
X190459633Y-135365611D01*
X190554871Y-135413230D01*
X190840586Y-135413230D01*
X190935824Y-135365611D01*
X190983443Y-135317992D01*
X189983443Y-134508469D02*
X189935824Y-134460850D01*
X189840586Y-134413230D01*
X189602490Y-134413230D01*
X189507252Y-134460850D01*
X189459633Y-134508469D01*
X189412014Y-134603707D01*
X189412014Y-134698945D01*
X189459633Y-134841802D01*
X190031062Y-135413230D01*
X189412014Y-135413230D01*
X215017586Y-135413230D02*
X215017586Y-134413230D01*
X214779490Y-134413230D01*
X214636633Y-134460850D01*
X214541395Y-134556088D01*
X214493776Y-134651326D01*
X214446157Y-134841802D01*
X214446157Y-134984659D01*
X214493776Y-135175135D01*
X214541395Y-135270373D01*
X214636633Y-135365611D01*
X214779490Y-135413230D01*
X215017586Y-135413230D01*
X214017586Y-135032278D02*
X213255681Y-135032278D01*
X212303300Y-135413230D02*
X212779490Y-135413230D01*
X212779490Y-134413230D01*
X211969967Y-134889421D02*
X211636633Y-134889421D01*
X211493776Y-135413230D02*
X211969967Y-135413230D01*
X211969967Y-134413230D01*
X211493776Y-134413230D01*
X211065205Y-135413230D02*
X211065205Y-134413230D01*
X210827110Y-134413230D01*
X210684252Y-134460850D01*
X210589014Y-134556088D01*
X210541395Y-134651326D01*
X210493776Y-134841802D01*
X210493776Y-134984659D01*
X210541395Y-135175135D01*
X210589014Y-135270373D01*
X210684252Y-135365611D01*
X210827110Y-135413230D01*
X211065205Y-135413230D01*
X210160443Y-134413230D02*
X209541395Y-134413230D01*
X209874729Y-134794183D01*
X209731871Y-134794183D01*
X209636633Y-134841802D01*
X209589014Y-134889421D01*
X209541395Y-134984659D01*
X209541395Y-135222754D01*
X209589014Y-135317992D01*
X209636633Y-135365611D01*
X209731871Y-135413230D01*
X210017586Y-135413230D01*
X210112824Y-135365611D01*
X210160443Y-135317992D01*
X209208062Y-134413230D02*
X208589014Y-134413230D01*
X208922348Y-134794183D01*
X208779490Y-134794183D01*
X208684252Y-134841802D01*
X208636633Y-134889421D01*
X208589014Y-134984659D01*
X208589014Y-135222754D01*
X208636633Y-135317992D01*
X208684252Y-135365611D01*
X208779490Y-135413230D01*
X209065205Y-135413230D01*
X209160443Y-135365611D01*
X209208062Y-135317992D01*
X234067586Y-135413230D02*
X234067586Y-134413230D01*
X233829490Y-134413230D01*
X233686633Y-134460850D01*
X233591395Y-134556088D01*
X233543776Y-134651326D01*
X233496157Y-134841802D01*
X233496157Y-134984659D01*
X233543776Y-135175135D01*
X233591395Y-135270373D01*
X233686633Y-135365611D01*
X233829490Y-135413230D01*
X234067586Y-135413230D01*
X233067586Y-135032278D02*
X232305681Y-135032278D01*
X231353300Y-135413230D02*
X231829490Y-135413230D01*
X231829490Y-134413230D01*
X231019967Y-134889421D02*
X230686633Y-134889421D01*
X230543776Y-135413230D02*
X231019967Y-135413230D01*
X231019967Y-134413230D01*
X230543776Y-134413230D01*
X230115205Y-135413230D02*
X230115205Y-134413230D01*
X229877110Y-134413230D01*
X229734252Y-134460850D01*
X229639014Y-134556088D01*
X229591395Y-134651326D01*
X229543776Y-134841802D01*
X229543776Y-134984659D01*
X229591395Y-135175135D01*
X229639014Y-135270373D01*
X229734252Y-135365611D01*
X229877110Y-135413230D01*
X230115205Y-135413230D01*
X229210443Y-134413230D02*
X228591395Y-134413230D01*
X228924729Y-134794183D01*
X228781871Y-134794183D01*
X228686633Y-134841802D01*
X228639014Y-134889421D01*
X228591395Y-134984659D01*
X228591395Y-135222754D01*
X228639014Y-135317992D01*
X228686633Y-135365611D01*
X228781871Y-135413230D01*
X229067586Y-135413230D01*
X229162824Y-135365611D01*
X229210443Y-135317992D01*
X227734252Y-134746564D02*
X227734252Y-135413230D01*
X227972348Y-134365611D02*
X228210443Y-135079897D01*
X227591395Y-135079897D01*
X129292586Y-154463230D02*
X129292586Y-153463230D01*
X129054490Y-153463230D01*
X128911633Y-153510850D01*
X128816395Y-153606088D01*
X128768776Y-153701326D01*
X128721157Y-153891802D01*
X128721157Y-154034659D01*
X128768776Y-154225135D01*
X128816395Y-154320373D01*
X128911633Y-154415611D01*
X129054490Y-154463230D01*
X129292586Y-154463230D01*
X128292586Y-154082278D02*
X127530681Y-154082278D01*
X126578300Y-154463230D02*
X127054490Y-154463230D01*
X127054490Y-153463230D01*
X126244967Y-153939421D02*
X125911633Y-153939421D01*
X125768776Y-154463230D02*
X126244967Y-154463230D01*
X126244967Y-153463230D01*
X125768776Y-153463230D01*
X125340205Y-154463230D02*
X125340205Y-153463230D01*
X125102110Y-153463230D01*
X124959252Y-153510850D01*
X124864014Y-153606088D01*
X124816395Y-153701326D01*
X124768776Y-153891802D01*
X124768776Y-154034659D01*
X124816395Y-154225135D01*
X124864014Y-154320373D01*
X124959252Y-154415611D01*
X125102110Y-154463230D01*
X125340205Y-154463230D01*
X124435443Y-153463230D02*
X123816395Y-153463230D01*
X124149729Y-153844183D01*
X124006871Y-153844183D01*
X123911633Y-153891802D01*
X123864014Y-153939421D01*
X123816395Y-154034659D01*
X123816395Y-154272754D01*
X123864014Y-154367992D01*
X123911633Y-154415611D01*
X124006871Y-154463230D01*
X124292586Y-154463230D01*
X124387824Y-154415611D01*
X124435443Y-154367992D01*
X122959252Y-153463230D02*
X123149729Y-153463230D01*
X123244967Y-153510850D01*
X123292586Y-153558469D01*
X123387824Y-153701326D01*
X123435443Y-153891802D01*
X123435443Y-154272754D01*
X123387824Y-154367992D01*
X123340205Y-154415611D01*
X123244967Y-154463230D01*
X123054490Y-154463230D01*
X122959252Y-154415611D01*
X122911633Y-154367992D01*
X122864014Y-154272754D01*
X122864014Y-154034659D01*
X122911633Y-153939421D01*
X122959252Y-153891802D01*
X123054490Y-153844183D01*
X123244967Y-153844183D01*
X123340205Y-153891802D01*
X123387824Y-153939421D01*
X123435443Y-154034659D01*
X157867586Y-154463230D02*
X157867586Y-153463230D01*
X157629490Y-153463230D01*
X157486633Y-153510850D01*
X157391395Y-153606088D01*
X157343776Y-153701326D01*
X157296157Y-153891802D01*
X157296157Y-154034659D01*
X157343776Y-154225135D01*
X157391395Y-154320373D01*
X157486633Y-154415611D01*
X157629490Y-154463230D01*
X157867586Y-154463230D01*
X156867586Y-154082278D02*
X156105681Y-154082278D01*
X155153300Y-154463230D02*
X155629490Y-154463230D01*
X155629490Y-153463230D01*
X154819967Y-153939421D02*
X154486633Y-153939421D01*
X154343776Y-154463230D02*
X154819967Y-154463230D01*
X154819967Y-153463230D01*
X154343776Y-153463230D01*
X153915205Y-154463230D02*
X153915205Y-153463230D01*
X153677110Y-153463230D01*
X153534252Y-153510850D01*
X153439014Y-153606088D01*
X153391395Y-153701326D01*
X153343776Y-153891802D01*
X153343776Y-154034659D01*
X153391395Y-154225135D01*
X153439014Y-154320373D01*
X153534252Y-154415611D01*
X153677110Y-154463230D01*
X153915205Y-154463230D01*
X153010443Y-153463230D02*
X152391395Y-153463230D01*
X152724729Y-153844183D01*
X152581871Y-153844183D01*
X152486633Y-153891802D01*
X152439014Y-153939421D01*
X152391395Y-154034659D01*
X152391395Y-154272754D01*
X152439014Y-154367992D01*
X152486633Y-154415611D01*
X152581871Y-154463230D01*
X152867586Y-154463230D01*
X152962824Y-154415611D01*
X153010443Y-154367992D01*
X152058062Y-153463230D02*
X151391395Y-153463230D01*
X151819967Y-154463230D01*
X176917586Y-154463230D02*
X176917586Y-153463230D01*
X176679490Y-153463230D01*
X176536633Y-153510850D01*
X176441395Y-153606088D01*
X176393776Y-153701326D01*
X176346157Y-153891802D01*
X176346157Y-154034659D01*
X176393776Y-154225135D01*
X176441395Y-154320373D01*
X176536633Y-154415611D01*
X176679490Y-154463230D01*
X176917586Y-154463230D01*
X175917586Y-154082278D02*
X175155681Y-154082278D01*
X174203300Y-154463230D02*
X174679490Y-154463230D01*
X174679490Y-153463230D01*
X173869967Y-153939421D02*
X173536633Y-153939421D01*
X173393776Y-154463230D02*
X173869967Y-154463230D01*
X173869967Y-153463230D01*
X173393776Y-153463230D01*
X172965205Y-154463230D02*
X172965205Y-153463230D01*
X172727110Y-153463230D01*
X172584252Y-153510850D01*
X172489014Y-153606088D01*
X172441395Y-153701326D01*
X172393776Y-153891802D01*
X172393776Y-154034659D01*
X172441395Y-154225135D01*
X172489014Y-154320373D01*
X172584252Y-154415611D01*
X172727110Y-154463230D01*
X172965205Y-154463230D01*
X172060443Y-153463230D02*
X171441395Y-153463230D01*
X171774729Y-153844183D01*
X171631871Y-153844183D01*
X171536633Y-153891802D01*
X171489014Y-153939421D01*
X171441395Y-154034659D01*
X171441395Y-154272754D01*
X171489014Y-154367992D01*
X171536633Y-154415611D01*
X171631871Y-154463230D01*
X171917586Y-154463230D01*
X172012824Y-154415611D01*
X172060443Y-154367992D01*
X170869967Y-153891802D02*
X170965205Y-153844183D01*
X171012824Y-153796564D01*
X171060443Y-153701326D01*
X171060443Y-153653707D01*
X171012824Y-153558469D01*
X170965205Y-153510850D01*
X170869967Y-153463230D01*
X170679490Y-153463230D01*
X170584252Y-153510850D01*
X170536633Y-153558469D01*
X170489014Y-153653707D01*
X170489014Y-153701326D01*
X170536633Y-153796564D01*
X170584252Y-153844183D01*
X170679490Y-153891802D01*
X170869967Y-153891802D01*
X170965205Y-153939421D01*
X171012824Y-153987040D01*
X171060443Y-154082278D01*
X171060443Y-154272754D01*
X171012824Y-154367992D01*
X170965205Y-154415611D01*
X170869967Y-154463230D01*
X170679490Y-154463230D01*
X170584252Y-154415611D01*
X170536633Y-154367992D01*
X170489014Y-154272754D01*
X170489014Y-154082278D01*
X170536633Y-153987040D01*
X170584252Y-153939421D01*
X170679490Y-153891802D01*
X194951586Y-150018230D02*
X194951586Y-149018230D01*
X194713490Y-149018230D01*
X194570633Y-149065850D01*
X194475395Y-149161088D01*
X194427776Y-149256326D01*
X194380157Y-149446802D01*
X194380157Y-149589659D01*
X194427776Y-149780135D01*
X194475395Y-149875373D01*
X194570633Y-149970611D01*
X194713490Y-150018230D01*
X194951586Y-150018230D01*
X193951586Y-149637278D02*
X193189681Y-149637278D01*
X192237300Y-150018230D02*
X192713490Y-150018230D01*
X192713490Y-149018230D01*
X191903967Y-149494421D02*
X191570633Y-149494421D01*
X191427776Y-150018230D02*
X191903967Y-150018230D01*
X191903967Y-149018230D01*
X191427776Y-149018230D01*
X190999205Y-150018230D02*
X190999205Y-149018230D01*
X190761110Y-149018230D01*
X190618252Y-149065850D01*
X190523014Y-149161088D01*
X190475395Y-149256326D01*
X190427776Y-149446802D01*
X190427776Y-149589659D01*
X190475395Y-149780135D01*
X190523014Y-149875373D01*
X190618252Y-149970611D01*
X190761110Y-150018230D01*
X190999205Y-150018230D01*
X190094443Y-149018230D02*
X189475395Y-149018230D01*
X189808729Y-149399183D01*
X189665871Y-149399183D01*
X189570633Y-149446802D01*
X189523014Y-149494421D01*
X189475395Y-149589659D01*
X189475395Y-149827754D01*
X189523014Y-149922992D01*
X189570633Y-149970611D01*
X189665871Y-150018230D01*
X189951586Y-150018230D01*
X190046824Y-149970611D01*
X190094443Y-149922992D01*
X188999205Y-150018230D02*
X188808729Y-150018230D01*
X188713490Y-149970611D01*
X188665871Y-149922992D01*
X188570633Y-149780135D01*
X188523014Y-149589659D01*
X188523014Y-149208707D01*
X188570633Y-149113469D01*
X188618252Y-149065850D01*
X188713490Y-149018230D01*
X188903967Y-149018230D01*
X188999205Y-149065850D01*
X189046824Y-149113469D01*
X189094443Y-149208707D01*
X189094443Y-149446802D01*
X189046824Y-149542040D01*
X188999205Y-149589659D01*
X188903967Y-149637278D01*
X188713490Y-149637278D01*
X188618252Y-149589659D01*
X188570633Y-149542040D01*
X188523014Y-149446802D01*
X216033586Y-150018230D02*
X216033586Y-149018230D01*
X215795490Y-149018230D01*
X215652633Y-149065850D01*
X215557395Y-149161088D01*
X215509776Y-149256326D01*
X215462157Y-149446802D01*
X215462157Y-149589659D01*
X215509776Y-149780135D01*
X215557395Y-149875373D01*
X215652633Y-149970611D01*
X215795490Y-150018230D01*
X216033586Y-150018230D01*
X215033586Y-149637278D02*
X214271681Y-149637278D01*
X213319300Y-150018230D02*
X213795490Y-150018230D01*
X213795490Y-149018230D01*
X212985967Y-149494421D02*
X212652633Y-149494421D01*
X212509776Y-150018230D02*
X212985967Y-150018230D01*
X212985967Y-149018230D01*
X212509776Y-149018230D01*
X212081205Y-150018230D02*
X212081205Y-149018230D01*
X211843110Y-149018230D01*
X211700252Y-149065850D01*
X211605014Y-149161088D01*
X211557395Y-149256326D01*
X211509776Y-149446802D01*
X211509776Y-149589659D01*
X211557395Y-149780135D01*
X211605014Y-149875373D01*
X211700252Y-149970611D01*
X211843110Y-150018230D01*
X212081205Y-150018230D01*
X210652633Y-149351564D02*
X210652633Y-150018230D01*
X210890729Y-148970611D02*
X211128824Y-149684897D01*
X210509776Y-149684897D01*
X209938348Y-149018230D02*
X209843110Y-149018230D01*
X209747871Y-149065850D01*
X209700252Y-149113469D01*
X209652633Y-149208707D01*
X209605014Y-149399183D01*
X209605014Y-149637278D01*
X209652633Y-149827754D01*
X209700252Y-149922992D01*
X209747871Y-149970611D01*
X209843110Y-150018230D01*
X209938348Y-150018230D01*
X210033586Y-149970611D01*
X210081205Y-149922992D01*
X210128824Y-149827754D01*
X210176443Y-149637278D01*
X210176443Y-149399183D01*
X210128824Y-149208707D01*
X210081205Y-149113469D01*
X210033586Y-149065850D01*
X209938348Y-149018230D01*
X234067586Y-154463230D02*
X234067586Y-153463230D01*
X233829490Y-153463230D01*
X233686633Y-153510850D01*
X233591395Y-153606088D01*
X233543776Y-153701326D01*
X233496157Y-153891802D01*
X233496157Y-154034659D01*
X233543776Y-154225135D01*
X233591395Y-154320373D01*
X233686633Y-154415611D01*
X233829490Y-154463230D01*
X234067586Y-154463230D01*
X233067586Y-154082278D02*
X232305681Y-154082278D01*
X231353300Y-154463230D02*
X231829490Y-154463230D01*
X231829490Y-153463230D01*
X231019967Y-153939421D02*
X230686633Y-153939421D01*
X230543776Y-154463230D02*
X231019967Y-154463230D01*
X231019967Y-153463230D01*
X230543776Y-153463230D01*
X230115205Y-154463230D02*
X230115205Y-153463230D01*
X229877110Y-153463230D01*
X229734252Y-153510850D01*
X229639014Y-153606088D01*
X229591395Y-153701326D01*
X229543776Y-153891802D01*
X229543776Y-154034659D01*
X229591395Y-154225135D01*
X229639014Y-154320373D01*
X229734252Y-154415611D01*
X229877110Y-154463230D01*
X230115205Y-154463230D01*
X228686633Y-153796564D02*
X228686633Y-154463230D01*
X228924729Y-153415611D02*
X229162824Y-154129897D01*
X228543776Y-154129897D01*
X227639014Y-154463230D02*
X228210443Y-154463230D01*
X227924729Y-154463230D02*
X227924729Y-153463230D01*
X228019967Y-153606088D01*
X228115205Y-153701326D01*
X228210443Y-153748945D01*
X97665776Y-112356380D02*
X97665776Y-111356380D01*
X97427680Y-111356380D01*
X97284823Y-111404000D01*
X97189585Y-111499238D01*
X97141966Y-111594476D01*
X97094347Y-111784952D01*
X97094347Y-111927809D01*
X97141966Y-112118285D01*
X97189585Y-112213523D01*
X97284823Y-112308761D01*
X97427680Y-112356380D01*
X97665776Y-112356380D01*
X96665776Y-111975428D02*
X95903871Y-111975428D01*
X94951490Y-112356380D02*
X95427680Y-112356380D01*
X95427680Y-111356380D01*
X94618157Y-111832571D02*
X94284823Y-111832571D01*
X94141966Y-112356380D02*
X94618157Y-112356380D01*
X94618157Y-111356380D01*
X94141966Y-111356380D01*
X93713395Y-112356380D02*
X93713395Y-111356380D01*
X93475300Y-111356380D01*
X93332442Y-111404000D01*
X93237204Y-111499238D01*
X93189585Y-111594476D01*
X93141966Y-111784952D01*
X93141966Y-111927809D01*
X93189585Y-112118285D01*
X93237204Y-112213523D01*
X93332442Y-112308761D01*
X93475300Y-112356380D01*
X93713395Y-112356380D01*
X92284823Y-111689714D02*
X92284823Y-112356380D01*
X92522919Y-111308761D02*
X92761014Y-112023047D01*
X92141966Y-112023047D01*
X91808633Y-111451619D02*
X91761014Y-111404000D01*
X91665776Y-111356380D01*
X91427680Y-111356380D01*
X91332442Y-111404000D01*
X91284823Y-111451619D01*
X91237204Y-111546857D01*
X91237204Y-111642095D01*
X91284823Y-111784952D01*
X91856252Y-112356380D01*
X91237204Y-112356380D01*
X97576876Y-131558780D02*
X97576876Y-130558780D01*
X97338780Y-130558780D01*
X97195923Y-130606400D01*
X97100685Y-130701638D01*
X97053066Y-130796876D01*
X97005447Y-130987352D01*
X97005447Y-131130209D01*
X97053066Y-131320685D01*
X97100685Y-131415923D01*
X97195923Y-131511161D01*
X97338780Y-131558780D01*
X97576876Y-131558780D01*
X96576876Y-131177828D02*
X95814971Y-131177828D01*
X94862590Y-131558780D02*
X95338780Y-131558780D01*
X95338780Y-130558780D01*
X94529257Y-131034971D02*
X94195923Y-131034971D01*
X94053066Y-131558780D02*
X94529257Y-131558780D01*
X94529257Y-130558780D01*
X94053066Y-130558780D01*
X93624495Y-131558780D02*
X93624495Y-130558780D01*
X93386400Y-130558780D01*
X93243542Y-130606400D01*
X93148304Y-130701638D01*
X93100685Y-130796876D01*
X93053066Y-130987352D01*
X93053066Y-131130209D01*
X93100685Y-131320685D01*
X93148304Y-131415923D01*
X93243542Y-131511161D01*
X93386400Y-131558780D01*
X93624495Y-131558780D01*
X92195923Y-130892114D02*
X92195923Y-131558780D01*
X92434019Y-130511161D02*
X92672114Y-131225447D01*
X92053066Y-131225447D01*
X91767352Y-130558780D02*
X91148304Y-130558780D01*
X91481638Y-130939733D01*
X91338780Y-130939733D01*
X91243542Y-130987352D01*
X91195923Y-131034971D01*
X91148304Y-131130209D01*
X91148304Y-131368304D01*
X91195923Y-131463542D01*
X91243542Y-131511161D01*
X91338780Y-131558780D01*
X91624495Y-131558780D01*
X91719733Y-131511161D01*
X91767352Y-131463542D01*
X102942380Y-154138333D02*
X102466190Y-153805000D01*
X102942380Y-153566904D02*
X101942380Y-153566904D01*
X101942380Y-153947857D01*
X101990000Y-154043095D01*
X102037619Y-154090714D01*
X102132857Y-154138333D01*
X102275714Y-154138333D01*
X102370952Y-154090714D01*
X102418571Y-154043095D01*
X102466190Y-153947857D01*
X102466190Y-153566904D01*
X102942380Y-155090714D02*
X102942380Y-154519285D01*
X102942380Y-154805000D02*
X101942380Y-154805000D01*
X102085238Y-154709761D01*
X102180476Y-154614523D01*
X102228095Y-154519285D01*
X86526666Y-160217380D02*
X86860000Y-159741190D01*
X87098095Y-160217380D02*
X87098095Y-159217380D01*
X86717142Y-159217380D01*
X86621904Y-159265000D01*
X86574285Y-159312619D01*
X86526666Y-159407857D01*
X86526666Y-159550714D01*
X86574285Y-159645952D01*
X86621904Y-159693571D01*
X86717142Y-159741190D01*
X87098095Y-159741190D01*
X85669523Y-159217380D02*
X85860000Y-159217380D01*
X85955238Y-159265000D01*
X86002857Y-159312619D01*
X86098095Y-159455476D01*
X86145714Y-159645952D01*
X86145714Y-160026904D01*
X86098095Y-160122142D01*
X86050476Y-160169761D01*
X85955238Y-160217380D01*
X85764761Y-160217380D01*
X85669523Y-160169761D01*
X85621904Y-160122142D01*
X85574285Y-160026904D01*
X85574285Y-159788809D01*
X85621904Y-159693571D01*
X85669523Y-159645952D01*
X85764761Y-159598333D01*
X85955238Y-159598333D01*
X86050476Y-159645952D01*
X86098095Y-159693571D01*
X86145714Y-159788809D01*
X195976476Y-116420380D02*
X195976476Y-115420380D01*
X195738380Y-115420380D01*
X195595523Y-115468000D01*
X195500285Y-115563238D01*
X195452666Y-115658476D01*
X195405047Y-115848952D01*
X195405047Y-115991809D01*
X195452666Y-116182285D01*
X195500285Y-116277523D01*
X195595523Y-116372761D01*
X195738380Y-116420380D01*
X195976476Y-116420380D01*
X194976476Y-116039428D02*
X194214571Y-116039428D01*
X193262190Y-116420380D02*
X193738380Y-116420380D01*
X193738380Y-115420380D01*
X192928857Y-115896571D02*
X192595523Y-115896571D01*
X192452666Y-116420380D02*
X192928857Y-116420380D01*
X192928857Y-115420380D01*
X192452666Y-115420380D01*
X192024095Y-116420380D02*
X192024095Y-115420380D01*
X191786000Y-115420380D01*
X191643142Y-115468000D01*
X191547904Y-115563238D01*
X191500285Y-115658476D01*
X191452666Y-115848952D01*
X191452666Y-115991809D01*
X191500285Y-116182285D01*
X191547904Y-116277523D01*
X191643142Y-116372761D01*
X191786000Y-116420380D01*
X192024095Y-116420380D01*
X191071714Y-115515619D02*
X191024095Y-115468000D01*
X190928857Y-115420380D01*
X190690761Y-115420380D01*
X190595523Y-115468000D01*
X190547904Y-115515619D01*
X190500285Y-115610857D01*
X190500285Y-115706095D01*
X190547904Y-115848952D01*
X191119333Y-116420380D01*
X190500285Y-116420380D01*
X189595523Y-115420380D02*
X190071714Y-115420380D01*
X190119333Y-115896571D01*
X190071714Y-115848952D01*
X189976476Y-115801333D01*
X189738380Y-115801333D01*
X189643142Y-115848952D01*
X189595523Y-115896571D01*
X189547904Y-115991809D01*
X189547904Y-116229904D01*
X189595523Y-116325142D01*
X189643142Y-116372761D01*
X189738380Y-116420380D01*
X189976476Y-116420380D01*
X190071714Y-116372761D01*
X190119333Y-116325142D01*
X63671376Y-48792404D02*
X63671376Y-47992404D01*
X63480900Y-47992404D01*
X63366614Y-48030500D01*
X63290423Y-48106690D01*
X63252328Y-48182880D01*
X63214233Y-48335261D01*
X63214233Y-48449547D01*
X63252328Y-48601928D01*
X63290423Y-48678119D01*
X63366614Y-48754309D01*
X63480900Y-48792404D01*
X63671376Y-48792404D01*
X62718995Y-47992404D02*
X62642804Y-47992404D01*
X62566614Y-48030500D01*
X62528519Y-48068595D01*
X62490423Y-48144785D01*
X62452328Y-48297166D01*
X62452328Y-48487642D01*
X62490423Y-48640023D01*
X62528519Y-48716214D01*
X62566614Y-48754309D01*
X62642804Y-48792404D01*
X62718995Y-48792404D01*
X62795185Y-48754309D01*
X62833280Y-48716214D01*
X62871376Y-48640023D01*
X62909471Y-48487642D01*
X62909471Y-48297166D01*
X62871376Y-48144785D01*
X62833280Y-48068595D01*
X62795185Y-48030500D01*
X62718995Y-47992404D01*
X64344428Y-67842404D02*
X64344428Y-67042404D01*
X64153952Y-67042404D01*
X64039666Y-67080500D01*
X63963476Y-67156690D01*
X63925380Y-67232880D01*
X63887285Y-67385261D01*
X63887285Y-67499547D01*
X63925380Y-67651928D01*
X63963476Y-67728119D01*
X64039666Y-67804309D01*
X64153952Y-67842404D01*
X64344428Y-67842404D01*
X63125380Y-67842404D02*
X63582523Y-67842404D01*
X63353952Y-67842404D02*
X63353952Y-67042404D01*
X63430142Y-67156690D01*
X63506333Y-67232880D01*
X63582523Y-67270976D01*
X62630142Y-67042404D02*
X62553952Y-67042404D01*
X62477761Y-67080500D01*
X62439666Y-67118595D01*
X62401571Y-67194785D01*
X62363476Y-67347166D01*
X62363476Y-67537642D01*
X62401571Y-67690023D01*
X62439666Y-67766214D01*
X62477761Y-67804309D01*
X62553952Y-67842404D01*
X62630142Y-67842404D01*
X62706333Y-67804309D01*
X62744428Y-67766214D01*
X62782523Y-67690023D01*
X62820619Y-67537642D01*
X62820619Y-67347166D01*
X62782523Y-67194785D01*
X62744428Y-67118595D01*
X62706333Y-67080500D01*
X62630142Y-67042404D01*
X64420628Y-86663804D02*
X64420628Y-85863804D01*
X64230152Y-85863804D01*
X64115866Y-85901900D01*
X64039676Y-85978090D01*
X64001580Y-86054280D01*
X63963485Y-86206661D01*
X63963485Y-86320947D01*
X64001580Y-86473328D01*
X64039676Y-86549519D01*
X64115866Y-86625709D01*
X64230152Y-86663804D01*
X64420628Y-86663804D01*
X63658723Y-85939995D02*
X63620628Y-85901900D01*
X63544438Y-85863804D01*
X63353961Y-85863804D01*
X63277771Y-85901900D01*
X63239676Y-85939995D01*
X63201580Y-86016185D01*
X63201580Y-86092376D01*
X63239676Y-86206661D01*
X63696819Y-86663804D01*
X63201580Y-86663804D01*
X62706342Y-85863804D02*
X62630152Y-85863804D01*
X62553961Y-85901900D01*
X62515866Y-85939995D01*
X62477771Y-86016185D01*
X62439676Y-86168566D01*
X62439676Y-86359042D01*
X62477771Y-86511423D01*
X62515866Y-86587614D01*
X62553961Y-86625709D01*
X62630152Y-86663804D01*
X62706342Y-86663804D01*
X62782533Y-86625709D01*
X62820628Y-86587614D01*
X62858723Y-86511423D01*
X62896819Y-86359042D01*
X62896819Y-86168566D01*
X62858723Y-86016185D01*
X62820628Y-85939995D01*
X62782533Y-85901900D01*
X62706342Y-85863804D01*
X64166628Y-105764604D02*
X64166628Y-104964604D01*
X63976152Y-104964604D01*
X63861866Y-105002700D01*
X63785676Y-105078890D01*
X63747580Y-105155080D01*
X63709485Y-105307461D01*
X63709485Y-105421747D01*
X63747580Y-105574128D01*
X63785676Y-105650319D01*
X63861866Y-105726509D01*
X63976152Y-105764604D01*
X64166628Y-105764604D01*
X63442819Y-104964604D02*
X62947580Y-104964604D01*
X63214247Y-105269366D01*
X63099961Y-105269366D01*
X63023771Y-105307461D01*
X62985676Y-105345557D01*
X62947580Y-105421747D01*
X62947580Y-105612223D01*
X62985676Y-105688414D01*
X63023771Y-105726509D01*
X63099961Y-105764604D01*
X63328533Y-105764604D01*
X63404723Y-105726509D01*
X63442819Y-105688414D01*
X62452342Y-104964604D02*
X62376152Y-104964604D01*
X62299961Y-105002700D01*
X62261866Y-105040795D01*
X62223771Y-105116985D01*
X62185676Y-105269366D01*
X62185676Y-105459842D01*
X62223771Y-105612223D01*
X62261866Y-105688414D01*
X62299961Y-105726509D01*
X62376152Y-105764604D01*
X62452342Y-105764604D01*
X62528533Y-105726509D01*
X62566628Y-105688414D01*
X62604723Y-105612223D01*
X62642819Y-105459842D01*
X62642819Y-105269366D01*
X62604723Y-105116985D01*
X62566628Y-105040795D01*
X62528533Y-105002700D01*
X62452342Y-104964604D01*
X64496828Y-124928904D02*
X64496828Y-124128904D01*
X64306352Y-124128904D01*
X64192066Y-124167000D01*
X64115876Y-124243190D01*
X64077780Y-124319380D01*
X64039685Y-124471761D01*
X64039685Y-124586047D01*
X64077780Y-124738428D01*
X64115876Y-124814619D01*
X64192066Y-124890809D01*
X64306352Y-124928904D01*
X64496828Y-124928904D01*
X63353971Y-124395571D02*
X63353971Y-124928904D01*
X63544447Y-124090809D02*
X63734923Y-124662238D01*
X63239685Y-124662238D01*
X62782542Y-124128904D02*
X62706352Y-124128904D01*
X62630161Y-124167000D01*
X62592066Y-124205095D01*
X62553971Y-124281285D01*
X62515876Y-124433666D01*
X62515876Y-124624142D01*
X62553971Y-124776523D01*
X62592066Y-124852714D01*
X62630161Y-124890809D01*
X62706352Y-124928904D01*
X62782542Y-124928904D01*
X62858733Y-124890809D01*
X62896828Y-124852714D01*
X62934923Y-124776523D01*
X62973019Y-124624142D01*
X62973019Y-124433666D01*
X62934923Y-124281285D01*
X62896828Y-124205095D01*
X62858733Y-124167000D01*
X62782542Y-124128904D01*
X64357128Y-143966204D02*
X64357128Y-143166204D01*
X64166652Y-143166204D01*
X64052366Y-143204300D01*
X63976176Y-143280490D01*
X63938080Y-143356680D01*
X63899985Y-143509061D01*
X63899985Y-143623347D01*
X63938080Y-143775728D01*
X63976176Y-143851919D01*
X64052366Y-143928109D01*
X64166652Y-143966204D01*
X64357128Y-143966204D01*
X63176176Y-143166204D02*
X63557128Y-143166204D01*
X63595223Y-143547157D01*
X63557128Y-143509061D01*
X63480938Y-143470966D01*
X63290461Y-143470966D01*
X63214271Y-143509061D01*
X63176176Y-143547157D01*
X63138080Y-143623347D01*
X63138080Y-143813823D01*
X63176176Y-143890014D01*
X63214271Y-143928109D01*
X63290461Y-143966204D01*
X63480938Y-143966204D01*
X63557128Y-143928109D01*
X63595223Y-143890014D01*
X62642842Y-143166204D02*
X62566652Y-143166204D01*
X62490461Y-143204300D01*
X62452366Y-143242395D01*
X62414271Y-143318585D01*
X62376176Y-143470966D01*
X62376176Y-143661442D01*
X62414271Y-143813823D01*
X62452366Y-143890014D01*
X62490461Y-143928109D01*
X62566652Y-143966204D01*
X62642842Y-143966204D01*
X62719033Y-143928109D01*
X62757128Y-143890014D01*
X62795223Y-143813823D01*
X62833319Y-143661442D01*
X62833319Y-143470966D01*
X62795223Y-143318585D01*
X62757128Y-143242395D01*
X62719033Y-143204300D01*
X62642842Y-143166204D01*
X70075085Y-59143380D02*
X70075085Y-58143380D01*
X69836990Y-58143380D01*
X69694133Y-58191000D01*
X69598895Y-58286238D01*
X69551276Y-58381476D01*
X69503657Y-58571952D01*
X69503657Y-58714809D01*
X69551276Y-58905285D01*
X69598895Y-59000523D01*
X69694133Y-59095761D01*
X69836990Y-59143380D01*
X70075085Y-59143380D01*
X69075085Y-58762428D02*
X68313180Y-58762428D01*
X67360800Y-59143380D02*
X67836990Y-59143380D01*
X67836990Y-58143380D01*
X67027466Y-58619571D02*
X66694133Y-58619571D01*
X66551276Y-59143380D02*
X67027466Y-59143380D01*
X67027466Y-58143380D01*
X66551276Y-58143380D01*
X66122704Y-59143380D02*
X66122704Y-58143380D01*
X65884609Y-58143380D01*
X65741752Y-58191000D01*
X65646514Y-58286238D01*
X65598895Y-58381476D01*
X65551276Y-58571952D01*
X65551276Y-58714809D01*
X65598895Y-58905285D01*
X65646514Y-59000523D01*
X65741752Y-59095761D01*
X65884609Y-59143380D01*
X66122704Y-59143380D01*
X64932228Y-58143380D02*
X64836990Y-58143380D01*
X64741752Y-58191000D01*
X64694133Y-58238619D01*
X64646514Y-58333857D01*
X64598895Y-58524333D01*
X64598895Y-58762428D01*
X64646514Y-58952904D01*
X64694133Y-59048142D01*
X64741752Y-59095761D01*
X64836990Y-59143380D01*
X64932228Y-59143380D01*
X65027466Y-59095761D01*
X65075085Y-59048142D01*
X65122704Y-58952904D01*
X65170323Y-58762428D01*
X65170323Y-58524333D01*
X65122704Y-58333857D01*
X65075085Y-58238619D01*
X65027466Y-58191000D01*
X64932228Y-58143380D01*
X70075085Y-78256880D02*
X70075085Y-77256880D01*
X69836990Y-77256880D01*
X69694133Y-77304500D01*
X69598895Y-77399738D01*
X69551276Y-77494976D01*
X69503657Y-77685452D01*
X69503657Y-77828309D01*
X69551276Y-78018785D01*
X69598895Y-78114023D01*
X69694133Y-78209261D01*
X69836990Y-78256880D01*
X70075085Y-78256880D01*
X69075085Y-77875928D02*
X68313180Y-77875928D01*
X67360800Y-78256880D02*
X67836990Y-78256880D01*
X67836990Y-77256880D01*
X67027466Y-77733071D02*
X66694133Y-77733071D01*
X66551276Y-78256880D02*
X67027466Y-78256880D01*
X67027466Y-77256880D01*
X66551276Y-77256880D01*
X66122704Y-78256880D02*
X66122704Y-77256880D01*
X65884609Y-77256880D01*
X65741752Y-77304500D01*
X65646514Y-77399738D01*
X65598895Y-77494976D01*
X65551276Y-77685452D01*
X65551276Y-77828309D01*
X65598895Y-78018785D01*
X65646514Y-78114023D01*
X65741752Y-78209261D01*
X65884609Y-78256880D01*
X66122704Y-78256880D01*
X65217942Y-77256880D02*
X64551276Y-77256880D01*
X64979847Y-78256880D01*
X70551276Y-97332280D02*
X70551276Y-96332280D01*
X70313180Y-96332280D01*
X70170323Y-96379900D01*
X70075085Y-96475138D01*
X70027466Y-96570376D01*
X69979847Y-96760852D01*
X69979847Y-96903709D01*
X70027466Y-97094185D01*
X70075085Y-97189423D01*
X70170323Y-97284661D01*
X70313180Y-97332280D01*
X70551276Y-97332280D01*
X69551276Y-96951328D02*
X68789371Y-96951328D01*
X67836990Y-97332280D02*
X68313180Y-97332280D01*
X68313180Y-96332280D01*
X67503657Y-96808471D02*
X67170323Y-96808471D01*
X67027466Y-97332280D02*
X67503657Y-97332280D01*
X67503657Y-96332280D01*
X67027466Y-96332280D01*
X66598895Y-97332280D02*
X66598895Y-96332280D01*
X66360800Y-96332280D01*
X66217942Y-96379900D01*
X66122704Y-96475138D01*
X66075085Y-96570376D01*
X66027466Y-96760852D01*
X66027466Y-96903709D01*
X66075085Y-97094185D01*
X66122704Y-97189423D01*
X66217942Y-97284661D01*
X66360800Y-97332280D01*
X66598895Y-97332280D01*
X65075085Y-97332280D02*
X65646514Y-97332280D01*
X65360800Y-97332280D02*
X65360800Y-96332280D01*
X65456038Y-96475138D01*
X65551276Y-96570376D01*
X65646514Y-96617995D01*
X64217942Y-96665614D02*
X64217942Y-97332280D01*
X64456038Y-96284661D02*
X64694133Y-96998947D01*
X64075085Y-96998947D01*
X70576676Y-116420380D02*
X70576676Y-115420380D01*
X70338580Y-115420380D01*
X70195723Y-115468000D01*
X70100485Y-115563238D01*
X70052866Y-115658476D01*
X70005247Y-115848952D01*
X70005247Y-115991809D01*
X70052866Y-116182285D01*
X70100485Y-116277523D01*
X70195723Y-116372761D01*
X70338580Y-116420380D01*
X70576676Y-116420380D01*
X69576676Y-116039428D02*
X68814771Y-116039428D01*
X67862390Y-116420380D02*
X68338580Y-116420380D01*
X68338580Y-115420380D01*
X67529057Y-115896571D02*
X67195723Y-115896571D01*
X67052866Y-116420380D02*
X67529057Y-116420380D01*
X67529057Y-115420380D01*
X67052866Y-115420380D01*
X66624295Y-116420380D02*
X66624295Y-115420380D01*
X66386200Y-115420380D01*
X66243342Y-115468000D01*
X66148104Y-115563238D01*
X66100485Y-115658476D01*
X66052866Y-115848952D01*
X66052866Y-115991809D01*
X66100485Y-116182285D01*
X66148104Y-116277523D01*
X66243342Y-116372761D01*
X66386200Y-116420380D01*
X66624295Y-116420380D01*
X65671914Y-115515619D02*
X65624295Y-115468000D01*
X65529057Y-115420380D01*
X65290961Y-115420380D01*
X65195723Y-115468000D01*
X65148104Y-115515619D01*
X65100485Y-115610857D01*
X65100485Y-115706095D01*
X65148104Y-115848952D01*
X65719533Y-116420380D01*
X65100485Y-116420380D01*
X64148104Y-116420380D02*
X64719533Y-116420380D01*
X64433819Y-116420380D02*
X64433819Y-115420380D01*
X64529057Y-115563238D01*
X64624295Y-115658476D01*
X64719533Y-115706095D01*
X70563976Y-135483080D02*
X70563976Y-134483080D01*
X70325880Y-134483080D01*
X70183023Y-134530700D01*
X70087785Y-134625938D01*
X70040166Y-134721176D01*
X69992547Y-134911652D01*
X69992547Y-135054509D01*
X70040166Y-135244985D01*
X70087785Y-135340223D01*
X70183023Y-135435461D01*
X70325880Y-135483080D01*
X70563976Y-135483080D01*
X69563976Y-135102128D02*
X68802071Y-135102128D01*
X67849690Y-135483080D02*
X68325880Y-135483080D01*
X68325880Y-134483080D01*
X67516357Y-134959271D02*
X67183023Y-134959271D01*
X67040166Y-135483080D02*
X67516357Y-135483080D01*
X67516357Y-134483080D01*
X67040166Y-134483080D01*
X66611595Y-135483080D02*
X66611595Y-134483080D01*
X66373500Y-134483080D01*
X66230642Y-134530700D01*
X66135404Y-134625938D01*
X66087785Y-134721176D01*
X66040166Y-134911652D01*
X66040166Y-135054509D01*
X66087785Y-135244985D01*
X66135404Y-135340223D01*
X66230642Y-135435461D01*
X66373500Y-135483080D01*
X66611595Y-135483080D01*
X65659214Y-134578319D02*
X65611595Y-134530700D01*
X65516357Y-134483080D01*
X65278261Y-134483080D01*
X65183023Y-134530700D01*
X65135404Y-134578319D01*
X65087785Y-134673557D01*
X65087785Y-134768795D01*
X65135404Y-134911652D01*
X65706833Y-135483080D01*
X65087785Y-135483080D01*
X64516357Y-134911652D02*
X64611595Y-134864033D01*
X64659214Y-134816414D01*
X64706833Y-134721176D01*
X64706833Y-134673557D01*
X64659214Y-134578319D01*
X64611595Y-134530700D01*
X64516357Y-134483080D01*
X64325880Y-134483080D01*
X64230642Y-134530700D01*
X64183023Y-134578319D01*
X64135404Y-134673557D01*
X64135404Y-134721176D01*
X64183023Y-134816414D01*
X64230642Y-134864033D01*
X64325880Y-134911652D01*
X64516357Y-134911652D01*
X64611595Y-134959271D01*
X64659214Y-135006890D01*
X64706833Y-135102128D01*
X64706833Y-135292604D01*
X64659214Y-135387842D01*
X64611595Y-135435461D01*
X64516357Y-135483080D01*
X64325880Y-135483080D01*
X64230642Y-135435461D01*
X64183023Y-135387842D01*
X64135404Y-135292604D01*
X64135404Y-135102128D01*
X64183023Y-135006890D01*
X64230642Y-134959271D01*
X64325880Y-134911652D01*
X70563976Y-154494980D02*
X70563976Y-153494980D01*
X70325880Y-153494980D01*
X70183023Y-153542600D01*
X70087785Y-153637838D01*
X70040166Y-153733076D01*
X69992547Y-153923552D01*
X69992547Y-154066409D01*
X70040166Y-154256885D01*
X70087785Y-154352123D01*
X70183023Y-154447361D01*
X70325880Y-154494980D01*
X70563976Y-154494980D01*
X69563976Y-154114028D02*
X68802071Y-154114028D01*
X67849690Y-154494980D02*
X68325880Y-154494980D01*
X68325880Y-153494980D01*
X67516357Y-153971171D02*
X67183023Y-153971171D01*
X67040166Y-154494980D02*
X67516357Y-154494980D01*
X67516357Y-153494980D01*
X67040166Y-153494980D01*
X66611595Y-154494980D02*
X66611595Y-153494980D01*
X66373500Y-153494980D01*
X66230642Y-153542600D01*
X66135404Y-153637838D01*
X66087785Y-153733076D01*
X66040166Y-153923552D01*
X66040166Y-154066409D01*
X66087785Y-154256885D01*
X66135404Y-154352123D01*
X66230642Y-154447361D01*
X66373500Y-154494980D01*
X66611595Y-154494980D01*
X65706833Y-153494980D02*
X65087785Y-153494980D01*
X65421119Y-153875933D01*
X65278261Y-153875933D01*
X65183023Y-153923552D01*
X65135404Y-153971171D01*
X65087785Y-154066409D01*
X65087785Y-154304504D01*
X65135404Y-154399742D01*
X65183023Y-154447361D01*
X65278261Y-154494980D01*
X65563976Y-154494980D01*
X65659214Y-154447361D01*
X65706833Y-154399742D01*
X64183023Y-153494980D02*
X64659214Y-153494980D01*
X64706833Y-153971171D01*
X64659214Y-153923552D01*
X64563976Y-153875933D01*
X64325880Y-153875933D01*
X64230642Y-153923552D01*
X64183023Y-153971171D01*
X64135404Y-154066409D01*
X64135404Y-154304504D01*
X64183023Y-154399742D01*
X64230642Y-154447361D01*
X64325880Y-154494980D01*
X64563976Y-154494980D01*
X64659214Y-154447361D01*
X64706833Y-154399742D01*
M02*
