G04 #@! TF.GenerationSoftware,KiCad,Pcbnew,5.1.5*
G04 #@! TF.CreationDate,2020-04-06T18:02:31-07:00*
G04 #@! TF.ProjectId,keyboard,6b657962-6f61-4726-942e-6b696361645f,rev?*
G04 #@! TF.SameCoordinates,Original*
G04 #@! TF.FileFunction,Paste,Bot*
G04 #@! TF.FilePolarity,Positive*
%FSLAX46Y46*%
G04 Gerber Fmt 4.6, Leading zero omitted, Abs format (unit mm)*
G04 Created by KiCad (PCBNEW 5.1.5) date 2020-04-06 18:02:31*
%MOMM*%
%LPD*%
G04 APERTURE LIST*
%ADD10R,1.050000X0.750000*%
%ADD11R,1.100000X0.750000*%
%ADD12C,0.100000*%
%ADD13R,1.200000X1.200000*%
G04 APERTURE END LIST*
D10*
X156827110Y-60685850D03*
X156827110Y-62135850D03*
X152527110Y-62135850D03*
D11*
X152527110Y-60685850D03*
D12*
G36*
X97140504Y-150500554D02*
G01*
X97164773Y-150504154D01*
X97188571Y-150510115D01*
X97211671Y-150518380D01*
X97233849Y-150528870D01*
X97254893Y-150541483D01*
X97274598Y-150556097D01*
X97292777Y-150572573D01*
X97309253Y-150590752D01*
X97323867Y-150610457D01*
X97336480Y-150631501D01*
X97346970Y-150653679D01*
X97355235Y-150676779D01*
X97361196Y-150700577D01*
X97364796Y-150724846D01*
X97366000Y-150749350D01*
X97366000Y-151259350D01*
X97364796Y-151283854D01*
X97361196Y-151308123D01*
X97355235Y-151331921D01*
X97346970Y-151355021D01*
X97336480Y-151377199D01*
X97323867Y-151398243D01*
X97309253Y-151417948D01*
X97292777Y-151436127D01*
X97274598Y-151452603D01*
X97254893Y-151467217D01*
X97233849Y-151479830D01*
X97211671Y-151490320D01*
X97188571Y-151498585D01*
X97164773Y-151504546D01*
X97140504Y-151508146D01*
X97116000Y-151509350D01*
X96606000Y-151509350D01*
X96581496Y-151508146D01*
X96557227Y-151504546D01*
X96533429Y-151498585D01*
X96510329Y-151490320D01*
X96488151Y-151479830D01*
X96467107Y-151467217D01*
X96447402Y-151452603D01*
X96429223Y-151436127D01*
X96412747Y-151417948D01*
X96398133Y-151398243D01*
X96385520Y-151377199D01*
X96375030Y-151355021D01*
X96366765Y-151331921D01*
X96360804Y-151308123D01*
X96357204Y-151283854D01*
X96356000Y-151259350D01*
X96356000Y-150749350D01*
X96357204Y-150724846D01*
X96360804Y-150700577D01*
X96366765Y-150676779D01*
X96375030Y-150653679D01*
X96385520Y-150631501D01*
X96398133Y-150610457D01*
X96412747Y-150590752D01*
X96429223Y-150572573D01*
X96447402Y-150556097D01*
X96467107Y-150541483D01*
X96488151Y-150528870D01*
X96510329Y-150518380D01*
X96533429Y-150510115D01*
X96557227Y-150504154D01*
X96581496Y-150500554D01*
X96606000Y-150499350D01*
X97116000Y-150499350D01*
X97140504Y-150500554D01*
G37*
G36*
X97140504Y-151750554D02*
G01*
X97164773Y-151754154D01*
X97188571Y-151760115D01*
X97211671Y-151768380D01*
X97233849Y-151778870D01*
X97254893Y-151791483D01*
X97274598Y-151806097D01*
X97292777Y-151822573D01*
X97309253Y-151840752D01*
X97323867Y-151860457D01*
X97336480Y-151881501D01*
X97346970Y-151903679D01*
X97355235Y-151926779D01*
X97361196Y-151950577D01*
X97364796Y-151974846D01*
X97366000Y-151999350D01*
X97366000Y-152509350D01*
X97364796Y-152533854D01*
X97361196Y-152558123D01*
X97355235Y-152581921D01*
X97346970Y-152605021D01*
X97336480Y-152627199D01*
X97323867Y-152648243D01*
X97309253Y-152667948D01*
X97292777Y-152686127D01*
X97274598Y-152702603D01*
X97254893Y-152717217D01*
X97233849Y-152729830D01*
X97211671Y-152740320D01*
X97188571Y-152748585D01*
X97164773Y-152754546D01*
X97140504Y-152758146D01*
X97116000Y-152759350D01*
X96606000Y-152759350D01*
X96581496Y-152758146D01*
X96557227Y-152754546D01*
X96533429Y-152748585D01*
X96510329Y-152740320D01*
X96488151Y-152729830D01*
X96467107Y-152717217D01*
X96447402Y-152702603D01*
X96429223Y-152686127D01*
X96412747Y-152667948D01*
X96398133Y-152648243D01*
X96385520Y-152627199D01*
X96375030Y-152605021D01*
X96366765Y-152581921D01*
X96360804Y-152558123D01*
X96357204Y-152533854D01*
X96356000Y-152509350D01*
X96356000Y-151999350D01*
X96357204Y-151974846D01*
X96360804Y-151950577D01*
X96366765Y-151926779D01*
X96375030Y-151903679D01*
X96385520Y-151881501D01*
X96398133Y-151860457D01*
X96412747Y-151840752D01*
X96429223Y-151822573D01*
X96447402Y-151806097D01*
X96467107Y-151791483D01*
X96488151Y-151778870D01*
X96510329Y-151768380D01*
X96533429Y-151760115D01*
X96557227Y-151754154D01*
X96581496Y-151750554D01*
X96606000Y-151749350D01*
X97116000Y-151749350D01*
X97140504Y-151750554D01*
G37*
G36*
X97140504Y-153000554D02*
G01*
X97164773Y-153004154D01*
X97188571Y-153010115D01*
X97211671Y-153018380D01*
X97233849Y-153028870D01*
X97254893Y-153041483D01*
X97274598Y-153056097D01*
X97292777Y-153072573D01*
X97309253Y-153090752D01*
X97323867Y-153110457D01*
X97336480Y-153131501D01*
X97346970Y-153153679D01*
X97355235Y-153176779D01*
X97361196Y-153200577D01*
X97364796Y-153224846D01*
X97366000Y-153249350D01*
X97366000Y-153759350D01*
X97364796Y-153783854D01*
X97361196Y-153808123D01*
X97355235Y-153831921D01*
X97346970Y-153855021D01*
X97336480Y-153877199D01*
X97323867Y-153898243D01*
X97309253Y-153917948D01*
X97292777Y-153936127D01*
X97274598Y-153952603D01*
X97254893Y-153967217D01*
X97233849Y-153979830D01*
X97211671Y-153990320D01*
X97188571Y-153998585D01*
X97164773Y-154004546D01*
X97140504Y-154008146D01*
X97116000Y-154009350D01*
X96606000Y-154009350D01*
X96581496Y-154008146D01*
X96557227Y-154004546D01*
X96533429Y-153998585D01*
X96510329Y-153990320D01*
X96488151Y-153979830D01*
X96467107Y-153967217D01*
X96447402Y-153952603D01*
X96429223Y-153936127D01*
X96412747Y-153917948D01*
X96398133Y-153898243D01*
X96385520Y-153877199D01*
X96375030Y-153855021D01*
X96366765Y-153831921D01*
X96360804Y-153808123D01*
X96357204Y-153783854D01*
X96356000Y-153759350D01*
X96356000Y-153249350D01*
X96357204Y-153224846D01*
X96360804Y-153200577D01*
X96366765Y-153176779D01*
X96375030Y-153153679D01*
X96385520Y-153131501D01*
X96398133Y-153110457D01*
X96412747Y-153090752D01*
X96429223Y-153072573D01*
X96447402Y-153056097D01*
X96467107Y-153041483D01*
X96488151Y-153028870D01*
X96510329Y-153018380D01*
X96533429Y-153010115D01*
X96557227Y-153004154D01*
X96581496Y-153000554D01*
X96606000Y-152999350D01*
X97116000Y-152999350D01*
X97140504Y-153000554D01*
G37*
G36*
X97140504Y-154250554D02*
G01*
X97164773Y-154254154D01*
X97188571Y-154260115D01*
X97211671Y-154268380D01*
X97233849Y-154278870D01*
X97254893Y-154291483D01*
X97274598Y-154306097D01*
X97292777Y-154322573D01*
X97309253Y-154340752D01*
X97323867Y-154360457D01*
X97336480Y-154381501D01*
X97346970Y-154403679D01*
X97355235Y-154426779D01*
X97361196Y-154450577D01*
X97364796Y-154474846D01*
X97366000Y-154499350D01*
X97366000Y-155009350D01*
X97364796Y-155033854D01*
X97361196Y-155058123D01*
X97355235Y-155081921D01*
X97346970Y-155105021D01*
X97336480Y-155127199D01*
X97323867Y-155148243D01*
X97309253Y-155167948D01*
X97292777Y-155186127D01*
X97274598Y-155202603D01*
X97254893Y-155217217D01*
X97233849Y-155229830D01*
X97211671Y-155240320D01*
X97188571Y-155248585D01*
X97164773Y-155254546D01*
X97140504Y-155258146D01*
X97116000Y-155259350D01*
X96606000Y-155259350D01*
X96581496Y-155258146D01*
X96557227Y-155254546D01*
X96533429Y-155248585D01*
X96510329Y-155240320D01*
X96488151Y-155229830D01*
X96467107Y-155217217D01*
X96447402Y-155202603D01*
X96429223Y-155186127D01*
X96412747Y-155167948D01*
X96398133Y-155148243D01*
X96385520Y-155127199D01*
X96375030Y-155105021D01*
X96366765Y-155081921D01*
X96360804Y-155058123D01*
X96357204Y-155033854D01*
X96356000Y-155009350D01*
X96356000Y-154499350D01*
X96357204Y-154474846D01*
X96360804Y-154450577D01*
X96366765Y-154426779D01*
X96375030Y-154403679D01*
X96385520Y-154381501D01*
X96398133Y-154360457D01*
X96412747Y-154340752D01*
X96429223Y-154322573D01*
X96447402Y-154306097D01*
X96467107Y-154291483D01*
X96488151Y-154278870D01*
X96510329Y-154268380D01*
X96533429Y-154260115D01*
X96557227Y-154254154D01*
X96581496Y-154250554D01*
X96606000Y-154249350D01*
X97116000Y-154249350D01*
X97140504Y-154250554D01*
G37*
G36*
X95890504Y-150500554D02*
G01*
X95914773Y-150504154D01*
X95938571Y-150510115D01*
X95961671Y-150518380D01*
X95983849Y-150528870D01*
X96004893Y-150541483D01*
X96024598Y-150556097D01*
X96042777Y-150572573D01*
X96059253Y-150590752D01*
X96073867Y-150610457D01*
X96086480Y-150631501D01*
X96096970Y-150653679D01*
X96105235Y-150676779D01*
X96111196Y-150700577D01*
X96114796Y-150724846D01*
X96116000Y-150749350D01*
X96116000Y-151259350D01*
X96114796Y-151283854D01*
X96111196Y-151308123D01*
X96105235Y-151331921D01*
X96096970Y-151355021D01*
X96086480Y-151377199D01*
X96073867Y-151398243D01*
X96059253Y-151417948D01*
X96042777Y-151436127D01*
X96024598Y-151452603D01*
X96004893Y-151467217D01*
X95983849Y-151479830D01*
X95961671Y-151490320D01*
X95938571Y-151498585D01*
X95914773Y-151504546D01*
X95890504Y-151508146D01*
X95866000Y-151509350D01*
X95356000Y-151509350D01*
X95331496Y-151508146D01*
X95307227Y-151504546D01*
X95283429Y-151498585D01*
X95260329Y-151490320D01*
X95238151Y-151479830D01*
X95217107Y-151467217D01*
X95197402Y-151452603D01*
X95179223Y-151436127D01*
X95162747Y-151417948D01*
X95148133Y-151398243D01*
X95135520Y-151377199D01*
X95125030Y-151355021D01*
X95116765Y-151331921D01*
X95110804Y-151308123D01*
X95107204Y-151283854D01*
X95106000Y-151259350D01*
X95106000Y-150749350D01*
X95107204Y-150724846D01*
X95110804Y-150700577D01*
X95116765Y-150676779D01*
X95125030Y-150653679D01*
X95135520Y-150631501D01*
X95148133Y-150610457D01*
X95162747Y-150590752D01*
X95179223Y-150572573D01*
X95197402Y-150556097D01*
X95217107Y-150541483D01*
X95238151Y-150528870D01*
X95260329Y-150518380D01*
X95283429Y-150510115D01*
X95307227Y-150504154D01*
X95331496Y-150500554D01*
X95356000Y-150499350D01*
X95866000Y-150499350D01*
X95890504Y-150500554D01*
G37*
G36*
X95890504Y-151750554D02*
G01*
X95914773Y-151754154D01*
X95938571Y-151760115D01*
X95961671Y-151768380D01*
X95983849Y-151778870D01*
X96004893Y-151791483D01*
X96024598Y-151806097D01*
X96042777Y-151822573D01*
X96059253Y-151840752D01*
X96073867Y-151860457D01*
X96086480Y-151881501D01*
X96096970Y-151903679D01*
X96105235Y-151926779D01*
X96111196Y-151950577D01*
X96114796Y-151974846D01*
X96116000Y-151999350D01*
X96116000Y-152509350D01*
X96114796Y-152533854D01*
X96111196Y-152558123D01*
X96105235Y-152581921D01*
X96096970Y-152605021D01*
X96086480Y-152627199D01*
X96073867Y-152648243D01*
X96059253Y-152667948D01*
X96042777Y-152686127D01*
X96024598Y-152702603D01*
X96004893Y-152717217D01*
X95983849Y-152729830D01*
X95961671Y-152740320D01*
X95938571Y-152748585D01*
X95914773Y-152754546D01*
X95890504Y-152758146D01*
X95866000Y-152759350D01*
X95356000Y-152759350D01*
X95331496Y-152758146D01*
X95307227Y-152754546D01*
X95283429Y-152748585D01*
X95260329Y-152740320D01*
X95238151Y-152729830D01*
X95217107Y-152717217D01*
X95197402Y-152702603D01*
X95179223Y-152686127D01*
X95162747Y-152667948D01*
X95148133Y-152648243D01*
X95135520Y-152627199D01*
X95125030Y-152605021D01*
X95116765Y-152581921D01*
X95110804Y-152558123D01*
X95107204Y-152533854D01*
X95106000Y-152509350D01*
X95106000Y-151999350D01*
X95107204Y-151974846D01*
X95110804Y-151950577D01*
X95116765Y-151926779D01*
X95125030Y-151903679D01*
X95135520Y-151881501D01*
X95148133Y-151860457D01*
X95162747Y-151840752D01*
X95179223Y-151822573D01*
X95197402Y-151806097D01*
X95217107Y-151791483D01*
X95238151Y-151778870D01*
X95260329Y-151768380D01*
X95283429Y-151760115D01*
X95307227Y-151754154D01*
X95331496Y-151750554D01*
X95356000Y-151749350D01*
X95866000Y-151749350D01*
X95890504Y-151750554D01*
G37*
G36*
X95890504Y-153000554D02*
G01*
X95914773Y-153004154D01*
X95938571Y-153010115D01*
X95961671Y-153018380D01*
X95983849Y-153028870D01*
X96004893Y-153041483D01*
X96024598Y-153056097D01*
X96042777Y-153072573D01*
X96059253Y-153090752D01*
X96073867Y-153110457D01*
X96086480Y-153131501D01*
X96096970Y-153153679D01*
X96105235Y-153176779D01*
X96111196Y-153200577D01*
X96114796Y-153224846D01*
X96116000Y-153249350D01*
X96116000Y-153759350D01*
X96114796Y-153783854D01*
X96111196Y-153808123D01*
X96105235Y-153831921D01*
X96096970Y-153855021D01*
X96086480Y-153877199D01*
X96073867Y-153898243D01*
X96059253Y-153917948D01*
X96042777Y-153936127D01*
X96024598Y-153952603D01*
X96004893Y-153967217D01*
X95983849Y-153979830D01*
X95961671Y-153990320D01*
X95938571Y-153998585D01*
X95914773Y-154004546D01*
X95890504Y-154008146D01*
X95866000Y-154009350D01*
X95356000Y-154009350D01*
X95331496Y-154008146D01*
X95307227Y-154004546D01*
X95283429Y-153998585D01*
X95260329Y-153990320D01*
X95238151Y-153979830D01*
X95217107Y-153967217D01*
X95197402Y-153952603D01*
X95179223Y-153936127D01*
X95162747Y-153917948D01*
X95148133Y-153898243D01*
X95135520Y-153877199D01*
X95125030Y-153855021D01*
X95116765Y-153831921D01*
X95110804Y-153808123D01*
X95107204Y-153783854D01*
X95106000Y-153759350D01*
X95106000Y-153249350D01*
X95107204Y-153224846D01*
X95110804Y-153200577D01*
X95116765Y-153176779D01*
X95125030Y-153153679D01*
X95135520Y-153131501D01*
X95148133Y-153110457D01*
X95162747Y-153090752D01*
X95179223Y-153072573D01*
X95197402Y-153056097D01*
X95217107Y-153041483D01*
X95238151Y-153028870D01*
X95260329Y-153018380D01*
X95283429Y-153010115D01*
X95307227Y-153004154D01*
X95331496Y-153000554D01*
X95356000Y-152999350D01*
X95866000Y-152999350D01*
X95890504Y-153000554D01*
G37*
G36*
X95890504Y-154250554D02*
G01*
X95914773Y-154254154D01*
X95938571Y-154260115D01*
X95961671Y-154268380D01*
X95983849Y-154278870D01*
X96004893Y-154291483D01*
X96024598Y-154306097D01*
X96042777Y-154322573D01*
X96059253Y-154340752D01*
X96073867Y-154360457D01*
X96086480Y-154381501D01*
X96096970Y-154403679D01*
X96105235Y-154426779D01*
X96111196Y-154450577D01*
X96114796Y-154474846D01*
X96116000Y-154499350D01*
X96116000Y-155009350D01*
X96114796Y-155033854D01*
X96111196Y-155058123D01*
X96105235Y-155081921D01*
X96096970Y-155105021D01*
X96086480Y-155127199D01*
X96073867Y-155148243D01*
X96059253Y-155167948D01*
X96042777Y-155186127D01*
X96024598Y-155202603D01*
X96004893Y-155217217D01*
X95983849Y-155229830D01*
X95961671Y-155240320D01*
X95938571Y-155248585D01*
X95914773Y-155254546D01*
X95890504Y-155258146D01*
X95866000Y-155259350D01*
X95356000Y-155259350D01*
X95331496Y-155258146D01*
X95307227Y-155254546D01*
X95283429Y-155248585D01*
X95260329Y-155240320D01*
X95238151Y-155229830D01*
X95217107Y-155217217D01*
X95197402Y-155202603D01*
X95179223Y-155186127D01*
X95162747Y-155167948D01*
X95148133Y-155148243D01*
X95135520Y-155127199D01*
X95125030Y-155105021D01*
X95116765Y-155081921D01*
X95110804Y-155058123D01*
X95107204Y-155033854D01*
X95106000Y-155009350D01*
X95106000Y-154499350D01*
X95107204Y-154474846D01*
X95110804Y-154450577D01*
X95116765Y-154426779D01*
X95125030Y-154403679D01*
X95135520Y-154381501D01*
X95148133Y-154360457D01*
X95162747Y-154340752D01*
X95179223Y-154322573D01*
X95197402Y-154306097D01*
X95217107Y-154291483D01*
X95238151Y-154278870D01*
X95260329Y-154268380D01*
X95283429Y-154260115D01*
X95307227Y-154254154D01*
X95331496Y-154250554D01*
X95356000Y-154249350D01*
X95866000Y-154249350D01*
X95890504Y-154250554D01*
G37*
G36*
X94640504Y-150500554D02*
G01*
X94664773Y-150504154D01*
X94688571Y-150510115D01*
X94711671Y-150518380D01*
X94733849Y-150528870D01*
X94754893Y-150541483D01*
X94774598Y-150556097D01*
X94792777Y-150572573D01*
X94809253Y-150590752D01*
X94823867Y-150610457D01*
X94836480Y-150631501D01*
X94846970Y-150653679D01*
X94855235Y-150676779D01*
X94861196Y-150700577D01*
X94864796Y-150724846D01*
X94866000Y-150749350D01*
X94866000Y-151259350D01*
X94864796Y-151283854D01*
X94861196Y-151308123D01*
X94855235Y-151331921D01*
X94846970Y-151355021D01*
X94836480Y-151377199D01*
X94823867Y-151398243D01*
X94809253Y-151417948D01*
X94792777Y-151436127D01*
X94774598Y-151452603D01*
X94754893Y-151467217D01*
X94733849Y-151479830D01*
X94711671Y-151490320D01*
X94688571Y-151498585D01*
X94664773Y-151504546D01*
X94640504Y-151508146D01*
X94616000Y-151509350D01*
X94106000Y-151509350D01*
X94081496Y-151508146D01*
X94057227Y-151504546D01*
X94033429Y-151498585D01*
X94010329Y-151490320D01*
X93988151Y-151479830D01*
X93967107Y-151467217D01*
X93947402Y-151452603D01*
X93929223Y-151436127D01*
X93912747Y-151417948D01*
X93898133Y-151398243D01*
X93885520Y-151377199D01*
X93875030Y-151355021D01*
X93866765Y-151331921D01*
X93860804Y-151308123D01*
X93857204Y-151283854D01*
X93856000Y-151259350D01*
X93856000Y-150749350D01*
X93857204Y-150724846D01*
X93860804Y-150700577D01*
X93866765Y-150676779D01*
X93875030Y-150653679D01*
X93885520Y-150631501D01*
X93898133Y-150610457D01*
X93912747Y-150590752D01*
X93929223Y-150572573D01*
X93947402Y-150556097D01*
X93967107Y-150541483D01*
X93988151Y-150528870D01*
X94010329Y-150518380D01*
X94033429Y-150510115D01*
X94057227Y-150504154D01*
X94081496Y-150500554D01*
X94106000Y-150499350D01*
X94616000Y-150499350D01*
X94640504Y-150500554D01*
G37*
G36*
X94640504Y-151750554D02*
G01*
X94664773Y-151754154D01*
X94688571Y-151760115D01*
X94711671Y-151768380D01*
X94733849Y-151778870D01*
X94754893Y-151791483D01*
X94774598Y-151806097D01*
X94792777Y-151822573D01*
X94809253Y-151840752D01*
X94823867Y-151860457D01*
X94836480Y-151881501D01*
X94846970Y-151903679D01*
X94855235Y-151926779D01*
X94861196Y-151950577D01*
X94864796Y-151974846D01*
X94866000Y-151999350D01*
X94866000Y-152509350D01*
X94864796Y-152533854D01*
X94861196Y-152558123D01*
X94855235Y-152581921D01*
X94846970Y-152605021D01*
X94836480Y-152627199D01*
X94823867Y-152648243D01*
X94809253Y-152667948D01*
X94792777Y-152686127D01*
X94774598Y-152702603D01*
X94754893Y-152717217D01*
X94733849Y-152729830D01*
X94711671Y-152740320D01*
X94688571Y-152748585D01*
X94664773Y-152754546D01*
X94640504Y-152758146D01*
X94616000Y-152759350D01*
X94106000Y-152759350D01*
X94081496Y-152758146D01*
X94057227Y-152754546D01*
X94033429Y-152748585D01*
X94010329Y-152740320D01*
X93988151Y-152729830D01*
X93967107Y-152717217D01*
X93947402Y-152702603D01*
X93929223Y-152686127D01*
X93912747Y-152667948D01*
X93898133Y-152648243D01*
X93885520Y-152627199D01*
X93875030Y-152605021D01*
X93866765Y-152581921D01*
X93860804Y-152558123D01*
X93857204Y-152533854D01*
X93856000Y-152509350D01*
X93856000Y-151999350D01*
X93857204Y-151974846D01*
X93860804Y-151950577D01*
X93866765Y-151926779D01*
X93875030Y-151903679D01*
X93885520Y-151881501D01*
X93898133Y-151860457D01*
X93912747Y-151840752D01*
X93929223Y-151822573D01*
X93947402Y-151806097D01*
X93967107Y-151791483D01*
X93988151Y-151778870D01*
X94010329Y-151768380D01*
X94033429Y-151760115D01*
X94057227Y-151754154D01*
X94081496Y-151750554D01*
X94106000Y-151749350D01*
X94616000Y-151749350D01*
X94640504Y-151750554D01*
G37*
G36*
X94640504Y-153000554D02*
G01*
X94664773Y-153004154D01*
X94688571Y-153010115D01*
X94711671Y-153018380D01*
X94733849Y-153028870D01*
X94754893Y-153041483D01*
X94774598Y-153056097D01*
X94792777Y-153072573D01*
X94809253Y-153090752D01*
X94823867Y-153110457D01*
X94836480Y-153131501D01*
X94846970Y-153153679D01*
X94855235Y-153176779D01*
X94861196Y-153200577D01*
X94864796Y-153224846D01*
X94866000Y-153249350D01*
X94866000Y-153759350D01*
X94864796Y-153783854D01*
X94861196Y-153808123D01*
X94855235Y-153831921D01*
X94846970Y-153855021D01*
X94836480Y-153877199D01*
X94823867Y-153898243D01*
X94809253Y-153917948D01*
X94792777Y-153936127D01*
X94774598Y-153952603D01*
X94754893Y-153967217D01*
X94733849Y-153979830D01*
X94711671Y-153990320D01*
X94688571Y-153998585D01*
X94664773Y-154004546D01*
X94640504Y-154008146D01*
X94616000Y-154009350D01*
X94106000Y-154009350D01*
X94081496Y-154008146D01*
X94057227Y-154004546D01*
X94033429Y-153998585D01*
X94010329Y-153990320D01*
X93988151Y-153979830D01*
X93967107Y-153967217D01*
X93947402Y-153952603D01*
X93929223Y-153936127D01*
X93912747Y-153917948D01*
X93898133Y-153898243D01*
X93885520Y-153877199D01*
X93875030Y-153855021D01*
X93866765Y-153831921D01*
X93860804Y-153808123D01*
X93857204Y-153783854D01*
X93856000Y-153759350D01*
X93856000Y-153249350D01*
X93857204Y-153224846D01*
X93860804Y-153200577D01*
X93866765Y-153176779D01*
X93875030Y-153153679D01*
X93885520Y-153131501D01*
X93898133Y-153110457D01*
X93912747Y-153090752D01*
X93929223Y-153072573D01*
X93947402Y-153056097D01*
X93967107Y-153041483D01*
X93988151Y-153028870D01*
X94010329Y-153018380D01*
X94033429Y-153010115D01*
X94057227Y-153004154D01*
X94081496Y-153000554D01*
X94106000Y-152999350D01*
X94616000Y-152999350D01*
X94640504Y-153000554D01*
G37*
G36*
X94640504Y-154250554D02*
G01*
X94664773Y-154254154D01*
X94688571Y-154260115D01*
X94711671Y-154268380D01*
X94733849Y-154278870D01*
X94754893Y-154291483D01*
X94774598Y-154306097D01*
X94792777Y-154322573D01*
X94809253Y-154340752D01*
X94823867Y-154360457D01*
X94836480Y-154381501D01*
X94846970Y-154403679D01*
X94855235Y-154426779D01*
X94861196Y-154450577D01*
X94864796Y-154474846D01*
X94866000Y-154499350D01*
X94866000Y-155009350D01*
X94864796Y-155033854D01*
X94861196Y-155058123D01*
X94855235Y-155081921D01*
X94846970Y-155105021D01*
X94836480Y-155127199D01*
X94823867Y-155148243D01*
X94809253Y-155167948D01*
X94792777Y-155186127D01*
X94774598Y-155202603D01*
X94754893Y-155217217D01*
X94733849Y-155229830D01*
X94711671Y-155240320D01*
X94688571Y-155248585D01*
X94664773Y-155254546D01*
X94640504Y-155258146D01*
X94616000Y-155259350D01*
X94106000Y-155259350D01*
X94081496Y-155258146D01*
X94057227Y-155254546D01*
X94033429Y-155248585D01*
X94010329Y-155240320D01*
X93988151Y-155229830D01*
X93967107Y-155217217D01*
X93947402Y-155202603D01*
X93929223Y-155186127D01*
X93912747Y-155167948D01*
X93898133Y-155148243D01*
X93885520Y-155127199D01*
X93875030Y-155105021D01*
X93866765Y-155081921D01*
X93860804Y-155058123D01*
X93857204Y-155033854D01*
X93856000Y-155009350D01*
X93856000Y-154499350D01*
X93857204Y-154474846D01*
X93860804Y-154450577D01*
X93866765Y-154426779D01*
X93875030Y-154403679D01*
X93885520Y-154381501D01*
X93898133Y-154360457D01*
X93912747Y-154340752D01*
X93929223Y-154322573D01*
X93947402Y-154306097D01*
X93967107Y-154291483D01*
X93988151Y-154278870D01*
X94010329Y-154268380D01*
X94033429Y-154260115D01*
X94057227Y-154254154D01*
X94081496Y-154250554D01*
X94106000Y-154249350D01*
X94616000Y-154249350D01*
X94640504Y-154250554D01*
G37*
G36*
X93390504Y-150500554D02*
G01*
X93414773Y-150504154D01*
X93438571Y-150510115D01*
X93461671Y-150518380D01*
X93483849Y-150528870D01*
X93504893Y-150541483D01*
X93524598Y-150556097D01*
X93542777Y-150572573D01*
X93559253Y-150590752D01*
X93573867Y-150610457D01*
X93586480Y-150631501D01*
X93596970Y-150653679D01*
X93605235Y-150676779D01*
X93611196Y-150700577D01*
X93614796Y-150724846D01*
X93616000Y-150749350D01*
X93616000Y-151259350D01*
X93614796Y-151283854D01*
X93611196Y-151308123D01*
X93605235Y-151331921D01*
X93596970Y-151355021D01*
X93586480Y-151377199D01*
X93573867Y-151398243D01*
X93559253Y-151417948D01*
X93542777Y-151436127D01*
X93524598Y-151452603D01*
X93504893Y-151467217D01*
X93483849Y-151479830D01*
X93461671Y-151490320D01*
X93438571Y-151498585D01*
X93414773Y-151504546D01*
X93390504Y-151508146D01*
X93366000Y-151509350D01*
X92856000Y-151509350D01*
X92831496Y-151508146D01*
X92807227Y-151504546D01*
X92783429Y-151498585D01*
X92760329Y-151490320D01*
X92738151Y-151479830D01*
X92717107Y-151467217D01*
X92697402Y-151452603D01*
X92679223Y-151436127D01*
X92662747Y-151417948D01*
X92648133Y-151398243D01*
X92635520Y-151377199D01*
X92625030Y-151355021D01*
X92616765Y-151331921D01*
X92610804Y-151308123D01*
X92607204Y-151283854D01*
X92606000Y-151259350D01*
X92606000Y-150749350D01*
X92607204Y-150724846D01*
X92610804Y-150700577D01*
X92616765Y-150676779D01*
X92625030Y-150653679D01*
X92635520Y-150631501D01*
X92648133Y-150610457D01*
X92662747Y-150590752D01*
X92679223Y-150572573D01*
X92697402Y-150556097D01*
X92717107Y-150541483D01*
X92738151Y-150528870D01*
X92760329Y-150518380D01*
X92783429Y-150510115D01*
X92807227Y-150504154D01*
X92831496Y-150500554D01*
X92856000Y-150499350D01*
X93366000Y-150499350D01*
X93390504Y-150500554D01*
G37*
G36*
X93390504Y-151750554D02*
G01*
X93414773Y-151754154D01*
X93438571Y-151760115D01*
X93461671Y-151768380D01*
X93483849Y-151778870D01*
X93504893Y-151791483D01*
X93524598Y-151806097D01*
X93542777Y-151822573D01*
X93559253Y-151840752D01*
X93573867Y-151860457D01*
X93586480Y-151881501D01*
X93596970Y-151903679D01*
X93605235Y-151926779D01*
X93611196Y-151950577D01*
X93614796Y-151974846D01*
X93616000Y-151999350D01*
X93616000Y-152509350D01*
X93614796Y-152533854D01*
X93611196Y-152558123D01*
X93605235Y-152581921D01*
X93596970Y-152605021D01*
X93586480Y-152627199D01*
X93573867Y-152648243D01*
X93559253Y-152667948D01*
X93542777Y-152686127D01*
X93524598Y-152702603D01*
X93504893Y-152717217D01*
X93483849Y-152729830D01*
X93461671Y-152740320D01*
X93438571Y-152748585D01*
X93414773Y-152754546D01*
X93390504Y-152758146D01*
X93366000Y-152759350D01*
X92856000Y-152759350D01*
X92831496Y-152758146D01*
X92807227Y-152754546D01*
X92783429Y-152748585D01*
X92760329Y-152740320D01*
X92738151Y-152729830D01*
X92717107Y-152717217D01*
X92697402Y-152702603D01*
X92679223Y-152686127D01*
X92662747Y-152667948D01*
X92648133Y-152648243D01*
X92635520Y-152627199D01*
X92625030Y-152605021D01*
X92616765Y-152581921D01*
X92610804Y-152558123D01*
X92607204Y-152533854D01*
X92606000Y-152509350D01*
X92606000Y-151999350D01*
X92607204Y-151974846D01*
X92610804Y-151950577D01*
X92616765Y-151926779D01*
X92625030Y-151903679D01*
X92635520Y-151881501D01*
X92648133Y-151860457D01*
X92662747Y-151840752D01*
X92679223Y-151822573D01*
X92697402Y-151806097D01*
X92717107Y-151791483D01*
X92738151Y-151778870D01*
X92760329Y-151768380D01*
X92783429Y-151760115D01*
X92807227Y-151754154D01*
X92831496Y-151750554D01*
X92856000Y-151749350D01*
X93366000Y-151749350D01*
X93390504Y-151750554D01*
G37*
G36*
X93390504Y-153000554D02*
G01*
X93414773Y-153004154D01*
X93438571Y-153010115D01*
X93461671Y-153018380D01*
X93483849Y-153028870D01*
X93504893Y-153041483D01*
X93524598Y-153056097D01*
X93542777Y-153072573D01*
X93559253Y-153090752D01*
X93573867Y-153110457D01*
X93586480Y-153131501D01*
X93596970Y-153153679D01*
X93605235Y-153176779D01*
X93611196Y-153200577D01*
X93614796Y-153224846D01*
X93616000Y-153249350D01*
X93616000Y-153759350D01*
X93614796Y-153783854D01*
X93611196Y-153808123D01*
X93605235Y-153831921D01*
X93596970Y-153855021D01*
X93586480Y-153877199D01*
X93573867Y-153898243D01*
X93559253Y-153917948D01*
X93542777Y-153936127D01*
X93524598Y-153952603D01*
X93504893Y-153967217D01*
X93483849Y-153979830D01*
X93461671Y-153990320D01*
X93438571Y-153998585D01*
X93414773Y-154004546D01*
X93390504Y-154008146D01*
X93366000Y-154009350D01*
X92856000Y-154009350D01*
X92831496Y-154008146D01*
X92807227Y-154004546D01*
X92783429Y-153998585D01*
X92760329Y-153990320D01*
X92738151Y-153979830D01*
X92717107Y-153967217D01*
X92697402Y-153952603D01*
X92679223Y-153936127D01*
X92662747Y-153917948D01*
X92648133Y-153898243D01*
X92635520Y-153877199D01*
X92625030Y-153855021D01*
X92616765Y-153831921D01*
X92610804Y-153808123D01*
X92607204Y-153783854D01*
X92606000Y-153759350D01*
X92606000Y-153249350D01*
X92607204Y-153224846D01*
X92610804Y-153200577D01*
X92616765Y-153176779D01*
X92625030Y-153153679D01*
X92635520Y-153131501D01*
X92648133Y-153110457D01*
X92662747Y-153090752D01*
X92679223Y-153072573D01*
X92697402Y-153056097D01*
X92717107Y-153041483D01*
X92738151Y-153028870D01*
X92760329Y-153018380D01*
X92783429Y-153010115D01*
X92807227Y-153004154D01*
X92831496Y-153000554D01*
X92856000Y-152999350D01*
X93366000Y-152999350D01*
X93390504Y-153000554D01*
G37*
G36*
X93390504Y-154250554D02*
G01*
X93414773Y-154254154D01*
X93438571Y-154260115D01*
X93461671Y-154268380D01*
X93483849Y-154278870D01*
X93504893Y-154291483D01*
X93524598Y-154306097D01*
X93542777Y-154322573D01*
X93559253Y-154340752D01*
X93573867Y-154360457D01*
X93586480Y-154381501D01*
X93596970Y-154403679D01*
X93605235Y-154426779D01*
X93611196Y-154450577D01*
X93614796Y-154474846D01*
X93616000Y-154499350D01*
X93616000Y-155009350D01*
X93614796Y-155033854D01*
X93611196Y-155058123D01*
X93605235Y-155081921D01*
X93596970Y-155105021D01*
X93586480Y-155127199D01*
X93573867Y-155148243D01*
X93559253Y-155167948D01*
X93542777Y-155186127D01*
X93524598Y-155202603D01*
X93504893Y-155217217D01*
X93483849Y-155229830D01*
X93461671Y-155240320D01*
X93438571Y-155248585D01*
X93414773Y-155254546D01*
X93390504Y-155258146D01*
X93366000Y-155259350D01*
X92856000Y-155259350D01*
X92831496Y-155258146D01*
X92807227Y-155254546D01*
X92783429Y-155248585D01*
X92760329Y-155240320D01*
X92738151Y-155229830D01*
X92717107Y-155217217D01*
X92697402Y-155202603D01*
X92679223Y-155186127D01*
X92662747Y-155167948D01*
X92648133Y-155148243D01*
X92635520Y-155127199D01*
X92625030Y-155105021D01*
X92616765Y-155081921D01*
X92610804Y-155058123D01*
X92607204Y-155033854D01*
X92606000Y-155009350D01*
X92606000Y-154499350D01*
X92607204Y-154474846D01*
X92610804Y-154450577D01*
X92616765Y-154426779D01*
X92625030Y-154403679D01*
X92635520Y-154381501D01*
X92648133Y-154360457D01*
X92662747Y-154340752D01*
X92679223Y-154322573D01*
X92697402Y-154306097D01*
X92717107Y-154291483D01*
X92738151Y-154278870D01*
X92760329Y-154268380D01*
X92783429Y-154260115D01*
X92807227Y-154254154D01*
X92831496Y-154250554D01*
X92856000Y-154249350D01*
X93366000Y-154249350D01*
X93390504Y-154250554D01*
G37*
G36*
X92318351Y-156304711D02*
G01*
X92325632Y-156305791D01*
X92332771Y-156307579D01*
X92339701Y-156310059D01*
X92346355Y-156313206D01*
X92352668Y-156316990D01*
X92358579Y-156321374D01*
X92364033Y-156326317D01*
X92368976Y-156331771D01*
X92373360Y-156337682D01*
X92377144Y-156343995D01*
X92380291Y-156350649D01*
X92382771Y-156357579D01*
X92384559Y-156364718D01*
X92385639Y-156371999D01*
X92386000Y-156379350D01*
X92386000Y-157704350D01*
X92385639Y-157711701D01*
X92384559Y-157718982D01*
X92382771Y-157726121D01*
X92380291Y-157733051D01*
X92377144Y-157739705D01*
X92373360Y-157746018D01*
X92368976Y-157751929D01*
X92364033Y-157757383D01*
X92358579Y-157762326D01*
X92352668Y-157766710D01*
X92346355Y-157770494D01*
X92339701Y-157773641D01*
X92332771Y-157776121D01*
X92325632Y-157777909D01*
X92318351Y-157778989D01*
X92311000Y-157779350D01*
X92161000Y-157779350D01*
X92153649Y-157778989D01*
X92146368Y-157777909D01*
X92139229Y-157776121D01*
X92132299Y-157773641D01*
X92125645Y-157770494D01*
X92119332Y-157766710D01*
X92113421Y-157762326D01*
X92107967Y-157757383D01*
X92103024Y-157751929D01*
X92098640Y-157746018D01*
X92094856Y-157739705D01*
X92091709Y-157733051D01*
X92089229Y-157726121D01*
X92087441Y-157718982D01*
X92086361Y-157711701D01*
X92086000Y-157704350D01*
X92086000Y-156379350D01*
X92086361Y-156371999D01*
X92087441Y-156364718D01*
X92089229Y-156357579D01*
X92091709Y-156350649D01*
X92094856Y-156343995D01*
X92098640Y-156337682D01*
X92103024Y-156331771D01*
X92107967Y-156326317D01*
X92113421Y-156321374D01*
X92119332Y-156316990D01*
X92125645Y-156313206D01*
X92132299Y-156310059D01*
X92139229Y-156307579D01*
X92146368Y-156305791D01*
X92153649Y-156304711D01*
X92161000Y-156304350D01*
X92311000Y-156304350D01*
X92318351Y-156304711D01*
G37*
G36*
X92818351Y-156304711D02*
G01*
X92825632Y-156305791D01*
X92832771Y-156307579D01*
X92839701Y-156310059D01*
X92846355Y-156313206D01*
X92852668Y-156316990D01*
X92858579Y-156321374D01*
X92864033Y-156326317D01*
X92868976Y-156331771D01*
X92873360Y-156337682D01*
X92877144Y-156343995D01*
X92880291Y-156350649D01*
X92882771Y-156357579D01*
X92884559Y-156364718D01*
X92885639Y-156371999D01*
X92886000Y-156379350D01*
X92886000Y-157704350D01*
X92885639Y-157711701D01*
X92884559Y-157718982D01*
X92882771Y-157726121D01*
X92880291Y-157733051D01*
X92877144Y-157739705D01*
X92873360Y-157746018D01*
X92868976Y-157751929D01*
X92864033Y-157757383D01*
X92858579Y-157762326D01*
X92852668Y-157766710D01*
X92846355Y-157770494D01*
X92839701Y-157773641D01*
X92832771Y-157776121D01*
X92825632Y-157777909D01*
X92818351Y-157778989D01*
X92811000Y-157779350D01*
X92661000Y-157779350D01*
X92653649Y-157778989D01*
X92646368Y-157777909D01*
X92639229Y-157776121D01*
X92632299Y-157773641D01*
X92625645Y-157770494D01*
X92619332Y-157766710D01*
X92613421Y-157762326D01*
X92607967Y-157757383D01*
X92603024Y-157751929D01*
X92598640Y-157746018D01*
X92594856Y-157739705D01*
X92591709Y-157733051D01*
X92589229Y-157726121D01*
X92587441Y-157718982D01*
X92586361Y-157711701D01*
X92586000Y-157704350D01*
X92586000Y-156379350D01*
X92586361Y-156371999D01*
X92587441Y-156364718D01*
X92589229Y-156357579D01*
X92591709Y-156350649D01*
X92594856Y-156343995D01*
X92598640Y-156337682D01*
X92603024Y-156331771D01*
X92607967Y-156326317D01*
X92613421Y-156321374D01*
X92619332Y-156316990D01*
X92625645Y-156313206D01*
X92632299Y-156310059D01*
X92639229Y-156307579D01*
X92646368Y-156305791D01*
X92653649Y-156304711D01*
X92661000Y-156304350D01*
X92811000Y-156304350D01*
X92818351Y-156304711D01*
G37*
G36*
X93318351Y-156304711D02*
G01*
X93325632Y-156305791D01*
X93332771Y-156307579D01*
X93339701Y-156310059D01*
X93346355Y-156313206D01*
X93352668Y-156316990D01*
X93358579Y-156321374D01*
X93364033Y-156326317D01*
X93368976Y-156331771D01*
X93373360Y-156337682D01*
X93377144Y-156343995D01*
X93380291Y-156350649D01*
X93382771Y-156357579D01*
X93384559Y-156364718D01*
X93385639Y-156371999D01*
X93386000Y-156379350D01*
X93386000Y-157704350D01*
X93385639Y-157711701D01*
X93384559Y-157718982D01*
X93382771Y-157726121D01*
X93380291Y-157733051D01*
X93377144Y-157739705D01*
X93373360Y-157746018D01*
X93368976Y-157751929D01*
X93364033Y-157757383D01*
X93358579Y-157762326D01*
X93352668Y-157766710D01*
X93346355Y-157770494D01*
X93339701Y-157773641D01*
X93332771Y-157776121D01*
X93325632Y-157777909D01*
X93318351Y-157778989D01*
X93311000Y-157779350D01*
X93161000Y-157779350D01*
X93153649Y-157778989D01*
X93146368Y-157777909D01*
X93139229Y-157776121D01*
X93132299Y-157773641D01*
X93125645Y-157770494D01*
X93119332Y-157766710D01*
X93113421Y-157762326D01*
X93107967Y-157757383D01*
X93103024Y-157751929D01*
X93098640Y-157746018D01*
X93094856Y-157739705D01*
X93091709Y-157733051D01*
X93089229Y-157726121D01*
X93087441Y-157718982D01*
X93086361Y-157711701D01*
X93086000Y-157704350D01*
X93086000Y-156379350D01*
X93086361Y-156371999D01*
X93087441Y-156364718D01*
X93089229Y-156357579D01*
X93091709Y-156350649D01*
X93094856Y-156343995D01*
X93098640Y-156337682D01*
X93103024Y-156331771D01*
X93107967Y-156326317D01*
X93113421Y-156321374D01*
X93119332Y-156316990D01*
X93125645Y-156313206D01*
X93132299Y-156310059D01*
X93139229Y-156307579D01*
X93146368Y-156305791D01*
X93153649Y-156304711D01*
X93161000Y-156304350D01*
X93311000Y-156304350D01*
X93318351Y-156304711D01*
G37*
G36*
X93818351Y-156304711D02*
G01*
X93825632Y-156305791D01*
X93832771Y-156307579D01*
X93839701Y-156310059D01*
X93846355Y-156313206D01*
X93852668Y-156316990D01*
X93858579Y-156321374D01*
X93864033Y-156326317D01*
X93868976Y-156331771D01*
X93873360Y-156337682D01*
X93877144Y-156343995D01*
X93880291Y-156350649D01*
X93882771Y-156357579D01*
X93884559Y-156364718D01*
X93885639Y-156371999D01*
X93886000Y-156379350D01*
X93886000Y-157704350D01*
X93885639Y-157711701D01*
X93884559Y-157718982D01*
X93882771Y-157726121D01*
X93880291Y-157733051D01*
X93877144Y-157739705D01*
X93873360Y-157746018D01*
X93868976Y-157751929D01*
X93864033Y-157757383D01*
X93858579Y-157762326D01*
X93852668Y-157766710D01*
X93846355Y-157770494D01*
X93839701Y-157773641D01*
X93832771Y-157776121D01*
X93825632Y-157777909D01*
X93818351Y-157778989D01*
X93811000Y-157779350D01*
X93661000Y-157779350D01*
X93653649Y-157778989D01*
X93646368Y-157777909D01*
X93639229Y-157776121D01*
X93632299Y-157773641D01*
X93625645Y-157770494D01*
X93619332Y-157766710D01*
X93613421Y-157762326D01*
X93607967Y-157757383D01*
X93603024Y-157751929D01*
X93598640Y-157746018D01*
X93594856Y-157739705D01*
X93591709Y-157733051D01*
X93589229Y-157726121D01*
X93587441Y-157718982D01*
X93586361Y-157711701D01*
X93586000Y-157704350D01*
X93586000Y-156379350D01*
X93586361Y-156371999D01*
X93587441Y-156364718D01*
X93589229Y-156357579D01*
X93591709Y-156350649D01*
X93594856Y-156343995D01*
X93598640Y-156337682D01*
X93603024Y-156331771D01*
X93607967Y-156326317D01*
X93613421Y-156321374D01*
X93619332Y-156316990D01*
X93625645Y-156313206D01*
X93632299Y-156310059D01*
X93639229Y-156307579D01*
X93646368Y-156305791D01*
X93653649Y-156304711D01*
X93661000Y-156304350D01*
X93811000Y-156304350D01*
X93818351Y-156304711D01*
G37*
G36*
X94318351Y-156304711D02*
G01*
X94325632Y-156305791D01*
X94332771Y-156307579D01*
X94339701Y-156310059D01*
X94346355Y-156313206D01*
X94352668Y-156316990D01*
X94358579Y-156321374D01*
X94364033Y-156326317D01*
X94368976Y-156331771D01*
X94373360Y-156337682D01*
X94377144Y-156343995D01*
X94380291Y-156350649D01*
X94382771Y-156357579D01*
X94384559Y-156364718D01*
X94385639Y-156371999D01*
X94386000Y-156379350D01*
X94386000Y-157704350D01*
X94385639Y-157711701D01*
X94384559Y-157718982D01*
X94382771Y-157726121D01*
X94380291Y-157733051D01*
X94377144Y-157739705D01*
X94373360Y-157746018D01*
X94368976Y-157751929D01*
X94364033Y-157757383D01*
X94358579Y-157762326D01*
X94352668Y-157766710D01*
X94346355Y-157770494D01*
X94339701Y-157773641D01*
X94332771Y-157776121D01*
X94325632Y-157777909D01*
X94318351Y-157778989D01*
X94311000Y-157779350D01*
X94161000Y-157779350D01*
X94153649Y-157778989D01*
X94146368Y-157777909D01*
X94139229Y-157776121D01*
X94132299Y-157773641D01*
X94125645Y-157770494D01*
X94119332Y-157766710D01*
X94113421Y-157762326D01*
X94107967Y-157757383D01*
X94103024Y-157751929D01*
X94098640Y-157746018D01*
X94094856Y-157739705D01*
X94091709Y-157733051D01*
X94089229Y-157726121D01*
X94087441Y-157718982D01*
X94086361Y-157711701D01*
X94086000Y-157704350D01*
X94086000Y-156379350D01*
X94086361Y-156371999D01*
X94087441Y-156364718D01*
X94089229Y-156357579D01*
X94091709Y-156350649D01*
X94094856Y-156343995D01*
X94098640Y-156337682D01*
X94103024Y-156331771D01*
X94107967Y-156326317D01*
X94113421Y-156321374D01*
X94119332Y-156316990D01*
X94125645Y-156313206D01*
X94132299Y-156310059D01*
X94139229Y-156307579D01*
X94146368Y-156305791D01*
X94153649Y-156304711D01*
X94161000Y-156304350D01*
X94311000Y-156304350D01*
X94318351Y-156304711D01*
G37*
G36*
X94818351Y-156304711D02*
G01*
X94825632Y-156305791D01*
X94832771Y-156307579D01*
X94839701Y-156310059D01*
X94846355Y-156313206D01*
X94852668Y-156316990D01*
X94858579Y-156321374D01*
X94864033Y-156326317D01*
X94868976Y-156331771D01*
X94873360Y-156337682D01*
X94877144Y-156343995D01*
X94880291Y-156350649D01*
X94882771Y-156357579D01*
X94884559Y-156364718D01*
X94885639Y-156371999D01*
X94886000Y-156379350D01*
X94886000Y-157704350D01*
X94885639Y-157711701D01*
X94884559Y-157718982D01*
X94882771Y-157726121D01*
X94880291Y-157733051D01*
X94877144Y-157739705D01*
X94873360Y-157746018D01*
X94868976Y-157751929D01*
X94864033Y-157757383D01*
X94858579Y-157762326D01*
X94852668Y-157766710D01*
X94846355Y-157770494D01*
X94839701Y-157773641D01*
X94832771Y-157776121D01*
X94825632Y-157777909D01*
X94818351Y-157778989D01*
X94811000Y-157779350D01*
X94661000Y-157779350D01*
X94653649Y-157778989D01*
X94646368Y-157777909D01*
X94639229Y-157776121D01*
X94632299Y-157773641D01*
X94625645Y-157770494D01*
X94619332Y-157766710D01*
X94613421Y-157762326D01*
X94607967Y-157757383D01*
X94603024Y-157751929D01*
X94598640Y-157746018D01*
X94594856Y-157739705D01*
X94591709Y-157733051D01*
X94589229Y-157726121D01*
X94587441Y-157718982D01*
X94586361Y-157711701D01*
X94586000Y-157704350D01*
X94586000Y-156379350D01*
X94586361Y-156371999D01*
X94587441Y-156364718D01*
X94589229Y-156357579D01*
X94591709Y-156350649D01*
X94594856Y-156343995D01*
X94598640Y-156337682D01*
X94603024Y-156331771D01*
X94607967Y-156326317D01*
X94613421Y-156321374D01*
X94619332Y-156316990D01*
X94625645Y-156313206D01*
X94632299Y-156310059D01*
X94639229Y-156307579D01*
X94646368Y-156305791D01*
X94653649Y-156304711D01*
X94661000Y-156304350D01*
X94811000Y-156304350D01*
X94818351Y-156304711D01*
G37*
G36*
X95318351Y-156304711D02*
G01*
X95325632Y-156305791D01*
X95332771Y-156307579D01*
X95339701Y-156310059D01*
X95346355Y-156313206D01*
X95352668Y-156316990D01*
X95358579Y-156321374D01*
X95364033Y-156326317D01*
X95368976Y-156331771D01*
X95373360Y-156337682D01*
X95377144Y-156343995D01*
X95380291Y-156350649D01*
X95382771Y-156357579D01*
X95384559Y-156364718D01*
X95385639Y-156371999D01*
X95386000Y-156379350D01*
X95386000Y-157704350D01*
X95385639Y-157711701D01*
X95384559Y-157718982D01*
X95382771Y-157726121D01*
X95380291Y-157733051D01*
X95377144Y-157739705D01*
X95373360Y-157746018D01*
X95368976Y-157751929D01*
X95364033Y-157757383D01*
X95358579Y-157762326D01*
X95352668Y-157766710D01*
X95346355Y-157770494D01*
X95339701Y-157773641D01*
X95332771Y-157776121D01*
X95325632Y-157777909D01*
X95318351Y-157778989D01*
X95311000Y-157779350D01*
X95161000Y-157779350D01*
X95153649Y-157778989D01*
X95146368Y-157777909D01*
X95139229Y-157776121D01*
X95132299Y-157773641D01*
X95125645Y-157770494D01*
X95119332Y-157766710D01*
X95113421Y-157762326D01*
X95107967Y-157757383D01*
X95103024Y-157751929D01*
X95098640Y-157746018D01*
X95094856Y-157739705D01*
X95091709Y-157733051D01*
X95089229Y-157726121D01*
X95087441Y-157718982D01*
X95086361Y-157711701D01*
X95086000Y-157704350D01*
X95086000Y-156379350D01*
X95086361Y-156371999D01*
X95087441Y-156364718D01*
X95089229Y-156357579D01*
X95091709Y-156350649D01*
X95094856Y-156343995D01*
X95098640Y-156337682D01*
X95103024Y-156331771D01*
X95107967Y-156326317D01*
X95113421Y-156321374D01*
X95119332Y-156316990D01*
X95125645Y-156313206D01*
X95132299Y-156310059D01*
X95139229Y-156307579D01*
X95146368Y-156305791D01*
X95153649Y-156304711D01*
X95161000Y-156304350D01*
X95311000Y-156304350D01*
X95318351Y-156304711D01*
G37*
G36*
X95818351Y-156304711D02*
G01*
X95825632Y-156305791D01*
X95832771Y-156307579D01*
X95839701Y-156310059D01*
X95846355Y-156313206D01*
X95852668Y-156316990D01*
X95858579Y-156321374D01*
X95864033Y-156326317D01*
X95868976Y-156331771D01*
X95873360Y-156337682D01*
X95877144Y-156343995D01*
X95880291Y-156350649D01*
X95882771Y-156357579D01*
X95884559Y-156364718D01*
X95885639Y-156371999D01*
X95886000Y-156379350D01*
X95886000Y-157704350D01*
X95885639Y-157711701D01*
X95884559Y-157718982D01*
X95882771Y-157726121D01*
X95880291Y-157733051D01*
X95877144Y-157739705D01*
X95873360Y-157746018D01*
X95868976Y-157751929D01*
X95864033Y-157757383D01*
X95858579Y-157762326D01*
X95852668Y-157766710D01*
X95846355Y-157770494D01*
X95839701Y-157773641D01*
X95832771Y-157776121D01*
X95825632Y-157777909D01*
X95818351Y-157778989D01*
X95811000Y-157779350D01*
X95661000Y-157779350D01*
X95653649Y-157778989D01*
X95646368Y-157777909D01*
X95639229Y-157776121D01*
X95632299Y-157773641D01*
X95625645Y-157770494D01*
X95619332Y-157766710D01*
X95613421Y-157762326D01*
X95607967Y-157757383D01*
X95603024Y-157751929D01*
X95598640Y-157746018D01*
X95594856Y-157739705D01*
X95591709Y-157733051D01*
X95589229Y-157726121D01*
X95587441Y-157718982D01*
X95586361Y-157711701D01*
X95586000Y-157704350D01*
X95586000Y-156379350D01*
X95586361Y-156371999D01*
X95587441Y-156364718D01*
X95589229Y-156357579D01*
X95591709Y-156350649D01*
X95594856Y-156343995D01*
X95598640Y-156337682D01*
X95603024Y-156331771D01*
X95607967Y-156326317D01*
X95613421Y-156321374D01*
X95619332Y-156316990D01*
X95625645Y-156313206D01*
X95632299Y-156310059D01*
X95639229Y-156307579D01*
X95646368Y-156305791D01*
X95653649Y-156304711D01*
X95661000Y-156304350D01*
X95811000Y-156304350D01*
X95818351Y-156304711D01*
G37*
G36*
X96318351Y-156304711D02*
G01*
X96325632Y-156305791D01*
X96332771Y-156307579D01*
X96339701Y-156310059D01*
X96346355Y-156313206D01*
X96352668Y-156316990D01*
X96358579Y-156321374D01*
X96364033Y-156326317D01*
X96368976Y-156331771D01*
X96373360Y-156337682D01*
X96377144Y-156343995D01*
X96380291Y-156350649D01*
X96382771Y-156357579D01*
X96384559Y-156364718D01*
X96385639Y-156371999D01*
X96386000Y-156379350D01*
X96386000Y-157704350D01*
X96385639Y-157711701D01*
X96384559Y-157718982D01*
X96382771Y-157726121D01*
X96380291Y-157733051D01*
X96377144Y-157739705D01*
X96373360Y-157746018D01*
X96368976Y-157751929D01*
X96364033Y-157757383D01*
X96358579Y-157762326D01*
X96352668Y-157766710D01*
X96346355Y-157770494D01*
X96339701Y-157773641D01*
X96332771Y-157776121D01*
X96325632Y-157777909D01*
X96318351Y-157778989D01*
X96311000Y-157779350D01*
X96161000Y-157779350D01*
X96153649Y-157778989D01*
X96146368Y-157777909D01*
X96139229Y-157776121D01*
X96132299Y-157773641D01*
X96125645Y-157770494D01*
X96119332Y-157766710D01*
X96113421Y-157762326D01*
X96107967Y-157757383D01*
X96103024Y-157751929D01*
X96098640Y-157746018D01*
X96094856Y-157739705D01*
X96091709Y-157733051D01*
X96089229Y-157726121D01*
X96087441Y-157718982D01*
X96086361Y-157711701D01*
X96086000Y-157704350D01*
X96086000Y-156379350D01*
X96086361Y-156371999D01*
X96087441Y-156364718D01*
X96089229Y-156357579D01*
X96091709Y-156350649D01*
X96094856Y-156343995D01*
X96098640Y-156337682D01*
X96103024Y-156331771D01*
X96107967Y-156326317D01*
X96113421Y-156321374D01*
X96119332Y-156316990D01*
X96125645Y-156313206D01*
X96132299Y-156310059D01*
X96139229Y-156307579D01*
X96146368Y-156305791D01*
X96153649Y-156304711D01*
X96161000Y-156304350D01*
X96311000Y-156304350D01*
X96318351Y-156304711D01*
G37*
G36*
X96818351Y-156304711D02*
G01*
X96825632Y-156305791D01*
X96832771Y-156307579D01*
X96839701Y-156310059D01*
X96846355Y-156313206D01*
X96852668Y-156316990D01*
X96858579Y-156321374D01*
X96864033Y-156326317D01*
X96868976Y-156331771D01*
X96873360Y-156337682D01*
X96877144Y-156343995D01*
X96880291Y-156350649D01*
X96882771Y-156357579D01*
X96884559Y-156364718D01*
X96885639Y-156371999D01*
X96886000Y-156379350D01*
X96886000Y-157704350D01*
X96885639Y-157711701D01*
X96884559Y-157718982D01*
X96882771Y-157726121D01*
X96880291Y-157733051D01*
X96877144Y-157739705D01*
X96873360Y-157746018D01*
X96868976Y-157751929D01*
X96864033Y-157757383D01*
X96858579Y-157762326D01*
X96852668Y-157766710D01*
X96846355Y-157770494D01*
X96839701Y-157773641D01*
X96832771Y-157776121D01*
X96825632Y-157777909D01*
X96818351Y-157778989D01*
X96811000Y-157779350D01*
X96661000Y-157779350D01*
X96653649Y-157778989D01*
X96646368Y-157777909D01*
X96639229Y-157776121D01*
X96632299Y-157773641D01*
X96625645Y-157770494D01*
X96619332Y-157766710D01*
X96613421Y-157762326D01*
X96607967Y-157757383D01*
X96603024Y-157751929D01*
X96598640Y-157746018D01*
X96594856Y-157739705D01*
X96591709Y-157733051D01*
X96589229Y-157726121D01*
X96587441Y-157718982D01*
X96586361Y-157711701D01*
X96586000Y-157704350D01*
X96586000Y-156379350D01*
X96586361Y-156371999D01*
X96587441Y-156364718D01*
X96589229Y-156357579D01*
X96591709Y-156350649D01*
X96594856Y-156343995D01*
X96598640Y-156337682D01*
X96603024Y-156331771D01*
X96607967Y-156326317D01*
X96613421Y-156321374D01*
X96619332Y-156316990D01*
X96625645Y-156313206D01*
X96632299Y-156310059D01*
X96639229Y-156307579D01*
X96646368Y-156305791D01*
X96653649Y-156304711D01*
X96661000Y-156304350D01*
X96811000Y-156304350D01*
X96818351Y-156304711D01*
G37*
G36*
X97318351Y-156304711D02*
G01*
X97325632Y-156305791D01*
X97332771Y-156307579D01*
X97339701Y-156310059D01*
X97346355Y-156313206D01*
X97352668Y-156316990D01*
X97358579Y-156321374D01*
X97364033Y-156326317D01*
X97368976Y-156331771D01*
X97373360Y-156337682D01*
X97377144Y-156343995D01*
X97380291Y-156350649D01*
X97382771Y-156357579D01*
X97384559Y-156364718D01*
X97385639Y-156371999D01*
X97386000Y-156379350D01*
X97386000Y-157704350D01*
X97385639Y-157711701D01*
X97384559Y-157718982D01*
X97382771Y-157726121D01*
X97380291Y-157733051D01*
X97377144Y-157739705D01*
X97373360Y-157746018D01*
X97368976Y-157751929D01*
X97364033Y-157757383D01*
X97358579Y-157762326D01*
X97352668Y-157766710D01*
X97346355Y-157770494D01*
X97339701Y-157773641D01*
X97332771Y-157776121D01*
X97325632Y-157777909D01*
X97318351Y-157778989D01*
X97311000Y-157779350D01*
X97161000Y-157779350D01*
X97153649Y-157778989D01*
X97146368Y-157777909D01*
X97139229Y-157776121D01*
X97132299Y-157773641D01*
X97125645Y-157770494D01*
X97119332Y-157766710D01*
X97113421Y-157762326D01*
X97107967Y-157757383D01*
X97103024Y-157751929D01*
X97098640Y-157746018D01*
X97094856Y-157739705D01*
X97091709Y-157733051D01*
X97089229Y-157726121D01*
X97087441Y-157718982D01*
X97086361Y-157711701D01*
X97086000Y-157704350D01*
X97086000Y-156379350D01*
X97086361Y-156371999D01*
X97087441Y-156364718D01*
X97089229Y-156357579D01*
X97091709Y-156350649D01*
X97094856Y-156343995D01*
X97098640Y-156337682D01*
X97103024Y-156331771D01*
X97107967Y-156326317D01*
X97113421Y-156321374D01*
X97119332Y-156316990D01*
X97125645Y-156313206D01*
X97132299Y-156310059D01*
X97139229Y-156307579D01*
X97146368Y-156305791D01*
X97153649Y-156304711D01*
X97161000Y-156304350D01*
X97311000Y-156304350D01*
X97318351Y-156304711D01*
G37*
G36*
X97818351Y-156304711D02*
G01*
X97825632Y-156305791D01*
X97832771Y-156307579D01*
X97839701Y-156310059D01*
X97846355Y-156313206D01*
X97852668Y-156316990D01*
X97858579Y-156321374D01*
X97864033Y-156326317D01*
X97868976Y-156331771D01*
X97873360Y-156337682D01*
X97877144Y-156343995D01*
X97880291Y-156350649D01*
X97882771Y-156357579D01*
X97884559Y-156364718D01*
X97885639Y-156371999D01*
X97886000Y-156379350D01*
X97886000Y-157704350D01*
X97885639Y-157711701D01*
X97884559Y-157718982D01*
X97882771Y-157726121D01*
X97880291Y-157733051D01*
X97877144Y-157739705D01*
X97873360Y-157746018D01*
X97868976Y-157751929D01*
X97864033Y-157757383D01*
X97858579Y-157762326D01*
X97852668Y-157766710D01*
X97846355Y-157770494D01*
X97839701Y-157773641D01*
X97832771Y-157776121D01*
X97825632Y-157777909D01*
X97818351Y-157778989D01*
X97811000Y-157779350D01*
X97661000Y-157779350D01*
X97653649Y-157778989D01*
X97646368Y-157777909D01*
X97639229Y-157776121D01*
X97632299Y-157773641D01*
X97625645Y-157770494D01*
X97619332Y-157766710D01*
X97613421Y-157762326D01*
X97607967Y-157757383D01*
X97603024Y-157751929D01*
X97598640Y-157746018D01*
X97594856Y-157739705D01*
X97591709Y-157733051D01*
X97589229Y-157726121D01*
X97587441Y-157718982D01*
X97586361Y-157711701D01*
X97586000Y-157704350D01*
X97586000Y-156379350D01*
X97586361Y-156371999D01*
X97587441Y-156364718D01*
X97589229Y-156357579D01*
X97591709Y-156350649D01*
X97594856Y-156343995D01*
X97598640Y-156337682D01*
X97603024Y-156331771D01*
X97607967Y-156326317D01*
X97613421Y-156321374D01*
X97619332Y-156316990D01*
X97625645Y-156313206D01*
X97632299Y-156310059D01*
X97639229Y-156307579D01*
X97646368Y-156305791D01*
X97653649Y-156304711D01*
X97661000Y-156304350D01*
X97811000Y-156304350D01*
X97818351Y-156304711D01*
G37*
G36*
X99818351Y-155479711D02*
G01*
X99825632Y-155480791D01*
X99832771Y-155482579D01*
X99839701Y-155485059D01*
X99846355Y-155488206D01*
X99852668Y-155491990D01*
X99858579Y-155496374D01*
X99864033Y-155501317D01*
X99868976Y-155506771D01*
X99873360Y-155512682D01*
X99877144Y-155518995D01*
X99880291Y-155525649D01*
X99882771Y-155532579D01*
X99884559Y-155539718D01*
X99885639Y-155546999D01*
X99886000Y-155554350D01*
X99886000Y-155704350D01*
X99885639Y-155711701D01*
X99884559Y-155718982D01*
X99882771Y-155726121D01*
X99880291Y-155733051D01*
X99877144Y-155739705D01*
X99873360Y-155746018D01*
X99868976Y-155751929D01*
X99864033Y-155757383D01*
X99858579Y-155762326D01*
X99852668Y-155766710D01*
X99846355Y-155770494D01*
X99839701Y-155773641D01*
X99832771Y-155776121D01*
X99825632Y-155777909D01*
X99818351Y-155778989D01*
X99811000Y-155779350D01*
X98486000Y-155779350D01*
X98478649Y-155778989D01*
X98471368Y-155777909D01*
X98464229Y-155776121D01*
X98457299Y-155773641D01*
X98450645Y-155770494D01*
X98444332Y-155766710D01*
X98438421Y-155762326D01*
X98432967Y-155757383D01*
X98428024Y-155751929D01*
X98423640Y-155746018D01*
X98419856Y-155739705D01*
X98416709Y-155733051D01*
X98414229Y-155726121D01*
X98412441Y-155718982D01*
X98411361Y-155711701D01*
X98411000Y-155704350D01*
X98411000Y-155554350D01*
X98411361Y-155546999D01*
X98412441Y-155539718D01*
X98414229Y-155532579D01*
X98416709Y-155525649D01*
X98419856Y-155518995D01*
X98423640Y-155512682D01*
X98428024Y-155506771D01*
X98432967Y-155501317D01*
X98438421Y-155496374D01*
X98444332Y-155491990D01*
X98450645Y-155488206D01*
X98457299Y-155485059D01*
X98464229Y-155482579D01*
X98471368Y-155480791D01*
X98478649Y-155479711D01*
X98486000Y-155479350D01*
X99811000Y-155479350D01*
X99818351Y-155479711D01*
G37*
G36*
X99818351Y-154979711D02*
G01*
X99825632Y-154980791D01*
X99832771Y-154982579D01*
X99839701Y-154985059D01*
X99846355Y-154988206D01*
X99852668Y-154991990D01*
X99858579Y-154996374D01*
X99864033Y-155001317D01*
X99868976Y-155006771D01*
X99873360Y-155012682D01*
X99877144Y-155018995D01*
X99880291Y-155025649D01*
X99882771Y-155032579D01*
X99884559Y-155039718D01*
X99885639Y-155046999D01*
X99886000Y-155054350D01*
X99886000Y-155204350D01*
X99885639Y-155211701D01*
X99884559Y-155218982D01*
X99882771Y-155226121D01*
X99880291Y-155233051D01*
X99877144Y-155239705D01*
X99873360Y-155246018D01*
X99868976Y-155251929D01*
X99864033Y-155257383D01*
X99858579Y-155262326D01*
X99852668Y-155266710D01*
X99846355Y-155270494D01*
X99839701Y-155273641D01*
X99832771Y-155276121D01*
X99825632Y-155277909D01*
X99818351Y-155278989D01*
X99811000Y-155279350D01*
X98486000Y-155279350D01*
X98478649Y-155278989D01*
X98471368Y-155277909D01*
X98464229Y-155276121D01*
X98457299Y-155273641D01*
X98450645Y-155270494D01*
X98444332Y-155266710D01*
X98438421Y-155262326D01*
X98432967Y-155257383D01*
X98428024Y-155251929D01*
X98423640Y-155246018D01*
X98419856Y-155239705D01*
X98416709Y-155233051D01*
X98414229Y-155226121D01*
X98412441Y-155218982D01*
X98411361Y-155211701D01*
X98411000Y-155204350D01*
X98411000Y-155054350D01*
X98411361Y-155046999D01*
X98412441Y-155039718D01*
X98414229Y-155032579D01*
X98416709Y-155025649D01*
X98419856Y-155018995D01*
X98423640Y-155012682D01*
X98428024Y-155006771D01*
X98432967Y-155001317D01*
X98438421Y-154996374D01*
X98444332Y-154991990D01*
X98450645Y-154988206D01*
X98457299Y-154985059D01*
X98464229Y-154982579D01*
X98471368Y-154980791D01*
X98478649Y-154979711D01*
X98486000Y-154979350D01*
X99811000Y-154979350D01*
X99818351Y-154979711D01*
G37*
G36*
X99818351Y-154479711D02*
G01*
X99825632Y-154480791D01*
X99832771Y-154482579D01*
X99839701Y-154485059D01*
X99846355Y-154488206D01*
X99852668Y-154491990D01*
X99858579Y-154496374D01*
X99864033Y-154501317D01*
X99868976Y-154506771D01*
X99873360Y-154512682D01*
X99877144Y-154518995D01*
X99880291Y-154525649D01*
X99882771Y-154532579D01*
X99884559Y-154539718D01*
X99885639Y-154546999D01*
X99886000Y-154554350D01*
X99886000Y-154704350D01*
X99885639Y-154711701D01*
X99884559Y-154718982D01*
X99882771Y-154726121D01*
X99880291Y-154733051D01*
X99877144Y-154739705D01*
X99873360Y-154746018D01*
X99868976Y-154751929D01*
X99864033Y-154757383D01*
X99858579Y-154762326D01*
X99852668Y-154766710D01*
X99846355Y-154770494D01*
X99839701Y-154773641D01*
X99832771Y-154776121D01*
X99825632Y-154777909D01*
X99818351Y-154778989D01*
X99811000Y-154779350D01*
X98486000Y-154779350D01*
X98478649Y-154778989D01*
X98471368Y-154777909D01*
X98464229Y-154776121D01*
X98457299Y-154773641D01*
X98450645Y-154770494D01*
X98444332Y-154766710D01*
X98438421Y-154762326D01*
X98432967Y-154757383D01*
X98428024Y-154751929D01*
X98423640Y-154746018D01*
X98419856Y-154739705D01*
X98416709Y-154733051D01*
X98414229Y-154726121D01*
X98412441Y-154718982D01*
X98411361Y-154711701D01*
X98411000Y-154704350D01*
X98411000Y-154554350D01*
X98411361Y-154546999D01*
X98412441Y-154539718D01*
X98414229Y-154532579D01*
X98416709Y-154525649D01*
X98419856Y-154518995D01*
X98423640Y-154512682D01*
X98428024Y-154506771D01*
X98432967Y-154501317D01*
X98438421Y-154496374D01*
X98444332Y-154491990D01*
X98450645Y-154488206D01*
X98457299Y-154485059D01*
X98464229Y-154482579D01*
X98471368Y-154480791D01*
X98478649Y-154479711D01*
X98486000Y-154479350D01*
X99811000Y-154479350D01*
X99818351Y-154479711D01*
G37*
G36*
X99818351Y-153979711D02*
G01*
X99825632Y-153980791D01*
X99832771Y-153982579D01*
X99839701Y-153985059D01*
X99846355Y-153988206D01*
X99852668Y-153991990D01*
X99858579Y-153996374D01*
X99864033Y-154001317D01*
X99868976Y-154006771D01*
X99873360Y-154012682D01*
X99877144Y-154018995D01*
X99880291Y-154025649D01*
X99882771Y-154032579D01*
X99884559Y-154039718D01*
X99885639Y-154046999D01*
X99886000Y-154054350D01*
X99886000Y-154204350D01*
X99885639Y-154211701D01*
X99884559Y-154218982D01*
X99882771Y-154226121D01*
X99880291Y-154233051D01*
X99877144Y-154239705D01*
X99873360Y-154246018D01*
X99868976Y-154251929D01*
X99864033Y-154257383D01*
X99858579Y-154262326D01*
X99852668Y-154266710D01*
X99846355Y-154270494D01*
X99839701Y-154273641D01*
X99832771Y-154276121D01*
X99825632Y-154277909D01*
X99818351Y-154278989D01*
X99811000Y-154279350D01*
X98486000Y-154279350D01*
X98478649Y-154278989D01*
X98471368Y-154277909D01*
X98464229Y-154276121D01*
X98457299Y-154273641D01*
X98450645Y-154270494D01*
X98444332Y-154266710D01*
X98438421Y-154262326D01*
X98432967Y-154257383D01*
X98428024Y-154251929D01*
X98423640Y-154246018D01*
X98419856Y-154239705D01*
X98416709Y-154233051D01*
X98414229Y-154226121D01*
X98412441Y-154218982D01*
X98411361Y-154211701D01*
X98411000Y-154204350D01*
X98411000Y-154054350D01*
X98411361Y-154046999D01*
X98412441Y-154039718D01*
X98414229Y-154032579D01*
X98416709Y-154025649D01*
X98419856Y-154018995D01*
X98423640Y-154012682D01*
X98428024Y-154006771D01*
X98432967Y-154001317D01*
X98438421Y-153996374D01*
X98444332Y-153991990D01*
X98450645Y-153988206D01*
X98457299Y-153985059D01*
X98464229Y-153982579D01*
X98471368Y-153980791D01*
X98478649Y-153979711D01*
X98486000Y-153979350D01*
X99811000Y-153979350D01*
X99818351Y-153979711D01*
G37*
G36*
X99818351Y-153479711D02*
G01*
X99825632Y-153480791D01*
X99832771Y-153482579D01*
X99839701Y-153485059D01*
X99846355Y-153488206D01*
X99852668Y-153491990D01*
X99858579Y-153496374D01*
X99864033Y-153501317D01*
X99868976Y-153506771D01*
X99873360Y-153512682D01*
X99877144Y-153518995D01*
X99880291Y-153525649D01*
X99882771Y-153532579D01*
X99884559Y-153539718D01*
X99885639Y-153546999D01*
X99886000Y-153554350D01*
X99886000Y-153704350D01*
X99885639Y-153711701D01*
X99884559Y-153718982D01*
X99882771Y-153726121D01*
X99880291Y-153733051D01*
X99877144Y-153739705D01*
X99873360Y-153746018D01*
X99868976Y-153751929D01*
X99864033Y-153757383D01*
X99858579Y-153762326D01*
X99852668Y-153766710D01*
X99846355Y-153770494D01*
X99839701Y-153773641D01*
X99832771Y-153776121D01*
X99825632Y-153777909D01*
X99818351Y-153778989D01*
X99811000Y-153779350D01*
X98486000Y-153779350D01*
X98478649Y-153778989D01*
X98471368Y-153777909D01*
X98464229Y-153776121D01*
X98457299Y-153773641D01*
X98450645Y-153770494D01*
X98444332Y-153766710D01*
X98438421Y-153762326D01*
X98432967Y-153757383D01*
X98428024Y-153751929D01*
X98423640Y-153746018D01*
X98419856Y-153739705D01*
X98416709Y-153733051D01*
X98414229Y-153726121D01*
X98412441Y-153718982D01*
X98411361Y-153711701D01*
X98411000Y-153704350D01*
X98411000Y-153554350D01*
X98411361Y-153546999D01*
X98412441Y-153539718D01*
X98414229Y-153532579D01*
X98416709Y-153525649D01*
X98419856Y-153518995D01*
X98423640Y-153512682D01*
X98428024Y-153506771D01*
X98432967Y-153501317D01*
X98438421Y-153496374D01*
X98444332Y-153491990D01*
X98450645Y-153488206D01*
X98457299Y-153485059D01*
X98464229Y-153482579D01*
X98471368Y-153480791D01*
X98478649Y-153479711D01*
X98486000Y-153479350D01*
X99811000Y-153479350D01*
X99818351Y-153479711D01*
G37*
G36*
X99818351Y-152979711D02*
G01*
X99825632Y-152980791D01*
X99832771Y-152982579D01*
X99839701Y-152985059D01*
X99846355Y-152988206D01*
X99852668Y-152991990D01*
X99858579Y-152996374D01*
X99864033Y-153001317D01*
X99868976Y-153006771D01*
X99873360Y-153012682D01*
X99877144Y-153018995D01*
X99880291Y-153025649D01*
X99882771Y-153032579D01*
X99884559Y-153039718D01*
X99885639Y-153046999D01*
X99886000Y-153054350D01*
X99886000Y-153204350D01*
X99885639Y-153211701D01*
X99884559Y-153218982D01*
X99882771Y-153226121D01*
X99880291Y-153233051D01*
X99877144Y-153239705D01*
X99873360Y-153246018D01*
X99868976Y-153251929D01*
X99864033Y-153257383D01*
X99858579Y-153262326D01*
X99852668Y-153266710D01*
X99846355Y-153270494D01*
X99839701Y-153273641D01*
X99832771Y-153276121D01*
X99825632Y-153277909D01*
X99818351Y-153278989D01*
X99811000Y-153279350D01*
X98486000Y-153279350D01*
X98478649Y-153278989D01*
X98471368Y-153277909D01*
X98464229Y-153276121D01*
X98457299Y-153273641D01*
X98450645Y-153270494D01*
X98444332Y-153266710D01*
X98438421Y-153262326D01*
X98432967Y-153257383D01*
X98428024Y-153251929D01*
X98423640Y-153246018D01*
X98419856Y-153239705D01*
X98416709Y-153233051D01*
X98414229Y-153226121D01*
X98412441Y-153218982D01*
X98411361Y-153211701D01*
X98411000Y-153204350D01*
X98411000Y-153054350D01*
X98411361Y-153046999D01*
X98412441Y-153039718D01*
X98414229Y-153032579D01*
X98416709Y-153025649D01*
X98419856Y-153018995D01*
X98423640Y-153012682D01*
X98428024Y-153006771D01*
X98432967Y-153001317D01*
X98438421Y-152996374D01*
X98444332Y-152991990D01*
X98450645Y-152988206D01*
X98457299Y-152985059D01*
X98464229Y-152982579D01*
X98471368Y-152980791D01*
X98478649Y-152979711D01*
X98486000Y-152979350D01*
X99811000Y-152979350D01*
X99818351Y-152979711D01*
G37*
G36*
X99818351Y-152479711D02*
G01*
X99825632Y-152480791D01*
X99832771Y-152482579D01*
X99839701Y-152485059D01*
X99846355Y-152488206D01*
X99852668Y-152491990D01*
X99858579Y-152496374D01*
X99864033Y-152501317D01*
X99868976Y-152506771D01*
X99873360Y-152512682D01*
X99877144Y-152518995D01*
X99880291Y-152525649D01*
X99882771Y-152532579D01*
X99884559Y-152539718D01*
X99885639Y-152546999D01*
X99886000Y-152554350D01*
X99886000Y-152704350D01*
X99885639Y-152711701D01*
X99884559Y-152718982D01*
X99882771Y-152726121D01*
X99880291Y-152733051D01*
X99877144Y-152739705D01*
X99873360Y-152746018D01*
X99868976Y-152751929D01*
X99864033Y-152757383D01*
X99858579Y-152762326D01*
X99852668Y-152766710D01*
X99846355Y-152770494D01*
X99839701Y-152773641D01*
X99832771Y-152776121D01*
X99825632Y-152777909D01*
X99818351Y-152778989D01*
X99811000Y-152779350D01*
X98486000Y-152779350D01*
X98478649Y-152778989D01*
X98471368Y-152777909D01*
X98464229Y-152776121D01*
X98457299Y-152773641D01*
X98450645Y-152770494D01*
X98444332Y-152766710D01*
X98438421Y-152762326D01*
X98432967Y-152757383D01*
X98428024Y-152751929D01*
X98423640Y-152746018D01*
X98419856Y-152739705D01*
X98416709Y-152733051D01*
X98414229Y-152726121D01*
X98412441Y-152718982D01*
X98411361Y-152711701D01*
X98411000Y-152704350D01*
X98411000Y-152554350D01*
X98411361Y-152546999D01*
X98412441Y-152539718D01*
X98414229Y-152532579D01*
X98416709Y-152525649D01*
X98419856Y-152518995D01*
X98423640Y-152512682D01*
X98428024Y-152506771D01*
X98432967Y-152501317D01*
X98438421Y-152496374D01*
X98444332Y-152491990D01*
X98450645Y-152488206D01*
X98457299Y-152485059D01*
X98464229Y-152482579D01*
X98471368Y-152480791D01*
X98478649Y-152479711D01*
X98486000Y-152479350D01*
X99811000Y-152479350D01*
X99818351Y-152479711D01*
G37*
G36*
X99818351Y-151979711D02*
G01*
X99825632Y-151980791D01*
X99832771Y-151982579D01*
X99839701Y-151985059D01*
X99846355Y-151988206D01*
X99852668Y-151991990D01*
X99858579Y-151996374D01*
X99864033Y-152001317D01*
X99868976Y-152006771D01*
X99873360Y-152012682D01*
X99877144Y-152018995D01*
X99880291Y-152025649D01*
X99882771Y-152032579D01*
X99884559Y-152039718D01*
X99885639Y-152046999D01*
X99886000Y-152054350D01*
X99886000Y-152204350D01*
X99885639Y-152211701D01*
X99884559Y-152218982D01*
X99882771Y-152226121D01*
X99880291Y-152233051D01*
X99877144Y-152239705D01*
X99873360Y-152246018D01*
X99868976Y-152251929D01*
X99864033Y-152257383D01*
X99858579Y-152262326D01*
X99852668Y-152266710D01*
X99846355Y-152270494D01*
X99839701Y-152273641D01*
X99832771Y-152276121D01*
X99825632Y-152277909D01*
X99818351Y-152278989D01*
X99811000Y-152279350D01*
X98486000Y-152279350D01*
X98478649Y-152278989D01*
X98471368Y-152277909D01*
X98464229Y-152276121D01*
X98457299Y-152273641D01*
X98450645Y-152270494D01*
X98444332Y-152266710D01*
X98438421Y-152262326D01*
X98432967Y-152257383D01*
X98428024Y-152251929D01*
X98423640Y-152246018D01*
X98419856Y-152239705D01*
X98416709Y-152233051D01*
X98414229Y-152226121D01*
X98412441Y-152218982D01*
X98411361Y-152211701D01*
X98411000Y-152204350D01*
X98411000Y-152054350D01*
X98411361Y-152046999D01*
X98412441Y-152039718D01*
X98414229Y-152032579D01*
X98416709Y-152025649D01*
X98419856Y-152018995D01*
X98423640Y-152012682D01*
X98428024Y-152006771D01*
X98432967Y-152001317D01*
X98438421Y-151996374D01*
X98444332Y-151991990D01*
X98450645Y-151988206D01*
X98457299Y-151985059D01*
X98464229Y-151982579D01*
X98471368Y-151980791D01*
X98478649Y-151979711D01*
X98486000Y-151979350D01*
X99811000Y-151979350D01*
X99818351Y-151979711D01*
G37*
G36*
X99818351Y-151479711D02*
G01*
X99825632Y-151480791D01*
X99832771Y-151482579D01*
X99839701Y-151485059D01*
X99846355Y-151488206D01*
X99852668Y-151491990D01*
X99858579Y-151496374D01*
X99864033Y-151501317D01*
X99868976Y-151506771D01*
X99873360Y-151512682D01*
X99877144Y-151518995D01*
X99880291Y-151525649D01*
X99882771Y-151532579D01*
X99884559Y-151539718D01*
X99885639Y-151546999D01*
X99886000Y-151554350D01*
X99886000Y-151704350D01*
X99885639Y-151711701D01*
X99884559Y-151718982D01*
X99882771Y-151726121D01*
X99880291Y-151733051D01*
X99877144Y-151739705D01*
X99873360Y-151746018D01*
X99868976Y-151751929D01*
X99864033Y-151757383D01*
X99858579Y-151762326D01*
X99852668Y-151766710D01*
X99846355Y-151770494D01*
X99839701Y-151773641D01*
X99832771Y-151776121D01*
X99825632Y-151777909D01*
X99818351Y-151778989D01*
X99811000Y-151779350D01*
X98486000Y-151779350D01*
X98478649Y-151778989D01*
X98471368Y-151777909D01*
X98464229Y-151776121D01*
X98457299Y-151773641D01*
X98450645Y-151770494D01*
X98444332Y-151766710D01*
X98438421Y-151762326D01*
X98432967Y-151757383D01*
X98428024Y-151751929D01*
X98423640Y-151746018D01*
X98419856Y-151739705D01*
X98416709Y-151733051D01*
X98414229Y-151726121D01*
X98412441Y-151718982D01*
X98411361Y-151711701D01*
X98411000Y-151704350D01*
X98411000Y-151554350D01*
X98411361Y-151546999D01*
X98412441Y-151539718D01*
X98414229Y-151532579D01*
X98416709Y-151525649D01*
X98419856Y-151518995D01*
X98423640Y-151512682D01*
X98428024Y-151506771D01*
X98432967Y-151501317D01*
X98438421Y-151496374D01*
X98444332Y-151491990D01*
X98450645Y-151488206D01*
X98457299Y-151485059D01*
X98464229Y-151482579D01*
X98471368Y-151480791D01*
X98478649Y-151479711D01*
X98486000Y-151479350D01*
X99811000Y-151479350D01*
X99818351Y-151479711D01*
G37*
G36*
X99818351Y-150979711D02*
G01*
X99825632Y-150980791D01*
X99832771Y-150982579D01*
X99839701Y-150985059D01*
X99846355Y-150988206D01*
X99852668Y-150991990D01*
X99858579Y-150996374D01*
X99864033Y-151001317D01*
X99868976Y-151006771D01*
X99873360Y-151012682D01*
X99877144Y-151018995D01*
X99880291Y-151025649D01*
X99882771Y-151032579D01*
X99884559Y-151039718D01*
X99885639Y-151046999D01*
X99886000Y-151054350D01*
X99886000Y-151204350D01*
X99885639Y-151211701D01*
X99884559Y-151218982D01*
X99882771Y-151226121D01*
X99880291Y-151233051D01*
X99877144Y-151239705D01*
X99873360Y-151246018D01*
X99868976Y-151251929D01*
X99864033Y-151257383D01*
X99858579Y-151262326D01*
X99852668Y-151266710D01*
X99846355Y-151270494D01*
X99839701Y-151273641D01*
X99832771Y-151276121D01*
X99825632Y-151277909D01*
X99818351Y-151278989D01*
X99811000Y-151279350D01*
X98486000Y-151279350D01*
X98478649Y-151278989D01*
X98471368Y-151277909D01*
X98464229Y-151276121D01*
X98457299Y-151273641D01*
X98450645Y-151270494D01*
X98444332Y-151266710D01*
X98438421Y-151262326D01*
X98432967Y-151257383D01*
X98428024Y-151251929D01*
X98423640Y-151246018D01*
X98419856Y-151239705D01*
X98416709Y-151233051D01*
X98414229Y-151226121D01*
X98412441Y-151218982D01*
X98411361Y-151211701D01*
X98411000Y-151204350D01*
X98411000Y-151054350D01*
X98411361Y-151046999D01*
X98412441Y-151039718D01*
X98414229Y-151032579D01*
X98416709Y-151025649D01*
X98419856Y-151018995D01*
X98423640Y-151012682D01*
X98428024Y-151006771D01*
X98432967Y-151001317D01*
X98438421Y-150996374D01*
X98444332Y-150991990D01*
X98450645Y-150988206D01*
X98457299Y-150985059D01*
X98464229Y-150982579D01*
X98471368Y-150980791D01*
X98478649Y-150979711D01*
X98486000Y-150979350D01*
X99811000Y-150979350D01*
X99818351Y-150979711D01*
G37*
G36*
X99818351Y-150479711D02*
G01*
X99825632Y-150480791D01*
X99832771Y-150482579D01*
X99839701Y-150485059D01*
X99846355Y-150488206D01*
X99852668Y-150491990D01*
X99858579Y-150496374D01*
X99864033Y-150501317D01*
X99868976Y-150506771D01*
X99873360Y-150512682D01*
X99877144Y-150518995D01*
X99880291Y-150525649D01*
X99882771Y-150532579D01*
X99884559Y-150539718D01*
X99885639Y-150546999D01*
X99886000Y-150554350D01*
X99886000Y-150704350D01*
X99885639Y-150711701D01*
X99884559Y-150718982D01*
X99882771Y-150726121D01*
X99880291Y-150733051D01*
X99877144Y-150739705D01*
X99873360Y-150746018D01*
X99868976Y-150751929D01*
X99864033Y-150757383D01*
X99858579Y-150762326D01*
X99852668Y-150766710D01*
X99846355Y-150770494D01*
X99839701Y-150773641D01*
X99832771Y-150776121D01*
X99825632Y-150777909D01*
X99818351Y-150778989D01*
X99811000Y-150779350D01*
X98486000Y-150779350D01*
X98478649Y-150778989D01*
X98471368Y-150777909D01*
X98464229Y-150776121D01*
X98457299Y-150773641D01*
X98450645Y-150770494D01*
X98444332Y-150766710D01*
X98438421Y-150762326D01*
X98432967Y-150757383D01*
X98428024Y-150751929D01*
X98423640Y-150746018D01*
X98419856Y-150739705D01*
X98416709Y-150733051D01*
X98414229Y-150726121D01*
X98412441Y-150718982D01*
X98411361Y-150711701D01*
X98411000Y-150704350D01*
X98411000Y-150554350D01*
X98411361Y-150546999D01*
X98412441Y-150539718D01*
X98414229Y-150532579D01*
X98416709Y-150525649D01*
X98419856Y-150518995D01*
X98423640Y-150512682D01*
X98428024Y-150506771D01*
X98432967Y-150501317D01*
X98438421Y-150496374D01*
X98444332Y-150491990D01*
X98450645Y-150488206D01*
X98457299Y-150485059D01*
X98464229Y-150482579D01*
X98471368Y-150480791D01*
X98478649Y-150479711D01*
X98486000Y-150479350D01*
X99811000Y-150479350D01*
X99818351Y-150479711D01*
G37*
G36*
X99818351Y-149979711D02*
G01*
X99825632Y-149980791D01*
X99832771Y-149982579D01*
X99839701Y-149985059D01*
X99846355Y-149988206D01*
X99852668Y-149991990D01*
X99858579Y-149996374D01*
X99864033Y-150001317D01*
X99868976Y-150006771D01*
X99873360Y-150012682D01*
X99877144Y-150018995D01*
X99880291Y-150025649D01*
X99882771Y-150032579D01*
X99884559Y-150039718D01*
X99885639Y-150046999D01*
X99886000Y-150054350D01*
X99886000Y-150204350D01*
X99885639Y-150211701D01*
X99884559Y-150218982D01*
X99882771Y-150226121D01*
X99880291Y-150233051D01*
X99877144Y-150239705D01*
X99873360Y-150246018D01*
X99868976Y-150251929D01*
X99864033Y-150257383D01*
X99858579Y-150262326D01*
X99852668Y-150266710D01*
X99846355Y-150270494D01*
X99839701Y-150273641D01*
X99832771Y-150276121D01*
X99825632Y-150277909D01*
X99818351Y-150278989D01*
X99811000Y-150279350D01*
X98486000Y-150279350D01*
X98478649Y-150278989D01*
X98471368Y-150277909D01*
X98464229Y-150276121D01*
X98457299Y-150273641D01*
X98450645Y-150270494D01*
X98444332Y-150266710D01*
X98438421Y-150262326D01*
X98432967Y-150257383D01*
X98428024Y-150251929D01*
X98423640Y-150246018D01*
X98419856Y-150239705D01*
X98416709Y-150233051D01*
X98414229Y-150226121D01*
X98412441Y-150218982D01*
X98411361Y-150211701D01*
X98411000Y-150204350D01*
X98411000Y-150054350D01*
X98411361Y-150046999D01*
X98412441Y-150039718D01*
X98414229Y-150032579D01*
X98416709Y-150025649D01*
X98419856Y-150018995D01*
X98423640Y-150012682D01*
X98428024Y-150006771D01*
X98432967Y-150001317D01*
X98438421Y-149996374D01*
X98444332Y-149991990D01*
X98450645Y-149988206D01*
X98457299Y-149985059D01*
X98464229Y-149982579D01*
X98471368Y-149980791D01*
X98478649Y-149979711D01*
X98486000Y-149979350D01*
X99811000Y-149979350D01*
X99818351Y-149979711D01*
G37*
G36*
X97818351Y-147979711D02*
G01*
X97825632Y-147980791D01*
X97832771Y-147982579D01*
X97839701Y-147985059D01*
X97846355Y-147988206D01*
X97852668Y-147991990D01*
X97858579Y-147996374D01*
X97864033Y-148001317D01*
X97868976Y-148006771D01*
X97873360Y-148012682D01*
X97877144Y-148018995D01*
X97880291Y-148025649D01*
X97882771Y-148032579D01*
X97884559Y-148039718D01*
X97885639Y-148046999D01*
X97886000Y-148054350D01*
X97886000Y-149379350D01*
X97885639Y-149386701D01*
X97884559Y-149393982D01*
X97882771Y-149401121D01*
X97880291Y-149408051D01*
X97877144Y-149414705D01*
X97873360Y-149421018D01*
X97868976Y-149426929D01*
X97864033Y-149432383D01*
X97858579Y-149437326D01*
X97852668Y-149441710D01*
X97846355Y-149445494D01*
X97839701Y-149448641D01*
X97832771Y-149451121D01*
X97825632Y-149452909D01*
X97818351Y-149453989D01*
X97811000Y-149454350D01*
X97661000Y-149454350D01*
X97653649Y-149453989D01*
X97646368Y-149452909D01*
X97639229Y-149451121D01*
X97632299Y-149448641D01*
X97625645Y-149445494D01*
X97619332Y-149441710D01*
X97613421Y-149437326D01*
X97607967Y-149432383D01*
X97603024Y-149426929D01*
X97598640Y-149421018D01*
X97594856Y-149414705D01*
X97591709Y-149408051D01*
X97589229Y-149401121D01*
X97587441Y-149393982D01*
X97586361Y-149386701D01*
X97586000Y-149379350D01*
X97586000Y-148054350D01*
X97586361Y-148046999D01*
X97587441Y-148039718D01*
X97589229Y-148032579D01*
X97591709Y-148025649D01*
X97594856Y-148018995D01*
X97598640Y-148012682D01*
X97603024Y-148006771D01*
X97607967Y-148001317D01*
X97613421Y-147996374D01*
X97619332Y-147991990D01*
X97625645Y-147988206D01*
X97632299Y-147985059D01*
X97639229Y-147982579D01*
X97646368Y-147980791D01*
X97653649Y-147979711D01*
X97661000Y-147979350D01*
X97811000Y-147979350D01*
X97818351Y-147979711D01*
G37*
G36*
X97318351Y-147979711D02*
G01*
X97325632Y-147980791D01*
X97332771Y-147982579D01*
X97339701Y-147985059D01*
X97346355Y-147988206D01*
X97352668Y-147991990D01*
X97358579Y-147996374D01*
X97364033Y-148001317D01*
X97368976Y-148006771D01*
X97373360Y-148012682D01*
X97377144Y-148018995D01*
X97380291Y-148025649D01*
X97382771Y-148032579D01*
X97384559Y-148039718D01*
X97385639Y-148046999D01*
X97386000Y-148054350D01*
X97386000Y-149379350D01*
X97385639Y-149386701D01*
X97384559Y-149393982D01*
X97382771Y-149401121D01*
X97380291Y-149408051D01*
X97377144Y-149414705D01*
X97373360Y-149421018D01*
X97368976Y-149426929D01*
X97364033Y-149432383D01*
X97358579Y-149437326D01*
X97352668Y-149441710D01*
X97346355Y-149445494D01*
X97339701Y-149448641D01*
X97332771Y-149451121D01*
X97325632Y-149452909D01*
X97318351Y-149453989D01*
X97311000Y-149454350D01*
X97161000Y-149454350D01*
X97153649Y-149453989D01*
X97146368Y-149452909D01*
X97139229Y-149451121D01*
X97132299Y-149448641D01*
X97125645Y-149445494D01*
X97119332Y-149441710D01*
X97113421Y-149437326D01*
X97107967Y-149432383D01*
X97103024Y-149426929D01*
X97098640Y-149421018D01*
X97094856Y-149414705D01*
X97091709Y-149408051D01*
X97089229Y-149401121D01*
X97087441Y-149393982D01*
X97086361Y-149386701D01*
X97086000Y-149379350D01*
X97086000Y-148054350D01*
X97086361Y-148046999D01*
X97087441Y-148039718D01*
X97089229Y-148032579D01*
X97091709Y-148025649D01*
X97094856Y-148018995D01*
X97098640Y-148012682D01*
X97103024Y-148006771D01*
X97107967Y-148001317D01*
X97113421Y-147996374D01*
X97119332Y-147991990D01*
X97125645Y-147988206D01*
X97132299Y-147985059D01*
X97139229Y-147982579D01*
X97146368Y-147980791D01*
X97153649Y-147979711D01*
X97161000Y-147979350D01*
X97311000Y-147979350D01*
X97318351Y-147979711D01*
G37*
G36*
X96818351Y-147979711D02*
G01*
X96825632Y-147980791D01*
X96832771Y-147982579D01*
X96839701Y-147985059D01*
X96846355Y-147988206D01*
X96852668Y-147991990D01*
X96858579Y-147996374D01*
X96864033Y-148001317D01*
X96868976Y-148006771D01*
X96873360Y-148012682D01*
X96877144Y-148018995D01*
X96880291Y-148025649D01*
X96882771Y-148032579D01*
X96884559Y-148039718D01*
X96885639Y-148046999D01*
X96886000Y-148054350D01*
X96886000Y-149379350D01*
X96885639Y-149386701D01*
X96884559Y-149393982D01*
X96882771Y-149401121D01*
X96880291Y-149408051D01*
X96877144Y-149414705D01*
X96873360Y-149421018D01*
X96868976Y-149426929D01*
X96864033Y-149432383D01*
X96858579Y-149437326D01*
X96852668Y-149441710D01*
X96846355Y-149445494D01*
X96839701Y-149448641D01*
X96832771Y-149451121D01*
X96825632Y-149452909D01*
X96818351Y-149453989D01*
X96811000Y-149454350D01*
X96661000Y-149454350D01*
X96653649Y-149453989D01*
X96646368Y-149452909D01*
X96639229Y-149451121D01*
X96632299Y-149448641D01*
X96625645Y-149445494D01*
X96619332Y-149441710D01*
X96613421Y-149437326D01*
X96607967Y-149432383D01*
X96603024Y-149426929D01*
X96598640Y-149421018D01*
X96594856Y-149414705D01*
X96591709Y-149408051D01*
X96589229Y-149401121D01*
X96587441Y-149393982D01*
X96586361Y-149386701D01*
X96586000Y-149379350D01*
X96586000Y-148054350D01*
X96586361Y-148046999D01*
X96587441Y-148039718D01*
X96589229Y-148032579D01*
X96591709Y-148025649D01*
X96594856Y-148018995D01*
X96598640Y-148012682D01*
X96603024Y-148006771D01*
X96607967Y-148001317D01*
X96613421Y-147996374D01*
X96619332Y-147991990D01*
X96625645Y-147988206D01*
X96632299Y-147985059D01*
X96639229Y-147982579D01*
X96646368Y-147980791D01*
X96653649Y-147979711D01*
X96661000Y-147979350D01*
X96811000Y-147979350D01*
X96818351Y-147979711D01*
G37*
G36*
X96318351Y-147979711D02*
G01*
X96325632Y-147980791D01*
X96332771Y-147982579D01*
X96339701Y-147985059D01*
X96346355Y-147988206D01*
X96352668Y-147991990D01*
X96358579Y-147996374D01*
X96364033Y-148001317D01*
X96368976Y-148006771D01*
X96373360Y-148012682D01*
X96377144Y-148018995D01*
X96380291Y-148025649D01*
X96382771Y-148032579D01*
X96384559Y-148039718D01*
X96385639Y-148046999D01*
X96386000Y-148054350D01*
X96386000Y-149379350D01*
X96385639Y-149386701D01*
X96384559Y-149393982D01*
X96382771Y-149401121D01*
X96380291Y-149408051D01*
X96377144Y-149414705D01*
X96373360Y-149421018D01*
X96368976Y-149426929D01*
X96364033Y-149432383D01*
X96358579Y-149437326D01*
X96352668Y-149441710D01*
X96346355Y-149445494D01*
X96339701Y-149448641D01*
X96332771Y-149451121D01*
X96325632Y-149452909D01*
X96318351Y-149453989D01*
X96311000Y-149454350D01*
X96161000Y-149454350D01*
X96153649Y-149453989D01*
X96146368Y-149452909D01*
X96139229Y-149451121D01*
X96132299Y-149448641D01*
X96125645Y-149445494D01*
X96119332Y-149441710D01*
X96113421Y-149437326D01*
X96107967Y-149432383D01*
X96103024Y-149426929D01*
X96098640Y-149421018D01*
X96094856Y-149414705D01*
X96091709Y-149408051D01*
X96089229Y-149401121D01*
X96087441Y-149393982D01*
X96086361Y-149386701D01*
X96086000Y-149379350D01*
X96086000Y-148054350D01*
X96086361Y-148046999D01*
X96087441Y-148039718D01*
X96089229Y-148032579D01*
X96091709Y-148025649D01*
X96094856Y-148018995D01*
X96098640Y-148012682D01*
X96103024Y-148006771D01*
X96107967Y-148001317D01*
X96113421Y-147996374D01*
X96119332Y-147991990D01*
X96125645Y-147988206D01*
X96132299Y-147985059D01*
X96139229Y-147982579D01*
X96146368Y-147980791D01*
X96153649Y-147979711D01*
X96161000Y-147979350D01*
X96311000Y-147979350D01*
X96318351Y-147979711D01*
G37*
G36*
X95818351Y-147979711D02*
G01*
X95825632Y-147980791D01*
X95832771Y-147982579D01*
X95839701Y-147985059D01*
X95846355Y-147988206D01*
X95852668Y-147991990D01*
X95858579Y-147996374D01*
X95864033Y-148001317D01*
X95868976Y-148006771D01*
X95873360Y-148012682D01*
X95877144Y-148018995D01*
X95880291Y-148025649D01*
X95882771Y-148032579D01*
X95884559Y-148039718D01*
X95885639Y-148046999D01*
X95886000Y-148054350D01*
X95886000Y-149379350D01*
X95885639Y-149386701D01*
X95884559Y-149393982D01*
X95882771Y-149401121D01*
X95880291Y-149408051D01*
X95877144Y-149414705D01*
X95873360Y-149421018D01*
X95868976Y-149426929D01*
X95864033Y-149432383D01*
X95858579Y-149437326D01*
X95852668Y-149441710D01*
X95846355Y-149445494D01*
X95839701Y-149448641D01*
X95832771Y-149451121D01*
X95825632Y-149452909D01*
X95818351Y-149453989D01*
X95811000Y-149454350D01*
X95661000Y-149454350D01*
X95653649Y-149453989D01*
X95646368Y-149452909D01*
X95639229Y-149451121D01*
X95632299Y-149448641D01*
X95625645Y-149445494D01*
X95619332Y-149441710D01*
X95613421Y-149437326D01*
X95607967Y-149432383D01*
X95603024Y-149426929D01*
X95598640Y-149421018D01*
X95594856Y-149414705D01*
X95591709Y-149408051D01*
X95589229Y-149401121D01*
X95587441Y-149393982D01*
X95586361Y-149386701D01*
X95586000Y-149379350D01*
X95586000Y-148054350D01*
X95586361Y-148046999D01*
X95587441Y-148039718D01*
X95589229Y-148032579D01*
X95591709Y-148025649D01*
X95594856Y-148018995D01*
X95598640Y-148012682D01*
X95603024Y-148006771D01*
X95607967Y-148001317D01*
X95613421Y-147996374D01*
X95619332Y-147991990D01*
X95625645Y-147988206D01*
X95632299Y-147985059D01*
X95639229Y-147982579D01*
X95646368Y-147980791D01*
X95653649Y-147979711D01*
X95661000Y-147979350D01*
X95811000Y-147979350D01*
X95818351Y-147979711D01*
G37*
G36*
X95318351Y-147979711D02*
G01*
X95325632Y-147980791D01*
X95332771Y-147982579D01*
X95339701Y-147985059D01*
X95346355Y-147988206D01*
X95352668Y-147991990D01*
X95358579Y-147996374D01*
X95364033Y-148001317D01*
X95368976Y-148006771D01*
X95373360Y-148012682D01*
X95377144Y-148018995D01*
X95380291Y-148025649D01*
X95382771Y-148032579D01*
X95384559Y-148039718D01*
X95385639Y-148046999D01*
X95386000Y-148054350D01*
X95386000Y-149379350D01*
X95385639Y-149386701D01*
X95384559Y-149393982D01*
X95382771Y-149401121D01*
X95380291Y-149408051D01*
X95377144Y-149414705D01*
X95373360Y-149421018D01*
X95368976Y-149426929D01*
X95364033Y-149432383D01*
X95358579Y-149437326D01*
X95352668Y-149441710D01*
X95346355Y-149445494D01*
X95339701Y-149448641D01*
X95332771Y-149451121D01*
X95325632Y-149452909D01*
X95318351Y-149453989D01*
X95311000Y-149454350D01*
X95161000Y-149454350D01*
X95153649Y-149453989D01*
X95146368Y-149452909D01*
X95139229Y-149451121D01*
X95132299Y-149448641D01*
X95125645Y-149445494D01*
X95119332Y-149441710D01*
X95113421Y-149437326D01*
X95107967Y-149432383D01*
X95103024Y-149426929D01*
X95098640Y-149421018D01*
X95094856Y-149414705D01*
X95091709Y-149408051D01*
X95089229Y-149401121D01*
X95087441Y-149393982D01*
X95086361Y-149386701D01*
X95086000Y-149379350D01*
X95086000Y-148054350D01*
X95086361Y-148046999D01*
X95087441Y-148039718D01*
X95089229Y-148032579D01*
X95091709Y-148025649D01*
X95094856Y-148018995D01*
X95098640Y-148012682D01*
X95103024Y-148006771D01*
X95107967Y-148001317D01*
X95113421Y-147996374D01*
X95119332Y-147991990D01*
X95125645Y-147988206D01*
X95132299Y-147985059D01*
X95139229Y-147982579D01*
X95146368Y-147980791D01*
X95153649Y-147979711D01*
X95161000Y-147979350D01*
X95311000Y-147979350D01*
X95318351Y-147979711D01*
G37*
G36*
X94818351Y-147979711D02*
G01*
X94825632Y-147980791D01*
X94832771Y-147982579D01*
X94839701Y-147985059D01*
X94846355Y-147988206D01*
X94852668Y-147991990D01*
X94858579Y-147996374D01*
X94864033Y-148001317D01*
X94868976Y-148006771D01*
X94873360Y-148012682D01*
X94877144Y-148018995D01*
X94880291Y-148025649D01*
X94882771Y-148032579D01*
X94884559Y-148039718D01*
X94885639Y-148046999D01*
X94886000Y-148054350D01*
X94886000Y-149379350D01*
X94885639Y-149386701D01*
X94884559Y-149393982D01*
X94882771Y-149401121D01*
X94880291Y-149408051D01*
X94877144Y-149414705D01*
X94873360Y-149421018D01*
X94868976Y-149426929D01*
X94864033Y-149432383D01*
X94858579Y-149437326D01*
X94852668Y-149441710D01*
X94846355Y-149445494D01*
X94839701Y-149448641D01*
X94832771Y-149451121D01*
X94825632Y-149452909D01*
X94818351Y-149453989D01*
X94811000Y-149454350D01*
X94661000Y-149454350D01*
X94653649Y-149453989D01*
X94646368Y-149452909D01*
X94639229Y-149451121D01*
X94632299Y-149448641D01*
X94625645Y-149445494D01*
X94619332Y-149441710D01*
X94613421Y-149437326D01*
X94607967Y-149432383D01*
X94603024Y-149426929D01*
X94598640Y-149421018D01*
X94594856Y-149414705D01*
X94591709Y-149408051D01*
X94589229Y-149401121D01*
X94587441Y-149393982D01*
X94586361Y-149386701D01*
X94586000Y-149379350D01*
X94586000Y-148054350D01*
X94586361Y-148046999D01*
X94587441Y-148039718D01*
X94589229Y-148032579D01*
X94591709Y-148025649D01*
X94594856Y-148018995D01*
X94598640Y-148012682D01*
X94603024Y-148006771D01*
X94607967Y-148001317D01*
X94613421Y-147996374D01*
X94619332Y-147991990D01*
X94625645Y-147988206D01*
X94632299Y-147985059D01*
X94639229Y-147982579D01*
X94646368Y-147980791D01*
X94653649Y-147979711D01*
X94661000Y-147979350D01*
X94811000Y-147979350D01*
X94818351Y-147979711D01*
G37*
G36*
X94318351Y-147979711D02*
G01*
X94325632Y-147980791D01*
X94332771Y-147982579D01*
X94339701Y-147985059D01*
X94346355Y-147988206D01*
X94352668Y-147991990D01*
X94358579Y-147996374D01*
X94364033Y-148001317D01*
X94368976Y-148006771D01*
X94373360Y-148012682D01*
X94377144Y-148018995D01*
X94380291Y-148025649D01*
X94382771Y-148032579D01*
X94384559Y-148039718D01*
X94385639Y-148046999D01*
X94386000Y-148054350D01*
X94386000Y-149379350D01*
X94385639Y-149386701D01*
X94384559Y-149393982D01*
X94382771Y-149401121D01*
X94380291Y-149408051D01*
X94377144Y-149414705D01*
X94373360Y-149421018D01*
X94368976Y-149426929D01*
X94364033Y-149432383D01*
X94358579Y-149437326D01*
X94352668Y-149441710D01*
X94346355Y-149445494D01*
X94339701Y-149448641D01*
X94332771Y-149451121D01*
X94325632Y-149452909D01*
X94318351Y-149453989D01*
X94311000Y-149454350D01*
X94161000Y-149454350D01*
X94153649Y-149453989D01*
X94146368Y-149452909D01*
X94139229Y-149451121D01*
X94132299Y-149448641D01*
X94125645Y-149445494D01*
X94119332Y-149441710D01*
X94113421Y-149437326D01*
X94107967Y-149432383D01*
X94103024Y-149426929D01*
X94098640Y-149421018D01*
X94094856Y-149414705D01*
X94091709Y-149408051D01*
X94089229Y-149401121D01*
X94087441Y-149393982D01*
X94086361Y-149386701D01*
X94086000Y-149379350D01*
X94086000Y-148054350D01*
X94086361Y-148046999D01*
X94087441Y-148039718D01*
X94089229Y-148032579D01*
X94091709Y-148025649D01*
X94094856Y-148018995D01*
X94098640Y-148012682D01*
X94103024Y-148006771D01*
X94107967Y-148001317D01*
X94113421Y-147996374D01*
X94119332Y-147991990D01*
X94125645Y-147988206D01*
X94132299Y-147985059D01*
X94139229Y-147982579D01*
X94146368Y-147980791D01*
X94153649Y-147979711D01*
X94161000Y-147979350D01*
X94311000Y-147979350D01*
X94318351Y-147979711D01*
G37*
G36*
X93818351Y-147979711D02*
G01*
X93825632Y-147980791D01*
X93832771Y-147982579D01*
X93839701Y-147985059D01*
X93846355Y-147988206D01*
X93852668Y-147991990D01*
X93858579Y-147996374D01*
X93864033Y-148001317D01*
X93868976Y-148006771D01*
X93873360Y-148012682D01*
X93877144Y-148018995D01*
X93880291Y-148025649D01*
X93882771Y-148032579D01*
X93884559Y-148039718D01*
X93885639Y-148046999D01*
X93886000Y-148054350D01*
X93886000Y-149379350D01*
X93885639Y-149386701D01*
X93884559Y-149393982D01*
X93882771Y-149401121D01*
X93880291Y-149408051D01*
X93877144Y-149414705D01*
X93873360Y-149421018D01*
X93868976Y-149426929D01*
X93864033Y-149432383D01*
X93858579Y-149437326D01*
X93852668Y-149441710D01*
X93846355Y-149445494D01*
X93839701Y-149448641D01*
X93832771Y-149451121D01*
X93825632Y-149452909D01*
X93818351Y-149453989D01*
X93811000Y-149454350D01*
X93661000Y-149454350D01*
X93653649Y-149453989D01*
X93646368Y-149452909D01*
X93639229Y-149451121D01*
X93632299Y-149448641D01*
X93625645Y-149445494D01*
X93619332Y-149441710D01*
X93613421Y-149437326D01*
X93607967Y-149432383D01*
X93603024Y-149426929D01*
X93598640Y-149421018D01*
X93594856Y-149414705D01*
X93591709Y-149408051D01*
X93589229Y-149401121D01*
X93587441Y-149393982D01*
X93586361Y-149386701D01*
X93586000Y-149379350D01*
X93586000Y-148054350D01*
X93586361Y-148046999D01*
X93587441Y-148039718D01*
X93589229Y-148032579D01*
X93591709Y-148025649D01*
X93594856Y-148018995D01*
X93598640Y-148012682D01*
X93603024Y-148006771D01*
X93607967Y-148001317D01*
X93613421Y-147996374D01*
X93619332Y-147991990D01*
X93625645Y-147988206D01*
X93632299Y-147985059D01*
X93639229Y-147982579D01*
X93646368Y-147980791D01*
X93653649Y-147979711D01*
X93661000Y-147979350D01*
X93811000Y-147979350D01*
X93818351Y-147979711D01*
G37*
G36*
X93318351Y-147979711D02*
G01*
X93325632Y-147980791D01*
X93332771Y-147982579D01*
X93339701Y-147985059D01*
X93346355Y-147988206D01*
X93352668Y-147991990D01*
X93358579Y-147996374D01*
X93364033Y-148001317D01*
X93368976Y-148006771D01*
X93373360Y-148012682D01*
X93377144Y-148018995D01*
X93380291Y-148025649D01*
X93382771Y-148032579D01*
X93384559Y-148039718D01*
X93385639Y-148046999D01*
X93386000Y-148054350D01*
X93386000Y-149379350D01*
X93385639Y-149386701D01*
X93384559Y-149393982D01*
X93382771Y-149401121D01*
X93380291Y-149408051D01*
X93377144Y-149414705D01*
X93373360Y-149421018D01*
X93368976Y-149426929D01*
X93364033Y-149432383D01*
X93358579Y-149437326D01*
X93352668Y-149441710D01*
X93346355Y-149445494D01*
X93339701Y-149448641D01*
X93332771Y-149451121D01*
X93325632Y-149452909D01*
X93318351Y-149453989D01*
X93311000Y-149454350D01*
X93161000Y-149454350D01*
X93153649Y-149453989D01*
X93146368Y-149452909D01*
X93139229Y-149451121D01*
X93132299Y-149448641D01*
X93125645Y-149445494D01*
X93119332Y-149441710D01*
X93113421Y-149437326D01*
X93107967Y-149432383D01*
X93103024Y-149426929D01*
X93098640Y-149421018D01*
X93094856Y-149414705D01*
X93091709Y-149408051D01*
X93089229Y-149401121D01*
X93087441Y-149393982D01*
X93086361Y-149386701D01*
X93086000Y-149379350D01*
X93086000Y-148054350D01*
X93086361Y-148046999D01*
X93087441Y-148039718D01*
X93089229Y-148032579D01*
X93091709Y-148025649D01*
X93094856Y-148018995D01*
X93098640Y-148012682D01*
X93103024Y-148006771D01*
X93107967Y-148001317D01*
X93113421Y-147996374D01*
X93119332Y-147991990D01*
X93125645Y-147988206D01*
X93132299Y-147985059D01*
X93139229Y-147982579D01*
X93146368Y-147980791D01*
X93153649Y-147979711D01*
X93161000Y-147979350D01*
X93311000Y-147979350D01*
X93318351Y-147979711D01*
G37*
G36*
X92818351Y-147979711D02*
G01*
X92825632Y-147980791D01*
X92832771Y-147982579D01*
X92839701Y-147985059D01*
X92846355Y-147988206D01*
X92852668Y-147991990D01*
X92858579Y-147996374D01*
X92864033Y-148001317D01*
X92868976Y-148006771D01*
X92873360Y-148012682D01*
X92877144Y-148018995D01*
X92880291Y-148025649D01*
X92882771Y-148032579D01*
X92884559Y-148039718D01*
X92885639Y-148046999D01*
X92886000Y-148054350D01*
X92886000Y-149379350D01*
X92885639Y-149386701D01*
X92884559Y-149393982D01*
X92882771Y-149401121D01*
X92880291Y-149408051D01*
X92877144Y-149414705D01*
X92873360Y-149421018D01*
X92868976Y-149426929D01*
X92864033Y-149432383D01*
X92858579Y-149437326D01*
X92852668Y-149441710D01*
X92846355Y-149445494D01*
X92839701Y-149448641D01*
X92832771Y-149451121D01*
X92825632Y-149452909D01*
X92818351Y-149453989D01*
X92811000Y-149454350D01*
X92661000Y-149454350D01*
X92653649Y-149453989D01*
X92646368Y-149452909D01*
X92639229Y-149451121D01*
X92632299Y-149448641D01*
X92625645Y-149445494D01*
X92619332Y-149441710D01*
X92613421Y-149437326D01*
X92607967Y-149432383D01*
X92603024Y-149426929D01*
X92598640Y-149421018D01*
X92594856Y-149414705D01*
X92591709Y-149408051D01*
X92589229Y-149401121D01*
X92587441Y-149393982D01*
X92586361Y-149386701D01*
X92586000Y-149379350D01*
X92586000Y-148054350D01*
X92586361Y-148046999D01*
X92587441Y-148039718D01*
X92589229Y-148032579D01*
X92591709Y-148025649D01*
X92594856Y-148018995D01*
X92598640Y-148012682D01*
X92603024Y-148006771D01*
X92607967Y-148001317D01*
X92613421Y-147996374D01*
X92619332Y-147991990D01*
X92625645Y-147988206D01*
X92632299Y-147985059D01*
X92639229Y-147982579D01*
X92646368Y-147980791D01*
X92653649Y-147979711D01*
X92661000Y-147979350D01*
X92811000Y-147979350D01*
X92818351Y-147979711D01*
G37*
G36*
X92318351Y-147979711D02*
G01*
X92325632Y-147980791D01*
X92332771Y-147982579D01*
X92339701Y-147985059D01*
X92346355Y-147988206D01*
X92352668Y-147991990D01*
X92358579Y-147996374D01*
X92364033Y-148001317D01*
X92368976Y-148006771D01*
X92373360Y-148012682D01*
X92377144Y-148018995D01*
X92380291Y-148025649D01*
X92382771Y-148032579D01*
X92384559Y-148039718D01*
X92385639Y-148046999D01*
X92386000Y-148054350D01*
X92386000Y-149379350D01*
X92385639Y-149386701D01*
X92384559Y-149393982D01*
X92382771Y-149401121D01*
X92380291Y-149408051D01*
X92377144Y-149414705D01*
X92373360Y-149421018D01*
X92368976Y-149426929D01*
X92364033Y-149432383D01*
X92358579Y-149437326D01*
X92352668Y-149441710D01*
X92346355Y-149445494D01*
X92339701Y-149448641D01*
X92332771Y-149451121D01*
X92325632Y-149452909D01*
X92318351Y-149453989D01*
X92311000Y-149454350D01*
X92161000Y-149454350D01*
X92153649Y-149453989D01*
X92146368Y-149452909D01*
X92139229Y-149451121D01*
X92132299Y-149448641D01*
X92125645Y-149445494D01*
X92119332Y-149441710D01*
X92113421Y-149437326D01*
X92107967Y-149432383D01*
X92103024Y-149426929D01*
X92098640Y-149421018D01*
X92094856Y-149414705D01*
X92091709Y-149408051D01*
X92089229Y-149401121D01*
X92087441Y-149393982D01*
X92086361Y-149386701D01*
X92086000Y-149379350D01*
X92086000Y-148054350D01*
X92086361Y-148046999D01*
X92087441Y-148039718D01*
X92089229Y-148032579D01*
X92091709Y-148025649D01*
X92094856Y-148018995D01*
X92098640Y-148012682D01*
X92103024Y-148006771D01*
X92107967Y-148001317D01*
X92113421Y-147996374D01*
X92119332Y-147991990D01*
X92125645Y-147988206D01*
X92132299Y-147985059D01*
X92139229Y-147982579D01*
X92146368Y-147980791D01*
X92153649Y-147979711D01*
X92161000Y-147979350D01*
X92311000Y-147979350D01*
X92318351Y-147979711D01*
G37*
G36*
X91493351Y-149979711D02*
G01*
X91500632Y-149980791D01*
X91507771Y-149982579D01*
X91514701Y-149985059D01*
X91521355Y-149988206D01*
X91527668Y-149991990D01*
X91533579Y-149996374D01*
X91539033Y-150001317D01*
X91543976Y-150006771D01*
X91548360Y-150012682D01*
X91552144Y-150018995D01*
X91555291Y-150025649D01*
X91557771Y-150032579D01*
X91559559Y-150039718D01*
X91560639Y-150046999D01*
X91561000Y-150054350D01*
X91561000Y-150204350D01*
X91560639Y-150211701D01*
X91559559Y-150218982D01*
X91557771Y-150226121D01*
X91555291Y-150233051D01*
X91552144Y-150239705D01*
X91548360Y-150246018D01*
X91543976Y-150251929D01*
X91539033Y-150257383D01*
X91533579Y-150262326D01*
X91527668Y-150266710D01*
X91521355Y-150270494D01*
X91514701Y-150273641D01*
X91507771Y-150276121D01*
X91500632Y-150277909D01*
X91493351Y-150278989D01*
X91486000Y-150279350D01*
X90161000Y-150279350D01*
X90153649Y-150278989D01*
X90146368Y-150277909D01*
X90139229Y-150276121D01*
X90132299Y-150273641D01*
X90125645Y-150270494D01*
X90119332Y-150266710D01*
X90113421Y-150262326D01*
X90107967Y-150257383D01*
X90103024Y-150251929D01*
X90098640Y-150246018D01*
X90094856Y-150239705D01*
X90091709Y-150233051D01*
X90089229Y-150226121D01*
X90087441Y-150218982D01*
X90086361Y-150211701D01*
X90086000Y-150204350D01*
X90086000Y-150054350D01*
X90086361Y-150046999D01*
X90087441Y-150039718D01*
X90089229Y-150032579D01*
X90091709Y-150025649D01*
X90094856Y-150018995D01*
X90098640Y-150012682D01*
X90103024Y-150006771D01*
X90107967Y-150001317D01*
X90113421Y-149996374D01*
X90119332Y-149991990D01*
X90125645Y-149988206D01*
X90132299Y-149985059D01*
X90139229Y-149982579D01*
X90146368Y-149980791D01*
X90153649Y-149979711D01*
X90161000Y-149979350D01*
X91486000Y-149979350D01*
X91493351Y-149979711D01*
G37*
G36*
X91493351Y-150479711D02*
G01*
X91500632Y-150480791D01*
X91507771Y-150482579D01*
X91514701Y-150485059D01*
X91521355Y-150488206D01*
X91527668Y-150491990D01*
X91533579Y-150496374D01*
X91539033Y-150501317D01*
X91543976Y-150506771D01*
X91548360Y-150512682D01*
X91552144Y-150518995D01*
X91555291Y-150525649D01*
X91557771Y-150532579D01*
X91559559Y-150539718D01*
X91560639Y-150546999D01*
X91561000Y-150554350D01*
X91561000Y-150704350D01*
X91560639Y-150711701D01*
X91559559Y-150718982D01*
X91557771Y-150726121D01*
X91555291Y-150733051D01*
X91552144Y-150739705D01*
X91548360Y-150746018D01*
X91543976Y-150751929D01*
X91539033Y-150757383D01*
X91533579Y-150762326D01*
X91527668Y-150766710D01*
X91521355Y-150770494D01*
X91514701Y-150773641D01*
X91507771Y-150776121D01*
X91500632Y-150777909D01*
X91493351Y-150778989D01*
X91486000Y-150779350D01*
X90161000Y-150779350D01*
X90153649Y-150778989D01*
X90146368Y-150777909D01*
X90139229Y-150776121D01*
X90132299Y-150773641D01*
X90125645Y-150770494D01*
X90119332Y-150766710D01*
X90113421Y-150762326D01*
X90107967Y-150757383D01*
X90103024Y-150751929D01*
X90098640Y-150746018D01*
X90094856Y-150739705D01*
X90091709Y-150733051D01*
X90089229Y-150726121D01*
X90087441Y-150718982D01*
X90086361Y-150711701D01*
X90086000Y-150704350D01*
X90086000Y-150554350D01*
X90086361Y-150546999D01*
X90087441Y-150539718D01*
X90089229Y-150532579D01*
X90091709Y-150525649D01*
X90094856Y-150518995D01*
X90098640Y-150512682D01*
X90103024Y-150506771D01*
X90107967Y-150501317D01*
X90113421Y-150496374D01*
X90119332Y-150491990D01*
X90125645Y-150488206D01*
X90132299Y-150485059D01*
X90139229Y-150482579D01*
X90146368Y-150480791D01*
X90153649Y-150479711D01*
X90161000Y-150479350D01*
X91486000Y-150479350D01*
X91493351Y-150479711D01*
G37*
G36*
X91493351Y-150979711D02*
G01*
X91500632Y-150980791D01*
X91507771Y-150982579D01*
X91514701Y-150985059D01*
X91521355Y-150988206D01*
X91527668Y-150991990D01*
X91533579Y-150996374D01*
X91539033Y-151001317D01*
X91543976Y-151006771D01*
X91548360Y-151012682D01*
X91552144Y-151018995D01*
X91555291Y-151025649D01*
X91557771Y-151032579D01*
X91559559Y-151039718D01*
X91560639Y-151046999D01*
X91561000Y-151054350D01*
X91561000Y-151204350D01*
X91560639Y-151211701D01*
X91559559Y-151218982D01*
X91557771Y-151226121D01*
X91555291Y-151233051D01*
X91552144Y-151239705D01*
X91548360Y-151246018D01*
X91543976Y-151251929D01*
X91539033Y-151257383D01*
X91533579Y-151262326D01*
X91527668Y-151266710D01*
X91521355Y-151270494D01*
X91514701Y-151273641D01*
X91507771Y-151276121D01*
X91500632Y-151277909D01*
X91493351Y-151278989D01*
X91486000Y-151279350D01*
X90161000Y-151279350D01*
X90153649Y-151278989D01*
X90146368Y-151277909D01*
X90139229Y-151276121D01*
X90132299Y-151273641D01*
X90125645Y-151270494D01*
X90119332Y-151266710D01*
X90113421Y-151262326D01*
X90107967Y-151257383D01*
X90103024Y-151251929D01*
X90098640Y-151246018D01*
X90094856Y-151239705D01*
X90091709Y-151233051D01*
X90089229Y-151226121D01*
X90087441Y-151218982D01*
X90086361Y-151211701D01*
X90086000Y-151204350D01*
X90086000Y-151054350D01*
X90086361Y-151046999D01*
X90087441Y-151039718D01*
X90089229Y-151032579D01*
X90091709Y-151025649D01*
X90094856Y-151018995D01*
X90098640Y-151012682D01*
X90103024Y-151006771D01*
X90107967Y-151001317D01*
X90113421Y-150996374D01*
X90119332Y-150991990D01*
X90125645Y-150988206D01*
X90132299Y-150985059D01*
X90139229Y-150982579D01*
X90146368Y-150980791D01*
X90153649Y-150979711D01*
X90161000Y-150979350D01*
X91486000Y-150979350D01*
X91493351Y-150979711D01*
G37*
G36*
X91493351Y-151479711D02*
G01*
X91500632Y-151480791D01*
X91507771Y-151482579D01*
X91514701Y-151485059D01*
X91521355Y-151488206D01*
X91527668Y-151491990D01*
X91533579Y-151496374D01*
X91539033Y-151501317D01*
X91543976Y-151506771D01*
X91548360Y-151512682D01*
X91552144Y-151518995D01*
X91555291Y-151525649D01*
X91557771Y-151532579D01*
X91559559Y-151539718D01*
X91560639Y-151546999D01*
X91561000Y-151554350D01*
X91561000Y-151704350D01*
X91560639Y-151711701D01*
X91559559Y-151718982D01*
X91557771Y-151726121D01*
X91555291Y-151733051D01*
X91552144Y-151739705D01*
X91548360Y-151746018D01*
X91543976Y-151751929D01*
X91539033Y-151757383D01*
X91533579Y-151762326D01*
X91527668Y-151766710D01*
X91521355Y-151770494D01*
X91514701Y-151773641D01*
X91507771Y-151776121D01*
X91500632Y-151777909D01*
X91493351Y-151778989D01*
X91486000Y-151779350D01*
X90161000Y-151779350D01*
X90153649Y-151778989D01*
X90146368Y-151777909D01*
X90139229Y-151776121D01*
X90132299Y-151773641D01*
X90125645Y-151770494D01*
X90119332Y-151766710D01*
X90113421Y-151762326D01*
X90107967Y-151757383D01*
X90103024Y-151751929D01*
X90098640Y-151746018D01*
X90094856Y-151739705D01*
X90091709Y-151733051D01*
X90089229Y-151726121D01*
X90087441Y-151718982D01*
X90086361Y-151711701D01*
X90086000Y-151704350D01*
X90086000Y-151554350D01*
X90086361Y-151546999D01*
X90087441Y-151539718D01*
X90089229Y-151532579D01*
X90091709Y-151525649D01*
X90094856Y-151518995D01*
X90098640Y-151512682D01*
X90103024Y-151506771D01*
X90107967Y-151501317D01*
X90113421Y-151496374D01*
X90119332Y-151491990D01*
X90125645Y-151488206D01*
X90132299Y-151485059D01*
X90139229Y-151482579D01*
X90146368Y-151480791D01*
X90153649Y-151479711D01*
X90161000Y-151479350D01*
X91486000Y-151479350D01*
X91493351Y-151479711D01*
G37*
G36*
X91493351Y-151979711D02*
G01*
X91500632Y-151980791D01*
X91507771Y-151982579D01*
X91514701Y-151985059D01*
X91521355Y-151988206D01*
X91527668Y-151991990D01*
X91533579Y-151996374D01*
X91539033Y-152001317D01*
X91543976Y-152006771D01*
X91548360Y-152012682D01*
X91552144Y-152018995D01*
X91555291Y-152025649D01*
X91557771Y-152032579D01*
X91559559Y-152039718D01*
X91560639Y-152046999D01*
X91561000Y-152054350D01*
X91561000Y-152204350D01*
X91560639Y-152211701D01*
X91559559Y-152218982D01*
X91557771Y-152226121D01*
X91555291Y-152233051D01*
X91552144Y-152239705D01*
X91548360Y-152246018D01*
X91543976Y-152251929D01*
X91539033Y-152257383D01*
X91533579Y-152262326D01*
X91527668Y-152266710D01*
X91521355Y-152270494D01*
X91514701Y-152273641D01*
X91507771Y-152276121D01*
X91500632Y-152277909D01*
X91493351Y-152278989D01*
X91486000Y-152279350D01*
X90161000Y-152279350D01*
X90153649Y-152278989D01*
X90146368Y-152277909D01*
X90139229Y-152276121D01*
X90132299Y-152273641D01*
X90125645Y-152270494D01*
X90119332Y-152266710D01*
X90113421Y-152262326D01*
X90107967Y-152257383D01*
X90103024Y-152251929D01*
X90098640Y-152246018D01*
X90094856Y-152239705D01*
X90091709Y-152233051D01*
X90089229Y-152226121D01*
X90087441Y-152218982D01*
X90086361Y-152211701D01*
X90086000Y-152204350D01*
X90086000Y-152054350D01*
X90086361Y-152046999D01*
X90087441Y-152039718D01*
X90089229Y-152032579D01*
X90091709Y-152025649D01*
X90094856Y-152018995D01*
X90098640Y-152012682D01*
X90103024Y-152006771D01*
X90107967Y-152001317D01*
X90113421Y-151996374D01*
X90119332Y-151991990D01*
X90125645Y-151988206D01*
X90132299Y-151985059D01*
X90139229Y-151982579D01*
X90146368Y-151980791D01*
X90153649Y-151979711D01*
X90161000Y-151979350D01*
X91486000Y-151979350D01*
X91493351Y-151979711D01*
G37*
G36*
X91493351Y-152479711D02*
G01*
X91500632Y-152480791D01*
X91507771Y-152482579D01*
X91514701Y-152485059D01*
X91521355Y-152488206D01*
X91527668Y-152491990D01*
X91533579Y-152496374D01*
X91539033Y-152501317D01*
X91543976Y-152506771D01*
X91548360Y-152512682D01*
X91552144Y-152518995D01*
X91555291Y-152525649D01*
X91557771Y-152532579D01*
X91559559Y-152539718D01*
X91560639Y-152546999D01*
X91561000Y-152554350D01*
X91561000Y-152704350D01*
X91560639Y-152711701D01*
X91559559Y-152718982D01*
X91557771Y-152726121D01*
X91555291Y-152733051D01*
X91552144Y-152739705D01*
X91548360Y-152746018D01*
X91543976Y-152751929D01*
X91539033Y-152757383D01*
X91533579Y-152762326D01*
X91527668Y-152766710D01*
X91521355Y-152770494D01*
X91514701Y-152773641D01*
X91507771Y-152776121D01*
X91500632Y-152777909D01*
X91493351Y-152778989D01*
X91486000Y-152779350D01*
X90161000Y-152779350D01*
X90153649Y-152778989D01*
X90146368Y-152777909D01*
X90139229Y-152776121D01*
X90132299Y-152773641D01*
X90125645Y-152770494D01*
X90119332Y-152766710D01*
X90113421Y-152762326D01*
X90107967Y-152757383D01*
X90103024Y-152751929D01*
X90098640Y-152746018D01*
X90094856Y-152739705D01*
X90091709Y-152733051D01*
X90089229Y-152726121D01*
X90087441Y-152718982D01*
X90086361Y-152711701D01*
X90086000Y-152704350D01*
X90086000Y-152554350D01*
X90086361Y-152546999D01*
X90087441Y-152539718D01*
X90089229Y-152532579D01*
X90091709Y-152525649D01*
X90094856Y-152518995D01*
X90098640Y-152512682D01*
X90103024Y-152506771D01*
X90107967Y-152501317D01*
X90113421Y-152496374D01*
X90119332Y-152491990D01*
X90125645Y-152488206D01*
X90132299Y-152485059D01*
X90139229Y-152482579D01*
X90146368Y-152480791D01*
X90153649Y-152479711D01*
X90161000Y-152479350D01*
X91486000Y-152479350D01*
X91493351Y-152479711D01*
G37*
G36*
X91493351Y-152979711D02*
G01*
X91500632Y-152980791D01*
X91507771Y-152982579D01*
X91514701Y-152985059D01*
X91521355Y-152988206D01*
X91527668Y-152991990D01*
X91533579Y-152996374D01*
X91539033Y-153001317D01*
X91543976Y-153006771D01*
X91548360Y-153012682D01*
X91552144Y-153018995D01*
X91555291Y-153025649D01*
X91557771Y-153032579D01*
X91559559Y-153039718D01*
X91560639Y-153046999D01*
X91561000Y-153054350D01*
X91561000Y-153204350D01*
X91560639Y-153211701D01*
X91559559Y-153218982D01*
X91557771Y-153226121D01*
X91555291Y-153233051D01*
X91552144Y-153239705D01*
X91548360Y-153246018D01*
X91543976Y-153251929D01*
X91539033Y-153257383D01*
X91533579Y-153262326D01*
X91527668Y-153266710D01*
X91521355Y-153270494D01*
X91514701Y-153273641D01*
X91507771Y-153276121D01*
X91500632Y-153277909D01*
X91493351Y-153278989D01*
X91486000Y-153279350D01*
X90161000Y-153279350D01*
X90153649Y-153278989D01*
X90146368Y-153277909D01*
X90139229Y-153276121D01*
X90132299Y-153273641D01*
X90125645Y-153270494D01*
X90119332Y-153266710D01*
X90113421Y-153262326D01*
X90107967Y-153257383D01*
X90103024Y-153251929D01*
X90098640Y-153246018D01*
X90094856Y-153239705D01*
X90091709Y-153233051D01*
X90089229Y-153226121D01*
X90087441Y-153218982D01*
X90086361Y-153211701D01*
X90086000Y-153204350D01*
X90086000Y-153054350D01*
X90086361Y-153046999D01*
X90087441Y-153039718D01*
X90089229Y-153032579D01*
X90091709Y-153025649D01*
X90094856Y-153018995D01*
X90098640Y-153012682D01*
X90103024Y-153006771D01*
X90107967Y-153001317D01*
X90113421Y-152996374D01*
X90119332Y-152991990D01*
X90125645Y-152988206D01*
X90132299Y-152985059D01*
X90139229Y-152982579D01*
X90146368Y-152980791D01*
X90153649Y-152979711D01*
X90161000Y-152979350D01*
X91486000Y-152979350D01*
X91493351Y-152979711D01*
G37*
G36*
X91493351Y-153479711D02*
G01*
X91500632Y-153480791D01*
X91507771Y-153482579D01*
X91514701Y-153485059D01*
X91521355Y-153488206D01*
X91527668Y-153491990D01*
X91533579Y-153496374D01*
X91539033Y-153501317D01*
X91543976Y-153506771D01*
X91548360Y-153512682D01*
X91552144Y-153518995D01*
X91555291Y-153525649D01*
X91557771Y-153532579D01*
X91559559Y-153539718D01*
X91560639Y-153546999D01*
X91561000Y-153554350D01*
X91561000Y-153704350D01*
X91560639Y-153711701D01*
X91559559Y-153718982D01*
X91557771Y-153726121D01*
X91555291Y-153733051D01*
X91552144Y-153739705D01*
X91548360Y-153746018D01*
X91543976Y-153751929D01*
X91539033Y-153757383D01*
X91533579Y-153762326D01*
X91527668Y-153766710D01*
X91521355Y-153770494D01*
X91514701Y-153773641D01*
X91507771Y-153776121D01*
X91500632Y-153777909D01*
X91493351Y-153778989D01*
X91486000Y-153779350D01*
X90161000Y-153779350D01*
X90153649Y-153778989D01*
X90146368Y-153777909D01*
X90139229Y-153776121D01*
X90132299Y-153773641D01*
X90125645Y-153770494D01*
X90119332Y-153766710D01*
X90113421Y-153762326D01*
X90107967Y-153757383D01*
X90103024Y-153751929D01*
X90098640Y-153746018D01*
X90094856Y-153739705D01*
X90091709Y-153733051D01*
X90089229Y-153726121D01*
X90087441Y-153718982D01*
X90086361Y-153711701D01*
X90086000Y-153704350D01*
X90086000Y-153554350D01*
X90086361Y-153546999D01*
X90087441Y-153539718D01*
X90089229Y-153532579D01*
X90091709Y-153525649D01*
X90094856Y-153518995D01*
X90098640Y-153512682D01*
X90103024Y-153506771D01*
X90107967Y-153501317D01*
X90113421Y-153496374D01*
X90119332Y-153491990D01*
X90125645Y-153488206D01*
X90132299Y-153485059D01*
X90139229Y-153482579D01*
X90146368Y-153480791D01*
X90153649Y-153479711D01*
X90161000Y-153479350D01*
X91486000Y-153479350D01*
X91493351Y-153479711D01*
G37*
G36*
X91493351Y-153979711D02*
G01*
X91500632Y-153980791D01*
X91507771Y-153982579D01*
X91514701Y-153985059D01*
X91521355Y-153988206D01*
X91527668Y-153991990D01*
X91533579Y-153996374D01*
X91539033Y-154001317D01*
X91543976Y-154006771D01*
X91548360Y-154012682D01*
X91552144Y-154018995D01*
X91555291Y-154025649D01*
X91557771Y-154032579D01*
X91559559Y-154039718D01*
X91560639Y-154046999D01*
X91561000Y-154054350D01*
X91561000Y-154204350D01*
X91560639Y-154211701D01*
X91559559Y-154218982D01*
X91557771Y-154226121D01*
X91555291Y-154233051D01*
X91552144Y-154239705D01*
X91548360Y-154246018D01*
X91543976Y-154251929D01*
X91539033Y-154257383D01*
X91533579Y-154262326D01*
X91527668Y-154266710D01*
X91521355Y-154270494D01*
X91514701Y-154273641D01*
X91507771Y-154276121D01*
X91500632Y-154277909D01*
X91493351Y-154278989D01*
X91486000Y-154279350D01*
X90161000Y-154279350D01*
X90153649Y-154278989D01*
X90146368Y-154277909D01*
X90139229Y-154276121D01*
X90132299Y-154273641D01*
X90125645Y-154270494D01*
X90119332Y-154266710D01*
X90113421Y-154262326D01*
X90107967Y-154257383D01*
X90103024Y-154251929D01*
X90098640Y-154246018D01*
X90094856Y-154239705D01*
X90091709Y-154233051D01*
X90089229Y-154226121D01*
X90087441Y-154218982D01*
X90086361Y-154211701D01*
X90086000Y-154204350D01*
X90086000Y-154054350D01*
X90086361Y-154046999D01*
X90087441Y-154039718D01*
X90089229Y-154032579D01*
X90091709Y-154025649D01*
X90094856Y-154018995D01*
X90098640Y-154012682D01*
X90103024Y-154006771D01*
X90107967Y-154001317D01*
X90113421Y-153996374D01*
X90119332Y-153991990D01*
X90125645Y-153988206D01*
X90132299Y-153985059D01*
X90139229Y-153982579D01*
X90146368Y-153980791D01*
X90153649Y-153979711D01*
X90161000Y-153979350D01*
X91486000Y-153979350D01*
X91493351Y-153979711D01*
G37*
G36*
X91493351Y-154479711D02*
G01*
X91500632Y-154480791D01*
X91507771Y-154482579D01*
X91514701Y-154485059D01*
X91521355Y-154488206D01*
X91527668Y-154491990D01*
X91533579Y-154496374D01*
X91539033Y-154501317D01*
X91543976Y-154506771D01*
X91548360Y-154512682D01*
X91552144Y-154518995D01*
X91555291Y-154525649D01*
X91557771Y-154532579D01*
X91559559Y-154539718D01*
X91560639Y-154546999D01*
X91561000Y-154554350D01*
X91561000Y-154704350D01*
X91560639Y-154711701D01*
X91559559Y-154718982D01*
X91557771Y-154726121D01*
X91555291Y-154733051D01*
X91552144Y-154739705D01*
X91548360Y-154746018D01*
X91543976Y-154751929D01*
X91539033Y-154757383D01*
X91533579Y-154762326D01*
X91527668Y-154766710D01*
X91521355Y-154770494D01*
X91514701Y-154773641D01*
X91507771Y-154776121D01*
X91500632Y-154777909D01*
X91493351Y-154778989D01*
X91486000Y-154779350D01*
X90161000Y-154779350D01*
X90153649Y-154778989D01*
X90146368Y-154777909D01*
X90139229Y-154776121D01*
X90132299Y-154773641D01*
X90125645Y-154770494D01*
X90119332Y-154766710D01*
X90113421Y-154762326D01*
X90107967Y-154757383D01*
X90103024Y-154751929D01*
X90098640Y-154746018D01*
X90094856Y-154739705D01*
X90091709Y-154733051D01*
X90089229Y-154726121D01*
X90087441Y-154718982D01*
X90086361Y-154711701D01*
X90086000Y-154704350D01*
X90086000Y-154554350D01*
X90086361Y-154546999D01*
X90087441Y-154539718D01*
X90089229Y-154532579D01*
X90091709Y-154525649D01*
X90094856Y-154518995D01*
X90098640Y-154512682D01*
X90103024Y-154506771D01*
X90107967Y-154501317D01*
X90113421Y-154496374D01*
X90119332Y-154491990D01*
X90125645Y-154488206D01*
X90132299Y-154485059D01*
X90139229Y-154482579D01*
X90146368Y-154480791D01*
X90153649Y-154479711D01*
X90161000Y-154479350D01*
X91486000Y-154479350D01*
X91493351Y-154479711D01*
G37*
G36*
X91493351Y-154979711D02*
G01*
X91500632Y-154980791D01*
X91507771Y-154982579D01*
X91514701Y-154985059D01*
X91521355Y-154988206D01*
X91527668Y-154991990D01*
X91533579Y-154996374D01*
X91539033Y-155001317D01*
X91543976Y-155006771D01*
X91548360Y-155012682D01*
X91552144Y-155018995D01*
X91555291Y-155025649D01*
X91557771Y-155032579D01*
X91559559Y-155039718D01*
X91560639Y-155046999D01*
X91561000Y-155054350D01*
X91561000Y-155204350D01*
X91560639Y-155211701D01*
X91559559Y-155218982D01*
X91557771Y-155226121D01*
X91555291Y-155233051D01*
X91552144Y-155239705D01*
X91548360Y-155246018D01*
X91543976Y-155251929D01*
X91539033Y-155257383D01*
X91533579Y-155262326D01*
X91527668Y-155266710D01*
X91521355Y-155270494D01*
X91514701Y-155273641D01*
X91507771Y-155276121D01*
X91500632Y-155277909D01*
X91493351Y-155278989D01*
X91486000Y-155279350D01*
X90161000Y-155279350D01*
X90153649Y-155278989D01*
X90146368Y-155277909D01*
X90139229Y-155276121D01*
X90132299Y-155273641D01*
X90125645Y-155270494D01*
X90119332Y-155266710D01*
X90113421Y-155262326D01*
X90107967Y-155257383D01*
X90103024Y-155251929D01*
X90098640Y-155246018D01*
X90094856Y-155239705D01*
X90091709Y-155233051D01*
X90089229Y-155226121D01*
X90087441Y-155218982D01*
X90086361Y-155211701D01*
X90086000Y-155204350D01*
X90086000Y-155054350D01*
X90086361Y-155046999D01*
X90087441Y-155039718D01*
X90089229Y-155032579D01*
X90091709Y-155025649D01*
X90094856Y-155018995D01*
X90098640Y-155012682D01*
X90103024Y-155006771D01*
X90107967Y-155001317D01*
X90113421Y-154996374D01*
X90119332Y-154991990D01*
X90125645Y-154988206D01*
X90132299Y-154985059D01*
X90139229Y-154982579D01*
X90146368Y-154980791D01*
X90153649Y-154979711D01*
X90161000Y-154979350D01*
X91486000Y-154979350D01*
X91493351Y-154979711D01*
G37*
G36*
X91493351Y-155479711D02*
G01*
X91500632Y-155480791D01*
X91507771Y-155482579D01*
X91514701Y-155485059D01*
X91521355Y-155488206D01*
X91527668Y-155491990D01*
X91533579Y-155496374D01*
X91539033Y-155501317D01*
X91543976Y-155506771D01*
X91548360Y-155512682D01*
X91552144Y-155518995D01*
X91555291Y-155525649D01*
X91557771Y-155532579D01*
X91559559Y-155539718D01*
X91560639Y-155546999D01*
X91561000Y-155554350D01*
X91561000Y-155704350D01*
X91560639Y-155711701D01*
X91559559Y-155718982D01*
X91557771Y-155726121D01*
X91555291Y-155733051D01*
X91552144Y-155739705D01*
X91548360Y-155746018D01*
X91543976Y-155751929D01*
X91539033Y-155757383D01*
X91533579Y-155762326D01*
X91527668Y-155766710D01*
X91521355Y-155770494D01*
X91514701Y-155773641D01*
X91507771Y-155776121D01*
X91500632Y-155777909D01*
X91493351Y-155778989D01*
X91486000Y-155779350D01*
X90161000Y-155779350D01*
X90153649Y-155778989D01*
X90146368Y-155777909D01*
X90139229Y-155776121D01*
X90132299Y-155773641D01*
X90125645Y-155770494D01*
X90119332Y-155766710D01*
X90113421Y-155762326D01*
X90107967Y-155757383D01*
X90103024Y-155751929D01*
X90098640Y-155746018D01*
X90094856Y-155739705D01*
X90091709Y-155733051D01*
X90089229Y-155726121D01*
X90087441Y-155718982D01*
X90086361Y-155711701D01*
X90086000Y-155704350D01*
X90086000Y-155554350D01*
X90086361Y-155546999D01*
X90087441Y-155539718D01*
X90089229Y-155532579D01*
X90091709Y-155525649D01*
X90094856Y-155518995D01*
X90098640Y-155512682D01*
X90103024Y-155506771D01*
X90107967Y-155501317D01*
X90113421Y-155496374D01*
X90119332Y-155491990D01*
X90125645Y-155488206D01*
X90132299Y-155485059D01*
X90139229Y-155482579D01*
X90146368Y-155480791D01*
X90153649Y-155479711D01*
X90161000Y-155479350D01*
X91486000Y-155479350D01*
X91493351Y-155479711D01*
G37*
D13*
X119764610Y-50044350D03*
X122914610Y-50044350D03*
X148339610Y-50044350D03*
X151489610Y-50044350D03*
X167389610Y-50044350D03*
X170539610Y-50044350D03*
X186439610Y-50044350D03*
X189589610Y-50044350D03*
X205489610Y-50044350D03*
X208639610Y-50044350D03*
X224539610Y-50044350D03*
X227689610Y-50044350D03*
X148339610Y-69094350D03*
X151489610Y-69094350D03*
X167389610Y-69094350D03*
X170539610Y-69094350D03*
X224539610Y-69094350D03*
X227689610Y-69094350D03*
X119764610Y-88144350D03*
X122914610Y-88144350D03*
X148339610Y-88144350D03*
X151489610Y-88144350D03*
X167389610Y-88144350D03*
X170539610Y-88144350D03*
X186439610Y-88144350D03*
X189589610Y-88144350D03*
X205489610Y-88144350D03*
X208639610Y-88144350D03*
X119764610Y-107194350D03*
X122914610Y-107194350D03*
X148339610Y-107194350D03*
X151489610Y-107194350D03*
X167389610Y-107194350D03*
X170539610Y-107194350D03*
X167389610Y-145294350D03*
X170539610Y-145294350D03*
X119764610Y-69094350D03*
X122914610Y-69094350D03*
X186439610Y-69094350D03*
X189589610Y-69094350D03*
X205489610Y-69094350D03*
X208639610Y-69094350D03*
X224539610Y-88144350D03*
X227689610Y-88144350D03*
X186439610Y-107194350D03*
X189589610Y-107194350D03*
X205489610Y-107194350D03*
X208639610Y-107194350D03*
X224539610Y-107194350D03*
X227689610Y-107194350D03*
X119764610Y-126244350D03*
X122914610Y-126244350D03*
X148339610Y-126244350D03*
X151489610Y-126244350D03*
X167389610Y-126244350D03*
X170539610Y-126244350D03*
X186439610Y-126244350D03*
X189589610Y-126244350D03*
X205489610Y-126244350D03*
X208639610Y-126244350D03*
X224539610Y-126244350D03*
X227689610Y-126244350D03*
X119764610Y-145294350D03*
X122914610Y-145294350D03*
X148339610Y-145294350D03*
X151489610Y-145294350D03*
X195964610Y-145294350D03*
X199114610Y-145294350D03*
X224539610Y-145294350D03*
X227689610Y-145294350D03*
D12*
G36*
X90129505Y-104711204D02*
G01*
X90153773Y-104714804D01*
X90177572Y-104720765D01*
X90200671Y-104729030D01*
X90222850Y-104739520D01*
X90243893Y-104752132D01*
X90263599Y-104766747D01*
X90281777Y-104783223D01*
X90298253Y-104801401D01*
X90312868Y-104821107D01*
X90325480Y-104842150D01*
X90335970Y-104864329D01*
X90344235Y-104887428D01*
X90350196Y-104911227D01*
X90353796Y-104935495D01*
X90355000Y-104959999D01*
X90355000Y-105860001D01*
X90353796Y-105884505D01*
X90350196Y-105908773D01*
X90344235Y-105932572D01*
X90335970Y-105955671D01*
X90325480Y-105977850D01*
X90312868Y-105998893D01*
X90298253Y-106018599D01*
X90281777Y-106036777D01*
X90263599Y-106053253D01*
X90243893Y-106067868D01*
X90222850Y-106080480D01*
X90200671Y-106090970D01*
X90177572Y-106099235D01*
X90153773Y-106105196D01*
X90129505Y-106108796D01*
X90105001Y-106110000D01*
X89454999Y-106110000D01*
X89430495Y-106108796D01*
X89406227Y-106105196D01*
X89382428Y-106099235D01*
X89359329Y-106090970D01*
X89337150Y-106080480D01*
X89316107Y-106067868D01*
X89296401Y-106053253D01*
X89278223Y-106036777D01*
X89261747Y-106018599D01*
X89247132Y-105998893D01*
X89234520Y-105977850D01*
X89224030Y-105955671D01*
X89215765Y-105932572D01*
X89209804Y-105908773D01*
X89206204Y-105884505D01*
X89205000Y-105860001D01*
X89205000Y-104959999D01*
X89206204Y-104935495D01*
X89209804Y-104911227D01*
X89215765Y-104887428D01*
X89224030Y-104864329D01*
X89234520Y-104842150D01*
X89247132Y-104821107D01*
X89261747Y-104801401D01*
X89278223Y-104783223D01*
X89296401Y-104766747D01*
X89316107Y-104752132D01*
X89337150Y-104739520D01*
X89359329Y-104729030D01*
X89382428Y-104720765D01*
X89406227Y-104714804D01*
X89430495Y-104711204D01*
X89454999Y-104710000D01*
X90105001Y-104710000D01*
X90129505Y-104711204D01*
G37*
G36*
X92179505Y-104711204D02*
G01*
X92203773Y-104714804D01*
X92227572Y-104720765D01*
X92250671Y-104729030D01*
X92272850Y-104739520D01*
X92293893Y-104752132D01*
X92313599Y-104766747D01*
X92331777Y-104783223D01*
X92348253Y-104801401D01*
X92362868Y-104821107D01*
X92375480Y-104842150D01*
X92385970Y-104864329D01*
X92394235Y-104887428D01*
X92400196Y-104911227D01*
X92403796Y-104935495D01*
X92405000Y-104959999D01*
X92405000Y-105860001D01*
X92403796Y-105884505D01*
X92400196Y-105908773D01*
X92394235Y-105932572D01*
X92385970Y-105955671D01*
X92375480Y-105977850D01*
X92362868Y-105998893D01*
X92348253Y-106018599D01*
X92331777Y-106036777D01*
X92313599Y-106053253D01*
X92293893Y-106067868D01*
X92272850Y-106080480D01*
X92250671Y-106090970D01*
X92227572Y-106099235D01*
X92203773Y-106105196D01*
X92179505Y-106108796D01*
X92155001Y-106110000D01*
X91504999Y-106110000D01*
X91480495Y-106108796D01*
X91456227Y-106105196D01*
X91432428Y-106099235D01*
X91409329Y-106090970D01*
X91387150Y-106080480D01*
X91366107Y-106067868D01*
X91346401Y-106053253D01*
X91328223Y-106036777D01*
X91311747Y-106018599D01*
X91297132Y-105998893D01*
X91284520Y-105977850D01*
X91274030Y-105955671D01*
X91265765Y-105932572D01*
X91259804Y-105908773D01*
X91256204Y-105884505D01*
X91255000Y-105860001D01*
X91255000Y-104959999D01*
X91256204Y-104935495D01*
X91259804Y-104911227D01*
X91265765Y-104887428D01*
X91274030Y-104864329D01*
X91284520Y-104842150D01*
X91297132Y-104821107D01*
X91311747Y-104801401D01*
X91328223Y-104783223D01*
X91346401Y-104766747D01*
X91366107Y-104752132D01*
X91387150Y-104739520D01*
X91409329Y-104729030D01*
X91432428Y-104720765D01*
X91456227Y-104714804D01*
X91480495Y-104711204D01*
X91504999Y-104710000D01*
X92155001Y-104710000D01*
X92179505Y-104711204D01*
G37*
G36*
X90129505Y-100266204D02*
G01*
X90153773Y-100269804D01*
X90177572Y-100275765D01*
X90200671Y-100284030D01*
X90222850Y-100294520D01*
X90243893Y-100307132D01*
X90263599Y-100321747D01*
X90281777Y-100338223D01*
X90298253Y-100356401D01*
X90312868Y-100376107D01*
X90325480Y-100397150D01*
X90335970Y-100419329D01*
X90344235Y-100442428D01*
X90350196Y-100466227D01*
X90353796Y-100490495D01*
X90355000Y-100514999D01*
X90355000Y-101415001D01*
X90353796Y-101439505D01*
X90350196Y-101463773D01*
X90344235Y-101487572D01*
X90335970Y-101510671D01*
X90325480Y-101532850D01*
X90312868Y-101553893D01*
X90298253Y-101573599D01*
X90281777Y-101591777D01*
X90263599Y-101608253D01*
X90243893Y-101622868D01*
X90222850Y-101635480D01*
X90200671Y-101645970D01*
X90177572Y-101654235D01*
X90153773Y-101660196D01*
X90129505Y-101663796D01*
X90105001Y-101665000D01*
X89454999Y-101665000D01*
X89430495Y-101663796D01*
X89406227Y-101660196D01*
X89382428Y-101654235D01*
X89359329Y-101645970D01*
X89337150Y-101635480D01*
X89316107Y-101622868D01*
X89296401Y-101608253D01*
X89278223Y-101591777D01*
X89261747Y-101573599D01*
X89247132Y-101553893D01*
X89234520Y-101532850D01*
X89224030Y-101510671D01*
X89215765Y-101487572D01*
X89209804Y-101463773D01*
X89206204Y-101439505D01*
X89205000Y-101415001D01*
X89205000Y-100514999D01*
X89206204Y-100490495D01*
X89209804Y-100466227D01*
X89215765Y-100442428D01*
X89224030Y-100419329D01*
X89234520Y-100397150D01*
X89247132Y-100376107D01*
X89261747Y-100356401D01*
X89278223Y-100338223D01*
X89296401Y-100321747D01*
X89316107Y-100307132D01*
X89337150Y-100294520D01*
X89359329Y-100284030D01*
X89382428Y-100275765D01*
X89406227Y-100269804D01*
X89430495Y-100266204D01*
X89454999Y-100265000D01*
X90105001Y-100265000D01*
X90129505Y-100266204D01*
G37*
G36*
X92179505Y-100266204D02*
G01*
X92203773Y-100269804D01*
X92227572Y-100275765D01*
X92250671Y-100284030D01*
X92272850Y-100294520D01*
X92293893Y-100307132D01*
X92313599Y-100321747D01*
X92331777Y-100338223D01*
X92348253Y-100356401D01*
X92362868Y-100376107D01*
X92375480Y-100397150D01*
X92385970Y-100419329D01*
X92394235Y-100442428D01*
X92400196Y-100466227D01*
X92403796Y-100490495D01*
X92405000Y-100514999D01*
X92405000Y-101415001D01*
X92403796Y-101439505D01*
X92400196Y-101463773D01*
X92394235Y-101487572D01*
X92385970Y-101510671D01*
X92375480Y-101532850D01*
X92362868Y-101553893D01*
X92348253Y-101573599D01*
X92331777Y-101591777D01*
X92313599Y-101608253D01*
X92293893Y-101622868D01*
X92272850Y-101635480D01*
X92250671Y-101645970D01*
X92227572Y-101654235D01*
X92203773Y-101660196D01*
X92179505Y-101663796D01*
X92155001Y-101665000D01*
X91504999Y-101665000D01*
X91480495Y-101663796D01*
X91456227Y-101660196D01*
X91432428Y-101654235D01*
X91409329Y-101645970D01*
X91387150Y-101635480D01*
X91366107Y-101622868D01*
X91346401Y-101608253D01*
X91328223Y-101591777D01*
X91311747Y-101573599D01*
X91297132Y-101553893D01*
X91284520Y-101532850D01*
X91274030Y-101510671D01*
X91265765Y-101487572D01*
X91259804Y-101463773D01*
X91256204Y-101439505D01*
X91255000Y-101415001D01*
X91255000Y-100514999D01*
X91256204Y-100490495D01*
X91259804Y-100466227D01*
X91265765Y-100442428D01*
X91274030Y-100419329D01*
X91284520Y-100397150D01*
X91297132Y-100376107D01*
X91311747Y-100356401D01*
X91328223Y-100338223D01*
X91346401Y-100321747D01*
X91366107Y-100307132D01*
X91387150Y-100294520D01*
X91409329Y-100284030D01*
X91432428Y-100275765D01*
X91456227Y-100269804D01*
X91480495Y-100266204D01*
X91504999Y-100265000D01*
X92155001Y-100265000D01*
X92179505Y-100266204D01*
G37*
G36*
X90129505Y-109156204D02*
G01*
X90153773Y-109159804D01*
X90177572Y-109165765D01*
X90200671Y-109174030D01*
X90222850Y-109184520D01*
X90243893Y-109197132D01*
X90263599Y-109211747D01*
X90281777Y-109228223D01*
X90298253Y-109246401D01*
X90312868Y-109266107D01*
X90325480Y-109287150D01*
X90335970Y-109309329D01*
X90344235Y-109332428D01*
X90350196Y-109356227D01*
X90353796Y-109380495D01*
X90355000Y-109404999D01*
X90355000Y-110305001D01*
X90353796Y-110329505D01*
X90350196Y-110353773D01*
X90344235Y-110377572D01*
X90335970Y-110400671D01*
X90325480Y-110422850D01*
X90312868Y-110443893D01*
X90298253Y-110463599D01*
X90281777Y-110481777D01*
X90263599Y-110498253D01*
X90243893Y-110512868D01*
X90222850Y-110525480D01*
X90200671Y-110535970D01*
X90177572Y-110544235D01*
X90153773Y-110550196D01*
X90129505Y-110553796D01*
X90105001Y-110555000D01*
X89454999Y-110555000D01*
X89430495Y-110553796D01*
X89406227Y-110550196D01*
X89382428Y-110544235D01*
X89359329Y-110535970D01*
X89337150Y-110525480D01*
X89316107Y-110512868D01*
X89296401Y-110498253D01*
X89278223Y-110481777D01*
X89261747Y-110463599D01*
X89247132Y-110443893D01*
X89234520Y-110422850D01*
X89224030Y-110400671D01*
X89215765Y-110377572D01*
X89209804Y-110353773D01*
X89206204Y-110329505D01*
X89205000Y-110305001D01*
X89205000Y-109404999D01*
X89206204Y-109380495D01*
X89209804Y-109356227D01*
X89215765Y-109332428D01*
X89224030Y-109309329D01*
X89234520Y-109287150D01*
X89247132Y-109266107D01*
X89261747Y-109246401D01*
X89278223Y-109228223D01*
X89296401Y-109211747D01*
X89316107Y-109197132D01*
X89337150Y-109184520D01*
X89359329Y-109174030D01*
X89382428Y-109165765D01*
X89406227Y-109159804D01*
X89430495Y-109156204D01*
X89454999Y-109155000D01*
X90105001Y-109155000D01*
X90129505Y-109156204D01*
G37*
G36*
X92179505Y-109156204D02*
G01*
X92203773Y-109159804D01*
X92227572Y-109165765D01*
X92250671Y-109174030D01*
X92272850Y-109184520D01*
X92293893Y-109197132D01*
X92313599Y-109211747D01*
X92331777Y-109228223D01*
X92348253Y-109246401D01*
X92362868Y-109266107D01*
X92375480Y-109287150D01*
X92385970Y-109309329D01*
X92394235Y-109332428D01*
X92400196Y-109356227D01*
X92403796Y-109380495D01*
X92405000Y-109404999D01*
X92405000Y-110305001D01*
X92403796Y-110329505D01*
X92400196Y-110353773D01*
X92394235Y-110377572D01*
X92385970Y-110400671D01*
X92375480Y-110422850D01*
X92362868Y-110443893D01*
X92348253Y-110463599D01*
X92331777Y-110481777D01*
X92313599Y-110498253D01*
X92293893Y-110512868D01*
X92272850Y-110525480D01*
X92250671Y-110535970D01*
X92227572Y-110544235D01*
X92203773Y-110550196D01*
X92179505Y-110553796D01*
X92155001Y-110555000D01*
X91504999Y-110555000D01*
X91480495Y-110553796D01*
X91456227Y-110550196D01*
X91432428Y-110544235D01*
X91409329Y-110535970D01*
X91387150Y-110525480D01*
X91366107Y-110512868D01*
X91346401Y-110498253D01*
X91328223Y-110481777D01*
X91311747Y-110463599D01*
X91297132Y-110443893D01*
X91284520Y-110422850D01*
X91274030Y-110400671D01*
X91265765Y-110377572D01*
X91259804Y-110353773D01*
X91256204Y-110329505D01*
X91255000Y-110305001D01*
X91255000Y-109404999D01*
X91256204Y-109380495D01*
X91259804Y-109356227D01*
X91265765Y-109332428D01*
X91274030Y-109309329D01*
X91284520Y-109287150D01*
X91297132Y-109266107D01*
X91311747Y-109246401D01*
X91328223Y-109228223D01*
X91346401Y-109211747D01*
X91366107Y-109197132D01*
X91387150Y-109184520D01*
X91409329Y-109174030D01*
X91432428Y-109165765D01*
X91456227Y-109159804D01*
X91480495Y-109156204D01*
X91504999Y-109155000D01*
X92155001Y-109155000D01*
X92179505Y-109156204D01*
G37*
G36*
X95844505Y-100266204D02*
G01*
X95868773Y-100269804D01*
X95892572Y-100275765D01*
X95915671Y-100284030D01*
X95937850Y-100294520D01*
X95958893Y-100307132D01*
X95978599Y-100321747D01*
X95996777Y-100338223D01*
X96013253Y-100356401D01*
X96027868Y-100376107D01*
X96040480Y-100397150D01*
X96050970Y-100419329D01*
X96059235Y-100442428D01*
X96065196Y-100466227D01*
X96068796Y-100490495D01*
X96070000Y-100514999D01*
X96070000Y-101415001D01*
X96068796Y-101439505D01*
X96065196Y-101463773D01*
X96059235Y-101487572D01*
X96050970Y-101510671D01*
X96040480Y-101532850D01*
X96027868Y-101553893D01*
X96013253Y-101573599D01*
X95996777Y-101591777D01*
X95978599Y-101608253D01*
X95958893Y-101622868D01*
X95937850Y-101635480D01*
X95915671Y-101645970D01*
X95892572Y-101654235D01*
X95868773Y-101660196D01*
X95844505Y-101663796D01*
X95820001Y-101665000D01*
X95169999Y-101665000D01*
X95145495Y-101663796D01*
X95121227Y-101660196D01*
X95097428Y-101654235D01*
X95074329Y-101645970D01*
X95052150Y-101635480D01*
X95031107Y-101622868D01*
X95011401Y-101608253D01*
X94993223Y-101591777D01*
X94976747Y-101573599D01*
X94962132Y-101553893D01*
X94949520Y-101532850D01*
X94939030Y-101510671D01*
X94930765Y-101487572D01*
X94924804Y-101463773D01*
X94921204Y-101439505D01*
X94920000Y-101415001D01*
X94920000Y-100514999D01*
X94921204Y-100490495D01*
X94924804Y-100466227D01*
X94930765Y-100442428D01*
X94939030Y-100419329D01*
X94949520Y-100397150D01*
X94962132Y-100376107D01*
X94976747Y-100356401D01*
X94993223Y-100338223D01*
X95011401Y-100321747D01*
X95031107Y-100307132D01*
X95052150Y-100294520D01*
X95074329Y-100284030D01*
X95097428Y-100275765D01*
X95121227Y-100269804D01*
X95145495Y-100266204D01*
X95169999Y-100265000D01*
X95820001Y-100265000D01*
X95844505Y-100266204D01*
G37*
G36*
X97894505Y-100266204D02*
G01*
X97918773Y-100269804D01*
X97942572Y-100275765D01*
X97965671Y-100284030D01*
X97987850Y-100294520D01*
X98008893Y-100307132D01*
X98028599Y-100321747D01*
X98046777Y-100338223D01*
X98063253Y-100356401D01*
X98077868Y-100376107D01*
X98090480Y-100397150D01*
X98100970Y-100419329D01*
X98109235Y-100442428D01*
X98115196Y-100466227D01*
X98118796Y-100490495D01*
X98120000Y-100514999D01*
X98120000Y-101415001D01*
X98118796Y-101439505D01*
X98115196Y-101463773D01*
X98109235Y-101487572D01*
X98100970Y-101510671D01*
X98090480Y-101532850D01*
X98077868Y-101553893D01*
X98063253Y-101573599D01*
X98046777Y-101591777D01*
X98028599Y-101608253D01*
X98008893Y-101622868D01*
X97987850Y-101635480D01*
X97965671Y-101645970D01*
X97942572Y-101654235D01*
X97918773Y-101660196D01*
X97894505Y-101663796D01*
X97870001Y-101665000D01*
X97219999Y-101665000D01*
X97195495Y-101663796D01*
X97171227Y-101660196D01*
X97147428Y-101654235D01*
X97124329Y-101645970D01*
X97102150Y-101635480D01*
X97081107Y-101622868D01*
X97061401Y-101608253D01*
X97043223Y-101591777D01*
X97026747Y-101573599D01*
X97012132Y-101553893D01*
X96999520Y-101532850D01*
X96989030Y-101510671D01*
X96980765Y-101487572D01*
X96974804Y-101463773D01*
X96971204Y-101439505D01*
X96970000Y-101415001D01*
X96970000Y-100514999D01*
X96971204Y-100490495D01*
X96974804Y-100466227D01*
X96980765Y-100442428D01*
X96989030Y-100419329D01*
X96999520Y-100397150D01*
X97012132Y-100376107D01*
X97026747Y-100356401D01*
X97043223Y-100338223D01*
X97061401Y-100321747D01*
X97081107Y-100307132D01*
X97102150Y-100294520D01*
X97124329Y-100284030D01*
X97147428Y-100275765D01*
X97171227Y-100269804D01*
X97195495Y-100266204D01*
X97219999Y-100265000D01*
X97870001Y-100265000D01*
X97894505Y-100266204D01*
G37*
G36*
X107419505Y-161226204D02*
G01*
X107443773Y-161229804D01*
X107467572Y-161235765D01*
X107490671Y-161244030D01*
X107512850Y-161254520D01*
X107533893Y-161267132D01*
X107553599Y-161281747D01*
X107571777Y-161298223D01*
X107588253Y-161316401D01*
X107602868Y-161336107D01*
X107615480Y-161357150D01*
X107625970Y-161379329D01*
X107634235Y-161402428D01*
X107640196Y-161426227D01*
X107643796Y-161450495D01*
X107645000Y-161474999D01*
X107645000Y-162375001D01*
X107643796Y-162399505D01*
X107640196Y-162423773D01*
X107634235Y-162447572D01*
X107625970Y-162470671D01*
X107615480Y-162492850D01*
X107602868Y-162513893D01*
X107588253Y-162533599D01*
X107571777Y-162551777D01*
X107553599Y-162568253D01*
X107533893Y-162582868D01*
X107512850Y-162595480D01*
X107490671Y-162605970D01*
X107467572Y-162614235D01*
X107443773Y-162620196D01*
X107419505Y-162623796D01*
X107395001Y-162625000D01*
X106744999Y-162625000D01*
X106720495Y-162623796D01*
X106696227Y-162620196D01*
X106672428Y-162614235D01*
X106649329Y-162605970D01*
X106627150Y-162595480D01*
X106606107Y-162582868D01*
X106586401Y-162568253D01*
X106568223Y-162551777D01*
X106551747Y-162533599D01*
X106537132Y-162513893D01*
X106524520Y-162492850D01*
X106514030Y-162470671D01*
X106505765Y-162447572D01*
X106499804Y-162423773D01*
X106496204Y-162399505D01*
X106495000Y-162375001D01*
X106495000Y-161474999D01*
X106496204Y-161450495D01*
X106499804Y-161426227D01*
X106505765Y-161402428D01*
X106514030Y-161379329D01*
X106524520Y-161357150D01*
X106537132Y-161336107D01*
X106551747Y-161316401D01*
X106568223Y-161298223D01*
X106586401Y-161281747D01*
X106606107Y-161267132D01*
X106627150Y-161254520D01*
X106649329Y-161244030D01*
X106672428Y-161235765D01*
X106696227Y-161229804D01*
X106720495Y-161226204D01*
X106744999Y-161225000D01*
X107395001Y-161225000D01*
X107419505Y-161226204D01*
G37*
G36*
X105369505Y-161226204D02*
G01*
X105393773Y-161229804D01*
X105417572Y-161235765D01*
X105440671Y-161244030D01*
X105462850Y-161254520D01*
X105483893Y-161267132D01*
X105503599Y-161281747D01*
X105521777Y-161298223D01*
X105538253Y-161316401D01*
X105552868Y-161336107D01*
X105565480Y-161357150D01*
X105575970Y-161379329D01*
X105584235Y-161402428D01*
X105590196Y-161426227D01*
X105593796Y-161450495D01*
X105595000Y-161474999D01*
X105595000Y-162375001D01*
X105593796Y-162399505D01*
X105590196Y-162423773D01*
X105584235Y-162447572D01*
X105575970Y-162470671D01*
X105565480Y-162492850D01*
X105552868Y-162513893D01*
X105538253Y-162533599D01*
X105521777Y-162551777D01*
X105503599Y-162568253D01*
X105483893Y-162582868D01*
X105462850Y-162595480D01*
X105440671Y-162605970D01*
X105417572Y-162614235D01*
X105393773Y-162620196D01*
X105369505Y-162623796D01*
X105345001Y-162625000D01*
X104694999Y-162625000D01*
X104670495Y-162623796D01*
X104646227Y-162620196D01*
X104622428Y-162614235D01*
X104599329Y-162605970D01*
X104577150Y-162595480D01*
X104556107Y-162582868D01*
X104536401Y-162568253D01*
X104518223Y-162551777D01*
X104501747Y-162533599D01*
X104487132Y-162513893D01*
X104474520Y-162492850D01*
X104464030Y-162470671D01*
X104455765Y-162447572D01*
X104449804Y-162423773D01*
X104446204Y-162399505D01*
X104445000Y-162375001D01*
X104445000Y-161474999D01*
X104446204Y-161450495D01*
X104449804Y-161426227D01*
X104455765Y-161402428D01*
X104464030Y-161379329D01*
X104474520Y-161357150D01*
X104487132Y-161336107D01*
X104501747Y-161316401D01*
X104518223Y-161298223D01*
X104536401Y-161281747D01*
X104556107Y-161267132D01*
X104577150Y-161254520D01*
X104599329Y-161244030D01*
X104622428Y-161235765D01*
X104646227Y-161229804D01*
X104670495Y-161226204D01*
X104694999Y-161225000D01*
X105345001Y-161225000D01*
X105369505Y-161226204D01*
G37*
G36*
X103609505Y-161226204D02*
G01*
X103633773Y-161229804D01*
X103657572Y-161235765D01*
X103680671Y-161244030D01*
X103702850Y-161254520D01*
X103723893Y-161267132D01*
X103743599Y-161281747D01*
X103761777Y-161298223D01*
X103778253Y-161316401D01*
X103792868Y-161336107D01*
X103805480Y-161357150D01*
X103815970Y-161379329D01*
X103824235Y-161402428D01*
X103830196Y-161426227D01*
X103833796Y-161450495D01*
X103835000Y-161474999D01*
X103835000Y-162375001D01*
X103833796Y-162399505D01*
X103830196Y-162423773D01*
X103824235Y-162447572D01*
X103815970Y-162470671D01*
X103805480Y-162492850D01*
X103792868Y-162513893D01*
X103778253Y-162533599D01*
X103761777Y-162551777D01*
X103743599Y-162568253D01*
X103723893Y-162582868D01*
X103702850Y-162595480D01*
X103680671Y-162605970D01*
X103657572Y-162614235D01*
X103633773Y-162620196D01*
X103609505Y-162623796D01*
X103585001Y-162625000D01*
X102934999Y-162625000D01*
X102910495Y-162623796D01*
X102886227Y-162620196D01*
X102862428Y-162614235D01*
X102839329Y-162605970D01*
X102817150Y-162595480D01*
X102796107Y-162582868D01*
X102776401Y-162568253D01*
X102758223Y-162551777D01*
X102741747Y-162533599D01*
X102727132Y-162513893D01*
X102714520Y-162492850D01*
X102704030Y-162470671D01*
X102695765Y-162447572D01*
X102689804Y-162423773D01*
X102686204Y-162399505D01*
X102685000Y-162375001D01*
X102685000Y-161474999D01*
X102686204Y-161450495D01*
X102689804Y-161426227D01*
X102695765Y-161402428D01*
X102704030Y-161379329D01*
X102714520Y-161357150D01*
X102727132Y-161336107D01*
X102741747Y-161316401D01*
X102758223Y-161298223D01*
X102776401Y-161281747D01*
X102796107Y-161267132D01*
X102817150Y-161254520D01*
X102839329Y-161244030D01*
X102862428Y-161235765D01*
X102886227Y-161229804D01*
X102910495Y-161226204D01*
X102934999Y-161225000D01*
X103585001Y-161225000D01*
X103609505Y-161226204D01*
G37*
G36*
X101559505Y-161226204D02*
G01*
X101583773Y-161229804D01*
X101607572Y-161235765D01*
X101630671Y-161244030D01*
X101652850Y-161254520D01*
X101673893Y-161267132D01*
X101693599Y-161281747D01*
X101711777Y-161298223D01*
X101728253Y-161316401D01*
X101742868Y-161336107D01*
X101755480Y-161357150D01*
X101765970Y-161379329D01*
X101774235Y-161402428D01*
X101780196Y-161426227D01*
X101783796Y-161450495D01*
X101785000Y-161474999D01*
X101785000Y-162375001D01*
X101783796Y-162399505D01*
X101780196Y-162423773D01*
X101774235Y-162447572D01*
X101765970Y-162470671D01*
X101755480Y-162492850D01*
X101742868Y-162513893D01*
X101728253Y-162533599D01*
X101711777Y-162551777D01*
X101693599Y-162568253D01*
X101673893Y-162582868D01*
X101652850Y-162595480D01*
X101630671Y-162605970D01*
X101607572Y-162614235D01*
X101583773Y-162620196D01*
X101559505Y-162623796D01*
X101535001Y-162625000D01*
X100884999Y-162625000D01*
X100860495Y-162623796D01*
X100836227Y-162620196D01*
X100812428Y-162614235D01*
X100789329Y-162605970D01*
X100767150Y-162595480D01*
X100746107Y-162582868D01*
X100726401Y-162568253D01*
X100708223Y-162551777D01*
X100691747Y-162533599D01*
X100677132Y-162513893D01*
X100664520Y-162492850D01*
X100654030Y-162470671D01*
X100645765Y-162447572D01*
X100639804Y-162423773D01*
X100636204Y-162399505D01*
X100635000Y-162375001D01*
X100635000Y-161474999D01*
X100636204Y-161450495D01*
X100639804Y-161426227D01*
X100645765Y-161402428D01*
X100654030Y-161379329D01*
X100664520Y-161357150D01*
X100677132Y-161336107D01*
X100691747Y-161316401D01*
X100708223Y-161298223D01*
X100726401Y-161281747D01*
X100746107Y-161267132D01*
X100767150Y-161254520D01*
X100789329Y-161244030D01*
X100812428Y-161235765D01*
X100836227Y-161229804D01*
X100860495Y-161226204D01*
X100884999Y-161225000D01*
X101535001Y-161225000D01*
X101559505Y-161226204D01*
G37*
G36*
X99799505Y-161226204D02*
G01*
X99823773Y-161229804D01*
X99847572Y-161235765D01*
X99870671Y-161244030D01*
X99892850Y-161254520D01*
X99913893Y-161267132D01*
X99933599Y-161281747D01*
X99951777Y-161298223D01*
X99968253Y-161316401D01*
X99982868Y-161336107D01*
X99995480Y-161357150D01*
X100005970Y-161379329D01*
X100014235Y-161402428D01*
X100020196Y-161426227D01*
X100023796Y-161450495D01*
X100025000Y-161474999D01*
X100025000Y-162375001D01*
X100023796Y-162399505D01*
X100020196Y-162423773D01*
X100014235Y-162447572D01*
X100005970Y-162470671D01*
X99995480Y-162492850D01*
X99982868Y-162513893D01*
X99968253Y-162533599D01*
X99951777Y-162551777D01*
X99933599Y-162568253D01*
X99913893Y-162582868D01*
X99892850Y-162595480D01*
X99870671Y-162605970D01*
X99847572Y-162614235D01*
X99823773Y-162620196D01*
X99799505Y-162623796D01*
X99775001Y-162625000D01*
X99124999Y-162625000D01*
X99100495Y-162623796D01*
X99076227Y-162620196D01*
X99052428Y-162614235D01*
X99029329Y-162605970D01*
X99007150Y-162595480D01*
X98986107Y-162582868D01*
X98966401Y-162568253D01*
X98948223Y-162551777D01*
X98931747Y-162533599D01*
X98917132Y-162513893D01*
X98904520Y-162492850D01*
X98894030Y-162470671D01*
X98885765Y-162447572D01*
X98879804Y-162423773D01*
X98876204Y-162399505D01*
X98875000Y-162375001D01*
X98875000Y-161474999D01*
X98876204Y-161450495D01*
X98879804Y-161426227D01*
X98885765Y-161402428D01*
X98894030Y-161379329D01*
X98904520Y-161357150D01*
X98917132Y-161336107D01*
X98931747Y-161316401D01*
X98948223Y-161298223D01*
X98966401Y-161281747D01*
X98986107Y-161267132D01*
X99007150Y-161254520D01*
X99029329Y-161244030D01*
X99052428Y-161235765D01*
X99076227Y-161229804D01*
X99100495Y-161226204D01*
X99124999Y-161225000D01*
X99775001Y-161225000D01*
X99799505Y-161226204D01*
G37*
G36*
X97749505Y-161226204D02*
G01*
X97773773Y-161229804D01*
X97797572Y-161235765D01*
X97820671Y-161244030D01*
X97842850Y-161254520D01*
X97863893Y-161267132D01*
X97883599Y-161281747D01*
X97901777Y-161298223D01*
X97918253Y-161316401D01*
X97932868Y-161336107D01*
X97945480Y-161357150D01*
X97955970Y-161379329D01*
X97964235Y-161402428D01*
X97970196Y-161426227D01*
X97973796Y-161450495D01*
X97975000Y-161474999D01*
X97975000Y-162375001D01*
X97973796Y-162399505D01*
X97970196Y-162423773D01*
X97964235Y-162447572D01*
X97955970Y-162470671D01*
X97945480Y-162492850D01*
X97932868Y-162513893D01*
X97918253Y-162533599D01*
X97901777Y-162551777D01*
X97883599Y-162568253D01*
X97863893Y-162582868D01*
X97842850Y-162595480D01*
X97820671Y-162605970D01*
X97797572Y-162614235D01*
X97773773Y-162620196D01*
X97749505Y-162623796D01*
X97725001Y-162625000D01*
X97074999Y-162625000D01*
X97050495Y-162623796D01*
X97026227Y-162620196D01*
X97002428Y-162614235D01*
X96979329Y-162605970D01*
X96957150Y-162595480D01*
X96936107Y-162582868D01*
X96916401Y-162568253D01*
X96898223Y-162551777D01*
X96881747Y-162533599D01*
X96867132Y-162513893D01*
X96854520Y-162492850D01*
X96844030Y-162470671D01*
X96835765Y-162447572D01*
X96829804Y-162423773D01*
X96826204Y-162399505D01*
X96825000Y-162375001D01*
X96825000Y-161474999D01*
X96826204Y-161450495D01*
X96829804Y-161426227D01*
X96835765Y-161402428D01*
X96844030Y-161379329D01*
X96854520Y-161357150D01*
X96867132Y-161336107D01*
X96881747Y-161316401D01*
X96898223Y-161298223D01*
X96916401Y-161281747D01*
X96936107Y-161267132D01*
X96957150Y-161254520D01*
X96979329Y-161244030D01*
X97002428Y-161235765D01*
X97026227Y-161229804D01*
X97050495Y-161226204D01*
X97074999Y-161225000D01*
X97725001Y-161225000D01*
X97749505Y-161226204D01*
G37*
G36*
X95989505Y-161226204D02*
G01*
X96013773Y-161229804D01*
X96037572Y-161235765D01*
X96060671Y-161244030D01*
X96082850Y-161254520D01*
X96103893Y-161267132D01*
X96123599Y-161281747D01*
X96141777Y-161298223D01*
X96158253Y-161316401D01*
X96172868Y-161336107D01*
X96185480Y-161357150D01*
X96195970Y-161379329D01*
X96204235Y-161402428D01*
X96210196Y-161426227D01*
X96213796Y-161450495D01*
X96215000Y-161474999D01*
X96215000Y-162375001D01*
X96213796Y-162399505D01*
X96210196Y-162423773D01*
X96204235Y-162447572D01*
X96195970Y-162470671D01*
X96185480Y-162492850D01*
X96172868Y-162513893D01*
X96158253Y-162533599D01*
X96141777Y-162551777D01*
X96123599Y-162568253D01*
X96103893Y-162582868D01*
X96082850Y-162595480D01*
X96060671Y-162605970D01*
X96037572Y-162614235D01*
X96013773Y-162620196D01*
X95989505Y-162623796D01*
X95965001Y-162625000D01*
X95314999Y-162625000D01*
X95290495Y-162623796D01*
X95266227Y-162620196D01*
X95242428Y-162614235D01*
X95219329Y-162605970D01*
X95197150Y-162595480D01*
X95176107Y-162582868D01*
X95156401Y-162568253D01*
X95138223Y-162551777D01*
X95121747Y-162533599D01*
X95107132Y-162513893D01*
X95094520Y-162492850D01*
X95084030Y-162470671D01*
X95075765Y-162447572D01*
X95069804Y-162423773D01*
X95066204Y-162399505D01*
X95065000Y-162375001D01*
X95065000Y-161474999D01*
X95066204Y-161450495D01*
X95069804Y-161426227D01*
X95075765Y-161402428D01*
X95084030Y-161379329D01*
X95094520Y-161357150D01*
X95107132Y-161336107D01*
X95121747Y-161316401D01*
X95138223Y-161298223D01*
X95156401Y-161281747D01*
X95176107Y-161267132D01*
X95197150Y-161254520D01*
X95219329Y-161244030D01*
X95242428Y-161235765D01*
X95266227Y-161229804D01*
X95290495Y-161226204D01*
X95314999Y-161225000D01*
X95965001Y-161225000D01*
X95989505Y-161226204D01*
G37*
G36*
X93939505Y-161226204D02*
G01*
X93963773Y-161229804D01*
X93987572Y-161235765D01*
X94010671Y-161244030D01*
X94032850Y-161254520D01*
X94053893Y-161267132D01*
X94073599Y-161281747D01*
X94091777Y-161298223D01*
X94108253Y-161316401D01*
X94122868Y-161336107D01*
X94135480Y-161357150D01*
X94145970Y-161379329D01*
X94154235Y-161402428D01*
X94160196Y-161426227D01*
X94163796Y-161450495D01*
X94165000Y-161474999D01*
X94165000Y-162375001D01*
X94163796Y-162399505D01*
X94160196Y-162423773D01*
X94154235Y-162447572D01*
X94145970Y-162470671D01*
X94135480Y-162492850D01*
X94122868Y-162513893D01*
X94108253Y-162533599D01*
X94091777Y-162551777D01*
X94073599Y-162568253D01*
X94053893Y-162582868D01*
X94032850Y-162595480D01*
X94010671Y-162605970D01*
X93987572Y-162614235D01*
X93963773Y-162620196D01*
X93939505Y-162623796D01*
X93915001Y-162625000D01*
X93264999Y-162625000D01*
X93240495Y-162623796D01*
X93216227Y-162620196D01*
X93192428Y-162614235D01*
X93169329Y-162605970D01*
X93147150Y-162595480D01*
X93126107Y-162582868D01*
X93106401Y-162568253D01*
X93088223Y-162551777D01*
X93071747Y-162533599D01*
X93057132Y-162513893D01*
X93044520Y-162492850D01*
X93034030Y-162470671D01*
X93025765Y-162447572D01*
X93019804Y-162423773D01*
X93016204Y-162399505D01*
X93015000Y-162375001D01*
X93015000Y-161474999D01*
X93016204Y-161450495D01*
X93019804Y-161426227D01*
X93025765Y-161402428D01*
X93034030Y-161379329D01*
X93044520Y-161357150D01*
X93057132Y-161336107D01*
X93071747Y-161316401D01*
X93088223Y-161298223D01*
X93106401Y-161281747D01*
X93126107Y-161267132D01*
X93147150Y-161254520D01*
X93169329Y-161244030D01*
X93192428Y-161235765D01*
X93216227Y-161229804D01*
X93240495Y-161226204D01*
X93264999Y-161225000D01*
X93915001Y-161225000D01*
X93939505Y-161226204D01*
G37*
G36*
X92179505Y-161226204D02*
G01*
X92203773Y-161229804D01*
X92227572Y-161235765D01*
X92250671Y-161244030D01*
X92272850Y-161254520D01*
X92293893Y-161267132D01*
X92313599Y-161281747D01*
X92331777Y-161298223D01*
X92348253Y-161316401D01*
X92362868Y-161336107D01*
X92375480Y-161357150D01*
X92385970Y-161379329D01*
X92394235Y-161402428D01*
X92400196Y-161426227D01*
X92403796Y-161450495D01*
X92405000Y-161474999D01*
X92405000Y-162375001D01*
X92403796Y-162399505D01*
X92400196Y-162423773D01*
X92394235Y-162447572D01*
X92385970Y-162470671D01*
X92375480Y-162492850D01*
X92362868Y-162513893D01*
X92348253Y-162533599D01*
X92331777Y-162551777D01*
X92313599Y-162568253D01*
X92293893Y-162582868D01*
X92272850Y-162595480D01*
X92250671Y-162605970D01*
X92227572Y-162614235D01*
X92203773Y-162620196D01*
X92179505Y-162623796D01*
X92155001Y-162625000D01*
X91504999Y-162625000D01*
X91480495Y-162623796D01*
X91456227Y-162620196D01*
X91432428Y-162614235D01*
X91409329Y-162605970D01*
X91387150Y-162595480D01*
X91366107Y-162582868D01*
X91346401Y-162568253D01*
X91328223Y-162551777D01*
X91311747Y-162533599D01*
X91297132Y-162513893D01*
X91284520Y-162492850D01*
X91274030Y-162470671D01*
X91265765Y-162447572D01*
X91259804Y-162423773D01*
X91256204Y-162399505D01*
X91255000Y-162375001D01*
X91255000Y-161474999D01*
X91256204Y-161450495D01*
X91259804Y-161426227D01*
X91265765Y-161402428D01*
X91274030Y-161379329D01*
X91284520Y-161357150D01*
X91297132Y-161336107D01*
X91311747Y-161316401D01*
X91328223Y-161298223D01*
X91346401Y-161281747D01*
X91366107Y-161267132D01*
X91387150Y-161254520D01*
X91409329Y-161244030D01*
X91432428Y-161235765D01*
X91456227Y-161229804D01*
X91480495Y-161226204D01*
X91504999Y-161225000D01*
X92155001Y-161225000D01*
X92179505Y-161226204D01*
G37*
G36*
X90129505Y-161226204D02*
G01*
X90153773Y-161229804D01*
X90177572Y-161235765D01*
X90200671Y-161244030D01*
X90222850Y-161254520D01*
X90243893Y-161267132D01*
X90263599Y-161281747D01*
X90281777Y-161298223D01*
X90298253Y-161316401D01*
X90312868Y-161336107D01*
X90325480Y-161357150D01*
X90335970Y-161379329D01*
X90344235Y-161402428D01*
X90350196Y-161426227D01*
X90353796Y-161450495D01*
X90355000Y-161474999D01*
X90355000Y-162375001D01*
X90353796Y-162399505D01*
X90350196Y-162423773D01*
X90344235Y-162447572D01*
X90335970Y-162470671D01*
X90325480Y-162492850D01*
X90312868Y-162513893D01*
X90298253Y-162533599D01*
X90281777Y-162551777D01*
X90263599Y-162568253D01*
X90243893Y-162582868D01*
X90222850Y-162595480D01*
X90200671Y-162605970D01*
X90177572Y-162614235D01*
X90153773Y-162620196D01*
X90129505Y-162623796D01*
X90105001Y-162625000D01*
X89454999Y-162625000D01*
X89430495Y-162623796D01*
X89406227Y-162620196D01*
X89382428Y-162614235D01*
X89359329Y-162605970D01*
X89337150Y-162595480D01*
X89316107Y-162582868D01*
X89296401Y-162568253D01*
X89278223Y-162551777D01*
X89261747Y-162533599D01*
X89247132Y-162513893D01*
X89234520Y-162492850D01*
X89224030Y-162470671D01*
X89215765Y-162447572D01*
X89209804Y-162423773D01*
X89206204Y-162399505D01*
X89205000Y-162375001D01*
X89205000Y-161474999D01*
X89206204Y-161450495D01*
X89209804Y-161426227D01*
X89215765Y-161402428D01*
X89224030Y-161379329D01*
X89234520Y-161357150D01*
X89247132Y-161336107D01*
X89261747Y-161316401D01*
X89278223Y-161298223D01*
X89296401Y-161281747D01*
X89316107Y-161267132D01*
X89337150Y-161254520D01*
X89359329Y-161244030D01*
X89382428Y-161235765D01*
X89406227Y-161229804D01*
X89430495Y-161226204D01*
X89454999Y-161225000D01*
X90105001Y-161225000D01*
X90129505Y-161226204D01*
G37*
G36*
X88369505Y-161226204D02*
G01*
X88393773Y-161229804D01*
X88417572Y-161235765D01*
X88440671Y-161244030D01*
X88462850Y-161254520D01*
X88483893Y-161267132D01*
X88503599Y-161281747D01*
X88521777Y-161298223D01*
X88538253Y-161316401D01*
X88552868Y-161336107D01*
X88565480Y-161357150D01*
X88575970Y-161379329D01*
X88584235Y-161402428D01*
X88590196Y-161426227D01*
X88593796Y-161450495D01*
X88595000Y-161474999D01*
X88595000Y-162375001D01*
X88593796Y-162399505D01*
X88590196Y-162423773D01*
X88584235Y-162447572D01*
X88575970Y-162470671D01*
X88565480Y-162492850D01*
X88552868Y-162513893D01*
X88538253Y-162533599D01*
X88521777Y-162551777D01*
X88503599Y-162568253D01*
X88483893Y-162582868D01*
X88462850Y-162595480D01*
X88440671Y-162605970D01*
X88417572Y-162614235D01*
X88393773Y-162620196D01*
X88369505Y-162623796D01*
X88345001Y-162625000D01*
X87694999Y-162625000D01*
X87670495Y-162623796D01*
X87646227Y-162620196D01*
X87622428Y-162614235D01*
X87599329Y-162605970D01*
X87577150Y-162595480D01*
X87556107Y-162582868D01*
X87536401Y-162568253D01*
X87518223Y-162551777D01*
X87501747Y-162533599D01*
X87487132Y-162513893D01*
X87474520Y-162492850D01*
X87464030Y-162470671D01*
X87455765Y-162447572D01*
X87449804Y-162423773D01*
X87446204Y-162399505D01*
X87445000Y-162375001D01*
X87445000Y-161474999D01*
X87446204Y-161450495D01*
X87449804Y-161426227D01*
X87455765Y-161402428D01*
X87464030Y-161379329D01*
X87474520Y-161357150D01*
X87487132Y-161336107D01*
X87501747Y-161316401D01*
X87518223Y-161298223D01*
X87536401Y-161281747D01*
X87556107Y-161267132D01*
X87577150Y-161254520D01*
X87599329Y-161244030D01*
X87622428Y-161235765D01*
X87646227Y-161229804D01*
X87670495Y-161226204D01*
X87694999Y-161225000D01*
X88345001Y-161225000D01*
X88369505Y-161226204D01*
G37*
G36*
X86319505Y-161226204D02*
G01*
X86343773Y-161229804D01*
X86367572Y-161235765D01*
X86390671Y-161244030D01*
X86412850Y-161254520D01*
X86433893Y-161267132D01*
X86453599Y-161281747D01*
X86471777Y-161298223D01*
X86488253Y-161316401D01*
X86502868Y-161336107D01*
X86515480Y-161357150D01*
X86525970Y-161379329D01*
X86534235Y-161402428D01*
X86540196Y-161426227D01*
X86543796Y-161450495D01*
X86545000Y-161474999D01*
X86545000Y-162375001D01*
X86543796Y-162399505D01*
X86540196Y-162423773D01*
X86534235Y-162447572D01*
X86525970Y-162470671D01*
X86515480Y-162492850D01*
X86502868Y-162513893D01*
X86488253Y-162533599D01*
X86471777Y-162551777D01*
X86453599Y-162568253D01*
X86433893Y-162582868D01*
X86412850Y-162595480D01*
X86390671Y-162605970D01*
X86367572Y-162614235D01*
X86343773Y-162620196D01*
X86319505Y-162623796D01*
X86295001Y-162625000D01*
X85644999Y-162625000D01*
X85620495Y-162623796D01*
X85596227Y-162620196D01*
X85572428Y-162614235D01*
X85549329Y-162605970D01*
X85527150Y-162595480D01*
X85506107Y-162582868D01*
X85486401Y-162568253D01*
X85468223Y-162551777D01*
X85451747Y-162533599D01*
X85437132Y-162513893D01*
X85424520Y-162492850D01*
X85414030Y-162470671D01*
X85405765Y-162447572D01*
X85399804Y-162423773D01*
X85396204Y-162399505D01*
X85395000Y-162375001D01*
X85395000Y-161474999D01*
X85396204Y-161450495D01*
X85399804Y-161426227D01*
X85405765Y-161402428D01*
X85414030Y-161379329D01*
X85424520Y-161357150D01*
X85437132Y-161336107D01*
X85451747Y-161316401D01*
X85468223Y-161298223D01*
X85486401Y-161281747D01*
X85506107Y-161267132D01*
X85527150Y-161254520D01*
X85549329Y-161244030D01*
X85572428Y-161235765D01*
X85596227Y-161229804D01*
X85620495Y-161226204D01*
X85644999Y-161225000D01*
X86295001Y-161225000D01*
X86319505Y-161226204D01*
G37*
G36*
X84559505Y-161226204D02*
G01*
X84583773Y-161229804D01*
X84607572Y-161235765D01*
X84630671Y-161244030D01*
X84652850Y-161254520D01*
X84673893Y-161267132D01*
X84693599Y-161281747D01*
X84711777Y-161298223D01*
X84728253Y-161316401D01*
X84742868Y-161336107D01*
X84755480Y-161357150D01*
X84765970Y-161379329D01*
X84774235Y-161402428D01*
X84780196Y-161426227D01*
X84783796Y-161450495D01*
X84785000Y-161474999D01*
X84785000Y-162375001D01*
X84783796Y-162399505D01*
X84780196Y-162423773D01*
X84774235Y-162447572D01*
X84765970Y-162470671D01*
X84755480Y-162492850D01*
X84742868Y-162513893D01*
X84728253Y-162533599D01*
X84711777Y-162551777D01*
X84693599Y-162568253D01*
X84673893Y-162582868D01*
X84652850Y-162595480D01*
X84630671Y-162605970D01*
X84607572Y-162614235D01*
X84583773Y-162620196D01*
X84559505Y-162623796D01*
X84535001Y-162625000D01*
X83884999Y-162625000D01*
X83860495Y-162623796D01*
X83836227Y-162620196D01*
X83812428Y-162614235D01*
X83789329Y-162605970D01*
X83767150Y-162595480D01*
X83746107Y-162582868D01*
X83726401Y-162568253D01*
X83708223Y-162551777D01*
X83691747Y-162533599D01*
X83677132Y-162513893D01*
X83664520Y-162492850D01*
X83654030Y-162470671D01*
X83645765Y-162447572D01*
X83639804Y-162423773D01*
X83636204Y-162399505D01*
X83635000Y-162375001D01*
X83635000Y-161474999D01*
X83636204Y-161450495D01*
X83639804Y-161426227D01*
X83645765Y-161402428D01*
X83654030Y-161379329D01*
X83664520Y-161357150D01*
X83677132Y-161336107D01*
X83691747Y-161316401D01*
X83708223Y-161298223D01*
X83726401Y-161281747D01*
X83746107Y-161267132D01*
X83767150Y-161254520D01*
X83789329Y-161244030D01*
X83812428Y-161235765D01*
X83836227Y-161229804D01*
X83860495Y-161226204D01*
X83884999Y-161225000D01*
X84535001Y-161225000D01*
X84559505Y-161226204D01*
G37*
G36*
X82509505Y-161226204D02*
G01*
X82533773Y-161229804D01*
X82557572Y-161235765D01*
X82580671Y-161244030D01*
X82602850Y-161254520D01*
X82623893Y-161267132D01*
X82643599Y-161281747D01*
X82661777Y-161298223D01*
X82678253Y-161316401D01*
X82692868Y-161336107D01*
X82705480Y-161357150D01*
X82715970Y-161379329D01*
X82724235Y-161402428D01*
X82730196Y-161426227D01*
X82733796Y-161450495D01*
X82735000Y-161474999D01*
X82735000Y-162375001D01*
X82733796Y-162399505D01*
X82730196Y-162423773D01*
X82724235Y-162447572D01*
X82715970Y-162470671D01*
X82705480Y-162492850D01*
X82692868Y-162513893D01*
X82678253Y-162533599D01*
X82661777Y-162551777D01*
X82643599Y-162568253D01*
X82623893Y-162582868D01*
X82602850Y-162595480D01*
X82580671Y-162605970D01*
X82557572Y-162614235D01*
X82533773Y-162620196D01*
X82509505Y-162623796D01*
X82485001Y-162625000D01*
X81834999Y-162625000D01*
X81810495Y-162623796D01*
X81786227Y-162620196D01*
X81762428Y-162614235D01*
X81739329Y-162605970D01*
X81717150Y-162595480D01*
X81696107Y-162582868D01*
X81676401Y-162568253D01*
X81658223Y-162551777D01*
X81641747Y-162533599D01*
X81627132Y-162513893D01*
X81614520Y-162492850D01*
X81604030Y-162470671D01*
X81595765Y-162447572D01*
X81589804Y-162423773D01*
X81586204Y-162399505D01*
X81585000Y-162375001D01*
X81585000Y-161474999D01*
X81586204Y-161450495D01*
X81589804Y-161426227D01*
X81595765Y-161402428D01*
X81604030Y-161379329D01*
X81614520Y-161357150D01*
X81627132Y-161336107D01*
X81641747Y-161316401D01*
X81658223Y-161298223D01*
X81676401Y-161281747D01*
X81696107Y-161267132D01*
X81717150Y-161254520D01*
X81739329Y-161244030D01*
X81762428Y-161235765D01*
X81786227Y-161229804D01*
X81810495Y-161226204D01*
X81834999Y-161225000D01*
X82485001Y-161225000D01*
X82509505Y-161226204D01*
G37*
D10*
X128252110Y-60685850D03*
X128252110Y-62135850D03*
X123952110Y-62135850D03*
D11*
X123952110Y-60685850D03*
D10*
X175877110Y-60685850D03*
X175877110Y-62135850D03*
X171577110Y-62135850D03*
D11*
X171577110Y-60685850D03*
D10*
X194927110Y-60812850D03*
X194927110Y-62262850D03*
X190627110Y-62262850D03*
D11*
X190627110Y-60812850D03*
D10*
X213977110Y-60812850D03*
X213977110Y-62262850D03*
X209677110Y-62262850D03*
D11*
X209677110Y-60812850D03*
D10*
X233027110Y-60685850D03*
X233027110Y-62135850D03*
X228727110Y-62135850D03*
D11*
X228727110Y-60685850D03*
D10*
X128252110Y-79735850D03*
X128252110Y-81185850D03*
X123952110Y-81185850D03*
D11*
X123952110Y-79735850D03*
D10*
X156827110Y-79735850D03*
X156827110Y-81185850D03*
X152527110Y-81185850D03*
D11*
X152527110Y-79735850D03*
D10*
X175877110Y-79735850D03*
X175877110Y-81185850D03*
X171577110Y-81185850D03*
D11*
X171577110Y-79735850D03*
D10*
X194927110Y-79735850D03*
X194927110Y-81185850D03*
X190627110Y-81185850D03*
D11*
X190627110Y-79735850D03*
D10*
X213977110Y-79735850D03*
X213977110Y-81185850D03*
X209677110Y-81185850D03*
D11*
X209677110Y-79735850D03*
D10*
X233027110Y-79735850D03*
X233027110Y-81185850D03*
X228727110Y-81185850D03*
D11*
X228727110Y-79735850D03*
D10*
X128252110Y-98785850D03*
X128252110Y-100235850D03*
X123952110Y-100235850D03*
D11*
X123952110Y-98785850D03*
D10*
X156827110Y-98785850D03*
X156827110Y-100235850D03*
X152527110Y-100235850D03*
D11*
X152527110Y-98785850D03*
D10*
X175877110Y-98785850D03*
X175877110Y-100235850D03*
X171577110Y-100235850D03*
D11*
X171577110Y-98785850D03*
D10*
X194927110Y-98785850D03*
X194927110Y-100235850D03*
X190627110Y-100235850D03*
D11*
X190627110Y-98785850D03*
D10*
X213977110Y-98785850D03*
X213977110Y-100235850D03*
X209677110Y-100235850D03*
D11*
X209677110Y-98785850D03*
D10*
X233027110Y-98785850D03*
X233027110Y-100235850D03*
X228727110Y-100235850D03*
D11*
X228727110Y-98785850D03*
D10*
X128252110Y-117835850D03*
X128252110Y-119285850D03*
X123952110Y-119285850D03*
D11*
X123952110Y-117835850D03*
D10*
X156827110Y-117835850D03*
X156827110Y-119285850D03*
X152527110Y-119285850D03*
D11*
X152527110Y-117835850D03*
D10*
X175877110Y-117835850D03*
X175877110Y-119285850D03*
X171577110Y-119285850D03*
D11*
X171577110Y-117835850D03*
D10*
X213977110Y-117835850D03*
X213977110Y-119285850D03*
X209677110Y-119285850D03*
D11*
X209677110Y-117835850D03*
D10*
X233027110Y-117835850D03*
X233027110Y-119285850D03*
X228727110Y-119285850D03*
D11*
X228727110Y-117835850D03*
D10*
X128252110Y-136885850D03*
X128252110Y-138335850D03*
X123952110Y-138335850D03*
D11*
X123952110Y-136885850D03*
D10*
X156827110Y-136885850D03*
X156827110Y-138335850D03*
X152527110Y-138335850D03*
D11*
X152527110Y-136885850D03*
D10*
X175877110Y-136885850D03*
X175877110Y-138335850D03*
X171577110Y-138335850D03*
D11*
X171577110Y-136885850D03*
D10*
X194800110Y-136885850D03*
X194800110Y-138335850D03*
X190500110Y-138335850D03*
D11*
X190500110Y-136885850D03*
D10*
X213977110Y-136885850D03*
X213977110Y-138335850D03*
X209677110Y-138335850D03*
D11*
X209677110Y-136885850D03*
D10*
X233027110Y-136885850D03*
X233027110Y-138335850D03*
X228727110Y-138335850D03*
D11*
X228727110Y-136885850D03*
D10*
X128252110Y-155935850D03*
X128252110Y-157385850D03*
X123952110Y-157385850D03*
D11*
X123952110Y-155935850D03*
D10*
X156827110Y-155935850D03*
X156827110Y-157385850D03*
X152527110Y-157385850D03*
D11*
X152527110Y-155935850D03*
D10*
X175877110Y-155935850D03*
X175877110Y-157385850D03*
X171577110Y-157385850D03*
D11*
X171577110Y-155935850D03*
D10*
X193911110Y-151490850D03*
X193911110Y-152940850D03*
X189611110Y-152940850D03*
D11*
X189611110Y-151490850D03*
D10*
X214993110Y-151490850D03*
X214993110Y-152940850D03*
X210693110Y-152940850D03*
D11*
X210693110Y-151490850D03*
D10*
X233027110Y-155935850D03*
X233027110Y-157385850D03*
X228727110Y-157385850D03*
D11*
X228727110Y-155935850D03*
D10*
X96625300Y-113829000D03*
X96625300Y-115279000D03*
X92325300Y-115279000D03*
D11*
X92325300Y-113829000D03*
D10*
X96536400Y-133031400D03*
X96536400Y-134481400D03*
X92236400Y-134481400D03*
D11*
X92236400Y-133031400D03*
D12*
G36*
X104614505Y-154756204D02*
G01*
X104638773Y-154759804D01*
X104662572Y-154765765D01*
X104685671Y-154774030D01*
X104707850Y-154784520D01*
X104728893Y-154797132D01*
X104748599Y-154811747D01*
X104766777Y-154828223D01*
X104783253Y-154846401D01*
X104797868Y-154866107D01*
X104810480Y-154887150D01*
X104820970Y-154909329D01*
X104829235Y-154932428D01*
X104835196Y-154956227D01*
X104838796Y-154980495D01*
X104840000Y-155004999D01*
X104840000Y-155655001D01*
X104838796Y-155679505D01*
X104835196Y-155703773D01*
X104829235Y-155727572D01*
X104820970Y-155750671D01*
X104810480Y-155772850D01*
X104797868Y-155793893D01*
X104783253Y-155813599D01*
X104766777Y-155831777D01*
X104748599Y-155848253D01*
X104728893Y-155862868D01*
X104707850Y-155875480D01*
X104685671Y-155885970D01*
X104662572Y-155894235D01*
X104638773Y-155900196D01*
X104614505Y-155903796D01*
X104590001Y-155905000D01*
X103689999Y-155905000D01*
X103665495Y-155903796D01*
X103641227Y-155900196D01*
X103617428Y-155894235D01*
X103594329Y-155885970D01*
X103572150Y-155875480D01*
X103551107Y-155862868D01*
X103531401Y-155848253D01*
X103513223Y-155831777D01*
X103496747Y-155813599D01*
X103482132Y-155793893D01*
X103469520Y-155772850D01*
X103459030Y-155750671D01*
X103450765Y-155727572D01*
X103444804Y-155703773D01*
X103441204Y-155679505D01*
X103440000Y-155655001D01*
X103440000Y-155004999D01*
X103441204Y-154980495D01*
X103444804Y-154956227D01*
X103450765Y-154932428D01*
X103459030Y-154909329D01*
X103469520Y-154887150D01*
X103482132Y-154866107D01*
X103496747Y-154846401D01*
X103513223Y-154828223D01*
X103531401Y-154811747D01*
X103551107Y-154797132D01*
X103572150Y-154784520D01*
X103594329Y-154774030D01*
X103617428Y-154765765D01*
X103641227Y-154759804D01*
X103665495Y-154756204D01*
X103689999Y-154755000D01*
X104590001Y-154755000D01*
X104614505Y-154756204D01*
G37*
G36*
X104614505Y-152706204D02*
G01*
X104638773Y-152709804D01*
X104662572Y-152715765D01*
X104685671Y-152724030D01*
X104707850Y-152734520D01*
X104728893Y-152747132D01*
X104748599Y-152761747D01*
X104766777Y-152778223D01*
X104783253Y-152796401D01*
X104797868Y-152816107D01*
X104810480Y-152837150D01*
X104820970Y-152859329D01*
X104829235Y-152882428D01*
X104835196Y-152906227D01*
X104838796Y-152930495D01*
X104840000Y-152954999D01*
X104840000Y-153605001D01*
X104838796Y-153629505D01*
X104835196Y-153653773D01*
X104829235Y-153677572D01*
X104820970Y-153700671D01*
X104810480Y-153722850D01*
X104797868Y-153743893D01*
X104783253Y-153763599D01*
X104766777Y-153781777D01*
X104748599Y-153798253D01*
X104728893Y-153812868D01*
X104707850Y-153825480D01*
X104685671Y-153835970D01*
X104662572Y-153844235D01*
X104638773Y-153850196D01*
X104614505Y-153853796D01*
X104590001Y-153855000D01*
X103689999Y-153855000D01*
X103665495Y-153853796D01*
X103641227Y-153850196D01*
X103617428Y-153844235D01*
X103594329Y-153835970D01*
X103572150Y-153825480D01*
X103551107Y-153812868D01*
X103531401Y-153798253D01*
X103513223Y-153781777D01*
X103496747Y-153763599D01*
X103482132Y-153743893D01*
X103469520Y-153722850D01*
X103459030Y-153700671D01*
X103450765Y-153677572D01*
X103444804Y-153653773D01*
X103441204Y-153629505D01*
X103440000Y-153605001D01*
X103440000Y-152954999D01*
X103441204Y-152930495D01*
X103444804Y-152906227D01*
X103450765Y-152882428D01*
X103459030Y-152859329D01*
X103469520Y-152837150D01*
X103482132Y-152816107D01*
X103496747Y-152796401D01*
X103513223Y-152778223D01*
X103531401Y-152761747D01*
X103551107Y-152747132D01*
X103572150Y-152734520D01*
X103594329Y-152724030D01*
X103617428Y-152715765D01*
X103641227Y-152709804D01*
X103665495Y-152706204D01*
X103689999Y-152705000D01*
X104590001Y-152705000D01*
X104614505Y-152706204D01*
G37*
G36*
X87734505Y-157416204D02*
G01*
X87758773Y-157419804D01*
X87782572Y-157425765D01*
X87805671Y-157434030D01*
X87827850Y-157444520D01*
X87848893Y-157457132D01*
X87868599Y-157471747D01*
X87886777Y-157488223D01*
X87903253Y-157506401D01*
X87917868Y-157526107D01*
X87930480Y-157547150D01*
X87940970Y-157569329D01*
X87949235Y-157592428D01*
X87955196Y-157616227D01*
X87958796Y-157640495D01*
X87960000Y-157664999D01*
X87960000Y-158565001D01*
X87958796Y-158589505D01*
X87955196Y-158613773D01*
X87949235Y-158637572D01*
X87940970Y-158660671D01*
X87930480Y-158682850D01*
X87917868Y-158703893D01*
X87903253Y-158723599D01*
X87886777Y-158741777D01*
X87868599Y-158758253D01*
X87848893Y-158772868D01*
X87827850Y-158785480D01*
X87805671Y-158795970D01*
X87782572Y-158804235D01*
X87758773Y-158810196D01*
X87734505Y-158813796D01*
X87710001Y-158815000D01*
X87059999Y-158815000D01*
X87035495Y-158813796D01*
X87011227Y-158810196D01*
X86987428Y-158804235D01*
X86964329Y-158795970D01*
X86942150Y-158785480D01*
X86921107Y-158772868D01*
X86901401Y-158758253D01*
X86883223Y-158741777D01*
X86866747Y-158723599D01*
X86852132Y-158703893D01*
X86839520Y-158682850D01*
X86829030Y-158660671D01*
X86820765Y-158637572D01*
X86814804Y-158613773D01*
X86811204Y-158589505D01*
X86810000Y-158565001D01*
X86810000Y-157664999D01*
X86811204Y-157640495D01*
X86814804Y-157616227D01*
X86820765Y-157592428D01*
X86829030Y-157569329D01*
X86839520Y-157547150D01*
X86852132Y-157526107D01*
X86866747Y-157506401D01*
X86883223Y-157488223D01*
X86901401Y-157471747D01*
X86921107Y-157457132D01*
X86942150Y-157444520D01*
X86964329Y-157434030D01*
X86987428Y-157425765D01*
X87011227Y-157419804D01*
X87035495Y-157416204D01*
X87059999Y-157415000D01*
X87710001Y-157415000D01*
X87734505Y-157416204D01*
G37*
G36*
X85684505Y-157416204D02*
G01*
X85708773Y-157419804D01*
X85732572Y-157425765D01*
X85755671Y-157434030D01*
X85777850Y-157444520D01*
X85798893Y-157457132D01*
X85818599Y-157471747D01*
X85836777Y-157488223D01*
X85853253Y-157506401D01*
X85867868Y-157526107D01*
X85880480Y-157547150D01*
X85890970Y-157569329D01*
X85899235Y-157592428D01*
X85905196Y-157616227D01*
X85908796Y-157640495D01*
X85910000Y-157664999D01*
X85910000Y-158565001D01*
X85908796Y-158589505D01*
X85905196Y-158613773D01*
X85899235Y-158637572D01*
X85890970Y-158660671D01*
X85880480Y-158682850D01*
X85867868Y-158703893D01*
X85853253Y-158723599D01*
X85836777Y-158741777D01*
X85818599Y-158758253D01*
X85798893Y-158772868D01*
X85777850Y-158785480D01*
X85755671Y-158795970D01*
X85732572Y-158804235D01*
X85708773Y-158810196D01*
X85684505Y-158813796D01*
X85660001Y-158815000D01*
X85009999Y-158815000D01*
X84985495Y-158813796D01*
X84961227Y-158810196D01*
X84937428Y-158804235D01*
X84914329Y-158795970D01*
X84892150Y-158785480D01*
X84871107Y-158772868D01*
X84851401Y-158758253D01*
X84833223Y-158741777D01*
X84816747Y-158723599D01*
X84802132Y-158703893D01*
X84789520Y-158682850D01*
X84779030Y-158660671D01*
X84770765Y-158637572D01*
X84764804Y-158613773D01*
X84761204Y-158589505D01*
X84760000Y-158565001D01*
X84760000Y-157664999D01*
X84761204Y-157640495D01*
X84764804Y-157616227D01*
X84770765Y-157592428D01*
X84779030Y-157569329D01*
X84789520Y-157547150D01*
X84802132Y-157526107D01*
X84816747Y-157506401D01*
X84833223Y-157488223D01*
X84851401Y-157471747D01*
X84871107Y-157457132D01*
X84892150Y-157444520D01*
X84914329Y-157434030D01*
X84937428Y-157425765D01*
X84961227Y-157419804D01*
X84985495Y-157416204D01*
X85009999Y-157415000D01*
X85660001Y-157415000D01*
X85684505Y-157416204D01*
G37*
D10*
X194936000Y-117893000D03*
X194936000Y-119343000D03*
X190636000Y-119343000D03*
D11*
X190636000Y-117893000D03*
D13*
X64655900Y-50355500D03*
X61505900Y-50355500D03*
X61798000Y-69405500D03*
X64948000Y-69405500D03*
X65024200Y-88226900D03*
X61874200Y-88226900D03*
X61620200Y-107327700D03*
X64770200Y-107327700D03*
X61950400Y-126492000D03*
X65100400Y-126492000D03*
X64960700Y-145529300D03*
X61810700Y-145529300D03*
D10*
X69510800Y-60616000D03*
X69510800Y-62066000D03*
X65210800Y-62066000D03*
D11*
X65210800Y-60616000D03*
X65210800Y-79729500D03*
D10*
X65210800Y-81179500D03*
X69510800Y-81179500D03*
X69510800Y-79729500D03*
X69510800Y-98804900D03*
X69510800Y-100254900D03*
X65210800Y-100254900D03*
D11*
X65210800Y-98804900D03*
X65236200Y-117893000D03*
D10*
X65236200Y-119343000D03*
X69536200Y-119343000D03*
X69536200Y-117893000D03*
D11*
X65223500Y-136955700D03*
D10*
X65223500Y-138405700D03*
X69523500Y-138405700D03*
X69523500Y-136955700D03*
X69523500Y-155967600D03*
X69523500Y-157417600D03*
X65223500Y-157417600D03*
D11*
X65223500Y-155967600D03*
M02*
