M48
; DRILL file {KiCad 5.1.5} date Mon 06 Apr 2020 04:21:34 PM PDT
; FORMAT={-:-/ absolute / inch / decimal}
; #@! TF.CreationDate,2020-04-06T16:21:34-07:00
; #@! TF.GenerationSoftware,Kicad,Pcbnew,5.1.5
; #@! TF.FileFunction,Plated,1,2,PTH
FMAT,2
INCH
T1C0.0157
T2C0.0276
T3C0.0394
T4C0.0591
T5C0.0984
%
G90
G05
T1
X2.25Y-2.65
X2.375Y-2.925
X2.4Y-3.075
X2.4821Y-4.925
X2.5Y-3.275
X2.5Y-4.7
X2.5Y-5.45
X2.5205Y-3.139
X2.5465Y-4.8472
X2.575Y-4.875
X2.575Y-5.525
X2.575Y-6.275
X2.5922Y-3.9965
X2.65Y-5.55
X2.75Y-2.15
X2.75Y-2.525
X2.775Y-5.625
X2.8Y-5.4
X2.8Y-5.45
X2.825Y-2.35
X2.825Y-4.725
X2.85Y-3.075
X2.85Y-3.175
X2.875Y-3.9679
X2.875Y-5.45
X2.8769Y-6.2381
X2.9037Y-3.7767
X2.9135Y-6.195
X2.9215Y-5.625
X2.9215Y-5.6715
X2.925Y-3.9965
X2.95Y-3.45
X2.95Y-4.875
X2.95Y-5.7
X2.975Y-3.4
X2.975Y-4.025
X2.975Y-4.675
X3.0Y-2.6785
X3.0Y-4.775
X3.0Y-4.925
X3.0Y-5.15
X3.0215Y-5.4
X3.0233Y-5.7017
X3.025Y-5.6535
X3.05Y-5.15
X3.05Y-5.5965
X3.05Y-6.275
X3.075Y-4.825
X3.1Y-2.625
X3.1Y-4.975
X3.1191Y-5.4059
X3.125Y-1.8741
X3.125Y-2.1215
X3.125Y-2.1785
X3.125Y-5.075
X3.125Y-5.5965
X3.1493Y-4.0207
X3.15Y-2.65
X3.15Y-4.675
X3.1559Y-4.0595
X3.1602Y-6.4811
X3.1708Y-3.5035
X3.175Y-5.15
X3.175Y-5.3
X3.175Y-5.625
X3.175Y-6.125
X3.1965Y-4.7035
X3.2077Y-2.5577
X3.225Y-2.4285
X3.225Y-3.025
X3.225Y-3.0863
X3.225Y-3.625
X3.225Y-3.9965
X3.225Y-4.6465
X3.225Y-6.225
X3.25Y-5.35
X3.2535Y-3.5712
X3.2595Y-5.7345
X3.2679Y-6.15
X3.2715Y-3.675
X3.2715Y-4.4535
X3.275Y-5.6
X3.275Y-6.3
X3.2965Y-5.7
X3.3Y-4.5965
X3.3Y-5.4535
X3.3191Y-5.6059
X3.325Y-5.225
X3.3285Y-5.3715
X3.3439Y-6.1488
X3.35Y-2.3
X3.35Y-4.0535
X3.35Y-6.2868
X3.3535Y-5.7
X3.3535Y-5.925
X3.3535Y-6.0319
X3.3535Y-6.0713
X3.3537Y-6.1107
X3.375Y-4.6465
X3.375Y-4.925
X3.375Y-5.2124
X3.375Y-5.6215
X3.375Y-6.1774
X3.3792Y-5.8951
X3.3809Y-5.3059
X3.391Y-6.0142
X3.3928Y-2.1572
X3.3965Y-5.25
X3.4Y-5.3715
X3.4Y-5.525
X3.4Y-5.525
X3.4Y-5.725
X3.4049Y-5.5958
X3.4179Y-5.4535
X3.4191Y-4.8309
X3.425Y-3.25
X3.425Y-3.575
X3.425Y-3.675
X3.425Y-4.425
X3.425Y-5.3
X3.4465Y-2.925
X3.4465Y-2.975
X3.4465Y-3.15
X3.4465Y-4.025
X3.45Y-5.6
X3.45Y-5.725
X3.5Y-5.6
X3.5035Y-2.95
X3.525Y-1.95
X3.525Y-2.5285
X3.525Y-2.9
X3.525Y-3.0
X3.525Y-3.575
X3.525Y-6.2
X3.5285Y-4.9
X3.5285Y-5.475
X3.5332Y-2.2168
X3.5423Y-5.5173
X3.5535Y-2.8
X3.5535Y-5.75
X3.5606Y-4.875
X3.5722Y-5.4778
X3.575Y-1.7929
X3.575Y-1.8741
X3.575Y-1.95
X3.575Y-2.5285
X3.575Y-3.775
X3.575Y-5.375
X3.575Y-5.85
X3.575Y-6.4215
X3.6Y-4.875
X3.6Y-5.025
X3.6Y-5.45
X3.6Y-5.575
X3.6082Y-2.2918
X3.6142Y-5.7028
X3.625Y-1.95
X3.625Y-2.4
X3.6285Y-5.0528
X3.6431Y-6.2534
X3.6448Y-4.0908
X3.65Y-3.775
X3.65Y-5.675
X3.6642Y-4.125
X3.675Y-2.685
X3.675Y-3.1
X3.6965Y-5.5535
X3.725Y-3.85
X3.725Y-4.1
X3.725Y-5.525
X3.7434Y-2.6566
X3.7465Y-2.875
X3.7472Y-6.2431
X3.75Y-2.4
X3.75Y-4.15
X3.75Y-5.075
X3.7603Y-5.7636
X3.7708Y-5.6867
X3.775Y-2.325
X3.775Y-2.45
X3.78Y-5.725
X3.8215Y-5.674
X3.8421Y-2.7075
X3.845Y-3.0
X3.8516Y-5.6487
X3.8715Y-4.925
X3.875Y-2.9
X3.875Y-4.025
X3.875Y-5.3
X3.875Y-5.375
X3.8777Y-5.5944
X3.895Y-3.075
X3.9Y-2.375
X3.9Y-2.675
X3.9Y-5.2124
X3.9Y-5.5285
X3.925Y-2.7785
X3.9459Y-4.2291
X3.95Y-2.625
X3.975Y-2.75
X3.975Y-4.275
X3.975Y-5.225
X3.975Y-5.275
X3.975Y-5.9785
X3.975Y-6.136
X3.9965Y-4.5135
X3.9965Y-5.3465
X3.9965Y-5.425
X3.9965Y-5.65
X3.9965Y-5.6894
X3.999Y-5.8755
X4.0Y-3.9965
X4.0Y-4.0535
X4.0201Y-5.9588
X4.0245Y-6.001
X4.025Y-2.675
X4.025Y-4.225
X4.0321Y-4.275
X4.048Y-5.927
X4.0535Y-5.8
X4.0535Y-5.8
X4.0535Y-5.85
X4.0593Y-2.7463
X4.07Y-4.185
X4.0892Y-5.625
X4.1Y-4.325
X4.1Y-4.375
X4.1Y-5.7
X4.1Y-5.75
X4.1069Y-5.3465
X4.1069Y-5.575
X4.125Y-4.5
X4.125Y-5.65
X4.1285Y-4.195
X4.14Y-4.59
X4.1465Y-5.9465
X4.1548Y-4.2798
X4.1637Y-6.1245
X4.165Y-4.5
X4.1693Y-5.55
X4.1705Y-6.0035
X4.175Y-6.275
X4.1802Y-5.2148
X4.2Y-5.375
X4.2035Y-5.925
X4.2035Y-6.025
X4.2035Y-6.125
X4.2441Y-2.4191
X4.25Y-3.3
X4.25Y-5.45
X4.25Y-5.7965
X4.25Y-5.9465
X4.25Y-6.25
X4.2512Y-5.2412
X4.2809Y-3.9559
X4.2816Y-3.8745
X4.2872Y-5.9878
X4.3Y-2.55
X4.3Y-4.3785
X4.3071Y-5.925
X4.3215Y-3.875
X4.3215Y-4.1965
X4.325Y-4.275
X4.3356Y-5.8535
X4.3465Y-4.35
X4.35Y-6.4821
X4.3602Y-5.4552
X4.375Y-5.275
X4.375Y-6.025
X4.3785Y-3.875
X4.38Y-5.8535
X4.4028Y-5.3028
X4.4035Y-3.1001
X4.4077Y-5.4077
X4.4095Y-5.2191
X4.4268Y-2.9982
X4.4321Y-3.725
X4.435Y-5.4465
X4.4423Y-5.3327
X4.4577Y-5.2673
X4.4768Y-3.0482
X4.5Y-4.4
X4.525Y-5.15
X4.53Y-5.955
X4.5437Y-5.3459
X4.55Y-3.9
X4.55Y-4.325
X4.57Y-5.79
X4.575Y-5.5
X4.575Y-6.4821
X4.5827Y-5.2827
X4.6Y-3.975
X4.6Y-5.1
X4.625Y-5.275
X4.6268Y-3.1982
X4.6521Y-5.525
X4.7Y-2.5715
X4.7Y-4.075
X4.725Y-5.05
X4.725Y-5.325
X4.75Y-4.65
X4.775Y-4.275
X4.775Y-5.05
X4.775Y-5.825
X4.7785Y-3.125
X4.8Y-4.0637
X4.8Y-4.8715
X4.8Y-5.425
X4.8Y-6.225
X4.8178Y-2.0428
X4.825Y-2.375
X4.825Y-6.1157
X4.875Y-2.5
X4.875Y-3.075
X4.9Y-5.825
X4.925Y-2.0791
X4.925Y-5.875
X4.9465Y-4.3
X4.975Y-4.1215
X5.0Y-2.075
X5.0Y-4.375
X5.0Y-4.95
X5.025Y-4.2
X5.025Y-5.1535
X5.05Y-5.875
X5.075Y-4.825
X5.0798Y-5.9548
X5.1Y-2.3
X5.1Y-2.55
X5.1Y-3.975
X5.125Y-2.65
X5.125Y-3.15
X5.125Y-4.625
X5.125Y-4.7
X5.125Y-5.675
X5.1465Y-4.025
X5.15Y-3.4
X5.15Y-5.4
X5.175Y-2.425
X5.175Y-4.15
X5.175Y-4.85
X5.175Y-4.9
X5.175Y-5.05
X5.1975Y-4.959
X5.2Y-3.075
X5.2Y-3.3
X5.2077Y-5.4173
X5.2215Y-4.075
X5.2215Y-5.6
X5.225Y-3.45
X5.2283Y-4.1783
X5.2283Y-5.6783
X5.2423Y-3.5077
X5.2465Y-4.7
X5.25Y-4.925
X5.25Y-6.15
X5.2617Y-2.5152
X5.2649Y-3.4495
X5.2667Y-3.1
X5.2673Y-4.2577
X5.2715Y-2.4
X5.275Y-2.825
X5.2785Y-4.0037
X5.2785Y-4.075
X5.2785Y-5.6
X5.2923Y-5.0577
X5.3Y-3.3
X5.3Y-4.95
X5.3071Y-3.9722
X5.3285Y-2.375
X5.3285Y-4.775
X5.3941Y-5.1058
X5.45Y-5.8465
X5.5Y-5.475
X5.55Y-2.4
X5.55Y-5.325
X5.575Y-6.475
X5.6306Y-5.9444
X5.65Y-3.45
X5.65Y-4.725
X5.65Y-6.075
X5.6715Y-3.925
X5.6715Y-3.975
X5.675Y-2.775
X5.675Y-3.35
X5.7Y-2.6215
X5.7Y-6.3
X5.7285Y-3.85
X5.7285Y-3.9356
X5.7285Y-3.975
X5.825Y-5.325
X5.85Y-5.3902
X5.8715Y-4.7179
X5.875Y-2.4
X5.8965Y-6.275
X5.9Y-4.8215
X5.925Y-2.6
X5.925Y-5.05
X5.925Y-5.325
X5.95Y-4.7
X5.95Y-5.45
X5.95Y-6.05
X5.975Y-3.05
X6.05Y-3.625
X6.075Y-2.05
X6.1Y-4.1215
X6.125Y-4.85
X6.125Y-4.9
X6.225Y-4.575
X6.25Y-2.525
X6.25Y-2.65
X6.25Y-3.95
X6.25Y-5.1785
X6.25Y-5.6
X6.25Y-6.225
X6.25Y-6.3
X6.25Y-6.3965
X6.2715Y-5.45
X6.275Y-2.6
X6.275Y-4.1
X6.275Y-4.575
X6.275Y-4.775
X6.2919Y-4.0
X6.3Y-3.225
X6.3Y-3.35
X6.3Y-3.4
X6.3Y-4.15
X6.3Y-5.575
X6.3Y-5.65
X6.3096Y-3.075
X6.3215Y-2.35
X6.3215Y-2.45
X6.325Y-4.225
X6.325Y-4.775
X6.35Y-5.7
X6.3645Y-5.575
X6.3667Y-3.396
X6.375Y-2.7
X6.375Y-3.35
X6.375Y-4.15
X6.375Y-4.2
X6.375Y-4.975
X6.375Y-5.625
X6.375Y-6.4535
X6.3769Y-2.6507
X6.3775Y-3.4338
X6.3785Y-2.35
X6.3785Y-5.9
X6.3844Y-3.4759
X6.4Y-2.6
X6.4Y-4.0929
X6.4Y-4.9
X6.4Y-5.5
X6.4Y-6.3035
X6.4Y-6.35
X6.4Y-6.3965
X6.4035Y-3.075
X6.4071Y-2.45
X6.4071Y-2.525
X6.4215Y-4.0
X6.425Y-2.725
X6.425Y-3.35
X6.425Y-3.675
X6.4278Y-4.8715
X6.4285Y-4.7465
X6.4285Y-4.825
X6.4285Y-5.2
X6.4317Y-5.6535
X6.4394Y-5.5
X6.449Y-5.4429
X6.45Y-2.6
X6.45Y-3.3
X6.45Y-4.05
X6.45Y-5.025
X6.475Y-5.5965
X6.4922Y-3.3
X6.5Y-2.35
X6.675Y-5.4715
X6.7Y-2.35
X6.7Y-3.05
X6.7Y-5.375
X6.725Y-3.8
X6.725Y-4.6
X6.725Y-4.7785
X6.725Y-5.075
X6.725Y-5.825
X6.7736Y-5.9233
X6.775Y-4.025
X6.7841Y-2.5
X6.8Y-5.85
X6.825Y-4.1
X6.825Y-5.1
X6.85Y-4.175
X6.875Y-4.4035
X6.95Y-1.975
X6.9722Y-4.7215
X6.9722Y-4.7785
X6.975Y-3.175
X6.975Y-3.925
X6.975Y-4.9
X6.975Y-5.175
X6.975Y-5.9
X6.9948Y-3.3948
X6.9948Y-4.1448
X7.0Y-2.45
X7.0Y-2.675
X7.0Y-4.75
X7.0Y-4.975
X7.0Y-6.2
X7.0197Y-4.816
X7.0239Y-5.1761
X7.0395Y-4.85
X7.05Y-2.325
X7.05Y-2.5
X7.05Y-2.6
X7.05Y-5.5
X7.0574Y-2.55
X7.0587Y-5.5859
X7.059Y-5.109
X7.0601Y-4.9101
X7.0715Y-3.075
X7.0715Y-3.8
X7.0715Y-3.975
X7.075Y-3.4
X7.075Y-4.15
X7.075Y-5.55
X7.075Y-5.625
X7.1145Y-2.325
X7.1145Y-2.6055
X7.125Y-2.2
X7.125Y-3.45
X7.125Y-4.1535
X7.125Y-4.85
X7.125Y-4.9285
X7.125Y-6.25
X7.1285Y-3.075
X7.1285Y-3.325
X7.1285Y-3.85
X7.1285Y-3.95
X7.1285Y-4.05
X7.143Y-2.55
X7.15Y-2.5
X7.15Y-2.65
X7.1528Y-4.8215
X7.1624Y-5.35
X7.1624Y-5.5
X7.175Y-3.325
X7.175Y-3.45
X7.175Y-5.45
X7.1783Y-4.1745
X7.1785Y-4.775
X7.2Y-4.725
X7.2Y-6.225
X7.2Y-6.275
X7.2Y-6.4535
X7.2327Y-3.8327
X7.2394Y-4.725
X7.25Y-4.65
X7.25Y-5.55
X7.25Y-5.6106
X7.25Y-5.65
X7.275Y-4.7821
X7.2828Y-3.7422
X7.35Y-3.55
X7.375Y-3.2
X7.425Y-3.3
X7.425Y-3.3722
X7.4465Y-4.6715
X7.45Y-2.325
X7.45Y-4.1535
X7.462Y-3.9214
X7.475Y-4.6
X7.5Y-5.075
X7.5Y-6.125
X7.5446Y-5.8196
X7.55Y-1.7929
X7.55Y-4.3465
X7.6Y-4.0679
X7.6Y-4.175
X7.6Y-4.175
X7.6Y-4.8215
X7.6082Y-5.8368
X7.625Y-3.45
X7.625Y-4.95
X7.675Y-1.9285
X7.675Y-6.075
X7.725Y-4.7
X7.725Y-5.4
X7.75Y-3.925
X7.775Y-2.65
X7.775Y-4.725
X7.775Y-4.9
X7.7841Y-4.814
X7.7952Y-3.3176
X7.8Y-3.675
X7.8Y-3.85
X7.8Y-4.125
X7.8Y-4.775
X7.8Y-4.85
X7.8Y-5.15
X7.8Y-5.8
X7.8196Y-3.385
X7.825Y-2.125
X7.825Y-2.35
X7.825Y-2.45
X7.825Y-2.5
X7.825Y-2.55
X7.825Y-3.075
X7.8256Y-3.3461
X7.8667Y-4.85
X7.875Y-4.2
X7.875Y-4.725
X7.875Y-4.775
X7.875Y-4.9
X7.875Y-5.5
X7.875Y-5.6215
X7.8785Y-4.125
X7.9Y-2.35
X7.9Y-3.35
X7.9Y-3.4
X7.9Y-3.4394
X7.9Y-5.8
X7.9028Y-4.9285
X7.9035Y-3.4792
X7.9035Y-4.05
X7.9035Y-4.2278
X7.9128Y-2.45
X7.9128Y-2.5537
X7.9128Y-3.1
X7.9128Y-3.3105
X7.9149Y-4.7245
X7.925Y-4.8215
X7.9285Y-3.85
X7.9305Y-2.5
X7.9321Y-4.65
X7.9356Y-4.0799
X7.9413Y-3.2733
X7.95Y-4.7
X7.975Y-3.25
X7.975Y-3.975
X7.975Y-4.025
X8.0Y-2.65
X8.0Y-4.6785
X8.025Y-5.65
X8.0361Y-5.55
X8.15Y-5.55
X8.15Y-5.65
X8.175Y-4.6285
X8.1995Y-3.2899
X8.2Y-3.25
X8.2Y-3.875
X8.2Y-5.475
X8.225Y-2.35
X8.2285Y-5.5215
X8.25Y-4.575
X8.25Y-6.0
X8.3Y-3.275
X8.325Y-1.8715
X8.325Y-4.1474
X8.325Y-5.8785
X8.3465Y-1.9285
X8.35Y-4.8215
X8.3746Y-6.1254
X8.375Y-1.85
X8.375Y-2.075
X8.375Y-3.45
X8.375Y-4.2045
X8.375Y-4.95
X8.3958Y-2.5251
X8.45Y-2.6106
X8.45Y-2.65
X8.45Y-3.325
X8.45Y-4.9
X8.45Y-5.85
X8.45Y-6.125
X8.475Y-2.575
X8.475Y-3.4
X8.475Y-3.925
X8.475Y-5.45
X8.4851Y-4.8255
X8.5Y-4.2
X8.5Y-4.725
X8.525Y-4.825
X8.525Y-5.9285
X8.55Y-2.65
X8.55Y-4.9
X8.5549Y-5.9542
X8.575Y-3.15
X8.575Y-3.4
X8.575Y-3.6785
X8.575Y-3.9
X8.575Y-4.75
X8.575Y-5.5
X8.575Y-6.15
X8.575Y-6.225
X8.5827Y-2.6077
X8.5965Y-4.025
X8.5965Y-5.5722
X8.6Y-2.15
X8.6Y-5.6785
X8.6Y-5.85
X8.6Y-5.95
X8.6077Y-4.8327
X8.625Y-4.175
X8.625Y-5.0
X8.625Y-5.6
X8.625Y-6.15
X8.625Y-6.2535
X8.6309Y-2.5595
X8.6394Y-4.2298
X8.65Y-3.425
X8.65Y-3.5
X8.6528Y-4.1472
X8.6535Y-2.525
X8.6535Y-3.182
X8.6733Y-5.7267
X8.675Y-5.0
X8.675Y-5.575
X8.6785Y-3.875
X8.6821Y-3.275
X8.6837Y-4.275
X8.6837Y-4.8715
X8.7Y-4.125
X8.7071Y-3.975
X8.7071Y-4.025
X8.7123Y-4.8401
X8.75Y-4.6356
X8.75Y-4.675
X8.8Y-3.675
X8.8Y-4.6677
X8.8Y-5.5965
X8.825Y-3.7
X8.875Y-5.45
X8.925Y-5.5
X9.125Y-1.95
X9.125Y-3.525
X9.175Y-1.875
X9.25Y-3.9
X9.275Y-3.25
X9.275Y-4.15
X9.3Y-4.625
X9.325Y-3.1
X9.375Y-4.625
X9.4463Y-3.1
X9.45Y-4.15
T2
X8.7486Y-5.7203
X9.0557Y-5.7203
X6.4986Y-3.4703
X6.8057Y-3.4703
X5.7486Y-4.9703
X6.0557Y-4.9703
X6.4986Y-4.9703
X6.8057Y-4.9703
X4.6236Y-4.9703
X4.9307Y-4.9703
X7.6236Y-5.7203
X7.9307Y-5.7203
X2.33Y-1.9825
X2.637Y-1.9825
X5.7486Y-3.4703
X6.0557Y-3.4703
X7.2486Y-3.4703
X7.5557Y-3.4703
X4.6236Y-3.4703
X4.9307Y-3.4703
X4.6236Y-1.9703
X4.9307Y-1.9703
X7.9986Y-3.4703
X8.3057Y-3.4703
X7.9986Y-1.9703
X8.3057Y-1.9703
X2.3475Y-4.98
X2.6545Y-4.98
X8.7486Y-1.9703
X9.0557Y-1.9703
X8.7486Y-3.4703
X9.0557Y-3.4703
X7.9986Y-2.7203
X8.3057Y-2.7203
X2.3345Y-4.2255
X2.6415Y-4.2255
X2.342Y-5.7295
X2.649Y-5.7295
X5.7486Y-1.9703
X6.0557Y-1.9703
X7.2486Y-2.7203
X7.5557Y-2.7203
X6.4986Y-5.7203
X6.8057Y-5.7203
X5.7486Y-2.7203
X6.0557Y-2.7203
X7.2486Y-1.9703
X7.5557Y-1.9703
X2.3445Y-3.4735
X2.6515Y-3.4735
X7.2486Y-4.9703
X7.5557Y-4.9703
X8.7486Y-2.7203
X9.0557Y-2.7203
X6.4986Y-4.2203
X6.8057Y-4.2203
X7.9986Y-4.9703
X8.3057Y-4.9703
X4.6236Y-5.7203
X4.9307Y-5.7203
X2.3415Y-2.7325
X2.6485Y-2.7325
X4.6236Y-4.2203
X4.9307Y-4.2203
X7.9986Y-4.2203
X8.3057Y-4.2203
X5.7486Y-4.2203
X6.0557Y-4.2203
X6.4986Y-1.9703
X6.8057Y-1.9703
X8.7486Y-4.2203
X9.0557Y-4.2203
X8.7486Y-4.9703
X9.0557Y-4.9703
X6.4986Y-2.7203
X6.8057Y-2.7203
X5.7486Y-5.7203
X6.0557Y-5.7203
X4.6236Y-2.7203
X4.9307Y-2.7203
X7.2486Y-4.2203
X7.5557Y-4.2203
T3
X3.3459Y-2.5577
X3.3459Y-2.6578
X3.3459Y-2.7578
X3.3459Y-2.8577
X3.3459Y-2.9577
X3.3459Y-3.0577
X3.3459Y-3.1578
X3.3459Y-3.2578
X3.3459Y-3.3577
X3.3459Y-3.4577
X3.3459Y-3.5577
X3.3459Y-3.6578
X4.1459Y-2.1578
X4.1459Y-2.2578
X4.1459Y-2.3577
X4.1459Y-2.4577
X4.1459Y-2.5577
X4.1459Y-2.6578
X4.1459Y-2.7578
X4.1459Y-2.8577
X4.1459Y-2.9577
X4.1459Y-3.0577
X4.1459Y-3.1578
X4.1459Y-3.2578
X4.1459Y-3.3577
X4.1459Y-3.4577
X4.1459Y-3.5577
X4.1459Y-3.6578
T4
X4.8147Y-3.6515
X5.0647Y-3.5515
X2.503Y-5.155
X2.753Y-5.055
X5.9396Y-3.6515
X6.1896Y-3.5515
X8.9397Y-4.4015
X9.1897Y-4.3015
X8.9397Y-3.6515
X9.1897Y-3.5515
X5.9396Y-5.1515
X6.1896Y-5.0515
X7.4396Y-3.6515
X7.6896Y-3.5515
X7.4396Y-5.1515
X7.6896Y-5.0515
X6.6896Y-5.1515
X6.9396Y-5.0515
X8.9397Y-2.9015
X9.1897Y-2.8015
X4.8147Y-4.4015
X5.0647Y-4.3015
X8.9397Y-5.9015
X9.1897Y-5.8015
X7.4396Y-2.1515
X7.6896Y-2.0515
X7.8146Y-5.9015
X8.0647Y-5.8015
X2.503Y-5.905
X2.753Y-5.805
X8.1897Y-2.9015
X8.4397Y-2.8015
X5.9396Y-5.9015
X6.1896Y-5.8015
X2.502Y-2.902
X2.752Y-2.802
X2.502Y-4.404
X2.752Y-4.304
X6.6896Y-3.6515
X6.9396Y-3.5515
X4.8147Y-2.1515
X5.0647Y-2.0515
X7.4396Y-2.9015
X7.6896Y-2.8015
X5.9396Y-4.4015
X6.1896Y-4.3015
X2.5022Y-2.1515
X2.7522Y-2.0515
X6.6896Y-4.4015
X6.9396Y-4.3015
X4.8147Y-2.9015
X5.0647Y-2.8015
X4.8147Y-5.1515
X5.0647Y-5.0515
X5.9396Y-2.1515
X6.1896Y-2.0515
X5.9396Y-2.9015
X6.1896Y-2.8015
X7.4396Y-4.4015
X7.6896Y-4.3015
X6.6896Y-5.9015
X6.9396Y-5.8015
X2.502Y-3.6525
X2.752Y-3.5525
X8.1897Y-2.1515
X8.4397Y-2.0515
X6.6896Y-2.9015
X6.9396Y-2.8015
X8.1897Y-3.6515
X8.4397Y-3.5515
X6.6896Y-2.1515
X6.9396Y-2.0515
X8.9397Y-5.1515
X9.1897Y-5.0515
X8.9397Y-2.1515
X9.1897Y-2.0515
X8.1897Y-4.4015
X8.4397Y-4.3015
X8.1897Y-5.1515
X8.4397Y-5.0515
X4.8147Y-5.9015
X5.0647Y-5.8015
T5
X3.3959Y-2.0078
X3.3959Y-3.8077
X4.0959Y-2.0078
X4.0959Y-3.8077
T0
M30
