  0
SECTION
  2
HEADER
  9
$ACADVER
  1
AC1009
  9
$EXTMIN
 10
0.0
 20
0.0
 30
0.0
  9
$EXTMAX
 10
1000.0
 20
1000.0
 30
0.0
  9
$FILLMODE
 70
 0
  9
$SPLFRAME
 70
 1
  0
ENDSEC
  0
SECTION
  2
TABLES
  0
TABLE
  2
LAYER
 70
1
  0
LAYER
  2
0
 70
     0
 62
     7
  6
CONTINUOUS
  0
ENDTAB
  0
ENDSEC
  0
SECTION
  2
ENTITIES
  0
LINE
  8
0
 62
     0
 10
218.421
 20
150.541
 30
0.0
 11
218.813
 21
150.526
 31
0.0
  0
LINE
  8
0
 62
     0
 10
218.813
 20
150.526
 30
0.0
 11
219.203
 21
150.479
 31
0.0
  0
LINE
  8
0
 62
     0
 10
219.203
 20
150.479
 30
0.0
 11
219.588
 21
150.403
 31
0.0
  0
LINE
  8
0
 62
     0
 10
219.588
 20
150.403
 30
0.0
 11
219.965
 21
150.297
 31
0.0
  0
LINE
  8
0
 62
     0
 10
219.965
 20
150.297
 30
0.0
 11
220.333
 21
150.161
 31
0.0
  0
LINE
  8
0
 62
     0
 10
220.333
 20
150.161
 30
0.0
 11
220.69
 21
149.997
 31
0.0
  0
LINE
  8
0
 62
     0
 10
220.69
 20
149.997
 30
0.0
 11
221.032
 21
149.805
 31
0.0
  0
LINE
  8
0
 62
     0
 10
221.032
 20
149.805
 30
0.0
 11
221.36
 21
149.586
 31
0.0
  0
LINE
  8
0
 62
     0
 10
221.36
 20
149.586
 30
0.0
 11
221.667
 21
149.344
 31
0.0
  0
LINE
  8
0
 62
     0
 10
221.667
 20
149.344
 30
0.0
 11
221.955
 21
149.076
 31
0.0
  0
LINE
  8
0
 62
     0
 10
221.955
 20
149.076
 30
0.0
 11
222.222
 21
148.788
 31
0.0
  0
LINE
  8
0
 62
     0
 10
222.222
 20
148.788
 30
0.0
 11
222.465
 21
148.48
 31
0.0
  0
LINE
  8
0
 62
     0
 10
222.465
 20
148.48
 30
0.0
 11
222.684
 21
148.154
 31
0.0
  0
LINE
  8
0
 62
     0
 10
222.684
 20
148.154
 30
0.0
 11
222.875
 21
147.811
 31
0.0
  0
LINE
  8
0
 62
     0
 10
222.875
 20
147.811
 30
0.0
 11
223.04
 21
147.454
 31
0.0
  0
LINE
  8
0
 62
     0
 10
223.04
 20
147.454
 30
0.0
 11
223.176
 21
147.086
 31
0.0
  0
LINE
  8
0
 62
     0
 10
223.176
 20
147.086
 30
0.0
 11
223.282
 21
146.709
 31
0.0
  0
LINE
  8
0
 62
     0
 10
223.282
 20
146.709
 30
0.0
 11
223.358
 21
146.324
 31
0.0
  0
LINE
  8
0
 62
     0
 10
223.358
 20
146.324
 30
0.0
 11
223.405
 21
145.934
 31
0.0
  0
LINE
  8
0
 62
     0
 10
223.405
 20
145.934
 30
0.0
 11
223.42
 21
145.54
 31
0.0
  0
LINE
  8
0
 62
     0
 10
223.42
 20
145.54
 30
0.0
 11
223.42
 21
5.23931
 31
0.0
  0
LINE
  8
0
 62
     0
 10
223.42
 20
5.23931
 30
0.0
 11
223.405
 21
4.84794
 31
0.0
  0
LINE
  8
0
 62
     0
 10
223.405
 20
4.84794
 30
0.0
 11
223.358
 21
4.45795
 31
0.0
  0
LINE
  8
0
 62
     0
 10
223.358
 20
4.45795
 30
0.0
 11
223.282
 21
4.07211
 31
0.0
  0
LINE
  8
0
 62
     0
 10
223.282
 20
4.07211
 30
0.0
 11
223.176
 21
3.69454
 31
0.0
  0
LINE
  8
0
 62
     0
 10
223.176
 20
3.69454
 30
0.0
 11
223.04
 21
3.32659
 31
0.0
  0
LINE
  8
0
 62
     0
 10
223.04
 20
3.32659
 30
0.0
 11
222.875
 21
2.97105
 31
0.0
  0
LINE
  8
0
 62
     0
 10
222.875
 20
2.97105
 30
0.0
 11
222.684
 21
2.62792
 31
0.0
  0
LINE
  8
0
 62
     0
 10
222.684
 20
2.62792
 30
0.0
 11
222.465
 21
2.30132
 31
0.0
  0
LINE
  8
0
 62
     0
 10
222.465
 20
2.30132
 30
0.0
 11
222.222
 21
1.99264
 31
0.0
  0
LINE
  8
0
 62
     0
 10
222.222
 20
1.99264
 30
0.0
 11
221.955
 21
1.70463
 31
0.0
  0
LINE
  8
0
 62
     0
 10
221.955
 20
1.70463
 30
0.0
 11
221.667
 21
1.43729
 31
0.0
  0
LINE
  8
0
 62
     0
 10
221.667
 20
1.43729
 30
0.0
 11
221.36
 21
1.19476
 31
0.0
  0
LINE
  8
0
 62
     0
 10
221.36
 20
1.19476
 30
0.0
 11
221.032
 21
0.977029
 31
0.0
  0
LINE
  8
0
 62
     0
 10
221.032
 20
0.977029
 30
0.0
 11
220.69
 21
0.784105
 31
0.0
  0
LINE
  8
0
 62
     0
 10
220.69
 20
0.784105
 30
0.0
 11
220.333
 21
0.620116
 31
0.0
  0
LINE
  8
0
 62
     0
 10
220.333
 20
0.620116
 30
0.0
 11
219.965
 21
0.485069
 31
0.0
  0
LINE
  8
0
 62
     0
 10
219.965
 20
0.485069
 30
0.0
 11
219.588
 21
0.378961
 31
0.0
  0
LINE
  8
0
 62
     0
 10
219.588
 20
0.378961
 30
0.0
 11
219.203
 21
0.30179
 31
0.0
  0
LINE
  8
0
 62
     0
 10
219.203
 20
0.30179
 30
0.0
 11
218.813
 21
0.254937
 31
0.0
  0
LINE
  8
0
 62
     0
 10
218.813
 20
0.254937
 30
0.0
 11
218.421
 21
0.239779
 31
0.0
  0
LINE
  8
0
 62
     0
 10
218.421
 20
0.239779
 30
0.0
 11
5.09598
 21
0.239779
 31
0.0
  0
LINE
  8
0
 62
     0
 10
5.09598
 20
0.239779
 30
0.0
 11
4.70186
 21
0.254937
 31
0.0
  0
LINE
  8
0
 62
     0
 10
4.70186
 20
0.254937
 30
0.0
 11
4.3119
 21
0.30179
 31
0.0
  0
LINE
  8
0
 62
     0
 10
4.3119
 20
0.30179
 30
0.0
 11
3.9274
 21
0.378961
 31
0.0
  0
LINE
  8
0
 62
     0
 10
3.9274
 20
0.378961
 30
0.0
 11
3.54983
 21
0.485069
 31
0.0
  0
LINE
  8
0
 62
     0
 10
3.54983
 20
0.485069
 30
0.0
 11
3.18189
 21
0.620116
 31
0.0
  0
LINE
  8
0
 62
     0
 10
3.18189
 20
0.620116
 30
0.0
 11
2.82498
 21
0.784105
 31
0.0
  0
LINE
  8
0
 62
     0
 10
2.82498
 20
0.784105
 30
0.0
 11
2.48185
 21
0.977029
 31
0.0
  0
LINE
  8
0
 62
     0
 10
2.48185
 20
0.977029
 30
0.0
 11
2.15663
 21
1.19476
 31
0.0
  0
LINE
  8
0
 62
     0
 10
2.15663
 20
1.19476
 30
0.0
 11
1.84795
 21
1.43729
 31
0.0
  0
LINE
  8
0
 62
     0
 10
1.84795
 20
1.43729
 30
0.0
 11
1.55994
 21
1.70463
 31
0.0
  0
LINE
  8
0
 62
     0
 10
1.55994
 20
1.70463
 30
0.0
 11
1.2926
 21
1.99264
 31
0.0
  0
LINE
  8
0
 62
     0
 10
1.2926
 20
1.99264
 30
0.0
 11
1.05006
 21
2.30132
 31
0.0
  0
LINE
  8
0
 62
     0
 10
1.05006
 20
2.30132
 30
0.0
 11
0.830957
 21
2.62792
 31
0.0
  0
LINE
  8
0
 62
     0
 10
0.830957
 20
2.62792
 30
0.0
 11
0.63941
 21
2.97105
 31
0.0
  0
LINE
  8
0
 62
     0
 10
0.63941
 20
2.97105
 30
0.0
 11
0.475424
 21
3.32659
 31
0.0
  0
LINE
  8
0
 62
     0
 10
0.475424
 20
3.32659
 30
0.0
 11
0.338998
 21
3.69454
 31
0.0
  0
LINE
  8
0
 62
     0
 10
0.338998
 20
3.69454
 30
0.0
 11
0.232888
 21
4.07211
 31
0.0
  0
LINE
  8
0
 62
     0
 10
0.232888
 20
4.07211
 30
0.0
 11
0.157097
 21
4.45795
 31
0.0
  0
LINE
  8
0
 62
     0
 10
0.157097
 20
4.45795
 30
0.0
 11
0.110243
 21
4.84794
 31
0.0
  0
LINE
  8
0
 62
     0
 10
0.110243
 20
4.84794
 30
0.0
 11
0.0950846
 21
5.24069
 31
0.0
  0
LINE
  8
0
 62
     0
 10
0.0950846
 20
5.24069
 30
0.0
 11
0.0950846
 21
145.54
 31
0.0
  0
LINE
  8
0
 62
     0
 10
0.0950846
 20
145.54
 30
0.0
 11
0.110243
 21
145.934
 31
0.0
  0
LINE
  8
0
 62
     0
 10
0.110243
 20
145.934
 30
0.0
 11
0.157097
 21
146.324
 31
0.0
  0
LINE
  8
0
 62
     0
 10
0.157097
 20
146.324
 30
0.0
 11
0.232888
 21
146.709
 31
0.0
  0
LINE
  8
0
 62
     0
 10
0.232888
 20
146.709
 30
0.0
 11
0.338998
 21
147.086
 31
0.0
  0
LINE
  8
0
 62
     0
 10
0.338998
 20
147.086
 30
0.0
 11
0.475424
 21
147.454
 31
0.0
  0
LINE
  8
0
 62
     0
 10
0.475424
 20
147.454
 30
0.0
 11
0.63941
 21
147.811
 31
0.0
  0
LINE
  8
0
 62
     0
 10
0.63941
 20
147.811
 30
0.0
 11
0.830957
 21
148.154
 31
0.0
  0
LINE
  8
0
 62
     0
 10
0.830957
 20
148.154
 30
0.0
 11
1.05006
 21
148.48
 31
0.0
  0
LINE
  8
0
 62
     0
 10
1.05006
 20
148.48
 30
0.0
 11
1.2926
 21
148.788
 31
0.0
  0
LINE
  8
0
 62
     0
 10
1.2926
 20
148.788
 30
0.0
 11
1.55994
 21
149.076
 31
0.0
  0
LINE
  8
0
 62
     0
 10
1.55994
 20
149.076
 30
0.0
 11
1.84795
 21
149.344
 31
0.0
  0
LINE
  8
0
 62
     0
 10
1.84795
 20
149.344
 30
0.0
 11
2.15663
 21
149.586
 31
0.0
  0
LINE
  8
0
 62
     0
 10
2.15663
 20
149.586
 30
0.0
 11
2.48185
 21
149.805
 31
0.0
  0
LINE
  8
0
 62
     0
 10
2.48185
 20
149.805
 30
0.0
 11
2.82498
 21
149.997
 31
0.0
  0
LINE
  8
0
 62
     0
 10
2.82498
 20
149.997
 30
0.0
 11
3.18189
 21
150.161
 31
0.0
  0
LINE
  8
0
 62
     0
 10
3.18189
 20
150.161
 30
0.0
 11
3.54983
 21
150.297
 31
0.0
  0
LINE
  8
0
 62
     0
 10
3.54983
 20
150.297
 30
0.0
 11
3.9274
 21
150.403
 31
0.0
  0
LINE
  8
0
 62
     0
 10
3.9274
 20
150.403
 30
0.0
 11
4.3119
 21
150.479
 31
0.0
  0
LINE
  8
0
 62
     0
 10
4.3119
 20
150.479
 30
0.0
 11
4.70186
 21
150.526
 31
0.0
  0
LINE
  8
0
 62
     0
 10
4.70186
 20
150.526
 30
0.0
 11
5.09598
 21
150.541
 31
0.0
  0
LINE
  8
0
 62
     0
 10
5.09598
 20
150.541
 30
0.0
 11
218.421
 21
150.541
 31
0.0
  0
LINE
  8
0
 62
     0
 10
4.86311
 20
5.95313
 30
0.0
 11
4.65501
 21
5.84701
 31
0.0
  0
LINE
  8
0
 62
     0
 10
4.65501
 20
5.84701
 30
0.0
 11
4.48829
 21
5.68029
 31
0.0
  0
LINE
  8
0
 62
     0
 10
4.48829
 20
5.68029
 30
0.0
 11
4.38217
 21
5.47218
 31
0.0
  0
LINE
  8
0
 62
     0
 10
4.38217
 20
5.47218
 30
0.0
 11
4.34495
 21
5.24069
 31
0.0
  0
LINE
  8
0
 62
     0
 10
4.34495
 20
5.24069
 30
0.0
 11
4.38217
 21
5.00916
 31
0.0
  0
LINE
  8
0
 62
     0
 10
4.38217
 20
5.00916
 30
0.0
 11
4.48829
 21
4.79972
 31
0.0
  0
LINE
  8
0
 62
     0
 10
4.48829
 20
4.79972
 30
0.0
 11
4.65501
 21
4.63296
 31
0.0
  0
LINE
  8
0
 62
     0
 10
4.65501
 20
4.63296
 30
0.0
 11
4.86311
 21
4.52684
 31
0.0
  0
LINE
  8
0
 62
     0
 10
4.86311
 20
4.52684
 30
0.0
 11
5.09598
 21
4.49104
 31
0.0
  0
LINE
  8
0
 62
     0
 10
5.09598
 20
4.49104
 30
0.0
 11
5.32613
 21
4.52684
 31
0.0
  0
LINE
  8
0
 62
     0
 10
5.32613
 20
4.52684
 30
0.0
 11
5.53558
 21
4.63296
 31
0.0
  0
LINE
  8
0
 62
     0
 10
5.53558
 20
4.63296
 30
0.0
 11
5.70096
 21
4.79972
 31
0.0
  0
LINE
  8
0
 62
     0
 10
5.70096
 20
4.79972
 30
0.0
 11
5.80842
 21
5.00916
 31
0.0
  0
LINE
  8
0
 62
     0
 10
5.80842
 20
5.00916
 30
0.0
 11
5.84563
 21
5.24069
 31
0.0
  0
LINE
  8
0
 62
     0
 10
5.84563
 20
5.24069
 30
0.0
 11
5.80842
 21
5.47218
 31
0.0
  0
LINE
  8
0
 62
     0
 10
5.80842
 20
5.47218
 30
0.0
 11
5.70096
 21
5.68029
 31
0.0
  0
LINE
  8
0
 62
     0
 10
5.70096
 20
5.68029
 30
0.0
 11
5.53558
 21
5.84701
 31
0.0
  0
LINE
  8
0
 62
     0
 10
5.53558
 20
5.84701
 30
0.0
 11
5.32613
 21
5.95313
 31
0.0
  0
LINE
  8
0
 62
     0
 10
5.32613
 20
5.95313
 30
0.0
 11
5.09598
 21
5.98897
 31
0.0
  0
LINE
  8
0
 62
     0
 10
5.09598
 20
5.98897
 30
0.0
 11
4.86311
 21
5.95313
 31
0.0
  0
LINE
  8
0
 62
     0
 10
218.189
 20
5.95313
 30
0.0
 11
217.98
 21
5.84701
 31
0.0
  0
LINE
  8
0
 62
     0
 10
217.98
 20
5.84701
 30
0.0
 11
217.814
 21
5.68029
 31
0.0
  0
LINE
  8
0
 62
     0
 10
217.814
 20
5.68029
 30
0.0
 11
217.708
 21
5.47218
 31
0.0
  0
LINE
  8
0
 62
     0
 10
217.708
 20
5.47218
 30
0.0
 11
217.671
 21
5.24069
 31
0.0
  0
LINE
  8
0
 62
     0
 10
217.671
 20
5.24069
 30
0.0
 11
217.708
 21
5.00916
 31
0.0
  0
LINE
  8
0
 62
     0
 10
217.708
 20
5.00916
 30
0.0
 11
217.814
 21
4.79972
 31
0.0
  0
LINE
  8
0
 62
     0
 10
217.814
 20
4.79972
 30
0.0
 11
217.98
 21
4.63296
 31
0.0
  0
LINE
  8
0
 62
     0
 10
217.98
 20
4.63296
 30
0.0
 11
218.189
 21
4.52684
 31
0.0
  0
LINE
  8
0
 62
     0
 10
218.189
 20
4.52684
 30
0.0
 11
218.421
 21
4.49104
 31
0.0
  0
LINE
  8
0
 62
     0
 10
218.421
 20
4.49104
 30
0.0
 11
218.652
 21
4.52684
 31
0.0
  0
LINE
  8
0
 62
     0
 10
218.652
 20
4.52684
 30
0.0
 11
218.862
 21
4.63296
 31
0.0
  0
LINE
  8
0
 62
     0
 10
218.862
 20
4.63296
 30
0.0
 11
219.028
 21
4.79972
 31
0.0
  0
LINE
  8
0
 62
     0
 10
219.028
 20
4.79972
 30
0.0
 11
219.133
 21
5.00916
 31
0.0
  0
LINE
  8
0
 62
     0
 10
219.133
 20
5.00916
 30
0.0
 11
219.17
 21
5.24069
 31
0.0
  0
LINE
  8
0
 62
     0
 10
219.17
 20
5.24069
 30
0.0
 11
219.133
 21
5.47218
 31
0.0
  0
LINE
  8
0
 62
     0
 10
219.133
 20
5.47218
 30
0.0
 11
219.028
 21
5.68029
 31
0.0
  0
LINE
  8
0
 62
     0
 10
219.028
 20
5.68029
 30
0.0
 11
218.862
 21
5.84701
 31
0.0
  0
LINE
  8
0
 62
     0
 10
218.862
 20
5.84701
 30
0.0
 11
218.652
 21
5.95313
 31
0.0
  0
LINE
  8
0
 62
     0
 10
218.652
 20
5.95313
 30
0.0
 11
218.421
 21
5.98897
 31
0.0
  0
LINE
  8
0
 62
     0
 10
218.421
 20
5.98897
 30
0.0
 11
218.189
 21
5.95313
 31
0.0
  0
LINE
  8
0
 62
     0
 10
160.32
 20
34.7665
 30
0.0
 11
160.32
 21
33.7661
 31
0.0
  0
LINE
  8
0
 62
     0
 10
160.32
 20
33.7661
 30
0.0
 11
159.519
 21
33.7661
 31
0.0
  0
LINE
  8
0
 62
     0
 10
159.519
 20
33.7661
 30
0.0
 11
159.519
 21
30.6669
 31
0.0
  0
LINE
  8
0
 62
     0
 10
159.519
 20
30.6669
 30
0.0
 11
160.32
 21
30.6669
 31
0.0
  0
LINE
  8
0
 62
     0
 10
160.32
 20
30.6669
 30
0.0
 11
160.32
 21
30.0661
 31
0.0
  0
LINE
  8
0
 62
     0
 10
160.32
 20
30.0661
 30
0.0
 11
158.794
 21
30.0661
 31
0.0
  0
LINE
  8
0
 62
     0
 10
158.794
 20
30.0661
 30
0.0
 11
158.794
 21
33.2962
 31
0.0
  0
LINE
  8
0
 62
     0
 10
158.794
 20
33.2962
 30
0.0
 11
157.07
 21
33.2962
 31
0.0
  0
LINE
  8
0
 62
     0
 10
157.07
 20
33.2962
 30
0.0
 11
157.07
 21
34.2167
 31
0.0
  0
LINE
  8
0
 62
     0
 10
157.07
 20
34.2167
 30
0.0
 11
153.77
 21
34.2167
 31
0.0
  0
LINE
  8
0
 62
     0
 10
153.77
 20
34.2167
 30
0.0
 11
153.77
 21
33.2962
 31
0.0
  0
LINE
  8
0
 62
     0
 10
153.77
 20
33.2962
 30
0.0
 11
152.044
 21
33.2962
 31
0.0
  0
LINE
  8
0
 62
     0
 10
152.044
 20
33.2962
 30
0.0
 11
152.044
 21
30.0661
 31
0.0
  0
LINE
  8
0
 62
     0
 10
152.044
 20
30.0661
 30
0.0
 11
151.219
 21
30.0661
 31
0.0
  0
LINE
  8
0
 62
     0
 10
151.219
 20
30.0661
 30
0.0
 11
151.219
 21
27.2673
 31
0.0
  0
LINE
  8
0
 62
     0
 10
151.219
 20
27.2673
 30
0.0
 11
152.044
 21
27.2673
 31
0.0
  0
LINE
  8
0
 62
     0
 10
152.044
 20
27.2673
 30
0.0
 11
152.044
 21
20.9958
 31
0.0
  0
LINE
  8
0
 62
     0
 10
152.044
 20
20.9958
 30
0.0
 11
153.77
 21
20.9958
 31
0.0
  0
LINE
  8
0
 62
     0
 10
153.77
 20
20.9958
 30
0.0
 11
153.77
 21
20.016
 31
0.0
  0
LINE
  8
0
 62
     0
 10
153.77
 20
20.016
 30
0.0
 11
157.07
 21
20.016
 31
0.0
  0
LINE
  8
0
 62
     0
 10
157.07
 20
20.016
 30
0.0
 11
157.07
 21
20.9958
 31
0.0
  0
LINE
  8
0
 62
     0
 10
157.07
 20
20.9958
 30
0.0
 11
158.794
 21
20.9958
 31
0.0
  0
LINE
  8
0
 62
     0
 10
158.794
 20
20.9958
 30
0.0
 11
158.794
 21
25.4661
 31
0.0
  0
LINE
  8
0
 62
     0
 10
158.794
 20
25.4661
 30
0.0
 11
160.32
 21
25.4661
 31
0.0
  0
LINE
  8
0
 62
     0
 10
160.32
 20
25.4661
 30
0.0
 11
160.32
 21
24.8667
 31
0.0
  0
LINE
  8
0
 62
     0
 10
160.32
 20
24.8667
 30
0.0
 11
159.519
 21
24.8667
 31
0.0
  0
LINE
  8
0
 62
     0
 10
159.519
 20
24.8667
 30
0.0
 11
159.519
 21
21.7661
 31
0.0
  0
LINE
  8
0
 62
     0
 10
159.519
 20
21.7661
 30
0.0
 11
160.32
 21
21.7661
 31
0.0
  0
LINE
  8
0
 62
     0
 10
160.32
 20
21.7661
 30
0.0
 11
160.32
 21
20.767
 31
0.0
  0
LINE
  8
0
 62
     0
 10
160.32
 20
20.767
 30
0.0
 11
174.319
 21
20.767
 31
0.0
  0
LINE
  8
0
 62
     0
 10
174.319
 20
20.767
 30
0.0
 11
174.319
 21
21.7661
 31
0.0
  0
LINE
  8
0
 62
     0
 10
174.319
 20
21.7661
 30
0.0
 11
175.12
 21
21.7661
 31
0.0
  0
LINE
  8
0
 62
     0
 10
175.12
 20
21.7661
 30
0.0
 11
175.12
 21
24.8667
 31
0.0
  0
LINE
  8
0
 62
     0
 10
175.12
 20
24.8667
 30
0.0
 11
174.319
 21
24.8667
 31
0.0
  0
LINE
  8
0
 62
     0
 10
174.319
 20
24.8667
 30
0.0
 11
174.319
 21
25.4661
 31
0.0
  0
LINE
  8
0
 62
     0
 10
174.319
 20
25.4661
 30
0.0
 11
175.845
 21
25.4661
 31
0.0
  0
LINE
  8
0
 62
     0
 10
175.845
 20
25.4661
 30
0.0
 11
175.845
 21
20.9958
 31
0.0
  0
LINE
  8
0
 62
     0
 10
175.845
 20
20.9958
 30
0.0
 11
177.57
 21
20.9958
 31
0.0
  0
LINE
  8
0
 62
     0
 10
177.57
 20
20.9958
 30
0.0
 11
177.57
 21
20.016
 31
0.0
  0
LINE
  8
0
 62
     0
 10
177.57
 20
20.016
 30
0.0
 11
180.869
 21
20.016
 31
0.0
  0
LINE
  8
0
 62
     0
 10
180.869
 20
20.016
 30
0.0
 11
180.869
 21
20.9958
 31
0.0
  0
LINE
  8
0
 62
     0
 10
180.869
 20
20.9958
 30
0.0
 11
182.594
 21
20.9958
 31
0.0
  0
LINE
  8
0
 62
     0
 10
182.594
 20
20.9958
 30
0.0
 11
182.594
 21
27.2673
 31
0.0
  0
LINE
  8
0
 62
     0
 10
182.594
 20
27.2673
 30
0.0
 11
183.42
 21
27.2673
 31
0.0
  0
LINE
  8
0
 62
     0
 10
183.42
 20
27.2673
 30
0.0
 11
183.42
 21
30.0661
 31
0.0
  0
LINE
  8
0
 62
     0
 10
183.42
 20
30.0661
 30
0.0
 11
182.594
 21
30.0661
 31
0.0
  0
LINE
  8
0
 62
     0
 10
182.594
 20
30.0661
 30
0.0
 11
182.594
 21
33.2962
 31
0.0
  0
LINE
  8
0
 62
     0
 10
182.594
 20
33.2962
 30
0.0
 11
180.869
 21
33.2962
 31
0.0
  0
LINE
  8
0
 62
     0
 10
180.869
 20
33.2962
 30
0.0
 11
180.869
 21
34.2167
 31
0.0
  0
LINE
  8
0
 62
     0
 10
180.869
 20
34.2167
 30
0.0
 11
177.57
 21
34.2167
 31
0.0
  0
LINE
  8
0
 62
     0
 10
177.57
 20
34.2167
 30
0.0
 11
177.57
 21
33.2962
 31
0.0
  0
LINE
  8
0
 62
     0
 10
177.57
 20
33.2962
 30
0.0
 11
175.845
 21
33.2962
 31
0.0
  0
LINE
  8
0
 62
     0
 10
175.845
 20
33.2962
 30
0.0
 11
175.845
 21
30.0661
 31
0.0
  0
LINE
  8
0
 62
     0
 10
175.845
 20
30.0661
 30
0.0
 11
174.319
 21
30.0661
 31
0.0
  0
LINE
  8
0
 62
     0
 10
174.319
 20
30.0661
 30
0.0
 11
174.319
 21
30.6669
 31
0.0
  0
LINE
  8
0
 62
     0
 10
174.319
 20
30.6669
 30
0.0
 11
175.12
 21
30.6669
 31
0.0
  0
LINE
  8
0
 62
     0
 10
175.12
 20
30.6669
 30
0.0
 11
175.12
 21
33.7661
 31
0.0
  0
LINE
  8
0
 62
     0
 10
175.12
 20
33.7661
 30
0.0
 11
174.319
 21
33.7661
 31
0.0
  0
LINE
  8
0
 62
     0
 10
174.319
 20
33.7661
 30
0.0
 11
174.319
 21
34.7665
 31
0.0
  0
LINE
  8
0
 62
     0
 10
174.319
 20
34.7665
 30
0.0
 11
160.32
 21
34.7665
 31
0.0
  0
LINE
  8
0
 62
     0
 10
84.1195
 20
34.7665
 30
0.0
 11
84.1195
 21
33.7661
 31
0.0
  0
LINE
  8
0
 62
     0
 10
84.1195
 20
33.7661
 30
0.0
 11
83.3191
 21
33.7661
 31
0.0
  0
LINE
  8
0
 62
     0
 10
83.3191
 20
33.7661
 30
0.0
 11
83.3191
 21
30.6669
 31
0.0
  0
LINE
  8
0
 62
     0
 10
83.3191
 20
30.6669
 30
0.0
 11
84.1195
 21
30.6669
 31
0.0
  0
LINE
  8
0
 62
     0
 10
84.1195
 20
30.6669
 30
0.0
 11
84.1195
 21
30.0661
 31
0.0
  0
LINE
  8
0
 62
     0
 10
84.1195
 20
30.0661
 30
0.0
 11
82.5941
 21
30.0661
 31
0.0
  0
LINE
  8
0
 62
     0
 10
82.5941
 20
30.0661
 30
0.0
 11
82.5941
 21
33.2962
 31
0.0
  0
LINE
  8
0
 62
     0
 10
82.5941
 20
33.2962
 30
0.0
 11
80.8701
 21
33.2962
 31
0.0
  0
LINE
  8
0
 62
     0
 10
80.8701
 20
33.2962
 30
0.0
 11
80.8701
 21
34.2167
 31
0.0
  0
LINE
  8
0
 62
     0
 10
80.8701
 20
34.2167
 30
0.0
 11
77.5698
 21
34.2167
 31
0.0
  0
LINE
  8
0
 62
     0
 10
77.5698
 20
34.2167
 30
0.0
 11
77.5698
 21
33.2962
 31
0.0
  0
LINE
  8
0
 62
     0
 10
77.5698
 20
33.2962
 30
0.0
 11
75.8444
 21
33.2962
 31
0.0
  0
LINE
  8
0
 62
     0
 10
75.8444
 20
33.2962
 30
0.0
 11
75.8444
 21
30.0661
 31
0.0
  0
LINE
  8
0
 62
     0
 10
75.8444
 20
30.0661
 30
0.0
 11
75.0189
 21
30.0661
 31
0.0
  0
LINE
  8
0
 62
     0
 10
75.0189
 20
30.0661
 30
0.0
 11
75.0189
 21
27.2673
 31
0.0
  0
LINE
  8
0
 62
     0
 10
75.0189
 20
27.2673
 30
0.0
 11
75.8444
 21
27.2673
 31
0.0
  0
LINE
  8
0
 62
     0
 10
75.8444
 20
27.2673
 30
0.0
 11
75.8444
 21
20.9958
 31
0.0
  0
LINE
  8
0
 62
     0
 10
75.8444
 20
20.9958
 30
0.0
 11
77.5698
 21
20.9958
 31
0.0
  0
LINE
  8
0
 62
     0
 10
77.5698
 20
20.9958
 30
0.0
 11
77.5698
 21
20.016
 31
0.0
  0
LINE
  8
0
 62
     0
 10
77.5698
 20
20.016
 30
0.0
 11
80.8701
 21
20.016
 31
0.0
  0
LINE
  8
0
 62
     0
 10
80.8701
 20
20.016
 30
0.0
 11
80.8701
 21
20.9958
 31
0.0
  0
LINE
  8
0
 62
     0
 10
80.8701
 20
20.9958
 30
0.0
 11
82.5941
 21
20.9958
 31
0.0
  0
LINE
  8
0
 62
     0
 10
82.5941
 20
20.9958
 30
0.0
 11
82.5941
 21
25.4661
 31
0.0
  0
LINE
  8
0
 62
     0
 10
82.5941
 20
25.4661
 30
0.0
 11
84.1195
 21
25.4661
 31
0.0
  0
LINE
  8
0
 62
     0
 10
84.1195
 20
25.4661
 30
0.0
 11
84.1195
 21
24.8667
 31
0.0
  0
LINE
  8
0
 62
     0
 10
84.1195
 20
24.8667
 30
0.0
 11
83.3191
 21
24.8667
 31
0.0
  0
LINE
  8
0
 62
     0
 10
83.3191
 20
24.8667
 30
0.0
 11
83.3191
 21
21.7661
 31
0.0
  0
LINE
  8
0
 62
     0
 10
83.3191
 20
21.7661
 30
0.0
 11
84.1195
 21
21.7661
 31
0.0
  0
LINE
  8
0
 62
     0
 10
84.1195
 20
21.7661
 30
0.0
 11
84.1195
 21
20.767
 31
0.0
  0
LINE
  8
0
 62
     0
 10
84.1195
 20
20.767
 30
0.0
 11
98.1191
 21
20.767
 31
0.0
  0
LINE
  8
0
 62
     0
 10
98.1191
 20
20.767
 30
0.0
 11
98.1191
 21
21.7661
 31
0.0
  0
LINE
  8
0
 62
     0
 10
98.1191
 20
21.7661
 30
0.0
 11
98.9196
 21
21.7661
 31
0.0
  0
LINE
  8
0
 62
     0
 10
98.9196
 20
21.7661
 30
0.0
 11
98.9196
 21
24.8667
 31
0.0
  0
LINE
  8
0
 62
     0
 10
98.9196
 20
24.8667
 30
0.0
 11
98.1191
 21
24.8667
 31
0.0
  0
LINE
  8
0
 62
     0
 10
98.1191
 20
24.8667
 30
0.0
 11
98.1191
 21
25.4661
 31
0.0
  0
LINE
  8
0
 62
     0
 10
98.1191
 20
25.4661
 30
0.0
 11
99.6446
 21
25.4661
 31
0.0
  0
LINE
  8
0
 62
     0
 10
99.6446
 20
25.4661
 30
0.0
 11
99.6446
 21
20.9958
 31
0.0
  0
LINE
  8
0
 62
     0
 10
99.6446
 20
20.9958
 30
0.0
 11
101.37
 21
20.9958
 31
0.0
  0
LINE
  8
0
 62
     0
 10
101.37
 20
20.9958
 30
0.0
 11
101.37
 21
20.016
 31
0.0
  0
LINE
  8
0
 62
     0
 10
101.37
 20
20.016
 30
0.0
 11
104.669
 21
20.016
 31
0.0
  0
LINE
  8
0
 62
     0
 10
104.669
 20
20.016
 30
0.0
 11
104.669
 21
20.9958
 31
0.0
  0
LINE
  8
0
 62
     0
 10
104.669
 20
20.9958
 30
0.0
 11
106.394
 21
20.9958
 31
0.0
  0
LINE
  8
0
 62
     0
 10
106.394
 20
20.9958
 30
0.0
 11
106.394
 21
27.2673
 31
0.0
  0
LINE
  8
0
 62
     0
 10
106.394
 20
27.2673
 30
0.0
 11
107.22
 21
27.2673
 31
0.0
  0
LINE
  8
0
 62
     0
 10
107.22
 20
27.2673
 30
0.0
 11
107.22
 21
30.0661
 31
0.0
  0
LINE
  8
0
 62
     0
 10
107.22
 20
30.0661
 30
0.0
 11
106.394
 21
30.0661
 31
0.0
  0
LINE
  8
0
 62
     0
 10
106.394
 20
30.0661
 30
0.0
 11
106.394
 21
33.2962
 31
0.0
  0
LINE
  8
0
 62
     0
 10
106.394
 20
33.2962
 30
0.0
 11
104.669
 21
33.2962
 31
0.0
  0
LINE
  8
0
 62
     0
 10
104.669
 20
33.2962
 30
0.0
 11
104.669
 21
34.2167
 31
0.0
  0
LINE
  8
0
 62
     0
 10
104.669
 20
34.2167
 30
0.0
 11
101.37
 21
34.2167
 31
0.0
  0
LINE
  8
0
 62
     0
 10
101.37
 20
34.2167
 30
0.0
 11
101.37
 21
33.2962
 31
0.0
  0
LINE
  8
0
 62
     0
 10
101.37
 20
33.2962
 30
0.0
 11
99.6446
 21
33.2962
 31
0.0
  0
LINE
  8
0
 62
     0
 10
99.6446
 20
33.2962
 30
0.0
 11
99.6446
 21
30.0661
 31
0.0
  0
LINE
  8
0
 62
     0
 10
99.6446
 20
30.0661
 30
0.0
 11
98.1191
 21
30.0661
 31
0.0
  0
LINE
  8
0
 62
     0
 10
98.1191
 20
30.0661
 30
0.0
 11
98.1191
 21
30.6669
 31
0.0
  0
LINE
  8
0
 62
     0
 10
98.1191
 20
30.6669
 30
0.0
 11
98.9196
 21
30.6669
 31
0.0
  0
LINE
  8
0
 62
     0
 10
98.9196
 20
30.6669
 30
0.0
 11
98.9196
 21
33.7661
 31
0.0
  0
LINE
  8
0
 62
     0
 10
98.9196
 20
33.7661
 30
0.0
 11
98.1191
 21
33.7661
 31
0.0
  0
LINE
  8
0
 62
     0
 10
98.1191
 20
33.7661
 30
0.0
 11
98.1191
 21
34.7665
 31
0.0
  0
LINE
  8
0
 62
     0
 10
98.1191
 20
34.7665
 30
0.0
 11
84.1195
 21
34.7665
 31
0.0
  0
LINE
  8
0
 62
     0
 10
188.895
 20
34.7665
 30
0.0
 11
188.895
 21
33.7661
 31
0.0
  0
LINE
  8
0
 62
     0
 10
188.895
 20
33.7661
 30
0.0
 11
188.094
 21
33.7661
 31
0.0
  0
LINE
  8
0
 62
     0
 10
188.094
 20
33.7661
 30
0.0
 11
188.094
 21
30.6669
 31
0.0
  0
LINE
  8
0
 62
     0
 10
188.094
 20
30.6669
 30
0.0
 11
188.895
 21
30.6669
 31
0.0
  0
LINE
  8
0
 62
     0
 10
188.895
 20
30.6669
 30
0.0
 11
188.895
 21
24.8667
 31
0.0
  0
LINE
  8
0
 62
     0
 10
188.895
 20
24.8667
 30
0.0
 11
188.094
 21
24.8667
 31
0.0
  0
LINE
  8
0
 62
     0
 10
188.094
 20
24.8667
 30
0.0
 11
188.094
 21
21.7661
 31
0.0
  0
LINE
  8
0
 62
     0
 10
188.094
 20
21.7661
 30
0.0
 11
188.895
 21
21.7661
 31
0.0
  0
LINE
  8
0
 62
     0
 10
188.895
 20
21.7661
 30
0.0
 11
188.895
 21
20.767
 31
0.0
  0
LINE
  8
0
 62
     0
 10
188.895
 20
20.767
 30
0.0
 11
202.894
 21
20.767
 31
0.0
  0
LINE
  8
0
 62
     0
 10
202.894
 20
20.767
 30
0.0
 11
202.894
 21
21.7661
 31
0.0
  0
LINE
  8
0
 62
     0
 10
202.894
 20
21.7661
 30
0.0
 11
203.695
 21
21.7661
 31
0.0
  0
LINE
  8
0
 62
     0
 10
203.695
 20
21.7661
 30
0.0
 11
203.695
 21
24.8667
 31
0.0
  0
LINE
  8
0
 62
     0
 10
203.695
 20
24.8667
 30
0.0
 11
202.894
 21
24.8667
 31
0.0
  0
LINE
  8
0
 62
     0
 10
202.894
 20
24.8667
 30
0.0
 11
202.894
 21
30.6669
 31
0.0
  0
LINE
  8
0
 62
     0
 10
202.894
 20
30.6669
 30
0.0
 11
203.695
 21
30.6669
 31
0.0
  0
LINE
  8
0
 62
     0
 10
203.695
 20
30.6669
 30
0.0
 11
203.695
 21
33.7661
 31
0.0
  0
LINE
  8
0
 62
     0
 10
203.695
 20
33.7661
 30
0.0
 11
202.894
 21
33.7661
 31
0.0
  0
LINE
  8
0
 62
     0
 10
202.894
 20
33.7661
 30
0.0
 11
202.894
 21
34.7665
 31
0.0
  0
LINE
  8
0
 62
     0
 10
202.894
 20
34.7665
 30
0.0
 11
188.895
 21
34.7665
 31
0.0
  0
LINE
  8
0
 62
     0
 10
131.745
 20
34.7665
 30
0.0
 11
131.745
 21
33.7661
 31
0.0
  0
LINE
  8
0
 62
     0
 10
131.745
 20
33.7661
 30
0.0
 11
130.944
 21
33.7661
 31
0.0
  0
LINE
  8
0
 62
     0
 10
130.944
 20
33.7661
 30
0.0
 11
130.944
 21
30.6669
 31
0.0
  0
LINE
  8
0
 62
     0
 10
130.944
 20
30.6669
 30
0.0
 11
131.745
 21
30.6669
 31
0.0
  0
LINE
  8
0
 62
     0
 10
131.745
 20
30.6669
 30
0.0
 11
131.745
 21
24.8667
 31
0.0
  0
LINE
  8
0
 62
     0
 10
131.745
 20
24.8667
 30
0.0
 11
130.944
 21
24.8667
 31
0.0
  0
LINE
  8
0
 62
     0
 10
130.944
 20
24.8667
 30
0.0
 11
130.944
 21
21.7661
 31
0.0
  0
LINE
  8
0
 62
     0
 10
130.944
 20
21.7661
 30
0.0
 11
131.745
 21
21.7661
 31
0.0
  0
LINE
  8
0
 62
     0
 10
131.745
 20
21.7661
 30
0.0
 11
131.745
 21
20.767
 31
0.0
  0
LINE
  8
0
 62
     0
 10
131.745
 20
20.767
 30
0.0
 11
145.744
 21
20.767
 31
0.0
  0
LINE
  8
0
 62
     0
 10
145.744
 20
20.767
 30
0.0
 11
145.744
 21
21.7661
 31
0.0
  0
LINE
  8
0
 62
     0
 10
145.744
 20
21.7661
 30
0.0
 11
146.545
 21
21.7661
 31
0.0
  0
LINE
  8
0
 62
     0
 10
146.545
 20
21.7661
 30
0.0
 11
146.545
 21
24.8667
 31
0.0
  0
LINE
  8
0
 62
     0
 10
146.545
 20
24.8667
 30
0.0
 11
145.744
 21
24.8667
 31
0.0
  0
LINE
  8
0
 62
     0
 10
145.744
 20
24.8667
 30
0.0
 11
145.744
 21
30.6669
 31
0.0
  0
LINE
  8
0
 62
     0
 10
145.744
 20
30.6669
 30
0.0
 11
146.545
 21
30.6669
 31
0.0
  0
LINE
  8
0
 62
     0
 10
146.545
 20
30.6669
 30
0.0
 11
146.545
 21
33.7661
 31
0.0
  0
LINE
  8
0
 62
     0
 10
146.545
 20
33.7661
 30
0.0
 11
145.744
 21
33.7661
 31
0.0
  0
LINE
  8
0
 62
     0
 10
145.744
 20
33.7661
 30
0.0
 11
145.744
 21
34.7665
 31
0.0
  0
LINE
  8
0
 62
     0
 10
145.744
 20
34.7665
 30
0.0
 11
131.745
 21
34.7665
 31
0.0
  0
LINE
  8
0
 62
     0
 10
112.695
 20
34.7665
 30
0.0
 11
112.695
 21
33.7661
 31
0.0
  0
LINE
  8
0
 62
     0
 10
112.695
 20
33.7661
 30
0.0
 11
111.894
 21
33.7661
 31
0.0
  0
LINE
  8
0
 62
     0
 10
111.894
 20
33.7661
 30
0.0
 11
111.894
 21
30.6669
 31
0.0
  0
LINE
  8
0
 62
     0
 10
111.894
 20
30.6669
 30
0.0
 11
112.695
 21
30.6669
 31
0.0
  0
LINE
  8
0
 62
     0
 10
112.695
 20
30.6669
 30
0.0
 11
112.695
 21
24.8667
 31
0.0
  0
LINE
  8
0
 62
     0
 10
112.695
 20
24.8667
 30
0.0
 11
111.894
 21
24.8667
 31
0.0
  0
LINE
  8
0
 62
     0
 10
111.894
 20
24.8667
 30
0.0
 11
111.894
 21
21.7661
 31
0.0
  0
LINE
  8
0
 62
     0
 10
111.894
 20
21.7661
 30
0.0
 11
112.695
 21
21.7661
 31
0.0
  0
LINE
  8
0
 62
     0
 10
112.695
 20
21.7661
 30
0.0
 11
112.695
 21
20.767
 31
0.0
  0
LINE
  8
0
 62
     0
 10
112.695
 20
20.767
 30
0.0
 11
126.694
 21
20.767
 31
0.0
  0
LINE
  8
0
 62
     0
 10
126.694
 20
20.767
 30
0.0
 11
126.694
 21
21.7661
 31
0.0
  0
LINE
  8
0
 62
     0
 10
126.694
 20
21.7661
 30
0.0
 11
127.495
 21
21.7661
 31
0.0
  0
LINE
  8
0
 62
     0
 10
127.495
 20
21.7661
 30
0.0
 11
127.495
 21
24.8667
 31
0.0
  0
LINE
  8
0
 62
     0
 10
127.495
 20
24.8667
 30
0.0
 11
126.694
 21
24.8667
 31
0.0
  0
LINE
  8
0
 62
     0
 10
126.694
 20
24.8667
 30
0.0
 11
126.694
 21
30.6669
 31
0.0
  0
LINE
  8
0
 62
     0
 10
126.694
 20
30.6669
 30
0.0
 11
127.495
 21
30.6669
 31
0.0
  0
LINE
  8
0
 62
     0
 10
127.495
 20
30.6669
 30
0.0
 11
127.495
 21
33.7661
 31
0.0
  0
LINE
  8
0
 62
     0
 10
127.495
 20
33.7661
 30
0.0
 11
126.694
 21
33.7661
 31
0.0
  0
LINE
  8
0
 62
     0
 10
126.694
 20
33.7661
 30
0.0
 11
126.694
 21
34.7665
 31
0.0
  0
LINE
  8
0
 62
     0
 10
126.694
 20
34.7665
 30
0.0
 11
112.695
 21
34.7665
 31
0.0
  0
LINE
  8
0
 62
     0
 10
25.3821
 20
34.7665
 30
0.0
 11
25.3821
 21
33.7661
 31
0.0
  0
LINE
  8
0
 62
     0
 10
25.3821
 20
33.7661
 30
0.0
 11
24.5828
 21
33.7661
 31
0.0
  0
LINE
  8
0
 62
     0
 10
24.5828
 20
33.7661
 30
0.0
 11
24.5828
 21
30.6669
 31
0.0
  0
LINE
  8
0
 62
     0
 10
24.5828
 20
30.6669
 30
0.0
 11
25.3821
 21
30.6669
 31
0.0
  0
LINE
  8
0
 62
     0
 10
25.3821
 20
30.6669
 30
0.0
 11
25.3821
 21
24.8667
 31
0.0
  0
LINE
  8
0
 62
     0
 10
25.3821
 20
24.8667
 30
0.0
 11
24.5828
 21
24.8667
 31
0.0
  0
LINE
  8
0
 62
     0
 10
24.5828
 20
24.8667
 30
0.0
 11
24.5828
 21
21.7661
 31
0.0
  0
LINE
  8
0
 62
     0
 10
24.5828
 20
21.7661
 30
0.0
 11
25.3821
 21
21.7661
 31
0.0
  0
LINE
  8
0
 62
     0
 10
25.3821
 20
21.7661
 30
0.0
 11
25.3821
 21
20.767
 31
0.0
  0
LINE
  8
0
 62
     0
 10
25.3821
 20
20.767
 30
0.0
 11
39.3831
 21
20.767
 31
0.0
  0
LINE
  8
0
 62
     0
 10
39.3831
 20
20.767
 30
0.0
 11
39.3831
 21
21.7661
 31
0.0
  0
LINE
  8
0
 62
     0
 10
39.3831
 20
21.7661
 30
0.0
 11
40.1821
 21
21.7661
 31
0.0
  0
LINE
  8
0
 62
     0
 10
40.1821
 20
21.7661
 30
0.0
 11
40.1821
 21
24.8667
 31
0.0
  0
LINE
  8
0
 62
     0
 10
40.1821
 20
24.8667
 30
0.0
 11
39.3831
 21
24.8667
 31
0.0
  0
LINE
  8
0
 62
     0
 10
39.3831
 20
24.8667
 30
0.0
 11
39.3831
 21
30.6669
 31
0.0
  0
LINE
  8
0
 62
     0
 10
39.3831
 20
30.6669
 30
0.0
 11
40.1821
 21
30.6669
 31
0.0
  0
LINE
  8
0
 62
     0
 10
40.1821
 20
30.6669
 30
0.0
 11
40.1821
 21
33.7661
 31
0.0
  0
LINE
  8
0
 62
     0
 10
40.1821
 20
33.7661
 30
0.0
 11
39.3831
 21
33.7661
 31
0.0
  0
LINE
  8
0
 62
     0
 10
39.3831
 20
33.7661
 30
0.0
 11
39.3831
 21
34.7665
 31
0.0
  0
LINE
  8
0
 62
     0
 10
39.3831
 20
34.7665
 30
0.0
 11
25.3821
 21
34.7665
 31
0.0
  0
LINE
  8
0
 62
     0
 10
84.1195
 20
53.8152
 30
0.0
 11
84.1195
 21
52.8161
 31
0.0
  0
LINE
  8
0
 62
     0
 10
84.1195
 20
52.8161
 30
0.0
 11
83.3191
 21
52.8161
 31
0.0
  0
LINE
  8
0
 62
     0
 10
83.3191
 20
52.8161
 30
0.0
 11
83.3191
 21
49.717
 31
0.0
  0
LINE
  8
0
 62
     0
 10
83.3191
 20
49.717
 30
0.0
 11
84.1195
 21
49.717
 31
0.0
  0
LINE
  8
0
 62
     0
 10
84.1195
 20
49.717
 30
0.0
 11
84.1195
 21
49.1162
 31
0.0
  0
LINE
  8
0
 62
     0
 10
84.1195
 20
49.1162
 30
0.0
 11
82.5941
 21
49.1162
 31
0.0
  0
LINE
  8
0
 62
     0
 10
82.5941
 20
49.1162
 30
0.0
 11
82.5941
 21
52.3462
 31
0.0
  0
LINE
  8
0
 62
     0
 10
82.5941
 20
52.3462
 30
0.0
 11
80.8701
 21
52.3462
 31
0.0
  0
LINE
  8
0
 62
     0
 10
80.8701
 20
52.3462
 30
0.0
 11
80.8701
 21
53.2666
 31
0.0
  0
LINE
  8
0
 62
     0
 10
80.8701
 20
53.2666
 30
0.0
 11
77.5698
 21
53.2666
 31
0.0
  0
LINE
  8
0
 62
     0
 10
77.5698
 20
53.2666
 30
0.0
 11
77.5698
 21
52.3462
 31
0.0
  0
LINE
  8
0
 62
     0
 10
77.5698
 20
52.3462
 30
0.0
 11
75.8444
 21
52.3462
 31
0.0
  0
LINE
  8
0
 62
     0
 10
75.8444
 20
52.3462
 30
0.0
 11
75.8444
 21
49.1162
 31
0.0
  0
LINE
  8
0
 62
     0
 10
75.8444
 20
49.1162
 30
0.0
 11
75.0189
 21
49.1162
 31
0.0
  0
LINE
  8
0
 62
     0
 10
75.0189
 20
49.1162
 30
0.0
 11
75.0189
 21
46.3158
 31
0.0
  0
LINE
  8
0
 62
     0
 10
75.0189
 20
46.3158
 30
0.0
 11
75.8444
 21
46.3158
 31
0.0
  0
LINE
  8
0
 62
     0
 10
75.8444
 20
46.3158
 30
0.0
 11
75.8444
 21
40.0473
 31
0.0
  0
LINE
  8
0
 62
     0
 10
75.8444
 20
40.0473
 30
0.0
 11
77.5698
 21
40.0473
 31
0.0
  0
LINE
  8
0
 62
     0
 10
77.5698
 20
40.0473
 30
0.0
 11
77.5698
 21
39.0659
 31
0.0
  0
LINE
  8
0
 62
     0
 10
77.5698
 20
39.0659
 30
0.0
 11
80.8701
 21
39.0659
 31
0.0
  0
LINE
  8
0
 62
     0
 10
80.8701
 20
39.0659
 30
0.0
 11
80.8701
 21
40.0473
 31
0.0
  0
LINE
  8
0
 62
     0
 10
80.8701
 20
40.0473
 30
0.0
 11
82.5941
 21
40.0473
 31
0.0
  0
LINE
  8
0
 62
     0
 10
82.5941
 20
40.0473
 30
0.0
 11
82.5941
 21
44.5163
 31
0.0
  0
LINE
  8
0
 62
     0
 10
82.5941
 20
44.5163
 30
0.0
 11
84.1195
 21
44.5163
 31
0.0
  0
LINE
  8
0
 62
     0
 10
84.1195
 20
44.5163
 30
0.0
 11
84.1195
 21
43.9152
 31
0.0
  0
LINE
  8
0
 62
     0
 10
84.1195
 20
43.9152
 30
0.0
 11
83.3191
 21
43.9152
 31
0.0
  0
LINE
  8
0
 62
     0
 10
83.3191
 20
43.9152
 30
0.0
 11
83.3191
 21
40.816
 31
0.0
  0
LINE
  8
0
 62
     0
 10
83.3191
 20
40.816
 30
0.0
 11
84.1195
 21
40.816
 31
0.0
  0
LINE
  8
0
 62
     0
 10
84.1195
 20
40.816
 30
0.0
 11
84.1195
 21
39.8156
 31
0.0
  0
LINE
  8
0
 62
     0
 10
84.1195
 20
39.8156
 30
0.0
 11
98.1191
 21
39.8156
 31
0.0
  0
LINE
  8
0
 62
     0
 10
98.1191
 20
39.8156
 30
0.0
 11
98.1191
 21
40.816
 31
0.0
  0
LINE
  8
0
 62
     0
 10
98.1191
 20
40.816
 30
0.0
 11
98.9196
 21
40.816
 31
0.0
  0
LINE
  8
0
 62
     0
 10
98.9196
 20
40.816
 30
0.0
 11
98.9196
 21
43.9152
 31
0.0
  0
LINE
  8
0
 62
     0
 10
98.9196
 20
43.9152
 30
0.0
 11
98.1191
 21
43.9152
 31
0.0
  0
LINE
  8
0
 62
     0
 10
98.1191
 20
43.9152
 30
0.0
 11
98.1191
 21
44.5163
 31
0.0
  0
LINE
  8
0
 62
     0
 10
98.1191
 20
44.5163
 30
0.0
 11
99.6446
 21
44.5163
 31
0.0
  0
LINE
  8
0
 62
     0
 10
99.6446
 20
44.5163
 30
0.0
 11
99.6446
 21
40.0473
 31
0.0
  0
LINE
  8
0
 62
     0
 10
99.6446
 20
40.0473
 30
0.0
 11
101.37
 21
40.0473
 31
0.0
  0
LINE
  8
0
 62
     0
 10
101.37
 20
40.0473
 30
0.0
 11
101.37
 21
39.0659
 31
0.0
  0
LINE
  8
0
 62
     0
 10
101.37
 20
39.0659
 30
0.0
 11
104.669
 21
39.0659
 31
0.0
  0
LINE
  8
0
 62
     0
 10
104.669
 20
39.0659
 30
0.0
 11
104.669
 21
40.0473
 31
0.0
  0
LINE
  8
0
 62
     0
 10
104.669
 20
40.0473
 30
0.0
 11
106.394
 21
40.0473
 31
0.0
  0
LINE
  8
0
 62
     0
 10
106.394
 20
40.0473
 30
0.0
 11
106.394
 21
46.3158
 31
0.0
  0
LINE
  8
0
 62
     0
 10
106.394
 20
46.3158
 30
0.0
 11
107.22
 21
46.3158
 31
0.0
  0
LINE
  8
0
 62
     0
 10
107.22
 20
46.3158
 30
0.0
 11
107.22
 21
49.1162
 31
0.0
  0
LINE
  8
0
 62
     0
 10
107.22
 20
49.1162
 30
0.0
 11
106.394
 21
49.1162
 31
0.0
  0
LINE
  8
0
 62
     0
 10
106.394
 20
49.1162
 30
0.0
 11
106.394
 21
52.3462
 31
0.0
  0
LINE
  8
0
 62
     0
 10
106.394
 20
52.3462
 30
0.0
 11
104.669
 21
52.3462
 31
0.0
  0
LINE
  8
0
 62
     0
 10
104.669
 20
52.3462
 30
0.0
 11
104.669
 21
53.2666
 31
0.0
  0
LINE
  8
0
 62
     0
 10
104.669
 20
53.2666
 30
0.0
 11
101.37
 21
53.2666
 31
0.0
  0
LINE
  8
0
 62
     0
 10
101.37
 20
53.2666
 30
0.0
 11
101.37
 21
52.3462
 31
0.0
  0
LINE
  8
0
 62
     0
 10
101.37
 20
52.3462
 30
0.0
 11
99.6446
 21
52.3462
 31
0.0
  0
LINE
  8
0
 62
     0
 10
99.6446
 20
52.3462
 30
0.0
 11
99.6446
 21
49.1162
 31
0.0
  0
LINE
  8
0
 62
     0
 10
99.6446
 20
49.1162
 30
0.0
 11
98.1191
 21
49.1162
 31
0.0
  0
LINE
  8
0
 62
     0
 10
98.1191
 20
49.1162
 30
0.0
 11
98.1191
 21
49.717
 31
0.0
  0
LINE
  8
0
 62
     0
 10
98.1191
 20
49.717
 30
0.0
 11
98.9196
 21
49.717
 31
0.0
  0
LINE
  8
0
 62
     0
 10
98.9196
 20
49.717
 30
0.0
 11
98.9196
 21
52.8161
 31
0.0
  0
LINE
  8
0
 62
     0
 10
98.9196
 20
52.8161
 30
0.0
 11
98.1191
 21
52.8161
 31
0.0
  0
LINE
  8
0
 62
     0
 10
98.1191
 20
52.8161
 30
0.0
 11
98.1191
 21
53.8152
 31
0.0
  0
LINE
  8
0
 62
     0
 10
98.1191
 20
53.8152
 30
0.0
 11
84.1195
 21
53.8152
 31
0.0
  0
LINE
  8
0
 62
     0
 10
188.895
 20
53.8152
 30
0.0
 11
188.895
 21
52.8161
 31
0.0
  0
LINE
  8
0
 62
     0
 10
188.895
 20
52.8161
 30
0.0
 11
188.094
 21
52.8161
 31
0.0
  0
LINE
  8
0
 62
     0
 10
188.094
 20
52.8161
 30
0.0
 11
188.094
 21
49.717
 31
0.0
  0
LINE
  8
0
 62
     0
 10
188.094
 20
49.717
 30
0.0
 11
188.895
 21
49.717
 31
0.0
  0
LINE
  8
0
 62
     0
 10
188.895
 20
49.717
 30
0.0
 11
188.895
 21
43.9152
 31
0.0
  0
LINE
  8
0
 62
     0
 10
188.895
 20
43.9152
 30
0.0
 11
188.094
 21
43.9152
 31
0.0
  0
LINE
  8
0
 62
     0
 10
188.094
 20
43.9152
 30
0.0
 11
188.094
 21
40.816
 31
0.0
  0
LINE
  8
0
 62
     0
 10
188.094
 20
40.816
 30
0.0
 11
188.895
 21
40.816
 31
0.0
  0
LINE
  8
0
 62
     0
 10
188.895
 20
40.816
 30
0.0
 11
188.895
 21
39.8156
 31
0.0
  0
LINE
  8
0
 62
     0
 10
188.895
 20
39.8156
 30
0.0
 11
202.894
 21
39.8156
 31
0.0
  0
LINE
  8
0
 62
     0
 10
202.894
 20
39.8156
 30
0.0
 11
202.894
 21
40.816
 31
0.0
  0
LINE
  8
0
 62
     0
 10
202.894
 20
40.816
 30
0.0
 11
203.695
 21
40.816
 31
0.0
  0
LINE
  8
0
 62
     0
 10
203.695
 20
40.816
 30
0.0
 11
203.695
 21
43.9152
 31
0.0
  0
LINE
  8
0
 62
     0
 10
203.695
 20
43.9152
 30
0.0
 11
202.894
 21
43.9152
 31
0.0
  0
LINE
  8
0
 62
     0
 10
202.894
 20
43.9152
 30
0.0
 11
202.894
 21
49.717
 31
0.0
  0
LINE
  8
0
 62
     0
 10
202.894
 20
49.717
 30
0.0
 11
203.695
 21
49.717
 31
0.0
  0
LINE
  8
0
 62
     0
 10
203.695
 20
49.717
 30
0.0
 11
203.695
 21
52.8161
 31
0.0
  0
LINE
  8
0
 62
     0
 10
203.695
 20
52.8161
 30
0.0
 11
202.894
 21
52.8161
 31
0.0
  0
LINE
  8
0
 62
     0
 10
202.894
 20
52.8161
 30
0.0
 11
202.894
 21
53.8152
 31
0.0
  0
LINE
  8
0
 62
     0
 10
202.894
 20
53.8152
 30
0.0
 11
188.895
 21
53.8152
 31
0.0
  0
LINE
  8
0
 62
     0
 10
169.845
 20
53.8152
 30
0.0
 11
169.845
 21
52.8161
 31
0.0
  0
LINE
  8
0
 62
     0
 10
169.845
 20
52.8161
 30
0.0
 11
169.044
 21
52.8161
 31
0.0
  0
LINE
  8
0
 62
     0
 10
169.044
 20
52.8161
 30
0.0
 11
169.044
 21
49.717
 31
0.0
  0
LINE
  8
0
 62
     0
 10
169.044
 20
49.717
 30
0.0
 11
169.845
 21
49.717
 31
0.0
  0
LINE
  8
0
 62
     0
 10
169.845
 20
49.717
 30
0.0
 11
169.845
 21
43.9152
 31
0.0
  0
LINE
  8
0
 62
     0
 10
169.845
 20
43.9152
 30
0.0
 11
169.044
 21
43.9152
 31
0.0
  0
LINE
  8
0
 62
     0
 10
169.044
 20
43.9152
 30
0.0
 11
169.044
 21
40.816
 31
0.0
  0
LINE
  8
0
 62
     0
 10
169.044
 20
40.816
 30
0.0
 11
169.845
 21
40.816
 31
0.0
  0
LINE
  8
0
 62
     0
 10
169.845
 20
40.816
 30
0.0
 11
169.845
 21
39.8156
 31
0.0
  0
LINE
  8
0
 62
     0
 10
169.845
 20
39.8156
 30
0.0
 11
183.844
 21
39.8156
 31
0.0
  0
LINE
  8
0
 62
     0
 10
183.844
 20
39.8156
 30
0.0
 11
183.844
 21
40.816
 31
0.0
  0
LINE
  8
0
 62
     0
 10
183.844
 20
40.816
 30
0.0
 11
184.645
 21
40.816
 31
0.0
  0
LINE
  8
0
 62
     0
 10
184.645
 20
40.816
 30
0.0
 11
184.645
 21
43.9152
 31
0.0
  0
LINE
  8
0
 62
     0
 10
184.645
 20
43.9152
 30
0.0
 11
183.844
 21
43.9152
 31
0.0
  0
LINE
  8
0
 62
     0
 10
183.844
 20
43.9152
 30
0.0
 11
183.844
 21
49.717
 31
0.0
  0
LINE
  8
0
 62
     0
 10
183.844
 20
49.717
 30
0.0
 11
184.645
 21
49.717
 31
0.0
  0
LINE
  8
0
 62
     0
 10
184.645
 20
49.717
 30
0.0
 11
184.645
 21
52.8161
 31
0.0
  0
LINE
  8
0
 62
     0
 10
184.645
 20
52.8161
 30
0.0
 11
183.844
 21
52.8161
 31
0.0
  0
LINE
  8
0
 62
     0
 10
183.844
 20
52.8161
 30
0.0
 11
183.844
 21
53.8152
 31
0.0
  0
LINE
  8
0
 62
     0
 10
183.844
 20
53.8152
 30
0.0
 11
169.845
 21
53.8152
 31
0.0
  0
LINE
  8
0
 62
     0
 10
150.795
 20
53.8152
 30
0.0
 11
150.795
 21
52.8161
 31
0.0
  0
LINE
  8
0
 62
     0
 10
150.795
 20
52.8161
 30
0.0
 11
149.994
 21
52.8161
 31
0.0
  0
LINE
  8
0
 62
     0
 10
149.994
 20
52.8161
 30
0.0
 11
149.994
 21
49.717
 31
0.0
  0
LINE
  8
0
 62
     0
 10
149.994
 20
49.717
 30
0.0
 11
150.795
 21
49.717
 31
0.0
  0
LINE
  8
0
 62
     0
 10
150.795
 20
49.717
 30
0.0
 11
150.795
 21
43.9152
 31
0.0
  0
LINE
  8
0
 62
     0
 10
150.795
 20
43.9152
 30
0.0
 11
149.994
 21
43.9152
 31
0.0
  0
LINE
  8
0
 62
     0
 10
149.994
 20
43.9152
 30
0.0
 11
149.994
 21
40.816
 31
0.0
  0
LINE
  8
0
 62
     0
 10
149.994
 20
40.816
 30
0.0
 11
150.795
 21
40.816
 31
0.0
  0
LINE
  8
0
 62
     0
 10
150.795
 20
40.816
 30
0.0
 11
150.795
 21
39.8156
 31
0.0
  0
LINE
  8
0
 62
     0
 10
150.795
 20
39.8156
 30
0.0
 11
164.794
 21
39.8156
 31
0.0
  0
LINE
  8
0
 62
     0
 10
164.794
 20
39.8156
 30
0.0
 11
164.794
 21
40.816
 31
0.0
  0
LINE
  8
0
 62
     0
 10
164.794
 20
40.816
 30
0.0
 11
165.595
 21
40.816
 31
0.0
  0
LINE
  8
0
 62
     0
 10
165.595
 20
40.816
 30
0.0
 11
165.595
 21
43.9152
 31
0.0
  0
LINE
  8
0
 62
     0
 10
165.595
 20
43.9152
 30
0.0
 11
164.794
 21
43.9152
 31
0.0
  0
LINE
  8
0
 62
     0
 10
164.794
 20
43.9152
 30
0.0
 11
164.794
 21
49.717
 31
0.0
  0
LINE
  8
0
 62
     0
 10
164.794
 20
49.717
 30
0.0
 11
165.595
 21
49.717
 31
0.0
  0
LINE
  8
0
 62
     0
 10
165.595
 20
49.717
 30
0.0
 11
165.595
 21
52.8161
 31
0.0
  0
LINE
  8
0
 62
     0
 10
165.595
 20
52.8161
 30
0.0
 11
164.794
 21
52.8161
 31
0.0
  0
LINE
  8
0
 62
     0
 10
164.794
 20
52.8161
 30
0.0
 11
164.794
 21
53.8152
 31
0.0
  0
LINE
  8
0
 62
     0
 10
164.794
 20
53.8152
 30
0.0
 11
150.795
 21
53.8152
 31
0.0
  0
LINE
  8
0
 62
     0
 10
131.745
 20
53.8152
 30
0.0
 11
131.745
 21
52.8161
 31
0.0
  0
LINE
  8
0
 62
     0
 10
131.745
 20
52.8161
 30
0.0
 11
130.944
 21
52.8161
 31
0.0
  0
LINE
  8
0
 62
     0
 10
130.944
 20
52.8161
 30
0.0
 11
130.944
 21
49.717
 31
0.0
  0
LINE
  8
0
 62
     0
 10
130.944
 20
49.717
 30
0.0
 11
131.745
 21
49.717
 31
0.0
  0
LINE
  8
0
 62
     0
 10
131.745
 20
49.717
 30
0.0
 11
131.745
 21
43.9152
 31
0.0
  0
LINE
  8
0
 62
     0
 10
131.745
 20
43.9152
 30
0.0
 11
130.944
 21
43.9152
 31
0.0
  0
LINE
  8
0
 62
     0
 10
130.944
 20
43.9152
 30
0.0
 11
130.944
 21
40.816
 31
0.0
  0
LINE
  8
0
 62
     0
 10
130.944
 20
40.816
 30
0.0
 11
131.745
 21
40.816
 31
0.0
  0
LINE
  8
0
 62
     0
 10
131.745
 20
40.816
 30
0.0
 11
131.745
 21
39.8156
 31
0.0
  0
LINE
  8
0
 62
     0
 10
131.745
 20
39.8156
 30
0.0
 11
145.744
 21
39.8156
 31
0.0
  0
LINE
  8
0
 62
     0
 10
145.744
 20
39.8156
 30
0.0
 11
145.744
 21
40.816
 31
0.0
  0
LINE
  8
0
 62
     0
 10
145.744
 20
40.816
 30
0.0
 11
146.545
 21
40.816
 31
0.0
  0
LINE
  8
0
 62
     0
 10
146.545
 20
40.816
 30
0.0
 11
146.545
 21
43.9152
 31
0.0
  0
LINE
  8
0
 62
     0
 10
146.545
 20
43.9152
 30
0.0
 11
145.744
 21
43.9152
 31
0.0
  0
LINE
  8
0
 62
     0
 10
145.744
 20
43.9152
 30
0.0
 11
145.744
 21
49.717
 31
0.0
  0
LINE
  8
0
 62
     0
 10
145.744
 20
49.717
 30
0.0
 11
146.545
 21
49.717
 31
0.0
  0
LINE
  8
0
 62
     0
 10
146.545
 20
49.717
 30
0.0
 11
146.545
 21
52.8161
 31
0.0
  0
LINE
  8
0
 62
     0
 10
146.545
 20
52.8161
 30
0.0
 11
145.744
 21
52.8161
 31
0.0
  0
LINE
  8
0
 62
     0
 10
145.744
 20
52.8161
 30
0.0
 11
145.744
 21
53.8152
 31
0.0
  0
LINE
  8
0
 62
     0
 10
145.744
 20
53.8152
 30
0.0
 11
131.745
 21
53.8152
 31
0.0
  0
LINE
  8
0
 62
     0
 10
112.695
 20
53.8152
 30
0.0
 11
112.695
 21
52.8161
 31
0.0
  0
LINE
  8
0
 62
     0
 10
112.695
 20
52.8161
 30
0.0
 11
111.894
 21
52.8161
 31
0.0
  0
LINE
  8
0
 62
     0
 10
111.894
 20
52.8161
 30
0.0
 11
111.894
 21
49.717
 31
0.0
  0
LINE
  8
0
 62
     0
 10
111.894
 20
49.717
 30
0.0
 11
112.695
 21
49.717
 31
0.0
  0
LINE
  8
0
 62
     0
 10
112.695
 20
49.717
 30
0.0
 11
112.695
 21
43.9152
 31
0.0
  0
LINE
  8
0
 62
     0
 10
112.695
 20
43.9152
 30
0.0
 11
111.894
 21
43.9152
 31
0.0
  0
LINE
  8
0
 62
     0
 10
111.894
 20
43.9152
 30
0.0
 11
111.894
 21
40.816
 31
0.0
  0
LINE
  8
0
 62
     0
 10
111.894
 20
40.816
 30
0.0
 11
112.695
 21
40.816
 31
0.0
  0
LINE
  8
0
 62
     0
 10
112.695
 20
40.816
 30
0.0
 11
112.695
 21
39.8156
 31
0.0
  0
LINE
  8
0
 62
     0
 10
112.695
 20
39.8156
 30
0.0
 11
126.694
 21
39.8156
 31
0.0
  0
LINE
  8
0
 62
     0
 10
126.694
 20
39.8156
 30
0.0
 11
126.694
 21
40.816
 31
0.0
  0
LINE
  8
0
 62
     0
 10
126.694
 20
40.816
 30
0.0
 11
127.495
 21
40.816
 31
0.0
  0
LINE
  8
0
 62
     0
 10
127.495
 20
40.816
 30
0.0
 11
127.495
 21
43.9152
 31
0.0
  0
LINE
  8
0
 62
     0
 10
127.495
 20
43.9152
 30
0.0
 11
126.694
 21
43.9152
 31
0.0
  0
LINE
  8
0
 62
     0
 10
126.694
 20
43.9152
 30
0.0
 11
126.694
 21
49.717
 31
0.0
  0
LINE
  8
0
 62
     0
 10
126.694
 20
49.717
 30
0.0
 11
127.495
 21
49.717
 31
0.0
  0
LINE
  8
0
 62
     0
 10
127.495
 20
49.717
 30
0.0
 11
127.495
 21
52.8161
 31
0.0
  0
LINE
  8
0
 62
     0
 10
127.495
 20
52.8161
 30
0.0
 11
126.694
 21
52.8161
 31
0.0
  0
LINE
  8
0
 62
     0
 10
126.694
 20
52.8161
 30
0.0
 11
126.694
 21
53.8152
 31
0.0
  0
LINE
  8
0
 62
     0
 10
126.694
 20
53.8152
 30
0.0
 11
112.695
 21
53.8152
 31
0.0
  0
LINE
  8
0
 62
     0
 10
25.3821
 20
53.8152
 30
0.0
 11
25.3821
 21
52.8161
 31
0.0
  0
LINE
  8
0
 62
     0
 10
25.3821
 20
52.8161
 30
0.0
 11
24.5828
 21
52.8161
 31
0.0
  0
LINE
  8
0
 62
     0
 10
24.5828
 20
52.8161
 30
0.0
 11
24.5828
 21
49.717
 31
0.0
  0
LINE
  8
0
 62
     0
 10
24.5828
 20
49.717
 30
0.0
 11
25.3821
 21
49.717
 31
0.0
  0
LINE
  8
0
 62
     0
 10
25.3821
 20
49.717
 30
0.0
 11
25.3821
 21
43.9152
 31
0.0
  0
LINE
  8
0
 62
     0
 10
25.3821
 20
43.9152
 30
0.0
 11
24.5828
 21
43.9152
 31
0.0
  0
LINE
  8
0
 62
     0
 10
24.5828
 20
43.9152
 30
0.0
 11
24.5828
 21
40.816
 31
0.0
  0
LINE
  8
0
 62
     0
 10
24.5828
 20
40.816
 30
0.0
 11
25.3821
 21
40.816
 31
0.0
  0
LINE
  8
0
 62
     0
 10
25.3821
 20
40.816
 30
0.0
 11
25.3821
 21
39.8156
 31
0.0
  0
LINE
  8
0
 62
     0
 10
25.3821
 20
39.8156
 30
0.0
 11
39.3831
 21
39.8156
 31
0.0
  0
LINE
  8
0
 62
     0
 10
39.3831
 20
39.8156
 30
0.0
 11
39.3831
 21
40.816
 31
0.0
  0
LINE
  8
0
 62
     0
 10
39.3831
 20
40.816
 30
0.0
 11
40.1821
 21
40.816
 31
0.0
  0
LINE
  8
0
 62
     0
 10
40.1821
 20
40.816
 30
0.0
 11
40.1821
 21
43.9152
 31
0.0
  0
LINE
  8
0
 62
     0
 10
40.1821
 20
43.9152
 30
0.0
 11
39.3831
 21
43.9152
 31
0.0
  0
LINE
  8
0
 62
     0
 10
39.3831
 20
43.9152
 30
0.0
 11
39.3831
 21
49.717
 31
0.0
  0
LINE
  8
0
 62
     0
 10
39.3831
 20
49.717
 30
0.0
 11
40.1821
 21
49.717
 31
0.0
  0
LINE
  8
0
 62
     0
 10
40.1821
 20
49.717
 30
0.0
 11
40.1821
 21
52.8161
 31
0.0
  0
LINE
  8
0
 62
     0
 10
40.1821
 20
52.8161
 30
0.0
 11
39.3831
 21
52.8161
 31
0.0
  0
LINE
  8
0
 62
     0
 10
39.3831
 20
52.8161
 30
0.0
 11
39.3831
 21
53.8152
 31
0.0
  0
LINE
  8
0
 62
     0
 10
39.3831
 20
53.8152
 30
0.0
 11
25.3821
 21
53.8152
 31
0.0
  0
LINE
  8
0
 62
     0
 10
84.1195
 20
72.8652
 30
0.0
 11
84.1195
 21
71.8661
 31
0.0
  0
LINE
  8
0
 62
     0
 10
84.1195
 20
71.8661
 30
0.0
 11
83.3191
 21
71.8661
 31
0.0
  0
LINE
  8
0
 62
     0
 10
83.3191
 20
71.8661
 30
0.0
 11
83.3191
 21
68.767
 31
0.0
  0
LINE
  8
0
 62
     0
 10
83.3191
 20
68.767
 30
0.0
 11
84.1195
 21
68.767
 31
0.0
  0
LINE
  8
0
 62
     0
 10
84.1195
 20
68.767
 30
0.0
 11
84.1195
 21
68.1662
 31
0.0
  0
LINE
  8
0
 62
     0
 10
84.1195
 20
68.1662
 30
0.0
 11
82.5941
 21
68.1662
 31
0.0
  0
LINE
  8
0
 62
     0
 10
82.5941
 20
68.1662
 30
0.0
 11
82.5941
 21
71.3962
 31
0.0
  0
LINE
  8
0
 62
     0
 10
82.5941
 20
71.3962
 30
0.0
 11
80.8701
 21
71.3962
 31
0.0
  0
LINE
  8
0
 62
     0
 10
80.8701
 20
71.3962
 30
0.0
 11
80.8701
 21
72.3152
 31
0.0
  0
LINE
  8
0
 62
     0
 10
80.8701
 20
72.3152
 30
0.0
 11
77.5698
 21
72.3152
 31
0.0
  0
LINE
  8
0
 62
     0
 10
77.5698
 20
72.3152
 30
0.0
 11
77.5698
 21
71.3962
 31
0.0
  0
LINE
  8
0
 62
     0
 10
77.5698
 20
71.3962
 30
0.0
 11
75.8444
 21
71.3962
 31
0.0
  0
LINE
  8
0
 62
     0
 10
75.8444
 20
71.3962
 30
0.0
 11
75.8444
 21
68.1662
 31
0.0
  0
LINE
  8
0
 62
     0
 10
75.8444
 20
68.1662
 30
0.0
 11
75.0189
 21
68.1662
 31
0.0
  0
LINE
  8
0
 62
     0
 10
75.0189
 20
68.1662
 30
0.0
 11
75.0189
 21
65.3658
 31
0.0
  0
LINE
  8
0
 62
     0
 10
75.0189
 20
65.3658
 30
0.0
 11
75.8444
 21
65.3658
 31
0.0
  0
LINE
  8
0
 62
     0
 10
75.8444
 20
65.3658
 30
0.0
 11
75.8444
 21
59.0959
 31
0.0
  0
LINE
  8
0
 62
     0
 10
75.8444
 20
59.0959
 30
0.0
 11
77.5698
 21
59.0959
 31
0.0
  0
LINE
  8
0
 62
     0
 10
77.5698
 20
59.0959
 30
0.0
 11
77.5698
 21
58.1159
 31
0.0
  0
LINE
  8
0
 62
     0
 10
77.5698
 20
58.1159
 30
0.0
 11
80.8701
 21
58.1159
 31
0.0
  0
LINE
  8
0
 62
     0
 10
80.8701
 20
58.1159
 30
0.0
 11
80.8701
 21
59.0959
 31
0.0
  0
LINE
  8
0
 62
     0
 10
80.8701
 20
59.0959
 30
0.0
 11
82.5941
 21
59.0959
 31
0.0
  0
LINE
  8
0
 62
     0
 10
82.5941
 20
59.0959
 30
0.0
 11
82.5941
 21
63.5663
 31
0.0
  0
LINE
  8
0
 62
     0
 10
82.5941
 20
63.5663
 30
0.0
 11
84.1195
 21
63.5663
 31
0.0
  0
LINE
  8
0
 62
     0
 10
84.1195
 20
63.5663
 30
0.0
 11
84.1195
 21
62.9652
 31
0.0
  0
LINE
  8
0
 62
     0
 10
84.1195
 20
62.9652
 30
0.0
 11
83.3191
 21
62.9652
 31
0.0
  0
LINE
  8
0
 62
     0
 10
83.3191
 20
62.9652
 30
0.0
 11
83.3191
 21
59.866
 31
0.0
  0
LINE
  8
0
 62
     0
 10
83.3191
 20
59.866
 30
0.0
 11
84.1195
 21
59.866
 31
0.0
  0
LINE
  8
0
 62
     0
 10
84.1195
 20
59.866
 30
0.0
 11
84.1195
 21
58.8656
 31
0.0
  0
LINE
  8
0
 62
     0
 10
84.1195
 20
58.8656
 30
0.0
 11
98.1191
 21
58.8656
 31
0.0
  0
LINE
  8
0
 62
     0
 10
98.1191
 20
58.8656
 30
0.0
 11
98.1191
 21
59.866
 31
0.0
  0
LINE
  8
0
 62
     0
 10
98.1191
 20
59.866
 30
0.0
 11
98.9196
 21
59.866
 31
0.0
  0
LINE
  8
0
 62
     0
 10
98.9196
 20
59.866
 30
0.0
 11
98.9196
 21
62.9652
 31
0.0
  0
LINE
  8
0
 62
     0
 10
98.9196
 20
62.9652
 30
0.0
 11
98.1191
 21
62.9652
 31
0.0
  0
LINE
  8
0
 62
     0
 10
98.1191
 20
62.9652
 30
0.0
 11
98.1191
 21
63.5663
 31
0.0
  0
LINE
  8
0
 62
     0
 10
98.1191
 20
63.5663
 30
0.0
 11
99.6446
 21
63.5663
 31
0.0
  0
LINE
  8
0
 62
     0
 10
99.6446
 20
63.5663
 30
0.0
 11
99.6446
 21
59.0959
 31
0.0
  0
LINE
  8
0
 62
     0
 10
99.6446
 20
59.0959
 30
0.0
 11
101.37
 21
59.0959
 31
0.0
  0
LINE
  8
0
 62
     0
 10
101.37
 20
59.0959
 30
0.0
 11
101.37
 21
58.1159
 31
0.0
  0
LINE
  8
0
 62
     0
 10
101.37
 20
58.1159
 30
0.0
 11
104.669
 21
58.1159
 31
0.0
  0
LINE
  8
0
 62
     0
 10
104.669
 20
58.1159
 30
0.0
 11
104.669
 21
59.0959
 31
0.0
  0
LINE
  8
0
 62
     0
 10
104.669
 20
59.0959
 30
0.0
 11
106.394
 21
59.0959
 31
0.0
  0
LINE
  8
0
 62
     0
 10
106.394
 20
59.0959
 30
0.0
 11
106.394
 21
65.3658
 31
0.0
  0
LINE
  8
0
 62
     0
 10
106.394
 20
65.3658
 30
0.0
 11
107.22
 21
65.3658
 31
0.0
  0
LINE
  8
0
 62
     0
 10
107.22
 20
65.3658
 30
0.0
 11
107.22
 21
68.1662
 31
0.0
  0
LINE
  8
0
 62
     0
 10
107.22
 20
68.1662
 30
0.0
 11
106.394
 21
68.1662
 31
0.0
  0
LINE
  8
0
 62
     0
 10
106.394
 20
68.1662
 30
0.0
 11
106.394
 21
71.3962
 31
0.0
  0
LINE
  8
0
 62
     0
 10
106.394
 20
71.3962
 30
0.0
 11
104.669
 21
71.3962
 31
0.0
  0
LINE
  8
0
 62
     0
 10
104.669
 20
71.3962
 30
0.0
 11
104.669
 21
72.3152
 31
0.0
  0
LINE
  8
0
 62
     0
 10
104.669
 20
72.3152
 30
0.0
 11
101.37
 21
72.3152
 31
0.0
  0
LINE
  8
0
 62
     0
 10
101.37
 20
72.3152
 30
0.0
 11
101.37
 21
71.3962
 31
0.0
  0
LINE
  8
0
 62
     0
 10
101.37
 20
71.3962
 30
0.0
 11
99.6446
 21
71.3962
 31
0.0
  0
LINE
  8
0
 62
     0
 10
99.6446
 20
71.3962
 30
0.0
 11
99.6446
 21
68.1662
 31
0.0
  0
LINE
  8
0
 62
     0
 10
99.6446
 20
68.1662
 30
0.0
 11
98.1191
 21
68.1662
 31
0.0
  0
LINE
  8
0
 62
     0
 10
98.1191
 20
68.1662
 30
0.0
 11
98.1191
 21
68.767
 31
0.0
  0
LINE
  8
0
 62
     0
 10
98.1191
 20
68.767
 30
0.0
 11
98.9196
 21
68.767
 31
0.0
  0
LINE
  8
0
 62
     0
 10
98.9196
 20
68.767
 30
0.0
 11
98.9196
 21
71.8661
 31
0.0
  0
LINE
  8
0
 62
     0
 10
98.9196
 20
71.8661
 30
0.0
 11
98.1191
 21
71.8661
 31
0.0
  0
LINE
  8
0
 62
     0
 10
98.1191
 20
71.8661
 30
0.0
 11
98.1191
 21
72.8652
 31
0.0
  0
LINE
  8
0
 62
     0
 10
98.1191
 20
72.8652
 30
0.0
 11
84.1195
 21
72.8652
 31
0.0
  0
LINE
  8
0
 62
     0
 10
188.895
 20
72.8652
 30
0.0
 11
188.895
 21
71.8661
 31
0.0
  0
LINE
  8
0
 62
     0
 10
188.895
 20
71.8661
 30
0.0
 11
188.094
 21
71.8661
 31
0.0
  0
LINE
  8
0
 62
     0
 10
188.094
 20
71.8661
 30
0.0
 11
188.094
 21
68.767
 31
0.0
  0
LINE
  8
0
 62
     0
 10
188.094
 20
68.767
 30
0.0
 11
188.895
 21
68.767
 31
0.0
  0
LINE
  8
0
 62
     0
 10
188.895
 20
68.767
 30
0.0
 11
188.895
 21
62.9652
 31
0.0
  0
LINE
  8
0
 62
     0
 10
188.895
 20
62.9652
 30
0.0
 11
188.094
 21
62.9652
 31
0.0
  0
LINE
  8
0
 62
     0
 10
188.094
 20
62.9652
 30
0.0
 11
188.094
 21
59.866
 31
0.0
  0
LINE
  8
0
 62
     0
 10
188.094
 20
59.866
 30
0.0
 11
188.895
 21
59.866
 31
0.0
  0
LINE
  8
0
 62
     0
 10
188.895
 20
59.866
 30
0.0
 11
188.895
 21
58.8656
 31
0.0
  0
LINE
  8
0
 62
     0
 10
188.895
 20
58.8656
 30
0.0
 11
202.894
 21
58.8656
 31
0.0
  0
LINE
  8
0
 62
     0
 10
202.894
 20
58.8656
 30
0.0
 11
202.894
 21
59.866
 31
0.0
  0
LINE
  8
0
 62
     0
 10
202.894
 20
59.866
 30
0.0
 11
203.695
 21
59.866
 31
0.0
  0
LINE
  8
0
 62
     0
 10
203.695
 20
59.866
 30
0.0
 11
203.695
 21
62.9652
 31
0.0
  0
LINE
  8
0
 62
     0
 10
203.695
 20
62.9652
 30
0.0
 11
202.894
 21
62.9652
 31
0.0
  0
LINE
  8
0
 62
     0
 10
202.894
 20
62.9652
 30
0.0
 11
202.894
 21
68.767
 31
0.0
  0
LINE
  8
0
 62
     0
 10
202.894
 20
68.767
 30
0.0
 11
203.695
 21
68.767
 31
0.0
  0
LINE
  8
0
 62
     0
 10
203.695
 20
68.767
 30
0.0
 11
203.695
 21
71.8661
 31
0.0
  0
LINE
  8
0
 62
     0
 10
203.695
 20
71.8661
 30
0.0
 11
202.894
 21
71.8661
 31
0.0
  0
LINE
  8
0
 62
     0
 10
202.894
 20
71.8661
 30
0.0
 11
202.894
 21
72.8652
 31
0.0
  0
LINE
  8
0
 62
     0
 10
202.894
 20
72.8652
 30
0.0
 11
188.895
 21
72.8652
 31
0.0
  0
LINE
  8
0
 62
     0
 10
169.845
 20
72.8652
 30
0.0
 11
169.845
 21
71.8661
 31
0.0
  0
LINE
  8
0
 62
     0
 10
169.845
 20
71.8661
 30
0.0
 11
169.044
 21
71.8661
 31
0.0
  0
LINE
  8
0
 62
     0
 10
169.044
 20
71.8661
 30
0.0
 11
169.044
 21
68.767
 31
0.0
  0
LINE
  8
0
 62
     0
 10
169.044
 20
68.767
 30
0.0
 11
169.845
 21
68.767
 31
0.0
  0
LINE
  8
0
 62
     0
 10
169.845
 20
68.767
 30
0.0
 11
169.845
 21
62.9652
 31
0.0
  0
LINE
  8
0
 62
     0
 10
169.845
 20
62.9652
 30
0.0
 11
169.044
 21
62.9652
 31
0.0
  0
LINE
  8
0
 62
     0
 10
169.044
 20
62.9652
 30
0.0
 11
169.044
 21
59.866
 31
0.0
  0
LINE
  8
0
 62
     0
 10
169.044
 20
59.866
 30
0.0
 11
169.845
 21
59.866
 31
0.0
  0
LINE
  8
0
 62
     0
 10
169.845
 20
59.866
 30
0.0
 11
169.845
 21
58.8656
 31
0.0
  0
LINE
  8
0
 62
     0
 10
169.845
 20
58.8656
 30
0.0
 11
183.844
 21
58.8656
 31
0.0
  0
LINE
  8
0
 62
     0
 10
183.844
 20
58.8656
 30
0.0
 11
183.844
 21
59.866
 31
0.0
  0
LINE
  8
0
 62
     0
 10
183.844
 20
59.866
 30
0.0
 11
184.645
 21
59.866
 31
0.0
  0
LINE
  8
0
 62
     0
 10
184.645
 20
59.866
 30
0.0
 11
184.645
 21
62.9652
 31
0.0
  0
LINE
  8
0
 62
     0
 10
184.645
 20
62.9652
 30
0.0
 11
183.844
 21
62.9652
 31
0.0
  0
LINE
  8
0
 62
     0
 10
183.844
 20
62.9652
 30
0.0
 11
183.844
 21
68.767
 31
0.0
  0
LINE
  8
0
 62
     0
 10
183.844
 20
68.767
 30
0.0
 11
184.645
 21
68.767
 31
0.0
  0
LINE
  8
0
 62
     0
 10
184.645
 20
68.767
 30
0.0
 11
184.645
 21
71.8661
 31
0.0
  0
LINE
  8
0
 62
     0
 10
184.645
 20
71.8661
 30
0.0
 11
183.844
 21
71.8661
 31
0.0
  0
LINE
  8
0
 62
     0
 10
183.844
 20
71.8661
 30
0.0
 11
183.844
 21
72.8652
 31
0.0
  0
LINE
  8
0
 62
     0
 10
183.844
 20
72.8652
 30
0.0
 11
169.845
 21
72.8652
 31
0.0
  0
LINE
  8
0
 62
     0
 10
150.795
 20
72.8652
 30
0.0
 11
150.795
 21
71.8661
 31
0.0
  0
LINE
  8
0
 62
     0
 10
150.795
 20
71.8661
 30
0.0
 11
149.994
 21
71.8661
 31
0.0
  0
LINE
  8
0
 62
     0
 10
149.994
 20
71.8661
 30
0.0
 11
149.994
 21
68.767
 31
0.0
  0
LINE
  8
0
 62
     0
 10
149.994
 20
68.767
 30
0.0
 11
150.795
 21
68.767
 31
0.0
  0
LINE
  8
0
 62
     0
 10
150.795
 20
68.767
 30
0.0
 11
150.795
 21
62.9652
 31
0.0
  0
LINE
  8
0
 62
     0
 10
150.795
 20
62.9652
 30
0.0
 11
149.994
 21
62.9652
 31
0.0
  0
LINE
  8
0
 62
     0
 10
149.994
 20
62.9652
 30
0.0
 11
149.994
 21
59.866
 31
0.0
  0
LINE
  8
0
 62
     0
 10
149.994
 20
59.866
 30
0.0
 11
150.795
 21
59.866
 31
0.0
  0
LINE
  8
0
 62
     0
 10
150.795
 20
59.866
 30
0.0
 11
150.795
 21
58.8656
 31
0.0
  0
LINE
  8
0
 62
     0
 10
150.795
 20
58.8656
 30
0.0
 11
164.794
 21
58.8656
 31
0.0
  0
LINE
  8
0
 62
     0
 10
164.794
 20
58.8656
 30
0.0
 11
164.794
 21
59.866
 31
0.0
  0
LINE
  8
0
 62
     0
 10
164.794
 20
59.866
 30
0.0
 11
165.595
 21
59.866
 31
0.0
  0
LINE
  8
0
 62
     0
 10
165.595
 20
59.866
 30
0.0
 11
165.595
 21
62.9652
 31
0.0
  0
LINE
  8
0
 62
     0
 10
165.595
 20
62.9652
 30
0.0
 11
164.794
 21
62.9652
 31
0.0
  0
LINE
  8
0
 62
     0
 10
164.794
 20
62.9652
 30
0.0
 11
164.794
 21
68.767
 31
0.0
  0
LINE
  8
0
 62
     0
 10
164.794
 20
68.767
 30
0.0
 11
165.595
 21
68.767
 31
0.0
  0
LINE
  8
0
 62
     0
 10
165.595
 20
68.767
 30
0.0
 11
165.595
 21
71.8661
 31
0.0
  0
LINE
  8
0
 62
     0
 10
165.595
 20
71.8661
 30
0.0
 11
164.794
 21
71.8661
 31
0.0
  0
LINE
  8
0
 62
     0
 10
164.794
 20
71.8661
 30
0.0
 11
164.794
 21
72.8652
 31
0.0
  0
LINE
  8
0
 62
     0
 10
164.794
 20
72.8652
 30
0.0
 11
150.795
 21
72.8652
 31
0.0
  0
LINE
  8
0
 62
     0
 10
131.745
 20
72.8652
 30
0.0
 11
131.745
 21
71.8661
 31
0.0
  0
LINE
  8
0
 62
     0
 10
131.745
 20
71.8661
 30
0.0
 11
130.944
 21
71.8661
 31
0.0
  0
LINE
  8
0
 62
     0
 10
130.944
 20
71.8661
 30
0.0
 11
130.944
 21
68.767
 31
0.0
  0
LINE
  8
0
 62
     0
 10
130.944
 20
68.767
 30
0.0
 11
131.745
 21
68.767
 31
0.0
  0
LINE
  8
0
 62
     0
 10
131.745
 20
68.767
 30
0.0
 11
131.745
 21
62.9652
 31
0.0
  0
LINE
  8
0
 62
     0
 10
131.745
 20
62.9652
 30
0.0
 11
130.944
 21
62.9652
 31
0.0
  0
LINE
  8
0
 62
     0
 10
130.944
 20
62.9652
 30
0.0
 11
130.944
 21
59.866
 31
0.0
  0
LINE
  8
0
 62
     0
 10
130.944
 20
59.866
 30
0.0
 11
131.745
 21
59.866
 31
0.0
  0
LINE
  8
0
 62
     0
 10
131.745
 20
59.866
 30
0.0
 11
131.745
 21
58.8656
 31
0.0
  0
LINE
  8
0
 62
     0
 10
131.745
 20
58.8656
 30
0.0
 11
145.744
 21
58.8656
 31
0.0
  0
LINE
  8
0
 62
     0
 10
145.744
 20
58.8656
 30
0.0
 11
145.744
 21
59.866
 31
0.0
  0
LINE
  8
0
 62
     0
 10
145.744
 20
59.866
 30
0.0
 11
146.545
 21
59.866
 31
0.0
  0
LINE
  8
0
 62
     0
 10
146.545
 20
59.866
 30
0.0
 11
146.545
 21
62.9652
 31
0.0
  0
LINE
  8
0
 62
     0
 10
146.545
 20
62.9652
 30
0.0
 11
145.744
 21
62.9652
 31
0.0
  0
LINE
  8
0
 62
     0
 10
145.744
 20
62.9652
 30
0.0
 11
145.744
 21
68.767
 31
0.0
  0
LINE
  8
0
 62
     0
 10
145.744
 20
68.767
 30
0.0
 11
146.545
 21
68.767
 31
0.0
  0
LINE
  8
0
 62
     0
 10
146.545
 20
68.767
 30
0.0
 11
146.545
 21
71.8661
 31
0.0
  0
LINE
  8
0
 62
     0
 10
146.545
 20
71.8661
 30
0.0
 11
145.744
 21
71.8661
 31
0.0
  0
LINE
  8
0
 62
     0
 10
145.744
 20
71.8661
 30
0.0
 11
145.744
 21
72.8652
 31
0.0
  0
LINE
  8
0
 62
     0
 10
145.744
 20
72.8652
 30
0.0
 11
131.745
 21
72.8652
 31
0.0
  0
LINE
  8
0
 62
     0
 10
112.695
 20
72.8652
 30
0.0
 11
112.695
 21
71.8661
 31
0.0
  0
LINE
  8
0
 62
     0
 10
112.695
 20
71.8661
 30
0.0
 11
111.894
 21
71.8661
 31
0.0
  0
LINE
  8
0
 62
     0
 10
111.894
 20
71.8661
 30
0.0
 11
111.894
 21
68.767
 31
0.0
  0
LINE
  8
0
 62
     0
 10
111.894
 20
68.767
 30
0.0
 11
112.695
 21
68.767
 31
0.0
  0
LINE
  8
0
 62
     0
 10
112.695
 20
68.767
 30
0.0
 11
112.695
 21
62.9652
 31
0.0
  0
LINE
  8
0
 62
     0
 10
112.695
 20
62.9652
 30
0.0
 11
111.894
 21
62.9652
 31
0.0
  0
LINE
  8
0
 62
     0
 10
111.894
 20
62.9652
 30
0.0
 11
111.894
 21
59.866
 31
0.0
  0
LINE
  8
0
 62
     0
 10
111.894
 20
59.866
 30
0.0
 11
112.695
 21
59.866
 31
0.0
  0
LINE
  8
0
 62
     0
 10
112.695
 20
59.866
 30
0.0
 11
112.695
 21
58.8656
 31
0.0
  0
LINE
  8
0
 62
     0
 10
112.695
 20
58.8656
 30
0.0
 11
126.694
 21
58.8656
 31
0.0
  0
LINE
  8
0
 62
     0
 10
126.694
 20
58.8656
 30
0.0
 11
126.694
 21
59.866
 31
0.0
  0
LINE
  8
0
 62
     0
 10
126.694
 20
59.866
 30
0.0
 11
127.495
 21
59.866
 31
0.0
  0
LINE
  8
0
 62
     0
 10
127.495
 20
59.866
 30
0.0
 11
127.495
 21
62.9652
 31
0.0
  0
LINE
  8
0
 62
     0
 10
127.495
 20
62.9652
 30
0.0
 11
126.694
 21
62.9652
 31
0.0
  0
LINE
  8
0
 62
     0
 10
126.694
 20
62.9652
 30
0.0
 11
126.694
 21
68.767
 31
0.0
  0
LINE
  8
0
 62
     0
 10
126.694
 20
68.767
 30
0.0
 11
127.495
 21
68.767
 31
0.0
  0
LINE
  8
0
 62
     0
 10
127.495
 20
68.767
 30
0.0
 11
127.495
 21
71.8661
 31
0.0
  0
LINE
  8
0
 62
     0
 10
127.495
 20
71.8661
 30
0.0
 11
126.694
 21
71.8661
 31
0.0
  0
LINE
  8
0
 62
     0
 10
126.694
 20
71.8661
 30
0.0
 11
126.694
 21
72.8652
 31
0.0
  0
LINE
  8
0
 62
     0
 10
126.694
 20
72.8652
 30
0.0
 11
112.695
 21
72.8652
 31
0.0
  0
LINE
  8
0
 62
     0
 10
25.3821
 20
72.8652
 30
0.0
 11
25.3821
 21
71.8661
 31
0.0
  0
LINE
  8
0
 62
     0
 10
25.3821
 20
71.8661
 30
0.0
 11
24.5828
 21
71.8661
 31
0.0
  0
LINE
  8
0
 62
     0
 10
24.5828
 20
71.8661
 30
0.0
 11
24.5828
 21
68.767
 31
0.0
  0
LINE
  8
0
 62
     0
 10
24.5828
 20
68.767
 30
0.0
 11
25.3821
 21
68.767
 31
0.0
  0
LINE
  8
0
 62
     0
 10
25.3821
 20
68.767
 30
0.0
 11
25.3821
 21
62.9652
 31
0.0
  0
LINE
  8
0
 62
     0
 10
25.3821
 20
62.9652
 30
0.0
 11
24.5828
 21
62.9652
 31
0.0
  0
LINE
  8
0
 62
     0
 10
24.5828
 20
62.9652
 30
0.0
 11
24.5828
 21
59.866
 31
0.0
  0
LINE
  8
0
 62
     0
 10
24.5828
 20
59.866
 30
0.0
 11
25.3821
 21
59.866
 31
0.0
  0
LINE
  8
0
 62
     0
 10
25.3821
 20
59.866
 30
0.0
 11
25.3821
 21
58.8656
 31
0.0
  0
LINE
  8
0
 62
     0
 10
25.3821
 20
58.8656
 30
0.0
 11
39.3831
 21
58.8656
 31
0.0
  0
LINE
  8
0
 62
     0
 10
39.3831
 20
58.8656
 30
0.0
 11
39.3831
 21
59.866
 31
0.0
  0
LINE
  8
0
 62
     0
 10
39.3831
 20
59.866
 30
0.0
 11
40.1821
 21
59.866
 31
0.0
  0
LINE
  8
0
 62
     0
 10
40.1821
 20
59.866
 30
0.0
 11
40.1821
 21
62.9652
 31
0.0
  0
LINE
  8
0
 62
     0
 10
40.1821
 20
62.9652
 30
0.0
 11
39.3831
 21
62.9652
 31
0.0
  0
LINE
  8
0
 62
     0
 10
39.3831
 20
62.9652
 30
0.0
 11
39.3831
 21
68.767
 31
0.0
  0
LINE
  8
0
 62
     0
 10
39.3831
 20
68.767
 30
0.0
 11
40.1821
 21
68.767
 31
0.0
  0
LINE
  8
0
 62
     0
 10
40.1821
 20
68.767
 30
0.0
 11
40.1821
 21
71.8661
 31
0.0
  0
LINE
  8
0
 62
     0
 10
40.1821
 20
71.8661
 30
0.0
 11
39.3831
 21
71.8661
 31
0.0
  0
LINE
  8
0
 62
     0
 10
39.3831
 20
71.8661
 30
0.0
 11
39.3831
 21
72.8652
 31
0.0
  0
LINE
  8
0
 62
     0
 10
39.3831
 20
72.8652
 30
0.0
 11
25.3821
 21
72.8652
 31
0.0
  0
LINE
  8
0
 62
     0
 10
84.1195
 20
91.9152
 30
0.0
 11
84.1195
 21
90.9161
 31
0.0
  0
LINE
  8
0
 62
     0
 10
84.1195
 20
90.9161
 30
0.0
 11
83.3191
 21
90.9161
 31
0.0
  0
LINE
  8
0
 62
     0
 10
83.3191
 20
90.9161
 30
0.0
 11
83.3191
 21
87.8156
 31
0.0
  0
LINE
  8
0
 62
     0
 10
83.3191
 20
87.8156
 30
0.0
 11
84.1195
 21
87.8156
 31
0.0
  0
LINE
  8
0
 62
     0
 10
84.1195
 20
87.8156
 30
0.0
 11
84.1195
 21
87.2162
 31
0.0
  0
LINE
  8
0
 62
     0
 10
84.1195
 20
87.2162
 30
0.0
 11
82.5941
 21
87.2162
 31
0.0
  0
LINE
  8
0
 62
     0
 10
82.5941
 20
87.2162
 30
0.0
 11
82.5941
 21
90.4462
 31
0.0
  0
LINE
  8
0
 62
     0
 10
82.5941
 20
90.4462
 30
0.0
 11
80.8701
 21
90.4462
 31
0.0
  0
LINE
  8
0
 62
     0
 10
80.8701
 20
90.4462
 30
0.0
 11
80.8701
 21
91.3652
 31
0.0
  0
LINE
  8
0
 62
     0
 10
80.8701
 20
91.3652
 30
0.0
 11
77.5698
 21
91.3652
 31
0.0
  0
LINE
  8
0
 62
     0
 10
77.5698
 20
91.3652
 30
0.0
 11
77.5698
 21
90.4462
 31
0.0
  0
LINE
  8
0
 62
     0
 10
77.5698
 20
90.4462
 30
0.0
 11
75.8444
 21
90.4462
 31
0.0
  0
LINE
  8
0
 62
     0
 10
75.8444
 20
90.4462
 30
0.0
 11
75.8444
 21
87.2162
 31
0.0
  0
LINE
  8
0
 62
     0
 10
75.8444
 20
87.2162
 30
0.0
 11
75.0189
 21
87.2162
 31
0.0
  0
LINE
  8
0
 62
     0
 10
75.0189
 20
87.2162
 30
0.0
 11
75.0189
 21
84.4158
 31
0.0
  0
LINE
  8
0
 62
     0
 10
75.0189
 20
84.4158
 30
0.0
 11
75.8444
 21
84.4158
 31
0.0
  0
LINE
  8
0
 62
     0
 10
75.8444
 20
84.4158
 30
0.0
 11
75.8444
 21
78.1459
 31
0.0
  0
LINE
  8
0
 62
     0
 10
75.8444
 20
78.1459
 30
0.0
 11
77.5698
 21
78.1459
 31
0.0
  0
LINE
  8
0
 62
     0
 10
77.5698
 20
78.1459
 30
0.0
 11
77.5698
 21
77.1659
 31
0.0
  0
LINE
  8
0
 62
     0
 10
77.5698
 20
77.1659
 30
0.0
 11
80.8701
 21
77.1659
 31
0.0
  0
LINE
  8
0
 62
     0
 10
80.8701
 20
77.1659
 30
0.0
 11
80.8701
 21
78.1459
 31
0.0
  0
LINE
  8
0
 62
     0
 10
80.8701
 20
78.1459
 30
0.0
 11
82.5941
 21
78.1459
 31
0.0
  0
LINE
  8
0
 62
     0
 10
82.5941
 20
78.1459
 30
0.0
 11
82.5941
 21
82.6163
 31
0.0
  0
LINE
  8
0
 62
     0
 10
82.5941
 20
82.6163
 30
0.0
 11
84.1195
 21
82.6163
 31
0.0
  0
LINE
  8
0
 62
     0
 10
84.1195
 20
82.6163
 30
0.0
 11
84.1195
 21
82.0152
 31
0.0
  0
LINE
  8
0
 62
     0
 10
84.1195
 20
82.0152
 30
0.0
 11
83.3191
 21
82.0152
 31
0.0
  0
LINE
  8
0
 62
     0
 10
83.3191
 20
82.0152
 30
0.0
 11
83.3191
 21
78.916
 31
0.0
  0
LINE
  8
0
 62
     0
 10
83.3191
 20
78.916
 30
0.0
 11
84.1195
 21
78.916
 31
0.0
  0
LINE
  8
0
 62
     0
 10
84.1195
 20
78.916
 30
0.0
 11
84.1195
 21
77.9156
 31
0.0
  0
LINE
  8
0
 62
     0
 10
84.1195
 20
77.9156
 30
0.0
 11
98.1191
 21
77.9156
 31
0.0
  0
LINE
  8
0
 62
     0
 10
98.1191
 20
77.9156
 30
0.0
 11
98.1191
 21
78.916
 31
0.0
  0
LINE
  8
0
 62
     0
 10
98.1191
 20
78.916
 30
0.0
 11
98.9196
 21
78.916
 31
0.0
  0
LINE
  8
0
 62
     0
 10
98.9196
 20
78.916
 30
0.0
 11
98.9196
 21
82.0152
 31
0.0
  0
LINE
  8
0
 62
     0
 10
98.9196
 20
82.0152
 30
0.0
 11
98.1191
 21
82.0152
 31
0.0
  0
LINE
  8
0
 62
     0
 10
98.1191
 20
82.0152
 30
0.0
 11
98.1191
 21
82.6163
 31
0.0
  0
LINE
  8
0
 62
     0
 10
98.1191
 20
82.6163
 30
0.0
 11
99.6446
 21
82.6163
 31
0.0
  0
LINE
  8
0
 62
     0
 10
99.6446
 20
82.6163
 30
0.0
 11
99.6446
 21
78.1459
 31
0.0
  0
LINE
  8
0
 62
     0
 10
99.6446
 20
78.1459
 30
0.0
 11
101.37
 21
78.1459
 31
0.0
  0
LINE
  8
0
 62
     0
 10
101.37
 20
78.1459
 30
0.0
 11
101.37
 21
77.1659
 31
0.0
  0
LINE
  8
0
 62
     0
 10
101.37
 20
77.1659
 30
0.0
 11
104.669
 21
77.1659
 31
0.0
  0
LINE
  8
0
 62
     0
 10
104.669
 20
77.1659
 30
0.0
 11
104.669
 21
78.1459
 31
0.0
  0
LINE
  8
0
 62
     0
 10
104.669
 20
78.1459
 30
0.0
 11
106.394
 21
78.1459
 31
0.0
  0
LINE
  8
0
 62
     0
 10
106.394
 20
78.1459
 30
0.0
 11
106.394
 21
84.4158
 31
0.0
  0
LINE
  8
0
 62
     0
 10
106.394
 20
84.4158
 30
0.0
 11
107.22
 21
84.4158
 31
0.0
  0
LINE
  8
0
 62
     0
 10
107.22
 20
84.4158
 30
0.0
 11
107.22
 21
87.2162
 31
0.0
  0
LINE
  8
0
 62
     0
 10
107.22
 20
87.2162
 30
0.0
 11
106.394
 21
87.2162
 31
0.0
  0
LINE
  8
0
 62
     0
 10
106.394
 20
87.2162
 30
0.0
 11
106.394
 21
90.4462
 31
0.0
  0
LINE
  8
0
 62
     0
 10
106.394
 20
90.4462
 30
0.0
 11
104.669
 21
90.4462
 31
0.0
  0
LINE
  8
0
 62
     0
 10
104.669
 20
90.4462
 30
0.0
 11
104.669
 21
91.3652
 31
0.0
  0
LINE
  8
0
 62
     0
 10
104.669
 20
91.3652
 30
0.0
 11
101.37
 21
91.3652
 31
0.0
  0
LINE
  8
0
 62
     0
 10
101.37
 20
91.3652
 30
0.0
 11
101.37
 21
90.4462
 31
0.0
  0
LINE
  8
0
 62
     0
 10
101.37
 20
90.4462
 30
0.0
 11
99.6446
 21
90.4462
 31
0.0
  0
LINE
  8
0
 62
     0
 10
99.6446
 20
90.4462
 30
0.0
 11
99.6446
 21
87.2162
 31
0.0
  0
LINE
  8
0
 62
     0
 10
99.6446
 20
87.2162
 30
0.0
 11
98.1191
 21
87.2162
 31
0.0
  0
LINE
  8
0
 62
     0
 10
98.1191
 20
87.2162
 30
0.0
 11
98.1191
 21
87.8156
 31
0.0
  0
LINE
  8
0
 62
     0
 10
98.1191
 20
87.8156
 30
0.0
 11
98.9196
 21
87.8156
 31
0.0
  0
LINE
  8
0
 62
     0
 10
98.9196
 20
87.8156
 30
0.0
 11
98.9196
 21
90.9161
 31
0.0
  0
LINE
  8
0
 62
     0
 10
98.9196
 20
90.9161
 30
0.0
 11
98.1191
 21
90.9161
 31
0.0
  0
LINE
  8
0
 62
     0
 10
98.1191
 20
90.9161
 30
0.0
 11
98.1191
 21
91.9152
 31
0.0
  0
LINE
  8
0
 62
     0
 10
98.1191
 20
91.9152
 30
0.0
 11
84.1195
 21
91.9152
 31
0.0
  0
LINE
  8
0
 62
     0
 10
188.895
 20
91.9152
 30
0.0
 11
188.895
 21
90.9161
 31
0.0
  0
LINE
  8
0
 62
     0
 10
188.895
 20
90.9161
 30
0.0
 11
188.094
 21
90.9161
 31
0.0
  0
LINE
  8
0
 62
     0
 10
188.094
 20
90.9161
 30
0.0
 11
188.094
 21
87.8156
 31
0.0
  0
LINE
  8
0
 62
     0
 10
188.094
 20
87.8156
 30
0.0
 11
188.895
 21
87.8156
 31
0.0
  0
LINE
  8
0
 62
     0
 10
188.895
 20
87.8156
 30
0.0
 11
188.895
 21
82.0152
 31
0.0
  0
LINE
  8
0
 62
     0
 10
188.895
 20
82.0152
 30
0.0
 11
188.094
 21
82.0152
 31
0.0
  0
LINE
  8
0
 62
     0
 10
188.094
 20
82.0152
 30
0.0
 11
188.094
 21
78.916
 31
0.0
  0
LINE
  8
0
 62
     0
 10
188.094
 20
78.916
 30
0.0
 11
188.895
 21
78.916
 31
0.0
  0
LINE
  8
0
 62
     0
 10
188.895
 20
78.916
 30
0.0
 11
188.895
 21
77.9156
 31
0.0
  0
LINE
  8
0
 62
     0
 10
188.895
 20
77.9156
 30
0.0
 11
202.894
 21
77.9156
 31
0.0
  0
LINE
  8
0
 62
     0
 10
202.894
 20
77.9156
 30
0.0
 11
202.894
 21
78.916
 31
0.0
  0
LINE
  8
0
 62
     0
 10
202.894
 20
78.916
 30
0.0
 11
203.695
 21
78.916
 31
0.0
  0
LINE
  8
0
 62
     0
 10
203.695
 20
78.916
 30
0.0
 11
203.695
 21
82.0152
 31
0.0
  0
LINE
  8
0
 62
     0
 10
203.695
 20
82.0152
 30
0.0
 11
202.894
 21
82.0152
 31
0.0
  0
LINE
  8
0
 62
     0
 10
202.894
 20
82.0152
 30
0.0
 11
202.894
 21
87.8156
 31
0.0
  0
LINE
  8
0
 62
     0
 10
202.894
 20
87.8156
 30
0.0
 11
203.695
 21
87.8156
 31
0.0
  0
LINE
  8
0
 62
     0
 10
203.695
 20
87.8156
 30
0.0
 11
203.695
 21
90.9161
 31
0.0
  0
LINE
  8
0
 62
     0
 10
203.695
 20
90.9161
 30
0.0
 11
202.894
 21
90.9161
 31
0.0
  0
LINE
  8
0
 62
     0
 10
202.894
 20
90.9161
 30
0.0
 11
202.894
 21
91.9152
 31
0.0
  0
LINE
  8
0
 62
     0
 10
202.894
 20
91.9152
 30
0.0
 11
188.895
 21
91.9152
 31
0.0
  0
LINE
  8
0
 62
     0
 10
169.845
 20
91.9152
 30
0.0
 11
169.845
 21
90.9161
 31
0.0
  0
LINE
  8
0
 62
     0
 10
169.845
 20
90.9161
 30
0.0
 11
169.044
 21
90.9161
 31
0.0
  0
LINE
  8
0
 62
     0
 10
169.044
 20
90.9161
 30
0.0
 11
169.044
 21
87.8156
 31
0.0
  0
LINE
  8
0
 62
     0
 10
169.044
 20
87.8156
 30
0.0
 11
169.845
 21
87.8156
 31
0.0
  0
LINE
  8
0
 62
     0
 10
169.845
 20
87.8156
 30
0.0
 11
169.845
 21
82.0152
 31
0.0
  0
LINE
  8
0
 62
     0
 10
169.845
 20
82.0152
 30
0.0
 11
169.044
 21
82.0152
 31
0.0
  0
LINE
  8
0
 62
     0
 10
169.044
 20
82.0152
 30
0.0
 11
169.044
 21
78.916
 31
0.0
  0
LINE
  8
0
 62
     0
 10
169.044
 20
78.916
 30
0.0
 11
169.845
 21
78.916
 31
0.0
  0
LINE
  8
0
 62
     0
 10
169.845
 20
78.916
 30
0.0
 11
169.845
 21
77.9156
 31
0.0
  0
LINE
  8
0
 62
     0
 10
169.845
 20
77.9156
 30
0.0
 11
183.844
 21
77.9156
 31
0.0
  0
LINE
  8
0
 62
     0
 10
183.844
 20
77.9156
 30
0.0
 11
183.844
 21
78.916
 31
0.0
  0
LINE
  8
0
 62
     0
 10
183.844
 20
78.916
 30
0.0
 11
184.645
 21
78.916
 31
0.0
  0
LINE
  8
0
 62
     0
 10
184.645
 20
78.916
 30
0.0
 11
184.645
 21
82.0152
 31
0.0
  0
LINE
  8
0
 62
     0
 10
184.645
 20
82.0152
 30
0.0
 11
183.844
 21
82.0152
 31
0.0
  0
LINE
  8
0
 62
     0
 10
183.844
 20
82.0152
 30
0.0
 11
183.844
 21
87.8156
 31
0.0
  0
LINE
  8
0
 62
     0
 10
183.844
 20
87.8156
 30
0.0
 11
184.645
 21
87.8156
 31
0.0
  0
LINE
  8
0
 62
     0
 10
184.645
 20
87.8156
 30
0.0
 11
184.645
 21
90.9161
 31
0.0
  0
LINE
  8
0
 62
     0
 10
184.645
 20
90.9161
 30
0.0
 11
183.844
 21
90.9161
 31
0.0
  0
LINE
  8
0
 62
     0
 10
183.844
 20
90.9161
 30
0.0
 11
183.844
 21
91.9152
 31
0.0
  0
LINE
  8
0
 62
     0
 10
183.844
 20
91.9152
 30
0.0
 11
169.845
 21
91.9152
 31
0.0
  0
LINE
  8
0
 62
     0
 10
150.795
 20
91.9152
 30
0.0
 11
150.795
 21
90.9161
 31
0.0
  0
LINE
  8
0
 62
     0
 10
150.795
 20
90.9161
 30
0.0
 11
149.994
 21
90.9161
 31
0.0
  0
LINE
  8
0
 62
     0
 10
149.994
 20
90.9161
 30
0.0
 11
149.994
 21
87.8156
 31
0.0
  0
LINE
  8
0
 62
     0
 10
149.994
 20
87.8156
 30
0.0
 11
150.795
 21
87.8156
 31
0.0
  0
LINE
  8
0
 62
     0
 10
150.795
 20
87.8156
 30
0.0
 11
150.795
 21
82.0152
 31
0.0
  0
LINE
  8
0
 62
     0
 10
150.795
 20
82.0152
 30
0.0
 11
149.994
 21
82.0152
 31
0.0
  0
LINE
  8
0
 62
     0
 10
149.994
 20
82.0152
 30
0.0
 11
149.994
 21
78.916
 31
0.0
  0
LINE
  8
0
 62
     0
 10
149.994
 20
78.916
 30
0.0
 11
150.795
 21
78.916
 31
0.0
  0
LINE
  8
0
 62
     0
 10
150.795
 20
78.916
 30
0.0
 11
150.795
 21
77.9156
 31
0.0
  0
LINE
  8
0
 62
     0
 10
150.795
 20
77.9156
 30
0.0
 11
164.794
 21
77.9156
 31
0.0
  0
LINE
  8
0
 62
     0
 10
164.794
 20
77.9156
 30
0.0
 11
164.794
 21
78.916
 31
0.0
  0
LINE
  8
0
 62
     0
 10
164.794
 20
78.916
 30
0.0
 11
165.595
 21
78.916
 31
0.0
  0
LINE
  8
0
 62
     0
 10
165.595
 20
78.916
 30
0.0
 11
165.595
 21
82.0152
 31
0.0
  0
LINE
  8
0
 62
     0
 10
165.595
 20
82.0152
 30
0.0
 11
164.794
 21
82.0152
 31
0.0
  0
LINE
  8
0
 62
     0
 10
164.794
 20
82.0152
 30
0.0
 11
164.794
 21
87.8156
 31
0.0
  0
LINE
  8
0
 62
     0
 10
164.794
 20
87.8156
 30
0.0
 11
165.595
 21
87.8156
 31
0.0
  0
LINE
  8
0
 62
     0
 10
165.595
 20
87.8156
 30
0.0
 11
165.595
 21
90.9161
 31
0.0
  0
LINE
  8
0
 62
     0
 10
165.595
 20
90.9161
 30
0.0
 11
164.794
 21
90.9161
 31
0.0
  0
LINE
  8
0
 62
     0
 10
164.794
 20
90.9161
 30
0.0
 11
164.794
 21
91.9152
 31
0.0
  0
LINE
  8
0
 62
     0
 10
164.794
 20
91.9152
 30
0.0
 11
150.795
 21
91.9152
 31
0.0
  0
LINE
  8
0
 62
     0
 10
131.745
 20
91.9152
 30
0.0
 11
131.745
 21
90.9161
 31
0.0
  0
LINE
  8
0
 62
     0
 10
131.745
 20
90.9161
 30
0.0
 11
130.944
 21
90.9161
 31
0.0
  0
LINE
  8
0
 62
     0
 10
130.944
 20
90.9161
 30
0.0
 11
130.944
 21
87.8156
 31
0.0
  0
LINE
  8
0
 62
     0
 10
130.944
 20
87.8156
 30
0.0
 11
131.745
 21
87.8156
 31
0.0
  0
LINE
  8
0
 62
     0
 10
131.745
 20
87.8156
 30
0.0
 11
131.745
 21
82.0152
 31
0.0
  0
LINE
  8
0
 62
     0
 10
131.745
 20
82.0152
 30
0.0
 11
130.944
 21
82.0152
 31
0.0
  0
LINE
  8
0
 62
     0
 10
130.944
 20
82.0152
 30
0.0
 11
130.944
 21
78.916
 31
0.0
  0
LINE
  8
0
 62
     0
 10
130.944
 20
78.916
 30
0.0
 11
131.745
 21
78.916
 31
0.0
  0
LINE
  8
0
 62
     0
 10
131.745
 20
78.916
 30
0.0
 11
131.745
 21
77.9156
 31
0.0
  0
LINE
  8
0
 62
     0
 10
131.745
 20
77.9156
 30
0.0
 11
145.744
 21
77.9156
 31
0.0
  0
LINE
  8
0
 62
     0
 10
145.744
 20
77.9156
 30
0.0
 11
145.744
 21
78.916
 31
0.0
  0
LINE
  8
0
 62
     0
 10
145.744
 20
78.916
 30
0.0
 11
146.545
 21
78.916
 31
0.0
  0
LINE
  8
0
 62
     0
 10
146.545
 20
78.916
 30
0.0
 11
146.545
 21
82.0152
 31
0.0
  0
LINE
  8
0
 62
     0
 10
146.545
 20
82.0152
 30
0.0
 11
145.744
 21
82.0152
 31
0.0
  0
LINE
  8
0
 62
     0
 10
145.744
 20
82.0152
 30
0.0
 11
145.744
 21
87.8156
 31
0.0
  0
LINE
  8
0
 62
     0
 10
145.744
 20
87.8156
 30
0.0
 11
146.545
 21
87.8156
 31
0.0
  0
LINE
  8
0
 62
     0
 10
146.545
 20
87.8156
 30
0.0
 11
146.545
 21
90.9161
 31
0.0
  0
LINE
  8
0
 62
     0
 10
146.545
 20
90.9161
 30
0.0
 11
145.744
 21
90.9161
 31
0.0
  0
LINE
  8
0
 62
     0
 10
145.744
 20
90.9161
 30
0.0
 11
145.744
 21
91.9152
 31
0.0
  0
LINE
  8
0
 62
     0
 10
145.744
 20
91.9152
 30
0.0
 11
131.745
 21
91.9152
 31
0.0
  0
LINE
  8
0
 62
     0
 10
112.695
 20
91.9152
 30
0.0
 11
112.695
 21
90.9161
 31
0.0
  0
LINE
  8
0
 62
     0
 10
112.695
 20
90.9161
 30
0.0
 11
111.894
 21
90.9161
 31
0.0
  0
LINE
  8
0
 62
     0
 10
111.894
 20
90.9161
 30
0.0
 11
111.894
 21
87.8156
 31
0.0
  0
LINE
  8
0
 62
     0
 10
111.894
 20
87.8156
 30
0.0
 11
112.695
 21
87.8156
 31
0.0
  0
LINE
  8
0
 62
     0
 10
112.695
 20
87.8156
 30
0.0
 11
112.695
 21
82.0152
 31
0.0
  0
LINE
  8
0
 62
     0
 10
112.695
 20
82.0152
 30
0.0
 11
111.894
 21
82.0152
 31
0.0
  0
LINE
  8
0
 62
     0
 10
111.894
 20
82.0152
 30
0.0
 11
111.894
 21
78.916
 31
0.0
  0
LINE
  8
0
 62
     0
 10
111.894
 20
78.916
 30
0.0
 11
112.695
 21
78.916
 31
0.0
  0
LINE
  8
0
 62
     0
 10
112.695
 20
78.916
 30
0.0
 11
112.695
 21
77.9156
 31
0.0
  0
LINE
  8
0
 62
     0
 10
112.695
 20
77.9156
 30
0.0
 11
126.694
 21
77.9156
 31
0.0
  0
LINE
  8
0
 62
     0
 10
126.694
 20
77.9156
 30
0.0
 11
126.694
 21
78.916
 31
0.0
  0
LINE
  8
0
 62
     0
 10
126.694
 20
78.916
 30
0.0
 11
127.495
 21
78.916
 31
0.0
  0
LINE
  8
0
 62
     0
 10
127.495
 20
78.916
 30
0.0
 11
127.495
 21
82.0152
 31
0.0
  0
LINE
  8
0
 62
     0
 10
127.495
 20
82.0152
 30
0.0
 11
126.694
 21
82.0152
 31
0.0
  0
LINE
  8
0
 62
     0
 10
126.694
 20
82.0152
 30
0.0
 11
126.694
 21
87.8156
 31
0.0
  0
LINE
  8
0
 62
     0
 10
126.694
 20
87.8156
 30
0.0
 11
127.495
 21
87.8156
 31
0.0
  0
LINE
  8
0
 62
     0
 10
127.495
 20
87.8156
 30
0.0
 11
127.495
 21
90.9161
 31
0.0
  0
LINE
  8
0
 62
     0
 10
127.495
 20
90.9161
 30
0.0
 11
126.694
 21
90.9161
 31
0.0
  0
LINE
  8
0
 62
     0
 10
126.694
 20
90.9161
 30
0.0
 11
126.694
 21
91.9152
 31
0.0
  0
LINE
  8
0
 62
     0
 10
126.694
 20
91.9152
 30
0.0
 11
112.695
 21
91.9152
 31
0.0
  0
LINE
  8
0
 62
     0
 10
25.3821
 20
91.9152
 30
0.0
 11
25.3821
 21
90.9161
 31
0.0
  0
LINE
  8
0
 62
     0
 10
25.3821
 20
90.9161
 30
0.0
 11
24.5828
 21
90.9161
 31
0.0
  0
LINE
  8
0
 62
     0
 10
24.5828
 20
90.9161
 30
0.0
 11
24.5828
 21
87.8156
 31
0.0
  0
LINE
  8
0
 62
     0
 10
24.5828
 20
87.8156
 30
0.0
 11
25.3821
 21
87.8156
 31
0.0
  0
LINE
  8
0
 62
     0
 10
25.3821
 20
87.8156
 30
0.0
 11
25.3821
 21
82.0152
 31
0.0
  0
LINE
  8
0
 62
     0
 10
25.3821
 20
82.0152
 30
0.0
 11
24.5828
 21
82.0152
 31
0.0
  0
LINE
  8
0
 62
     0
 10
24.5828
 20
82.0152
 30
0.0
 11
24.5828
 21
78.916
 31
0.0
  0
LINE
  8
0
 62
     0
 10
24.5828
 20
78.916
 30
0.0
 11
25.3821
 21
78.916
 31
0.0
  0
LINE
  8
0
 62
     0
 10
25.3821
 20
78.916
 30
0.0
 11
25.3821
 21
77.9156
 31
0.0
  0
LINE
  8
0
 62
     0
 10
25.3821
 20
77.9156
 30
0.0
 11
39.3831
 21
77.9156
 31
0.0
  0
LINE
  8
0
 62
     0
 10
39.3831
 20
77.9156
 30
0.0
 11
39.3831
 21
78.916
 31
0.0
  0
LINE
  8
0
 62
     0
 10
39.3831
 20
78.916
 30
0.0
 11
40.1821
 21
78.916
 31
0.0
  0
LINE
  8
0
 62
     0
 10
40.1821
 20
78.916
 30
0.0
 11
40.1821
 21
82.0152
 31
0.0
  0
LINE
  8
0
 62
     0
 10
40.1821
 20
82.0152
 30
0.0
 11
39.3831
 21
82.0152
 31
0.0
  0
LINE
  8
0
 62
     0
 10
39.3831
 20
82.0152
 30
0.0
 11
39.3831
 21
87.8156
 31
0.0
  0
LINE
  8
0
 62
     0
 10
39.3831
 20
87.8156
 30
0.0
 11
40.1821
 21
87.8156
 31
0.0
  0
LINE
  8
0
 62
     0
 10
40.1821
 20
87.8156
 30
0.0
 11
40.1821
 21
90.9161
 31
0.0
  0
LINE
  8
0
 62
     0
 10
40.1821
 20
90.9161
 30
0.0
 11
39.3831
 21
90.9161
 31
0.0
  0
LINE
  8
0
 62
     0
 10
39.3831
 20
90.9161
 30
0.0
 11
39.3831
 21
91.9152
 31
0.0
  0
LINE
  8
0
 62
     0
 10
39.3831
 20
91.9152
 30
0.0
 11
25.3821
 21
91.9152
 31
0.0
  0
LINE
  8
0
 62
     0
 10
84.1195
 20
110.965
 30
0.0
 11
84.1195
 21
109.966
 31
0.0
  0
LINE
  8
0
 62
     0
 10
84.1195
 20
109.966
 30
0.0
 11
83.3191
 21
109.966
 31
0.0
  0
LINE
  8
0
 62
     0
 10
83.3191
 20
109.966
 30
0.0
 11
83.3191
 21
106.866
 31
0.0
  0
LINE
  8
0
 62
     0
 10
83.3191
 20
106.866
 30
0.0
 11
84.1195
 21
106.866
 31
0.0
  0
LINE
  8
0
 62
     0
 10
84.1195
 20
106.866
 30
0.0
 11
84.1195
 21
106.266
 31
0.0
  0
LINE
  8
0
 62
     0
 10
84.1195
 20
106.266
 30
0.0
 11
82.5941
 21
106.266
 31
0.0
  0
LINE
  8
0
 62
     0
 10
82.5941
 20
106.266
 30
0.0
 11
82.5941
 21
109.496
 31
0.0
  0
LINE
  8
0
 62
     0
 10
82.5941
 20
109.496
 30
0.0
 11
80.8701
 21
109.496
 31
0.0
  0
LINE
  8
0
 62
     0
 10
80.8701
 20
109.496
 30
0.0
 11
80.8701
 21
110.415
 31
0.0
  0
LINE
  8
0
 62
     0
 10
80.8701
 20
110.415
 30
0.0
 11
77.5698
 21
110.415
 31
0.0
  0
LINE
  8
0
 62
     0
 10
77.5698
 20
110.415
 30
0.0
 11
77.5698
 21
109.496
 31
0.0
  0
LINE
  8
0
 62
     0
 10
77.5698
 20
109.496
 30
0.0
 11
75.8444
 21
109.496
 31
0.0
  0
LINE
  8
0
 62
     0
 10
75.8444
 20
109.496
 30
0.0
 11
75.8444
 21
106.266
 31
0.0
  0
LINE
  8
0
 62
     0
 10
75.8444
 20
106.266
 30
0.0
 11
75.0189
 21
106.266
 31
0.0
  0
LINE
  8
0
 62
     0
 10
75.0189
 20
106.266
 30
0.0
 11
75.0189
 21
103.466
 31
0.0
  0
LINE
  8
0
 62
     0
 10
75.0189
 20
103.466
 30
0.0
 11
75.8444
 21
103.466
 31
0.0
  0
LINE
  8
0
 62
     0
 10
75.8444
 20
103.466
 30
0.0
 11
75.8444
 21
97.1959
 31
0.0
  0
LINE
  8
0
 62
     0
 10
75.8444
 20
97.1959
 30
0.0
 11
77.5698
 21
97.1959
 31
0.0
  0
LINE
  8
0
 62
     0
 10
77.5698
 20
97.1959
 30
0.0
 11
77.5698
 21
96.2159
 31
0.0
  0
LINE
  8
0
 62
     0
 10
77.5698
 20
96.2159
 30
0.0
 11
80.8701
 21
96.2159
 31
0.0
  0
LINE
  8
0
 62
     0
 10
80.8701
 20
96.2159
 30
0.0
 11
80.8701
 21
97.1959
 31
0.0
  0
LINE
  8
0
 62
     0
 10
80.8701
 20
97.1959
 30
0.0
 11
82.5941
 21
97.1959
 31
0.0
  0
LINE
  8
0
 62
     0
 10
82.5941
 20
97.1959
 30
0.0
 11
82.5941
 21
101.666
 31
0.0
  0
LINE
  8
0
 62
     0
 10
82.5941
 20
101.666
 30
0.0
 11
84.1195
 21
101.666
 31
0.0
  0
LINE
  8
0
 62
     0
 10
84.1195
 20
101.666
 30
0.0
 11
84.1195
 21
101.065
 31
0.0
  0
LINE
  8
0
 62
     0
 10
84.1195
 20
101.065
 30
0.0
 11
83.3191
 21
101.065
 31
0.0
  0
LINE
  8
0
 62
     0
 10
83.3191
 20
101.065
 30
0.0
 11
83.3191
 21
97.966
 31
0.0
  0
LINE
  8
0
 62
     0
 10
83.3191
 20
97.966
 30
0.0
 11
84.1195
 21
97.966
 31
0.0
  0
LINE
  8
0
 62
     0
 10
84.1195
 20
97.966
 30
0.0
 11
84.1195
 21
96.9656
 31
0.0
  0
LINE
  8
0
 62
     0
 10
84.1195
 20
96.9656
 30
0.0
 11
98.1191
 21
96.9656
 31
0.0
  0
LINE
  8
0
 62
     0
 10
98.1191
 20
96.9656
 30
0.0
 11
98.1191
 21
97.966
 31
0.0
  0
LINE
  8
0
 62
     0
 10
98.1191
 20
97.966
 30
0.0
 11
98.9196
 21
97.966
 31
0.0
  0
LINE
  8
0
 62
     0
 10
98.9196
 20
97.966
 30
0.0
 11
98.9196
 21
101.065
 31
0.0
  0
LINE
  8
0
 62
     0
 10
98.9196
 20
101.065
 30
0.0
 11
98.1191
 21
101.065
 31
0.0
  0
LINE
  8
0
 62
     0
 10
98.1191
 20
101.065
 30
0.0
 11
98.1191
 21
101.666
 31
0.0
  0
LINE
  8
0
 62
     0
 10
98.1191
 20
101.666
 30
0.0
 11
99.6446
 21
101.666
 31
0.0
  0
LINE
  8
0
 62
     0
 10
99.6446
 20
101.666
 30
0.0
 11
99.6446
 21
97.1959
 31
0.0
  0
LINE
  8
0
 62
     0
 10
99.6446
 20
97.1959
 30
0.0
 11
101.37
 21
97.1959
 31
0.0
  0
LINE
  8
0
 62
     0
 10
101.37
 20
97.1959
 30
0.0
 11
101.37
 21
96.2159
 31
0.0
  0
LINE
  8
0
 62
     0
 10
101.37
 20
96.2159
 30
0.0
 11
104.669
 21
96.2159
 31
0.0
  0
LINE
  8
0
 62
     0
 10
104.669
 20
96.2159
 30
0.0
 11
104.669
 21
97.1959
 31
0.0
  0
LINE
  8
0
 62
     0
 10
104.669
 20
97.1959
 30
0.0
 11
106.394
 21
97.1959
 31
0.0
  0
LINE
  8
0
 62
     0
 10
106.394
 20
97.1959
 30
0.0
 11
106.394
 21
103.466
 31
0.0
  0
LINE
  8
0
 62
     0
 10
106.394
 20
103.466
 30
0.0
 11
107.22
 21
103.466
 31
0.0
  0
LINE
  8
0
 62
     0
 10
107.22
 20
103.466
 30
0.0
 11
107.22
 21
106.266
 31
0.0
  0
LINE
  8
0
 62
     0
 10
107.22
 20
106.266
 30
0.0
 11
106.394
 21
106.266
 31
0.0
  0
LINE
  8
0
 62
     0
 10
106.394
 20
106.266
 30
0.0
 11
106.394
 21
109.496
 31
0.0
  0
LINE
  8
0
 62
     0
 10
106.394
 20
109.496
 30
0.0
 11
104.669
 21
109.496
 31
0.0
  0
LINE
  8
0
 62
     0
 10
104.669
 20
109.496
 30
0.0
 11
104.669
 21
110.415
 31
0.0
  0
LINE
  8
0
 62
     0
 10
104.669
 20
110.415
 30
0.0
 11
101.37
 21
110.415
 31
0.0
  0
LINE
  8
0
 62
     0
 10
101.37
 20
110.415
 30
0.0
 11
101.37
 21
109.496
 31
0.0
  0
LINE
  8
0
 62
     0
 10
101.37
 20
109.496
 30
0.0
 11
99.6446
 21
109.496
 31
0.0
  0
LINE
  8
0
 62
     0
 10
99.6446
 20
109.496
 30
0.0
 11
99.6446
 21
106.266
 31
0.0
  0
LINE
  8
0
 62
     0
 10
99.6446
 20
106.266
 30
0.0
 11
98.1191
 21
106.266
 31
0.0
  0
LINE
  8
0
 62
     0
 10
98.1191
 20
106.266
 30
0.0
 11
98.1191
 21
106.866
 31
0.0
  0
LINE
  8
0
 62
     0
 10
98.1191
 20
106.866
 30
0.0
 11
98.9196
 21
106.866
 31
0.0
  0
LINE
  8
0
 62
     0
 10
98.9196
 20
106.866
 30
0.0
 11
98.9196
 21
109.966
 31
0.0
  0
LINE
  8
0
 62
     0
 10
98.9196
 20
109.966
 30
0.0
 11
98.1191
 21
109.966
 31
0.0
  0
LINE
  8
0
 62
     0
 10
98.1191
 20
109.966
 30
0.0
 11
98.1191
 21
110.965
 31
0.0
  0
LINE
  8
0
 62
     0
 10
98.1191
 20
110.965
 30
0.0
 11
84.1195
 21
110.965
 31
0.0
  0
LINE
  8
0
 62
     0
 10
188.895
 20
110.965
 30
0.0
 11
188.895
 21
109.966
 31
0.0
  0
LINE
  8
0
 62
     0
 10
188.895
 20
109.966
 30
0.0
 11
188.094
 21
109.966
 31
0.0
  0
LINE
  8
0
 62
     0
 10
188.094
 20
109.966
 30
0.0
 11
188.094
 21
106.866
 31
0.0
  0
LINE
  8
0
 62
     0
 10
188.094
 20
106.866
 30
0.0
 11
188.895
 21
106.866
 31
0.0
  0
LINE
  8
0
 62
     0
 10
188.895
 20
106.866
 30
0.0
 11
188.895
 21
101.065
 31
0.0
  0
LINE
  8
0
 62
     0
 10
188.895
 20
101.065
 30
0.0
 11
188.094
 21
101.065
 31
0.0
  0
LINE
  8
0
 62
     0
 10
188.094
 20
101.065
 30
0.0
 11
188.094
 21
97.966
 31
0.0
  0
LINE
  8
0
 62
     0
 10
188.094
 20
97.966
 30
0.0
 11
188.895
 21
97.966
 31
0.0
  0
LINE
  8
0
 62
     0
 10
188.895
 20
97.966
 30
0.0
 11
188.895
 21
96.9656
 31
0.0
  0
LINE
  8
0
 62
     0
 10
188.895
 20
96.9656
 30
0.0
 11
202.894
 21
96.9656
 31
0.0
  0
LINE
  8
0
 62
     0
 10
202.894
 20
96.9656
 30
0.0
 11
202.894
 21
97.966
 31
0.0
  0
LINE
  8
0
 62
     0
 10
202.894
 20
97.966
 30
0.0
 11
203.695
 21
97.966
 31
0.0
  0
LINE
  8
0
 62
     0
 10
203.695
 20
97.966
 30
0.0
 11
203.695
 21
101.065
 31
0.0
  0
LINE
  8
0
 62
     0
 10
203.695
 20
101.065
 30
0.0
 11
202.894
 21
101.065
 31
0.0
  0
LINE
  8
0
 62
     0
 10
202.894
 20
101.065
 30
0.0
 11
202.894
 21
106.866
 31
0.0
  0
LINE
  8
0
 62
     0
 10
202.894
 20
106.866
 30
0.0
 11
203.695
 21
106.866
 31
0.0
  0
LINE
  8
0
 62
     0
 10
203.695
 20
106.866
 30
0.0
 11
203.695
 21
109.966
 31
0.0
  0
LINE
  8
0
 62
     0
 10
203.695
 20
109.966
 30
0.0
 11
202.894
 21
109.966
 31
0.0
  0
LINE
  8
0
 62
     0
 10
202.894
 20
109.966
 30
0.0
 11
202.894
 21
110.965
 31
0.0
  0
LINE
  8
0
 62
     0
 10
202.894
 20
110.965
 30
0.0
 11
188.895
 21
110.965
 31
0.0
  0
LINE
  8
0
 62
     0
 10
169.845
 20
110.965
 30
0.0
 11
169.845
 21
109.966
 31
0.0
  0
LINE
  8
0
 62
     0
 10
169.845
 20
109.966
 30
0.0
 11
169.044
 21
109.966
 31
0.0
  0
LINE
  8
0
 62
     0
 10
169.044
 20
109.966
 30
0.0
 11
169.044
 21
106.866
 31
0.0
  0
LINE
  8
0
 62
     0
 10
169.044
 20
106.866
 30
0.0
 11
169.845
 21
106.866
 31
0.0
  0
LINE
  8
0
 62
     0
 10
169.845
 20
106.866
 30
0.0
 11
169.845
 21
101.065
 31
0.0
  0
LINE
  8
0
 62
     0
 10
169.845
 20
101.065
 30
0.0
 11
169.044
 21
101.065
 31
0.0
  0
LINE
  8
0
 62
     0
 10
169.044
 20
101.065
 30
0.0
 11
169.044
 21
97.966
 31
0.0
  0
LINE
  8
0
 62
     0
 10
169.044
 20
97.966
 30
0.0
 11
169.845
 21
97.966
 31
0.0
  0
LINE
  8
0
 62
     0
 10
169.845
 20
97.966
 30
0.0
 11
169.845
 21
96.9656
 31
0.0
  0
LINE
  8
0
 62
     0
 10
169.845
 20
96.9656
 30
0.0
 11
183.844
 21
96.9656
 31
0.0
  0
LINE
  8
0
 62
     0
 10
183.844
 20
96.9656
 30
0.0
 11
183.844
 21
97.966
 31
0.0
  0
LINE
  8
0
 62
     0
 10
183.844
 20
97.966
 30
0.0
 11
184.645
 21
97.966
 31
0.0
  0
LINE
  8
0
 62
     0
 10
184.645
 20
97.966
 30
0.0
 11
184.645
 21
101.065
 31
0.0
  0
LINE
  8
0
 62
     0
 10
184.645
 20
101.065
 30
0.0
 11
183.844
 21
101.065
 31
0.0
  0
LINE
  8
0
 62
     0
 10
183.844
 20
101.065
 30
0.0
 11
183.844
 21
106.866
 31
0.0
  0
LINE
  8
0
 62
     0
 10
183.844
 20
106.866
 30
0.0
 11
184.645
 21
106.866
 31
0.0
  0
LINE
  8
0
 62
     0
 10
184.645
 20
106.866
 30
0.0
 11
184.645
 21
109.966
 31
0.0
  0
LINE
  8
0
 62
     0
 10
184.645
 20
109.966
 30
0.0
 11
183.844
 21
109.966
 31
0.0
  0
LINE
  8
0
 62
     0
 10
183.844
 20
109.966
 30
0.0
 11
183.844
 21
110.965
 31
0.0
  0
LINE
  8
0
 62
     0
 10
183.844
 20
110.965
 30
0.0
 11
169.845
 21
110.965
 31
0.0
  0
LINE
  8
0
 62
     0
 10
150.795
 20
110.965
 30
0.0
 11
150.795
 21
109.966
 31
0.0
  0
LINE
  8
0
 62
     0
 10
150.795
 20
109.966
 30
0.0
 11
149.994
 21
109.966
 31
0.0
  0
LINE
  8
0
 62
     0
 10
149.994
 20
109.966
 30
0.0
 11
149.994
 21
106.866
 31
0.0
  0
LINE
  8
0
 62
     0
 10
149.994
 20
106.866
 30
0.0
 11
150.795
 21
106.866
 31
0.0
  0
LINE
  8
0
 62
     0
 10
150.795
 20
106.866
 30
0.0
 11
150.795
 21
101.065
 31
0.0
  0
LINE
  8
0
 62
     0
 10
150.795
 20
101.065
 30
0.0
 11
149.994
 21
101.065
 31
0.0
  0
LINE
  8
0
 62
     0
 10
149.994
 20
101.065
 30
0.0
 11
149.994
 21
97.966
 31
0.0
  0
LINE
  8
0
 62
     0
 10
149.994
 20
97.966
 30
0.0
 11
150.795
 21
97.966
 31
0.0
  0
LINE
  8
0
 62
     0
 10
150.795
 20
97.966
 30
0.0
 11
150.795
 21
96.9656
 31
0.0
  0
LINE
  8
0
 62
     0
 10
150.795
 20
96.9656
 30
0.0
 11
164.794
 21
96.9656
 31
0.0
  0
LINE
  8
0
 62
     0
 10
164.794
 20
96.9656
 30
0.0
 11
164.794
 21
97.966
 31
0.0
  0
LINE
  8
0
 62
     0
 10
164.794
 20
97.966
 30
0.0
 11
165.595
 21
97.966
 31
0.0
  0
LINE
  8
0
 62
     0
 10
165.595
 20
97.966
 30
0.0
 11
165.595
 21
101.065
 31
0.0
  0
LINE
  8
0
 62
     0
 10
165.595
 20
101.065
 30
0.0
 11
164.794
 21
101.065
 31
0.0
  0
LINE
  8
0
 62
     0
 10
164.794
 20
101.065
 30
0.0
 11
164.794
 21
106.866
 31
0.0
  0
LINE
  8
0
 62
     0
 10
164.794
 20
106.866
 30
0.0
 11
165.595
 21
106.866
 31
0.0
  0
LINE
  8
0
 62
     0
 10
165.595
 20
106.866
 30
0.0
 11
165.595
 21
109.966
 31
0.0
  0
LINE
  8
0
 62
     0
 10
165.595
 20
109.966
 30
0.0
 11
164.794
 21
109.966
 31
0.0
  0
LINE
  8
0
 62
     0
 10
164.794
 20
109.966
 30
0.0
 11
164.794
 21
110.965
 31
0.0
  0
LINE
  8
0
 62
     0
 10
164.794
 20
110.965
 30
0.0
 11
150.795
 21
110.965
 31
0.0
  0
LINE
  8
0
 62
     0
 10
131.745
 20
110.965
 30
0.0
 11
131.745
 21
109.966
 31
0.0
  0
LINE
  8
0
 62
     0
 10
131.745
 20
109.966
 30
0.0
 11
130.944
 21
109.966
 31
0.0
  0
LINE
  8
0
 62
     0
 10
130.944
 20
109.966
 30
0.0
 11
130.944
 21
106.866
 31
0.0
  0
LINE
  8
0
 62
     0
 10
130.944
 20
106.866
 30
0.0
 11
131.745
 21
106.866
 31
0.0
  0
LINE
  8
0
 62
     0
 10
131.745
 20
106.866
 30
0.0
 11
131.745
 21
101.065
 31
0.0
  0
LINE
  8
0
 62
     0
 10
131.745
 20
101.065
 30
0.0
 11
130.944
 21
101.065
 31
0.0
  0
LINE
  8
0
 62
     0
 10
130.944
 20
101.065
 30
0.0
 11
130.944
 21
97.966
 31
0.0
  0
LINE
  8
0
 62
     0
 10
130.944
 20
97.966
 30
0.0
 11
131.745
 21
97.966
 31
0.0
  0
LINE
  8
0
 62
     0
 10
131.745
 20
97.966
 30
0.0
 11
131.745
 21
96.9656
 31
0.0
  0
LINE
  8
0
 62
     0
 10
131.745
 20
96.9656
 30
0.0
 11
145.744
 21
96.9656
 31
0.0
  0
LINE
  8
0
 62
     0
 10
145.744
 20
96.9656
 30
0.0
 11
145.744
 21
97.966
 31
0.0
  0
LINE
  8
0
 62
     0
 10
145.744
 20
97.966
 30
0.0
 11
146.545
 21
97.966
 31
0.0
  0
LINE
  8
0
 62
     0
 10
146.545
 20
97.966
 30
0.0
 11
146.545
 21
101.065
 31
0.0
  0
LINE
  8
0
 62
     0
 10
146.545
 20
101.065
 30
0.0
 11
145.744
 21
101.065
 31
0.0
  0
LINE
  8
0
 62
     0
 10
145.744
 20
101.065
 30
0.0
 11
145.744
 21
106.866
 31
0.0
  0
LINE
  8
0
 62
     0
 10
145.744
 20
106.866
 30
0.0
 11
146.545
 21
106.866
 31
0.0
  0
LINE
  8
0
 62
     0
 10
146.545
 20
106.866
 30
0.0
 11
146.545
 21
109.966
 31
0.0
  0
LINE
  8
0
 62
     0
 10
146.545
 20
109.966
 30
0.0
 11
145.744
 21
109.966
 31
0.0
  0
LINE
  8
0
 62
     0
 10
145.744
 20
109.966
 30
0.0
 11
145.744
 21
110.965
 31
0.0
  0
LINE
  8
0
 62
     0
 10
145.744
 20
110.965
 30
0.0
 11
131.745
 21
110.965
 31
0.0
  0
LINE
  8
0
 62
     0
 10
112.695
 20
110.965
 30
0.0
 11
112.695
 21
109.966
 31
0.0
  0
LINE
  8
0
 62
     0
 10
112.695
 20
109.966
 30
0.0
 11
111.894
 21
109.966
 31
0.0
  0
LINE
  8
0
 62
     0
 10
111.894
 20
109.966
 30
0.0
 11
111.894
 21
106.866
 31
0.0
  0
LINE
  8
0
 62
     0
 10
111.894
 20
106.866
 30
0.0
 11
112.695
 21
106.866
 31
0.0
  0
LINE
  8
0
 62
     0
 10
112.695
 20
106.866
 30
0.0
 11
112.695
 21
101.065
 31
0.0
  0
LINE
  8
0
 62
     0
 10
112.695
 20
101.065
 30
0.0
 11
111.894
 21
101.065
 31
0.0
  0
LINE
  8
0
 62
     0
 10
111.894
 20
101.065
 30
0.0
 11
111.894
 21
97.966
 31
0.0
  0
LINE
  8
0
 62
     0
 10
111.894
 20
97.966
 30
0.0
 11
112.695
 21
97.966
 31
0.0
  0
LINE
  8
0
 62
     0
 10
112.695
 20
97.966
 30
0.0
 11
112.695
 21
96.9656
 31
0.0
  0
LINE
  8
0
 62
     0
 10
112.695
 20
96.9656
 30
0.0
 11
126.694
 21
96.9656
 31
0.0
  0
LINE
  8
0
 62
     0
 10
126.694
 20
96.9656
 30
0.0
 11
126.694
 21
97.966
 31
0.0
  0
LINE
  8
0
 62
     0
 10
126.694
 20
97.966
 30
0.0
 11
127.495
 21
97.966
 31
0.0
  0
LINE
  8
0
 62
     0
 10
127.495
 20
97.966
 30
0.0
 11
127.495
 21
101.065
 31
0.0
  0
LINE
  8
0
 62
     0
 10
127.495
 20
101.065
 30
0.0
 11
126.694
 21
101.065
 31
0.0
  0
LINE
  8
0
 62
     0
 10
126.694
 20
101.065
 30
0.0
 11
126.694
 21
106.866
 31
0.0
  0
LINE
  8
0
 62
     0
 10
126.694
 20
106.866
 30
0.0
 11
127.495
 21
106.866
 31
0.0
  0
LINE
  8
0
 62
     0
 10
127.495
 20
106.866
 30
0.0
 11
127.495
 21
109.966
 31
0.0
  0
LINE
  8
0
 62
     0
 10
127.495
 20
109.966
 30
0.0
 11
126.694
 21
109.966
 31
0.0
  0
LINE
  8
0
 62
     0
 10
126.694
 20
109.966
 30
0.0
 11
126.694
 21
110.965
 31
0.0
  0
LINE
  8
0
 62
     0
 10
126.694
 20
110.965
 30
0.0
 11
112.695
 21
110.965
 31
0.0
  0
LINE
  8
0
 62
     0
 10
25.3821
 20
110.965
 30
0.0
 11
25.3821
 21
109.966
 31
0.0
  0
LINE
  8
0
 62
     0
 10
25.3821
 20
109.966
 30
0.0
 11
24.5828
 21
109.966
 31
0.0
  0
LINE
  8
0
 62
     0
 10
24.5828
 20
109.966
 30
0.0
 11
24.5828
 21
106.866
 31
0.0
  0
LINE
  8
0
 62
     0
 10
24.5828
 20
106.866
 30
0.0
 11
25.3821
 21
106.866
 31
0.0
  0
LINE
  8
0
 62
     0
 10
25.3821
 20
106.866
 30
0.0
 11
25.3821
 21
101.065
 31
0.0
  0
LINE
  8
0
 62
     0
 10
25.3821
 20
101.065
 30
0.0
 11
24.5828
 21
101.065
 31
0.0
  0
LINE
  8
0
 62
     0
 10
24.5828
 20
101.065
 30
0.0
 11
24.5828
 21
97.966
 31
0.0
  0
LINE
  8
0
 62
     0
 10
24.5828
 20
97.966
 30
0.0
 11
25.3821
 21
97.966
 31
0.0
  0
LINE
  8
0
 62
     0
 10
25.3821
 20
97.966
 30
0.0
 11
25.3821
 21
96.9656
 31
0.0
  0
LINE
  8
0
 62
     0
 10
25.3821
 20
96.9656
 30
0.0
 11
39.3831
 21
96.9656
 31
0.0
  0
LINE
  8
0
 62
     0
 10
39.3831
 20
96.9656
 30
0.0
 11
39.3831
 21
97.966
 31
0.0
  0
LINE
  8
0
 62
     0
 10
39.3831
 20
97.966
 30
0.0
 11
40.1821
 21
97.966
 31
0.0
  0
LINE
  8
0
 62
     0
 10
40.1821
 20
97.966
 30
0.0
 11
40.1821
 21
101.065
 31
0.0
  0
LINE
  8
0
 62
     0
 10
40.1821
 20
101.065
 30
0.0
 11
39.3831
 21
101.065
 31
0.0
  0
LINE
  8
0
 62
     0
 10
39.3831
 20
101.065
 30
0.0
 11
39.3831
 21
106.866
 31
0.0
  0
LINE
  8
0
 62
     0
 10
39.3831
 20
106.866
 30
0.0
 11
40.1821
 21
106.866
 31
0.0
  0
LINE
  8
0
 62
     0
 10
40.1821
 20
106.866
 30
0.0
 11
40.1821
 21
109.966
 31
0.0
  0
LINE
  8
0
 62
     0
 10
40.1821
 20
109.966
 30
0.0
 11
39.3831
 21
109.966
 31
0.0
  0
LINE
  8
0
 62
     0
 10
39.3831
 20
109.966
 30
0.0
 11
39.3831
 21
110.965
 31
0.0
  0
LINE
  8
0
 62
     0
 10
39.3831
 20
110.965
 30
0.0
 11
25.3821
 21
110.965
 31
0.0
  0
LINE
  8
0
 62
     0
 10
84.1195
 20
130.015
 30
0.0
 11
84.1195
 21
129.016
 31
0.0
  0
LINE
  8
0
 62
     0
 10
84.1195
 20
129.016
 30
0.0
 11
83.3191
 21
129.016
 31
0.0
  0
LINE
  8
0
 62
     0
 10
83.3191
 20
129.016
 30
0.0
 11
83.3191
 21
125.916
 31
0.0
  0
LINE
  8
0
 62
     0
 10
83.3191
 20
125.916
 30
0.0
 11
84.1195
 21
125.916
 31
0.0
  0
LINE
  8
0
 62
     0
 10
84.1195
 20
125.916
 30
0.0
 11
84.1195
 21
125.316
 31
0.0
  0
LINE
  8
0
 62
     0
 10
84.1195
 20
125.316
 30
0.0
 11
82.5941
 21
125.316
 31
0.0
  0
LINE
  8
0
 62
     0
 10
82.5941
 20
125.316
 30
0.0
 11
82.5941
 21
128.546
 31
0.0
  0
LINE
  8
0
 62
     0
 10
82.5941
 20
128.546
 30
0.0
 11
80.8701
 21
128.546
 31
0.0
  0
LINE
  8
0
 62
     0
 10
80.8701
 20
128.546
 30
0.0
 11
80.8701
 21
129.465
 31
0.0
  0
LINE
  8
0
 62
     0
 10
80.8701
 20
129.465
 30
0.0
 11
77.5698
 21
129.465
 31
0.0
  0
LINE
  8
0
 62
     0
 10
77.5698
 20
129.465
 30
0.0
 11
77.5698
 21
128.546
 31
0.0
  0
LINE
  8
0
 62
     0
 10
77.5698
 20
128.546
 30
0.0
 11
75.8444
 21
128.546
 31
0.0
  0
LINE
  8
0
 62
     0
 10
75.8444
 20
128.546
 30
0.0
 11
75.8444
 21
125.316
 31
0.0
  0
LINE
  8
0
 62
     0
 10
75.8444
 20
125.316
 30
0.0
 11
75.0189
 21
125.316
 31
0.0
  0
LINE
  8
0
 62
     0
 10
75.0189
 20
125.316
 30
0.0
 11
75.0189
 21
122.516
 31
0.0
  0
LINE
  8
0
 62
     0
 10
75.0189
 20
122.516
 30
0.0
 11
75.8444
 21
122.516
 31
0.0
  0
LINE
  8
0
 62
     0
 10
75.8444
 20
122.516
 30
0.0
 11
75.8444
 21
116.246
 31
0.0
  0
LINE
  8
0
 62
     0
 10
75.8444
 20
116.246
 30
0.0
 11
77.5698
 21
116.246
 31
0.0
  0
LINE
  8
0
 62
     0
 10
77.5698
 20
116.246
 30
0.0
 11
77.5698
 21
115.266
 31
0.0
  0
LINE
  8
0
 62
     0
 10
77.5698
 20
115.266
 30
0.0
 11
80.8701
 21
115.266
 31
0.0
  0
LINE
  8
0
 62
     0
 10
80.8701
 20
115.266
 30
0.0
 11
80.8701
 21
116.246
 31
0.0
  0
LINE
  8
0
 62
     0
 10
80.8701
 20
116.246
 30
0.0
 11
82.5941
 21
116.246
 31
0.0
  0
LINE
  8
0
 62
     0
 10
82.5941
 20
116.246
 30
0.0
 11
82.5941
 21
120.716
 31
0.0
  0
LINE
  8
0
 62
     0
 10
82.5941
 20
120.716
 30
0.0
 11
84.1195
 21
120.716
 31
0.0
  0
LINE
  8
0
 62
     0
 10
84.1195
 20
120.716
 30
0.0
 11
84.1195
 21
120.115
 31
0.0
  0
LINE
  8
0
 62
     0
 10
84.1195
 20
120.115
 30
0.0
 11
83.3191
 21
120.115
 31
0.0
  0
LINE
  8
0
 62
     0
 10
83.3191
 20
120.115
 30
0.0
 11
83.3191
 21
117.016
 31
0.0
  0
LINE
  8
0
 62
     0
 10
83.3191
 20
117.016
 30
0.0
 11
84.1195
 21
117.016
 31
0.0
  0
LINE
  8
0
 62
     0
 10
84.1195
 20
117.016
 30
0.0
 11
84.1195
 21
116.016
 31
0.0
  0
LINE
  8
0
 62
     0
 10
84.1195
 20
116.016
 30
0.0
 11
98.1191
 21
116.016
 31
0.0
  0
LINE
  8
0
 62
     0
 10
98.1191
 20
116.016
 30
0.0
 11
98.1191
 21
117.016
 31
0.0
  0
LINE
  8
0
 62
     0
 10
98.1191
 20
117.016
 30
0.0
 11
98.9196
 21
117.016
 31
0.0
  0
LINE
  8
0
 62
     0
 10
98.9196
 20
117.016
 30
0.0
 11
98.9196
 21
120.115
 31
0.0
  0
LINE
  8
0
 62
     0
 10
98.9196
 20
120.115
 30
0.0
 11
98.1191
 21
120.115
 31
0.0
  0
LINE
  8
0
 62
     0
 10
98.1191
 20
120.115
 30
0.0
 11
98.1191
 21
120.716
 31
0.0
  0
LINE
  8
0
 62
     0
 10
98.1191
 20
120.716
 30
0.0
 11
99.6446
 21
120.716
 31
0.0
  0
LINE
  8
0
 62
     0
 10
99.6446
 20
120.716
 30
0.0
 11
99.6446
 21
116.246
 31
0.0
  0
LINE
  8
0
 62
     0
 10
99.6446
 20
116.246
 30
0.0
 11
101.37
 21
116.246
 31
0.0
  0
LINE
  8
0
 62
     0
 10
101.37
 20
116.246
 30
0.0
 11
101.37
 21
115.266
 31
0.0
  0
LINE
  8
0
 62
     0
 10
101.37
 20
115.266
 30
0.0
 11
104.669
 21
115.266
 31
0.0
  0
LINE
  8
0
 62
     0
 10
104.669
 20
115.266
 30
0.0
 11
104.669
 21
116.246
 31
0.0
  0
LINE
  8
0
 62
     0
 10
104.669
 20
116.246
 30
0.0
 11
106.394
 21
116.246
 31
0.0
  0
LINE
  8
0
 62
     0
 10
106.394
 20
116.246
 30
0.0
 11
106.394
 21
122.516
 31
0.0
  0
LINE
  8
0
 62
     0
 10
106.394
 20
122.516
 30
0.0
 11
107.22
 21
122.516
 31
0.0
  0
LINE
  8
0
 62
     0
 10
107.22
 20
122.516
 30
0.0
 11
107.22
 21
125.316
 31
0.0
  0
LINE
  8
0
 62
     0
 10
107.22
 20
125.316
 30
0.0
 11
106.394
 21
125.316
 31
0.0
  0
LINE
  8
0
 62
     0
 10
106.394
 20
125.316
 30
0.0
 11
106.394
 21
128.546
 31
0.0
  0
LINE
  8
0
 62
     0
 10
106.394
 20
128.546
 30
0.0
 11
104.669
 21
128.546
 31
0.0
  0
LINE
  8
0
 62
     0
 10
104.669
 20
128.546
 30
0.0
 11
104.669
 21
129.465
 31
0.0
  0
LINE
  8
0
 62
     0
 10
104.669
 20
129.465
 30
0.0
 11
101.37
 21
129.465
 31
0.0
  0
LINE
  8
0
 62
     0
 10
101.37
 20
129.465
 30
0.0
 11
101.37
 21
128.546
 31
0.0
  0
LINE
  8
0
 62
     0
 10
101.37
 20
128.546
 30
0.0
 11
99.6446
 21
128.546
 31
0.0
  0
LINE
  8
0
 62
     0
 10
99.6446
 20
128.546
 30
0.0
 11
99.6446
 21
125.316
 31
0.0
  0
LINE
  8
0
 62
     0
 10
99.6446
 20
125.316
 30
0.0
 11
98.1191
 21
125.316
 31
0.0
  0
LINE
  8
0
 62
     0
 10
98.1191
 20
125.316
 30
0.0
 11
98.1191
 21
125.916
 31
0.0
  0
LINE
  8
0
 62
     0
 10
98.1191
 20
125.916
 30
0.0
 11
98.9196
 21
125.916
 31
0.0
  0
LINE
  8
0
 62
     0
 10
98.9196
 20
125.916
 30
0.0
 11
98.9196
 21
129.016
 31
0.0
  0
LINE
  8
0
 62
     0
 10
98.9196
 20
129.016
 30
0.0
 11
98.1191
 21
129.016
 31
0.0
  0
LINE
  8
0
 62
     0
 10
98.1191
 20
129.016
 30
0.0
 11
98.1191
 21
130.015
 31
0.0
  0
LINE
  8
0
 62
     0
 10
98.1191
 20
130.015
 30
0.0
 11
84.1195
 21
130.015
 31
0.0
  0
LINE
  8
0
 62
     0
 10
188.895
 20
130.015
 30
0.0
 11
188.895
 21
129.016
 31
0.0
  0
LINE
  8
0
 62
     0
 10
188.895
 20
129.016
 30
0.0
 11
188.094
 21
129.016
 31
0.0
  0
LINE
  8
0
 62
     0
 10
188.094
 20
129.016
 30
0.0
 11
188.094
 21
125.916
 31
0.0
  0
LINE
  8
0
 62
     0
 10
188.094
 20
125.916
 30
0.0
 11
188.895
 21
125.916
 31
0.0
  0
LINE
  8
0
 62
     0
 10
188.895
 20
125.916
 30
0.0
 11
188.895
 21
120.115
 31
0.0
  0
LINE
  8
0
 62
     0
 10
188.895
 20
120.115
 30
0.0
 11
188.094
 21
120.115
 31
0.0
  0
LINE
  8
0
 62
     0
 10
188.094
 20
120.115
 30
0.0
 11
188.094
 21
117.016
 31
0.0
  0
LINE
  8
0
 62
     0
 10
188.094
 20
117.016
 30
0.0
 11
188.895
 21
117.016
 31
0.0
  0
LINE
  8
0
 62
     0
 10
188.895
 20
117.016
 30
0.0
 11
188.895
 21
116.016
 31
0.0
  0
LINE
  8
0
 62
     0
 10
188.895
 20
116.016
 30
0.0
 11
202.894
 21
116.016
 31
0.0
  0
LINE
  8
0
 62
     0
 10
202.894
 20
116.016
 30
0.0
 11
202.894
 21
117.016
 31
0.0
  0
LINE
  8
0
 62
     0
 10
202.894
 20
117.016
 30
0.0
 11
203.695
 21
117.016
 31
0.0
  0
LINE
  8
0
 62
     0
 10
203.695
 20
117.016
 30
0.0
 11
203.695
 21
120.115
 31
0.0
  0
LINE
  8
0
 62
     0
 10
203.695
 20
120.115
 30
0.0
 11
202.894
 21
120.115
 31
0.0
  0
LINE
  8
0
 62
     0
 10
202.894
 20
120.115
 30
0.0
 11
202.894
 21
125.916
 31
0.0
  0
LINE
  8
0
 62
     0
 10
202.894
 20
125.916
 30
0.0
 11
203.695
 21
125.916
 31
0.0
  0
LINE
  8
0
 62
     0
 10
203.695
 20
125.916
 30
0.0
 11
203.695
 21
129.016
 31
0.0
  0
LINE
  8
0
 62
     0
 10
203.695
 20
129.016
 30
0.0
 11
202.894
 21
129.016
 31
0.0
  0
LINE
  8
0
 62
     0
 10
202.894
 20
129.016
 30
0.0
 11
202.894
 21
130.015
 31
0.0
  0
LINE
  8
0
 62
     0
 10
202.894
 20
130.015
 30
0.0
 11
188.895
 21
130.015
 31
0.0
  0
LINE
  8
0
 62
     0
 10
169.845
 20
130.015
 30
0.0
 11
169.845
 21
129.016
 31
0.0
  0
LINE
  8
0
 62
     0
 10
169.845
 20
129.016
 30
0.0
 11
169.044
 21
129.016
 31
0.0
  0
LINE
  8
0
 62
     0
 10
169.044
 20
129.016
 30
0.0
 11
169.044
 21
125.916
 31
0.0
  0
LINE
  8
0
 62
     0
 10
169.044
 20
125.916
 30
0.0
 11
169.845
 21
125.916
 31
0.0
  0
LINE
  8
0
 62
     0
 10
169.845
 20
125.916
 30
0.0
 11
169.845
 21
120.115
 31
0.0
  0
LINE
  8
0
 62
     0
 10
169.845
 20
120.115
 30
0.0
 11
169.044
 21
120.115
 31
0.0
  0
LINE
  8
0
 62
     0
 10
169.044
 20
120.115
 30
0.0
 11
169.044
 21
117.016
 31
0.0
  0
LINE
  8
0
 62
     0
 10
169.044
 20
117.016
 30
0.0
 11
169.845
 21
117.016
 31
0.0
  0
LINE
  8
0
 62
     0
 10
169.845
 20
117.016
 30
0.0
 11
169.845
 21
116.016
 31
0.0
  0
LINE
  8
0
 62
     0
 10
169.845
 20
116.016
 30
0.0
 11
183.844
 21
116.016
 31
0.0
  0
LINE
  8
0
 62
     0
 10
183.844
 20
116.016
 30
0.0
 11
183.844
 21
117.016
 31
0.0
  0
LINE
  8
0
 62
     0
 10
183.844
 20
117.016
 30
0.0
 11
184.645
 21
117.016
 31
0.0
  0
LINE
  8
0
 62
     0
 10
184.645
 20
117.016
 30
0.0
 11
184.645
 21
120.115
 31
0.0
  0
LINE
  8
0
 62
     0
 10
184.645
 20
120.115
 30
0.0
 11
183.844
 21
120.115
 31
0.0
  0
LINE
  8
0
 62
     0
 10
183.844
 20
120.115
 30
0.0
 11
183.844
 21
125.916
 31
0.0
  0
LINE
  8
0
 62
     0
 10
183.844
 20
125.916
 30
0.0
 11
184.645
 21
125.916
 31
0.0
  0
LINE
  8
0
 62
     0
 10
184.645
 20
125.916
 30
0.0
 11
184.645
 21
129.016
 31
0.0
  0
LINE
  8
0
 62
     0
 10
184.645
 20
129.016
 30
0.0
 11
183.844
 21
129.016
 31
0.0
  0
LINE
  8
0
 62
     0
 10
183.844
 20
129.016
 30
0.0
 11
183.844
 21
130.015
 31
0.0
  0
LINE
  8
0
 62
     0
 10
183.844
 20
130.015
 30
0.0
 11
169.845
 21
130.015
 31
0.0
  0
LINE
  8
0
 62
     0
 10
150.795
 20
130.015
 30
0.0
 11
150.795
 21
129.016
 31
0.0
  0
LINE
  8
0
 62
     0
 10
150.795
 20
129.016
 30
0.0
 11
149.994
 21
129.016
 31
0.0
  0
LINE
  8
0
 62
     0
 10
149.994
 20
129.016
 30
0.0
 11
149.994
 21
125.916
 31
0.0
  0
LINE
  8
0
 62
     0
 10
149.994
 20
125.916
 30
0.0
 11
150.795
 21
125.916
 31
0.0
  0
LINE
  8
0
 62
     0
 10
150.795
 20
125.916
 30
0.0
 11
150.795
 21
120.115
 31
0.0
  0
LINE
  8
0
 62
     0
 10
150.795
 20
120.115
 30
0.0
 11
149.994
 21
120.115
 31
0.0
  0
LINE
  8
0
 62
     0
 10
149.994
 20
120.115
 30
0.0
 11
149.994
 21
117.016
 31
0.0
  0
LINE
  8
0
 62
     0
 10
149.994
 20
117.016
 30
0.0
 11
150.795
 21
117.016
 31
0.0
  0
LINE
  8
0
 62
     0
 10
150.795
 20
117.016
 30
0.0
 11
150.795
 21
116.016
 31
0.0
  0
LINE
  8
0
 62
     0
 10
150.795
 20
116.016
 30
0.0
 11
164.794
 21
116.016
 31
0.0
  0
LINE
  8
0
 62
     0
 10
164.794
 20
116.016
 30
0.0
 11
164.794
 21
117.016
 31
0.0
  0
LINE
  8
0
 62
     0
 10
164.794
 20
117.016
 30
0.0
 11
165.595
 21
117.016
 31
0.0
  0
LINE
  8
0
 62
     0
 10
165.595
 20
117.016
 30
0.0
 11
165.595
 21
120.115
 31
0.0
  0
LINE
  8
0
 62
     0
 10
165.595
 20
120.115
 30
0.0
 11
164.794
 21
120.115
 31
0.0
  0
LINE
  8
0
 62
     0
 10
164.794
 20
120.115
 30
0.0
 11
164.794
 21
125.916
 31
0.0
  0
LINE
  8
0
 62
     0
 10
164.794
 20
125.916
 30
0.0
 11
165.595
 21
125.916
 31
0.0
  0
LINE
  8
0
 62
     0
 10
165.595
 20
125.916
 30
0.0
 11
165.595
 21
129.016
 31
0.0
  0
LINE
  8
0
 62
     0
 10
165.595
 20
129.016
 30
0.0
 11
164.794
 21
129.016
 31
0.0
  0
LINE
  8
0
 62
     0
 10
164.794
 20
129.016
 30
0.0
 11
164.794
 21
130.015
 31
0.0
  0
LINE
  8
0
 62
     0
 10
164.794
 20
130.015
 30
0.0
 11
150.795
 21
130.015
 31
0.0
  0
LINE
  8
0
 62
     0
 10
131.745
 20
130.015
 30
0.0
 11
131.745
 21
129.016
 31
0.0
  0
LINE
  8
0
 62
     0
 10
131.745
 20
129.016
 30
0.0
 11
130.944
 21
129.016
 31
0.0
  0
LINE
  8
0
 62
     0
 10
130.944
 20
129.016
 30
0.0
 11
130.944
 21
125.916
 31
0.0
  0
LINE
  8
0
 62
     0
 10
130.944
 20
125.916
 30
0.0
 11
131.745
 21
125.916
 31
0.0
  0
LINE
  8
0
 62
     0
 10
131.745
 20
125.916
 30
0.0
 11
131.745
 21
120.115
 31
0.0
  0
LINE
  8
0
 62
     0
 10
131.745
 20
120.115
 30
0.0
 11
130.944
 21
120.115
 31
0.0
  0
LINE
  8
0
 62
     0
 10
130.944
 20
120.115
 30
0.0
 11
130.944
 21
117.016
 31
0.0
  0
LINE
  8
0
 62
     0
 10
130.944
 20
117.016
 30
0.0
 11
131.745
 21
117.016
 31
0.0
  0
LINE
  8
0
 62
     0
 10
131.745
 20
117.016
 30
0.0
 11
131.745
 21
116.016
 31
0.0
  0
LINE
  8
0
 62
     0
 10
131.745
 20
116.016
 30
0.0
 11
145.744
 21
116.016
 31
0.0
  0
LINE
  8
0
 62
     0
 10
145.744
 20
116.016
 30
0.0
 11
145.744
 21
117.016
 31
0.0
  0
LINE
  8
0
 62
     0
 10
145.744
 20
117.016
 30
0.0
 11
146.545
 21
117.016
 31
0.0
  0
LINE
  8
0
 62
     0
 10
146.545
 20
117.016
 30
0.0
 11
146.545
 21
120.115
 31
0.0
  0
LINE
  8
0
 62
     0
 10
146.545
 20
120.115
 30
0.0
 11
145.744
 21
120.115
 31
0.0
  0
LINE
  8
0
 62
     0
 10
145.744
 20
120.115
 30
0.0
 11
145.744
 21
125.916
 31
0.0
  0
LINE
  8
0
 62
     0
 10
145.744
 20
125.916
 30
0.0
 11
146.545
 21
125.916
 31
0.0
  0
LINE
  8
0
 62
     0
 10
146.545
 20
125.916
 30
0.0
 11
146.545
 21
129.016
 31
0.0
  0
LINE
  8
0
 62
     0
 10
146.545
 20
129.016
 30
0.0
 11
145.744
 21
129.016
 31
0.0
  0
LINE
  8
0
 62
     0
 10
145.744
 20
129.016
 30
0.0
 11
145.744
 21
130.015
 31
0.0
  0
LINE
  8
0
 62
     0
 10
145.744
 20
130.015
 30
0.0
 11
131.745
 21
130.015
 31
0.0
  0
LINE
  8
0
 62
     0
 10
112.695
 20
130.015
 30
0.0
 11
112.695
 21
129.016
 31
0.0
  0
LINE
  8
0
 62
     0
 10
112.695
 20
129.016
 30
0.0
 11
111.894
 21
129.016
 31
0.0
  0
LINE
  8
0
 62
     0
 10
111.894
 20
129.016
 30
0.0
 11
111.894
 21
125.916
 31
0.0
  0
LINE
  8
0
 62
     0
 10
111.894
 20
125.916
 30
0.0
 11
112.695
 21
125.916
 31
0.0
  0
LINE
  8
0
 62
     0
 10
112.695
 20
125.916
 30
0.0
 11
112.695
 21
120.115
 31
0.0
  0
LINE
  8
0
 62
     0
 10
112.695
 20
120.115
 30
0.0
 11
111.894
 21
120.115
 31
0.0
  0
LINE
  8
0
 62
     0
 10
111.894
 20
120.115
 30
0.0
 11
111.894
 21
117.016
 31
0.0
  0
LINE
  8
0
 62
     0
 10
111.894
 20
117.016
 30
0.0
 11
112.695
 21
117.016
 31
0.0
  0
LINE
  8
0
 62
     0
 10
112.695
 20
117.016
 30
0.0
 11
112.695
 21
116.016
 31
0.0
  0
LINE
  8
0
 62
     0
 10
112.695
 20
116.016
 30
0.0
 11
126.694
 21
116.016
 31
0.0
  0
LINE
  8
0
 62
     0
 10
126.694
 20
116.016
 30
0.0
 11
126.694
 21
117.016
 31
0.0
  0
LINE
  8
0
 62
     0
 10
126.694
 20
117.016
 30
0.0
 11
127.495
 21
117.016
 31
0.0
  0
LINE
  8
0
 62
     0
 10
127.495
 20
117.016
 30
0.0
 11
127.495
 21
120.115
 31
0.0
  0
LINE
  8
0
 62
     0
 10
127.495
 20
120.115
 30
0.0
 11
126.694
 21
120.115
 31
0.0
  0
LINE
  8
0
 62
     0
 10
126.694
 20
120.115
 30
0.0
 11
126.694
 21
125.916
 31
0.0
  0
LINE
  8
0
 62
     0
 10
126.694
 20
125.916
 30
0.0
 11
127.495
 21
125.916
 31
0.0
  0
LINE
  8
0
 62
     0
 10
127.495
 20
125.916
 30
0.0
 11
127.495
 21
129.016
 31
0.0
  0
LINE
  8
0
 62
     0
 10
127.495
 20
129.016
 30
0.0
 11
126.694
 21
129.016
 31
0.0
  0
LINE
  8
0
 62
     0
 10
126.694
 20
129.016
 30
0.0
 11
126.694
 21
130.015
 31
0.0
  0
LINE
  8
0
 62
     0
 10
126.694
 20
130.015
 30
0.0
 11
112.695
 21
130.015
 31
0.0
  0
LINE
  8
0
 62
     0
 10
25.3821
 20
130.015
 30
0.0
 11
25.3821
 21
129.016
 31
0.0
  0
LINE
  8
0
 62
     0
 10
25.3821
 20
129.016
 30
0.0
 11
24.5828
 21
129.016
 31
0.0
  0
LINE
  8
0
 62
     0
 10
24.5828
 20
129.016
 30
0.0
 11
24.5828
 21
125.916
 31
0.0
  0
LINE
  8
0
 62
     0
 10
24.5828
 20
125.916
 30
0.0
 11
25.3821
 21
125.916
 31
0.0
  0
LINE
  8
0
 62
     0
 10
25.3821
 20
125.916
 30
0.0
 11
25.3821
 21
120.115
 31
0.0
  0
LINE
  8
0
 62
     0
 10
25.3821
 20
120.115
 30
0.0
 11
24.5828
 21
120.115
 31
0.0
  0
LINE
  8
0
 62
     0
 10
24.5828
 20
120.115
 30
0.0
 11
24.5828
 21
117.016
 31
0.0
  0
LINE
  8
0
 62
     0
 10
24.5828
 20
117.016
 30
0.0
 11
25.3821
 21
117.016
 31
0.0
  0
LINE
  8
0
 62
     0
 10
25.3821
 20
117.016
 30
0.0
 11
25.3821
 21
116.016
 31
0.0
  0
LINE
  8
0
 62
     0
 10
25.3821
 20
116.016
 30
0.0
 11
39.3831
 21
116.016
 31
0.0
  0
LINE
  8
0
 62
     0
 10
39.3831
 20
116.016
 30
0.0
 11
39.3831
 21
117.016
 31
0.0
  0
LINE
  8
0
 62
     0
 10
39.3831
 20
117.016
 30
0.0
 11
40.1821
 21
117.016
 31
0.0
  0
LINE
  8
0
 62
     0
 10
40.1821
 20
117.016
 30
0.0
 11
40.1821
 21
120.115
 31
0.0
  0
LINE
  8
0
 62
     0
 10
40.1821
 20
120.115
 30
0.0
 11
39.3831
 21
120.115
 31
0.0
  0
LINE
  8
0
 62
     0
 10
39.3831
 20
120.115
 30
0.0
 11
39.3831
 21
125.916
 31
0.0
  0
LINE
  8
0
 62
     0
 10
39.3831
 20
125.916
 30
0.0
 11
40.1821
 21
125.916
 31
0.0
  0
LINE
  8
0
 62
     0
 10
40.1821
 20
125.916
 30
0.0
 11
40.1821
 21
129.016
 31
0.0
  0
LINE
  8
0
 62
     0
 10
40.1821
 20
129.016
 30
0.0
 11
39.3831
 21
129.016
 31
0.0
  0
LINE
  8
0
 62
     0
 10
39.3831
 20
129.016
 30
0.0
 11
39.3831
 21
130.015
 31
0.0
  0
LINE
  8
0
 62
     0
 10
39.3831
 20
130.015
 30
0.0
 11
25.3821
 21
130.015
 31
0.0
  0
LINE
  8
0
 62
     0
 10
4.86311
 20
146.254
 30
0.0
 11
4.65501
 21
146.148
 31
0.0
  0
LINE
  8
0
 62
     0
 10
4.65501
 20
146.148
 30
0.0
 11
4.48829
 21
145.981
 31
0.0
  0
LINE
  8
0
 62
     0
 10
4.48829
 20
145.981
 30
0.0
 11
4.38217
 21
145.773
 31
0.0
  0
LINE
  8
0
 62
     0
 10
4.38217
 20
145.773
 30
0.0
 11
4.34495
 21
145.54
 31
0.0
  0
LINE
  8
0
 62
     0
 10
4.34495
 20
145.54
 30
0.0
 11
4.38217
 21
145.31
 31
0.0
  0
LINE
  8
0
 62
     0
 10
4.38217
 20
145.31
 30
0.0
 11
4.48829
 21
145.101
 31
0.0
  0
LINE
  8
0
 62
     0
 10
4.48829
 20
145.101
 30
0.0
 11
4.65501
 21
144.935
 31
0.0
  0
LINE
  8
0
 62
     0
 10
4.65501
 20
144.935
 30
0.0
 11
4.86311
 21
144.828
 31
0.0
  0
LINE
  8
0
 62
     0
 10
4.86311
 20
144.828
 30
0.0
 11
5.09598
 21
144.791
 31
0.0
  0
LINE
  8
0
 62
     0
 10
5.09598
 20
144.791
 30
0.0
 11
5.32613
 21
144.828
 31
0.0
  0
LINE
  8
0
 62
     0
 10
5.32613
 20
144.828
 30
0.0
 11
5.53558
 21
144.935
 31
0.0
  0
LINE
  8
0
 62
     0
 10
5.53558
 20
144.935
 30
0.0
 11
5.70096
 21
145.101
 31
0.0
  0
LINE
  8
0
 62
     0
 10
5.70096
 20
145.101
 30
0.0
 11
5.80842
 21
145.31
 31
0.0
  0
LINE
  8
0
 62
     0
 10
5.80842
 20
145.31
 30
0.0
 11
5.84563
 21
145.54
 31
0.0
  0
LINE
  8
0
 62
     0
 10
5.84563
 20
145.54
 30
0.0
 11
5.80842
 21
145.773
 31
0.0
  0
LINE
  8
0
 62
     0
 10
5.80842
 20
145.773
 30
0.0
 11
5.70096
 21
145.981
 31
0.0
  0
LINE
  8
0
 62
     0
 10
5.70096
 20
145.981
 30
0.0
 11
5.53558
 21
146.148
 31
0.0
  0
LINE
  8
0
 62
     0
 10
5.53558
 20
146.148
 30
0.0
 11
5.32613
 21
146.254
 31
0.0
  0
LINE
  8
0
 62
     0
 10
5.32613
 20
146.254
 30
0.0
 11
5.09598
 21
146.291
 31
0.0
  0
LINE
  8
0
 62
     0
 10
5.09598
 20
146.291
 30
0.0
 11
4.86311
 21
146.254
 31
0.0
  0
LINE
  8
0
 62
     0
 10
218.189
 20
146.254
 30
0.0
 11
217.98
 21
146.148
 31
0.0
  0
LINE
  8
0
 62
     0
 10
217.98
 20
146.148
 30
0.0
 11
217.814
 21
145.981
 31
0.0
  0
LINE
  8
0
 62
     0
 10
217.814
 20
145.981
 30
0.0
 11
217.708
 21
145.773
 31
0.0
  0
LINE
  8
0
 62
     0
 10
217.708
 20
145.773
 30
0.0
 11
217.671
 21
145.54
 31
0.0
  0
LINE
  8
0
 62
     0
 10
217.671
 20
145.54
 30
0.0
 11
217.708
 21
145.31
 31
0.0
  0
LINE
  8
0
 62
     0
 10
217.708
 20
145.31
 30
0.0
 11
217.814
 21
145.101
 31
0.0
  0
LINE
  8
0
 62
     0
 10
217.814
 20
145.101
 30
0.0
 11
217.98
 21
144.935
 31
0.0
  0
LINE
  8
0
 62
     0
 10
217.98
 20
144.935
 30
0.0
 11
218.189
 21
144.828
 31
0.0
  0
LINE
  8
0
 62
     0
 10
218.189
 20
144.828
 30
0.0
 11
218.421
 21
144.791
 31
0.0
  0
LINE
  8
0
 62
     0
 10
218.421
 20
144.791
 30
0.0
 11
218.652
 21
144.828
 31
0.0
  0
LINE
  8
0
 62
     0
 10
218.652
 20
144.828
 30
0.0
 11
218.862
 21
144.935
 31
0.0
  0
LINE
  8
0
 62
     0
 10
218.862
 20
144.935
 30
0.0
 11
219.028
 21
145.101
 31
0.0
  0
LINE
  8
0
 62
     0
 10
219.028
 20
145.101
 30
0.0
 11
219.133
 21
145.31
 31
0.0
  0
LINE
  8
0
 62
     0
 10
219.133
 20
145.31
 30
0.0
 11
219.17
 21
145.54
 31
0.0
  0
LINE
  8
0
 62
     0
 10
219.17
 20
145.54
 30
0.0
 11
219.133
 21
145.773
 31
0.0
  0
LINE
  8
0
 62
     0
 10
219.133
 20
145.773
 30
0.0
 11
219.028
 21
145.981
 31
0.0
  0
LINE
  8
0
 62
     0
 10
219.028
 20
145.981
 30
0.0
 11
218.862
 21
146.148
 31
0.0
  0
LINE
  8
0
 62
     0
 10
218.862
 20
146.148
 30
0.0
 11
218.652
 21
146.254
 31
0.0
  0
LINE
  8
0
 62
     0
 10
218.652
 20
146.254
 30
0.0
 11
218.421
 21
146.291
 31
0.0
  0
LINE
  8
0
 62
     0
 10
218.421
 20
146.291
 30
0.0
 11
218.189
 21
146.254
 31
0.0
  0
ENDSEC
  0
EOF
