  0
SECTION
  2
HEADER
  9
$ACADVER
  1
AC1009
  9
$EXTMIN
 10
0.0
 20
0.0
 30
0.0
  9
$EXTMAX
 10
1000.0
 20
1000.0
 30
0.0
  9
$FILLMODE
 70
 0
  9
$SPLFRAME
 70
 1
  0
ENDSEC
  0
SECTION
  2
TABLES
  0
TABLE
  2
LAYER
 70
1
  0
LAYER
  2
0
 70
     0
 62
     7
  6
CONTINUOUS
  0
ENDTAB
  0
ENDSEC
  0
SECTION
  2
ENTITIES
  0
LINE
  8
0
 62
     0
 10
55.2581
 20
140.541
 30
0.0
 11
10.0955
 21
140.541
 31
0.0
  0
LINE
  8
0
 62
     0
 10
10.0955
 20
140.541
 30
0.0
 11
10.0955
 21
10.2402
 31
0.0
  0
LINE
  8
0
 62
     0
 10
10.0955
 20
10.2402
 30
0.0
 11
213.421
 21
10.2402
 31
0.0
  0
LINE
  8
0
 62
     0
 10
213.421
 20
10.2402
 30
0.0
 11
213.421
 21
140.541
 31
0.0
  0
LINE
  8
0
 62
     0
 10
213.421
 20
140.541
 30
0.0
 11
66.2573
 21
140.541
 31
0.0
  0
LINE
  8
0
 62
     0
 10
66.2573
 20
140.541
 30
0.0
 11
66.2573
 21
150.541
 31
0.0
  0
LINE
  8
0
 62
     0
 10
66.2573
 20
150.541
 30
0.0
 11
218.421
 21
150.541
 31
0.0
  0
LINE
  8
0
 62
     0
 10
218.421
 20
150.541
 30
0.0
 11
218.813
 21
150.526
 31
0.0
  0
LINE
  8
0
 62
     0
 10
218.813
 20
150.526
 30
0.0
 11
219.203
 21
150.479
 31
0.0
  0
LINE
  8
0
 62
     0
 10
219.203
 20
150.479
 30
0.0
 11
219.588
 21
150.403
 31
0.0
  0
LINE
  8
0
 62
     0
 10
219.588
 20
150.403
 30
0.0
 11
219.965
 21
150.297
 31
0.0
  0
LINE
  8
0
 62
     0
 10
219.965
 20
150.297
 30
0.0
 11
220.333
 21
150.161
 31
0.0
  0
LINE
  8
0
 62
     0
 10
220.333
 20
150.161
 30
0.0
 11
220.69
 21
149.997
 31
0.0
  0
LINE
  8
0
 62
     0
 10
220.69
 20
149.997
 30
0.0
 11
221.032
 21
149.805
 31
0.0
  0
LINE
  8
0
 62
     0
 10
221.032
 20
149.805
 30
0.0
 11
221.36
 21
149.586
 31
0.0
  0
LINE
  8
0
 62
     0
 10
221.36
 20
149.586
 30
0.0
 11
221.667
 21
149.344
 31
0.0
  0
LINE
  8
0
 62
     0
 10
221.667
 20
149.344
 30
0.0
 11
221.955
 21
149.076
 31
0.0
  0
LINE
  8
0
 62
     0
 10
221.955
 20
149.076
 30
0.0
 11
222.222
 21
148.788
 31
0.0
  0
LINE
  8
0
 62
     0
 10
222.222
 20
148.788
 30
0.0
 11
222.465
 21
148.48
 31
0.0
  0
LINE
  8
0
 62
     0
 10
222.465
 20
148.48
 30
0.0
 11
222.684
 21
148.154
 31
0.0
  0
LINE
  8
0
 62
     0
 10
222.684
 20
148.154
 30
0.0
 11
222.875
 21
147.811
 31
0.0
  0
LINE
  8
0
 62
     0
 10
222.875
 20
147.811
 30
0.0
 11
223.04
 21
147.454
 31
0.0
  0
LINE
  8
0
 62
     0
 10
223.04
 20
147.454
 30
0.0
 11
223.176
 21
147.086
 31
0.0
  0
LINE
  8
0
 62
     0
 10
223.176
 20
147.086
 30
0.0
 11
223.282
 21
146.709
 31
0.0
  0
LINE
  8
0
 62
     0
 10
223.282
 20
146.709
 30
0.0
 11
223.358
 21
146.324
 31
0.0
  0
LINE
  8
0
 62
     0
 10
223.358
 20
146.324
 30
0.0
 11
223.405
 21
145.934
 31
0.0
  0
LINE
  8
0
 62
     0
 10
223.405
 20
145.934
 30
0.0
 11
223.42
 21
145.54
 31
0.0
  0
LINE
  8
0
 62
     0
 10
223.42
 20
145.54
 30
0.0
 11
223.42
 21
5.23931
 31
0.0
  0
LINE
  8
0
 62
     0
 10
223.42
 20
5.23931
 30
0.0
 11
223.405
 21
4.84794
 31
0.0
  0
LINE
  8
0
 62
     0
 10
223.405
 20
4.84794
 30
0.0
 11
223.358
 21
4.45795
 31
0.0
  0
LINE
  8
0
 62
     0
 10
223.358
 20
4.45795
 30
0.0
 11
223.282
 21
4.07211
 31
0.0
  0
LINE
  8
0
 62
     0
 10
223.282
 20
4.07211
 30
0.0
 11
223.176
 21
3.69454
 31
0.0
  0
LINE
  8
0
 62
     0
 10
223.176
 20
3.69454
 30
0.0
 11
223.04
 21
3.32659
 31
0.0
  0
LINE
  8
0
 62
     0
 10
223.04
 20
3.32659
 30
0.0
 11
222.875
 21
2.97105
 31
0.0
  0
LINE
  8
0
 62
     0
 10
222.875
 20
2.97105
 30
0.0
 11
222.684
 21
2.62792
 31
0.0
  0
LINE
  8
0
 62
     0
 10
222.684
 20
2.62792
 30
0.0
 11
222.465
 21
2.30132
 31
0.0
  0
LINE
  8
0
 62
     0
 10
222.465
 20
2.30132
 30
0.0
 11
222.222
 21
1.99264
 31
0.0
  0
LINE
  8
0
 62
     0
 10
222.222
 20
1.99264
 30
0.0
 11
221.955
 21
1.70463
 31
0.0
  0
LINE
  8
0
 62
     0
 10
221.955
 20
1.70463
 30
0.0
 11
221.667
 21
1.43729
 31
0.0
  0
LINE
  8
0
 62
     0
 10
221.667
 20
1.43729
 30
0.0
 11
221.36
 21
1.19476
 31
0.0
  0
LINE
  8
0
 62
     0
 10
221.36
 20
1.19476
 30
0.0
 11
221.032
 21
0.977029
 31
0.0
  0
LINE
  8
0
 62
     0
 10
221.032
 20
0.977029
 30
0.0
 11
220.69
 21
0.784105
 31
0.0
  0
LINE
  8
0
 62
     0
 10
220.69
 20
0.784105
 30
0.0
 11
220.333
 21
0.620116
 31
0.0
  0
LINE
  8
0
 62
     0
 10
220.333
 20
0.620116
 30
0.0
 11
219.965
 21
0.485069
 31
0.0
  0
LINE
  8
0
 62
     0
 10
219.965
 20
0.485069
 30
0.0
 11
219.588
 21
0.378961
 31
0.0
  0
LINE
  8
0
 62
     0
 10
219.588
 20
0.378961
 30
0.0
 11
219.203
 21
0.30179
 31
0.0
  0
LINE
  8
0
 62
     0
 10
219.203
 20
0.30179
 30
0.0
 11
218.813
 21
0.254937
 31
0.0
  0
LINE
  8
0
 62
     0
 10
218.813
 20
0.254937
 30
0.0
 11
218.421
 21
0.239779
 31
0.0
  0
LINE
  8
0
 62
     0
 10
218.421
 20
0.239779
 30
0.0
 11
5.09598
 21
0.239779
 31
0.0
  0
LINE
  8
0
 62
     0
 10
5.09598
 20
0.239779
 30
0.0
 11
4.70186
 21
0.254937
 31
0.0
  0
LINE
  8
0
 62
     0
 10
4.70186
 20
0.254937
 30
0.0
 11
4.3119
 21
0.30179
 31
0.0
  0
LINE
  8
0
 62
     0
 10
4.3119
 20
0.30179
 30
0.0
 11
3.9274
 21
0.378961
 31
0.0
  0
LINE
  8
0
 62
     0
 10
3.9274
 20
0.378961
 30
0.0
 11
3.54983
 21
0.485069
 31
0.0
  0
LINE
  8
0
 62
     0
 10
3.54983
 20
0.485069
 30
0.0
 11
3.18189
 21
0.620116
 31
0.0
  0
LINE
  8
0
 62
     0
 10
3.18189
 20
0.620116
 30
0.0
 11
2.82498
 21
0.784105
 31
0.0
  0
LINE
  8
0
 62
     0
 10
2.82498
 20
0.784105
 30
0.0
 11
2.48185
 21
0.977029
 31
0.0
  0
LINE
  8
0
 62
     0
 10
2.48185
 20
0.977029
 30
0.0
 11
2.15663
 21
1.19476
 31
0.0
  0
LINE
  8
0
 62
     0
 10
2.15663
 20
1.19476
 30
0.0
 11
1.84795
 21
1.43729
 31
0.0
  0
LINE
  8
0
 62
     0
 10
1.84795
 20
1.43729
 30
0.0
 11
1.55994
 21
1.70463
 31
0.0
  0
LINE
  8
0
 62
     0
 10
1.55994
 20
1.70463
 30
0.0
 11
1.2926
 21
1.99264
 31
0.0
  0
LINE
  8
0
 62
     0
 10
1.2926
 20
1.99264
 30
0.0
 11
1.05006
 21
2.30132
 31
0.0
  0
LINE
  8
0
 62
     0
 10
1.05006
 20
2.30132
 30
0.0
 11
0.830957
 21
2.62792
 31
0.0
  0
LINE
  8
0
 62
     0
 10
0.830957
 20
2.62792
 30
0.0
 11
0.63941
 21
2.97105
 31
0.0
  0
LINE
  8
0
 62
     0
 10
0.63941
 20
2.97105
 30
0.0
 11
0.475424
 21
3.32659
 31
0.0
  0
LINE
  8
0
 62
     0
 10
0.475424
 20
3.32659
 30
0.0
 11
0.338998
 21
3.69454
 31
0.0
  0
LINE
  8
0
 62
     0
 10
0.338998
 20
3.69454
 30
0.0
 11
0.232888
 21
4.07211
 31
0.0
  0
LINE
  8
0
 62
     0
 10
0.232888
 20
4.07211
 30
0.0
 11
0.157097
 21
4.45795
 31
0.0
  0
LINE
  8
0
 62
     0
 10
0.157097
 20
4.45795
 30
0.0
 11
0.110243
 21
4.84794
 31
0.0
  0
LINE
  8
0
 62
     0
 10
0.110243
 20
4.84794
 30
0.0
 11
0.0950846
 21
5.24069
 31
0.0
  0
LINE
  8
0
 62
     0
 10
0.0950846
 20
5.24069
 30
0.0
 11
0.0950846
 21
145.54
 31
0.0
  0
LINE
  8
0
 62
     0
 10
0.0950846
 20
145.54
 30
0.0
 11
0.110243
 21
145.934
 31
0.0
  0
LINE
  8
0
 62
     0
 10
0.110243
 20
145.934
 30
0.0
 11
0.157097
 21
146.324
 31
0.0
  0
LINE
  8
0
 62
     0
 10
0.157097
 20
146.324
 30
0.0
 11
0.232888
 21
146.709
 31
0.0
  0
LINE
  8
0
 62
     0
 10
0.232888
 20
146.709
 30
0.0
 11
0.338998
 21
147.086
 31
0.0
  0
LINE
  8
0
 62
     0
 10
0.338998
 20
147.086
 30
0.0
 11
0.475424
 21
147.454
 31
0.0
  0
LINE
  8
0
 62
     0
 10
0.475424
 20
147.454
 30
0.0
 11
0.63941
 21
147.811
 31
0.0
  0
LINE
  8
0
 62
     0
 10
0.63941
 20
147.811
 30
0.0
 11
0.830957
 21
148.154
 31
0.0
  0
LINE
  8
0
 62
     0
 10
0.830957
 20
148.154
 30
0.0
 11
1.05006
 21
148.48
 31
0.0
  0
LINE
  8
0
 62
     0
 10
1.05006
 20
148.48
 30
0.0
 11
1.2926
 21
148.788
 31
0.0
  0
LINE
  8
0
 62
     0
 10
1.2926
 20
148.788
 30
0.0
 11
1.55994
 21
149.076
 31
0.0
  0
LINE
  8
0
 62
     0
 10
1.55994
 20
149.076
 30
0.0
 11
1.84795
 21
149.344
 31
0.0
  0
LINE
  8
0
 62
     0
 10
1.84795
 20
149.344
 30
0.0
 11
2.15663
 21
149.586
 31
0.0
  0
LINE
  8
0
 62
     0
 10
2.15663
 20
149.586
 30
0.0
 11
2.48185
 21
149.805
 31
0.0
  0
LINE
  8
0
 62
     0
 10
2.48185
 20
149.805
 30
0.0
 11
2.82498
 21
149.997
 31
0.0
  0
LINE
  8
0
 62
     0
 10
2.82498
 20
149.997
 30
0.0
 11
3.18189
 21
150.161
 31
0.0
  0
LINE
  8
0
 62
     0
 10
3.18189
 20
150.161
 30
0.0
 11
3.54983
 21
150.297
 31
0.0
  0
LINE
  8
0
 62
     0
 10
3.54983
 20
150.297
 30
0.0
 11
3.9274
 21
150.403
 31
0.0
  0
LINE
  8
0
 62
     0
 10
3.9274
 20
150.403
 30
0.0
 11
4.3119
 21
150.479
 31
0.0
  0
LINE
  8
0
 62
     0
 10
4.3119
 20
150.479
 30
0.0
 11
4.70186
 21
150.526
 31
0.0
  0
LINE
  8
0
 62
     0
 10
4.70186
 20
150.526
 30
0.0
 11
5.09598
 21
150.541
 31
0.0
  0
LINE
  8
0
 62
     0
 10
5.09598
 20
150.541
 30
0.0
 11
55.2581
 21
150.541
 31
0.0
  0
LINE
  8
0
 62
     0
 10
55.2581
 20
150.541
 30
0.0
 11
55.2581
 21
140.541
 31
0.0
  0
LINE
  8
0
 62
     0
 10
4.86311
 20
5.95313
 30
0.0
 11
4.65501
 21
5.84701
 31
0.0
  0
LINE
  8
0
 62
     0
 10
4.65501
 20
5.84701
 30
0.0
 11
4.48829
 21
5.68029
 31
0.0
  0
LINE
  8
0
 62
     0
 10
4.48829
 20
5.68029
 30
0.0
 11
4.38217
 21
5.47218
 31
0.0
  0
LINE
  8
0
 62
     0
 10
4.38217
 20
5.47218
 30
0.0
 11
4.34495
 21
5.24069
 31
0.0
  0
LINE
  8
0
 62
     0
 10
4.34495
 20
5.24069
 30
0.0
 11
4.38217
 21
5.00916
 31
0.0
  0
LINE
  8
0
 62
     0
 10
4.38217
 20
5.00916
 30
0.0
 11
4.48829
 21
4.79972
 31
0.0
  0
LINE
  8
0
 62
     0
 10
4.48829
 20
4.79972
 30
0.0
 11
4.65501
 21
4.63296
 31
0.0
  0
LINE
  8
0
 62
     0
 10
4.65501
 20
4.63296
 30
0.0
 11
4.86311
 21
4.52684
 31
0.0
  0
LINE
  8
0
 62
     0
 10
4.86311
 20
4.52684
 30
0.0
 11
5.09598
 21
4.49104
 31
0.0
  0
LINE
  8
0
 62
     0
 10
5.09598
 20
4.49104
 30
0.0
 11
5.32613
 21
4.52684
 31
0.0
  0
LINE
  8
0
 62
     0
 10
5.32613
 20
4.52684
 30
0.0
 11
5.53558
 21
4.63296
 31
0.0
  0
LINE
  8
0
 62
     0
 10
5.53558
 20
4.63296
 30
0.0
 11
5.70096
 21
4.79972
 31
0.0
  0
LINE
  8
0
 62
     0
 10
5.70096
 20
4.79972
 30
0.0
 11
5.80842
 21
5.00916
 31
0.0
  0
LINE
  8
0
 62
     0
 10
5.80842
 20
5.00916
 30
0.0
 11
5.84563
 21
5.24069
 31
0.0
  0
LINE
  8
0
 62
     0
 10
5.84563
 20
5.24069
 30
0.0
 11
5.80842
 21
5.47218
 31
0.0
  0
LINE
  8
0
 62
     0
 10
5.80842
 20
5.47218
 30
0.0
 11
5.70096
 21
5.68029
 31
0.0
  0
LINE
  8
0
 62
     0
 10
5.70096
 20
5.68029
 30
0.0
 11
5.53558
 21
5.84701
 31
0.0
  0
LINE
  8
0
 62
     0
 10
5.53558
 20
5.84701
 30
0.0
 11
5.32613
 21
5.95313
 31
0.0
  0
LINE
  8
0
 62
     0
 10
5.32613
 20
5.95313
 30
0.0
 11
5.09598
 21
5.98897
 31
0.0
  0
LINE
  8
0
 62
     0
 10
5.09598
 20
5.98897
 30
0.0
 11
4.86311
 21
5.95313
 31
0.0
  0
LINE
  8
0
 62
     0
 10
218.189
 20
5.95313
 30
0.0
 11
217.98
 21
5.84701
 31
0.0
  0
LINE
  8
0
 62
     0
 10
217.98
 20
5.84701
 30
0.0
 11
217.814
 21
5.68029
 31
0.0
  0
LINE
  8
0
 62
     0
 10
217.814
 20
5.68029
 30
0.0
 11
217.708
 21
5.47218
 31
0.0
  0
LINE
  8
0
 62
     0
 10
217.708
 20
5.47218
 30
0.0
 11
217.671
 21
5.24069
 31
0.0
  0
LINE
  8
0
 62
     0
 10
217.671
 20
5.24069
 30
0.0
 11
217.708
 21
5.00916
 31
0.0
  0
LINE
  8
0
 62
     0
 10
217.708
 20
5.00916
 30
0.0
 11
217.814
 21
4.79972
 31
0.0
  0
LINE
  8
0
 62
     0
 10
217.814
 20
4.79972
 30
0.0
 11
217.98
 21
4.63296
 31
0.0
  0
LINE
  8
0
 62
     0
 10
217.98
 20
4.63296
 30
0.0
 11
218.189
 21
4.52684
 31
0.0
  0
LINE
  8
0
 62
     0
 10
218.189
 20
4.52684
 30
0.0
 11
218.421
 21
4.49104
 31
0.0
  0
LINE
  8
0
 62
     0
 10
218.421
 20
4.49104
 30
0.0
 11
218.652
 21
4.52684
 31
0.0
  0
LINE
  8
0
 62
     0
 10
218.652
 20
4.52684
 30
0.0
 11
218.862
 21
4.63296
 31
0.0
  0
LINE
  8
0
 62
     0
 10
218.862
 20
4.63296
 30
0.0
 11
219.028
 21
4.79972
 31
0.0
  0
LINE
  8
0
 62
     0
 10
219.028
 20
4.79972
 30
0.0
 11
219.133
 21
5.00916
 31
0.0
  0
LINE
  8
0
 62
     0
 10
219.133
 20
5.00916
 30
0.0
 11
219.17
 21
5.24069
 31
0.0
  0
LINE
  8
0
 62
     0
 10
219.17
 20
5.24069
 30
0.0
 11
219.133
 21
5.47218
 31
0.0
  0
LINE
  8
0
 62
     0
 10
219.133
 20
5.47218
 30
0.0
 11
219.028
 21
5.68029
 31
0.0
  0
LINE
  8
0
 62
     0
 10
219.028
 20
5.68029
 30
0.0
 11
218.862
 21
5.84701
 31
0.0
  0
LINE
  8
0
 62
     0
 10
218.862
 20
5.84701
 30
0.0
 11
218.652
 21
5.95313
 31
0.0
  0
LINE
  8
0
 62
     0
 10
218.652
 20
5.95313
 30
0.0
 11
218.421
 21
5.98897
 31
0.0
  0
LINE
  8
0
 62
     0
 10
218.421
 20
5.98897
 30
0.0
 11
218.189
 21
5.95313
 31
0.0
  0
LINE
  8
0
 62
     0
 10
4.86311
 20
146.254
 30
0.0
 11
4.65501
 21
146.148
 31
0.0
  0
LINE
  8
0
 62
     0
 10
4.65501
 20
146.148
 30
0.0
 11
4.48829
 21
145.981
 31
0.0
  0
LINE
  8
0
 62
     0
 10
4.48829
 20
145.981
 30
0.0
 11
4.38217
 21
145.773
 31
0.0
  0
LINE
  8
0
 62
     0
 10
4.38217
 20
145.773
 30
0.0
 11
4.34495
 21
145.54
 31
0.0
  0
LINE
  8
0
 62
     0
 10
4.34495
 20
145.54
 30
0.0
 11
4.38217
 21
145.31
 31
0.0
  0
LINE
  8
0
 62
     0
 10
4.38217
 20
145.31
 30
0.0
 11
4.48829
 21
145.101
 31
0.0
  0
LINE
  8
0
 62
     0
 10
4.48829
 20
145.101
 30
0.0
 11
4.65501
 21
144.935
 31
0.0
  0
LINE
  8
0
 62
     0
 10
4.65501
 20
144.935
 30
0.0
 11
4.86311
 21
144.828
 31
0.0
  0
LINE
  8
0
 62
     0
 10
4.86311
 20
144.828
 30
0.0
 11
5.09598
 21
144.791
 31
0.0
  0
LINE
  8
0
 62
     0
 10
5.09598
 20
144.791
 30
0.0
 11
5.32613
 21
144.828
 31
0.0
  0
LINE
  8
0
 62
     0
 10
5.32613
 20
144.828
 30
0.0
 11
5.53558
 21
144.935
 31
0.0
  0
LINE
  8
0
 62
     0
 10
5.53558
 20
144.935
 30
0.0
 11
5.70096
 21
145.101
 31
0.0
  0
LINE
  8
0
 62
     0
 10
5.70096
 20
145.101
 30
0.0
 11
5.80842
 21
145.31
 31
0.0
  0
LINE
  8
0
 62
     0
 10
5.80842
 20
145.31
 30
0.0
 11
5.84563
 21
145.54
 31
0.0
  0
LINE
  8
0
 62
     0
 10
5.84563
 20
145.54
 30
0.0
 11
5.80842
 21
145.773
 31
0.0
  0
LINE
  8
0
 62
     0
 10
5.80842
 20
145.773
 30
0.0
 11
5.70096
 21
145.981
 31
0.0
  0
LINE
  8
0
 62
     0
 10
5.70096
 20
145.981
 30
0.0
 11
5.53558
 21
146.148
 31
0.0
  0
LINE
  8
0
 62
     0
 10
5.53558
 20
146.148
 30
0.0
 11
5.32613
 21
146.254
 31
0.0
  0
LINE
  8
0
 62
     0
 10
5.32613
 20
146.254
 30
0.0
 11
5.09598
 21
146.291
 31
0.0
  0
LINE
  8
0
 62
     0
 10
5.09598
 20
146.291
 30
0.0
 11
4.86311
 21
146.254
 31
0.0
  0
LINE
  8
0
 62
     0
 10
218.189
 20
146.254
 30
0.0
 11
217.98
 21
146.148
 31
0.0
  0
LINE
  8
0
 62
     0
 10
217.98
 20
146.148
 30
0.0
 11
217.814
 21
145.981
 31
0.0
  0
LINE
  8
0
 62
     0
 10
217.814
 20
145.981
 30
0.0
 11
217.708
 21
145.773
 31
0.0
  0
LINE
  8
0
 62
     0
 10
217.708
 20
145.773
 30
0.0
 11
217.671
 21
145.54
 31
0.0
  0
LINE
  8
0
 62
     0
 10
217.671
 20
145.54
 30
0.0
 11
217.708
 21
145.31
 31
0.0
  0
LINE
  8
0
 62
     0
 10
217.708
 20
145.31
 30
0.0
 11
217.814
 21
145.101
 31
0.0
  0
LINE
  8
0
 62
     0
 10
217.814
 20
145.101
 30
0.0
 11
217.98
 21
144.935
 31
0.0
  0
LINE
  8
0
 62
     0
 10
217.98
 20
144.935
 30
0.0
 11
218.189
 21
144.828
 31
0.0
  0
LINE
  8
0
 62
     0
 10
218.189
 20
144.828
 30
0.0
 11
218.421
 21
144.791
 31
0.0
  0
LINE
  8
0
 62
     0
 10
218.421
 20
144.791
 30
0.0
 11
218.652
 21
144.828
 31
0.0
  0
LINE
  8
0
 62
     0
 10
218.652
 20
144.828
 30
0.0
 11
218.862
 21
144.935
 31
0.0
  0
LINE
  8
0
 62
     0
 10
218.862
 20
144.935
 30
0.0
 11
219.028
 21
145.101
 31
0.0
  0
LINE
  8
0
 62
     0
 10
219.028
 20
145.101
 30
0.0
 11
219.133
 21
145.31
 31
0.0
  0
LINE
  8
0
 62
     0
 10
219.133
 20
145.31
 30
0.0
 11
219.17
 21
145.54
 31
0.0
  0
LINE
  8
0
 62
     0
 10
219.17
 20
145.54
 30
0.0
 11
219.133
 21
145.773
 31
0.0
  0
LINE
  8
0
 62
     0
 10
219.133
 20
145.773
 30
0.0
 11
219.028
 21
145.981
 31
0.0
  0
LINE
  8
0
 62
     0
 10
219.028
 20
145.981
 30
0.0
 11
218.862
 21
146.148
 31
0.0
  0
LINE
  8
0
 62
     0
 10
218.862
 20
146.148
 30
0.0
 11
218.652
 21
146.254
 31
0.0
  0
LINE
  8
0
 62
     0
 10
218.652
 20
146.254
 30
0.0
 11
218.421
 21
146.291
 31
0.0
  0
LINE
  8
0
 62
     0
 10
218.421
 20
146.291
 30
0.0
 11
218.189
 21
146.254
 31
0.0
  0
ENDSEC
  0
EOF
