M48
; DRILL file {KiCad 5.1.5} date Mon 06 Apr 2020 04:13:50 PM PDT
; FORMAT={-:-/ absolute / inch / decimal}
; #@! TF.CreationDate,2020-04-06T16:13:50-07:00
; #@! TF.GenerationSoftware,Kicad,Pcbnew,5.1.5
; #@! TF.FileFunction,NonPlated,1,2,NPTH
FMAT,2
INCH
T1C0.0669
T2C0.0945
T3C0.1201
T4C0.1575
%
G90
G05
T1
X2.453Y-6.005
X2.853Y-6.005
X7.3896Y-2.2515
X7.7896Y-2.2515
X8.8896Y-3.0015
X9.2896Y-3.0015
X8.8896Y-4.5015
X9.2896Y-4.5015
X5.8896Y-5.2515
X6.2896Y-5.2515
X7.3896Y-3.7515
X7.7896Y-3.7515
X7.3896Y-5.2515
X7.7896Y-5.2515
X4.7646Y-3.0015
X5.1646Y-3.0015
X5.8896Y-3.7515
X6.2896Y-3.7515
X4.7646Y-3.7515
X5.1646Y-3.7515
X6.6396Y-4.5015
X7.0396Y-4.5015
X5.8896Y-3.0015
X6.2896Y-3.0015
X2.452Y-3.002
X2.852Y-3.002
X4.7646Y-2.2515
X5.1646Y-2.2515
X7.3896Y-3.0015
X7.7896Y-3.0015
X8.8896Y-5.2515
X9.2896Y-5.2515
X8.1396Y-4.5015
X8.5396Y-4.5015
X8.8896Y-2.2515
X9.2896Y-2.2515
X4.7646Y-5.2515
X5.1646Y-5.2515
X7.3896Y-4.5015
X7.7896Y-4.5015
X2.453Y-5.255
X2.853Y-5.255
X5.8896Y-2.2515
X6.2896Y-2.2515
X6.6396Y-3.7515
X7.0396Y-3.7515
X5.8896Y-4.5015
X6.2896Y-4.5015
X2.4522Y-2.2515
X2.8522Y-2.2515
X7.7646Y-6.0015
X8.1646Y-6.0015
X8.1396Y-3.7515
X8.5396Y-3.7515
X4.7646Y-4.5015
X5.1646Y-4.5015
X2.452Y-4.504
X2.852Y-4.504
X8.1396Y-5.2515
X8.5396Y-5.2515
X8.8896Y-3.7515
X9.2896Y-3.7515
X6.6396Y-5.2515
X7.0396Y-5.2515
X8.8896Y-6.0015
X9.2896Y-6.0015
X6.6396Y-2.2515
X7.0396Y-2.2515
X6.6396Y-3.0015
X7.0396Y-3.0015
X8.1396Y-2.2515
X8.5396Y-2.2515
X4.7646Y-6.0015
X5.1646Y-6.0015
X6.6396Y-6.0015
X7.0396Y-6.0015
X5.8896Y-6.0015
X6.2896Y-6.0015
X8.1396Y-3.0015
X8.5396Y-3.0015
X2.452Y-3.7525
X2.852Y-3.7525
T2
X6.0896Y-3.1677
X8.3397Y-3.9177
X7.5896Y-2.4227
X9.0897Y-5.4177
X7.59Y-4.67
X8.3397Y-5.4177
X6.8396Y-2.4177
X6.8396Y-3.9177
X6.8396Y-5.4177
X7.5846Y-5.4177
X3.7195Y-4.51
X4.9646Y-6.1677
X2.652Y-3.9185
X3.716Y-5.266
X6.8396Y-6.1677
X2.652Y-2.415
X4.9646Y-3.9177
X8.3397Y-2.4227
X9.0897Y-3.1677
X7.5896Y-3.1677
X2.653Y-4.67
X2.6525Y-6.169
X7.5496Y-5.9928
X8.3397Y-3.1677
X6.0896Y-2.4177
X4.9646Y-5.4177
X4.9646Y-3.1677
X9.0897Y-2.4177
X4.9646Y-4.6677
X9.0897Y-4.6677
X6.0896Y-4.6677
X2.6525Y-5.4205
X4.9646Y-2.4177
X6.8396Y-3.1677
X8.3796Y-5.9928
X6.0896Y-3.9177
X9.0897Y-3.9177
X6.8396Y-4.6677
X6.0896Y-6.1677
X8.3397Y-4.6677
X7.5896Y-3.9177
X6.0896Y-5.4177
X2.652Y-3.1675
X9.0897Y-6.1677
T3
X4.4961Y-2.7259
X5.4332Y-2.7259
X4.4961Y-3.4759
X5.4332Y-3.4759
X4.4961Y-1.9759
X5.4332Y-1.9759
X4.4961Y-4.9759
X5.4332Y-4.9759
X7.4961Y-5.7259
X8.4332Y-5.7259
X4.4961Y-4.2259
X5.4332Y-4.2259
X4.4961Y-5.7259
X5.4332Y-5.7259
T4
X2.653Y-6.005
X7.5896Y-2.2515
X9.0897Y-3.0015
X9.0897Y-4.5015
X6.0896Y-5.2515
X7.5896Y-3.7515
X7.5896Y-5.2515
X4.4961Y-3.3259
X4.9646Y-3.0015
X5.4332Y-3.3259
X6.0896Y-3.7515
X4.4961Y-4.0759
X4.9646Y-3.7515
X5.4332Y-4.0759
X6.8396Y-4.5015
X6.0896Y-3.0015
X2.652Y-3.002
X4.4961Y-2.5759
X4.9646Y-2.2515
X5.4332Y-2.5759
X7.5896Y-3.0015
X9.0897Y-5.2515
X8.3397Y-4.5015
X9.0897Y-2.2515
X4.4961Y-5.5759
X4.9646Y-5.2515
X5.4332Y-5.5759
X7.5896Y-4.5015
X2.653Y-5.255
X6.0896Y-2.2515
X6.8396Y-3.7515
X6.0896Y-4.5015
X2.6531Y-2.2522
X7.4961Y-6.3259
X7.9646Y-6.0015
X8.4332Y-6.3259
X8.3397Y-3.7515
X4.4961Y-4.8259
X4.9646Y-4.5015
X5.4332Y-4.8259
X2.652Y-4.504
X8.3397Y-5.2515
X9.0897Y-3.7515
X6.8396Y-5.2515
X9.0897Y-6.0015
X6.8396Y-2.2515
X6.8396Y-3.0015
X8.3397Y-2.2515
X4.4961Y-6.3259
X4.9646Y-6.0015
X5.4332Y-6.3259
X6.8396Y-6.0015
X6.0896Y-6.0015
X8.3397Y-3.0015
X2.652Y-3.7525
T0
M30
